<?xml version="1.0" encoding="utf-8"?>
<!-- Generator: Adobe Illustrator 26.0.1, SVG Export Plug-In . SVG Version: 6.00 Build 0)  -->
<svg version="1.1" id="Layer_1" xmlns="http://www.w3.org/2000/svg" xmlns:xlink="http://www.w3.org/1999/xlink" x="0px" y="0px"
	 viewBox="0 0 512 512" style="enable-background:new 0 0 512 512;" xml:space="preserve">
<style type="text/css">
	.st0{fill:#545454;}
</style>
<g>
	<path class="st0" d="M185.6,45.3l23.6,30.9c-48.6,34.9-84.4,69.5-107.2,103.9c-22.8,34.4-34.3,64.1-34.3,89.1
		c0,16.7,5.9,25,17.7,25l7.4-0.7c11.8-2.9,21.6-4.4,29.5-4.4c21.6,0,40.2,8,55.6,23.9c15.5,16,23.2,35.7,23.2,59.3
		c0,26-8.2,48.3-24.7,66.7c-16.5,18.4-35.5,27.6-57.1,27.6c-31.4,0-59.2-13.4-83.2-40.2C12,399.8,0,365,0,322.3
		C0,219.7,61.9,127.3,185.6,45.3z M487.7,45.3l24.3,31c-48.6,35-84.4,69.7-107.2,104.2c-22.8,34.5-34.3,64.3-34.3,89.4
		c0,16.7,5.6,25.1,16.9,25.1l7.4-0.7c12.3-2.9,22.1-4.4,29.5-4.4c22.1,0,40.9,8,56.4,23.9c15.5,15.9,23.2,35.6,23.2,59.1
		c0,25.9-8.4,48-25,66.4c-16.7,18.3-35.6,27.5-56.7,27.5c-31.9,0-59.8-13.4-83.6-40.2c-23.8-26.8-35.7-61.5-35.7-104.2
		C302.8,219.7,364.4,127.3,487.7,45.3z"/>
</g>
</svg>
