<?xml version="1.0" encoding="utf-8"?>
<!-- Generator: Adobe Illustrator 26.0.1, SVG Export Plug-In . SVG Version: 6.00 Build 0)  -->
<svg version="1.1" id="Layer_1" xmlns="http://www.w3.org/2000/svg" xmlns:xlink="http://www.w3.org/1999/xlink" x="0px" y="0px"
	 viewBox="0 0 512 512" style="enable-background:new 0 0 512 512;" xml:space="preserve">
<style type="text/css">
	.st0{fill-rule:evenodd;clip-rule:evenodd;fill:#3E3286;}
</style>
<g>
	<path class="st0" d="M232.9,411.2c17.2,0,31.2,14,31.2,31.2c0,17.2-14,31.2-31.2,31.2c-17.2,0-31.2-14-31.2-31.2
		C201.7,425.1,215.7,411.1,232.9,411.2L232.9,411.2z M368.6,411.2c17.2,0,31.2,14,31.2,31.2c0,17.2-14,31.2-31.2,31.2
		c-17.2,0-31.2-14-31.2-31.2C337.4,425.1,351.4,411.1,368.6,411.2L368.6,411.2z M25.7,99.5h44.1c8.6,0,16.1,5.7,18.4,14l61.8,222.6
		c7,25.2,29.9,42.6,56.1,42.7h188.4c26.7,0,50-18.2,56.5-44.1l39.2-156.7c2.6-10.4-3.7-20.9-14.1-23.5c-1.5-0.4-3.1-0.6-4.7-0.6
		H201.7c-10.7,0-19.4,8.7-19.4,19.4s8.7,19.4,19.4,19.4h244.9l-33.2,132.7c-2.2,8.7-9.9,14.7-18.9,14.7H206.2
		c-8.7,0-16.4-5.8-18.7-14.2v0l-61.8-222.6c-7-25.1-29.8-42.4-55.8-42.4H25.7C15,60.7,6.3,69.4,6.3,80.1S15,99.5,25.7,99.5z"/>
</g>
</svg>
