<?xml version="1.0" encoding="utf-8"?>
<!-- Generator: Adobe Illustrator 26.0.1, SVG Export Plug-In . SVG Version: 6.00 Build 0)  -->
<svg version="1.1" id="Layer_1" xmlns="http://www.w3.org/2000/svg" xmlns:xlink="http://www.w3.org/1999/xlink" x="0px" y="0px"
	 viewBox="0 0 512 512" style="enable-background:new 0 0 512 512;" xml:space="preserve">
<style type="text/css">
	.st0{fill:url(#SVGID_1_);}
</style>
<g>
	<linearGradient id="SVGID_1_" gradientUnits="userSpaceOnUse" x1="0" y1="256" x2="512" y2="256">
		<stop  offset="0" style="stop-color:#9B59D8"/>
		<stop  offset="1" style="stop-color:#5543C4"/>
	</linearGradient>
	<path class="st0" d="M256,0C114.6,0,0,114.6,0,256s114.6,256,256,256s256-114.6,256-256S397.4,0,256,0z M402,213.6L248.1,375.2
		c-8.5,8.9-20.2,13.9-32.5,14h-0.2c-12.2,0-23.9-4.9-32.4-13.7l-81.7-84.1c-17.6-17.7-17.5-46.2,0.1-63.8s46.2-17.5,63.8,0.1
		c0.3,0.3,0.6,0.6,0.8,0.8l48.9,50.4l121.5-127.6c17.2-18.1,45.8-18.8,63.8-1.6C418.5,167,419.2,195.6,402,213.6z"/>
</g>
</svg>
