<?xml version="1.0" encoding="utf-8"?>
<!-- Generator: Adobe Illustrator 26.0.1, SVG Export Plug-In . SVG Version: 6.00 Build 0)  -->
<svg version="1.1" id="Layer_1" xmlns="http://www.w3.org/2000/svg" xmlns:xlink="http://www.w3.org/1999/xlink" x="0px" y="0px"
	 viewBox="0 0 512 512" style="enable-background:new 0 0 512 512;" xml:space="preserve">
<style type="text/css">
	.st0{fill-rule:evenodd;clip-rule:evenodd;fill:#3E3286;}
</style>
<g>
	<path class="st0" d="M37.6,164.6c9.1-82.3,78.9-146.3,163.6-146.3h146.3C438.3,18.3,512,92,512,182.9v146.3
		c0,90.9-73.7,164.6-164.6,164.6H201.1c-84.7,0-154.5-64-163.6-146.3H18.3C8.2,347.4,0,339.2,0,329.1s8.2-18.3,18.3-18.3h18.3v-36.6
		H18.3C8.2,274.3,0,266.1,0,256s8.2-18.3,18.3-18.3h18.3v-36.6H18.3C8.2,201.1,0,193,0,182.9s8.2-18.3,18.3-18.3L37.6,164.6
		L37.6,164.6z M73.1,201.1h18.3c10.1,0,18.3-8.2,18.3-18.3s-8.2-18.3-18.3-18.3h-17c8.9-62,62.2-109.7,126.7-109.7h146.3
		c70.7,0,128,57.3,128,128v146.3c0,70.7-57.3,128-128,128H201.1c-64.5,0-117.8-47.7-126.7-109.7h17c10.1,0,18.3-8.2,18.3-18.3
		s-8.2-18.3-18.3-18.3H73.1v-36.6h18.3c10.1,0,18.3-8.2,18.3-18.3c0-10.1-8.2-18.3-18.3-18.3H73.1V201.1z M292.6,201.1
		c0-10.1-8.2-18.3-18.3-18.3S256,191,256,201.1s8.2,18.3,18.3,18.3S292.6,211.2,292.6,201.1z M274.3,146.3
		c30.3,0,54.9,24.6,54.9,54.8c0,16.6-7.5,32.3-20.4,42.7c30.3,11.2,53.9,36.6,64.1,67.9c4.9,15.1,0.3,29.4-8.8,39.2
		c-8.8,9.4-21.7,14.8-35.1,14.8H219.6c-13.4,0-26.3-5.4-35.1-14.8c-9.1-9.8-13.8-24.1-8.8-39.2c10.2-31.3,33.8-56.7,64.1-67.9
		c-23.6-19-27.3-53.6-8.2-77.1C242,153.8,257.7,146.3,274.3,146.3z M210.5,323.1c9.5-29.1,35-48.8,63.8-48.8s54.3,19.7,63.8,48.8
		c0.3,0.8,0.2,1.2,0.1,1.3c-0.2,0.6-0.5,1.1-1,1.5c-1.5,1.6-4.5,3.2-8.3,3.2H219.6c-3.9,0-6.9-1.6-8.3-3.2c-0.4-0.4-0.8-1-1-1.5
		C210.3,324.3,210.2,323.9,210.5,323.1L210.5,323.1z"/>
</g>
</svg>
