<?xml version="1.0" encoding="utf-8"?>
<!-- Generator: Adobe Illustrator 26.0.1, SVG Export Plug-In . SVG Version: 6.00 Build 0)  -->
<svg version="1.1" id="Layer_1" xmlns="http://www.w3.org/2000/svg" xmlns:xlink="http://www.w3.org/1999/xlink" x="0px" y="0px"
	 viewBox="0 0 512 512" style="enable-background:new 0 0 512 512;" xml:space="preserve">
<style type="text/css">
	.st0{fill:#FFFFFF;}
</style>
<path class="st0" d="M337.8,489.6c0,8.2,2.1,15.8,5.9,22.5H118.2c-28.2,0-51.1-22.9-51.1-51.1V51.8c0-28.2,22.9-51.1,51.1-51.1H391
	c28.2,0,51.1,22.9,51.1,51.1v312.1h-12.8v-34.1c0-16.3-8.5-30.5-21.3-38.7V51.8c0-9.4-7.6-17-17-17H118.2c-9.4,0-17,7.6-17,17v409.1
	c0,9.4,7.6,17,17,17h219.6V489.6z M337.8,363.9v-22.3H169.4c-9.4,0-17,7.6-17,17s7.6,17,17,17H273c8.1-7.3,18.9-11.8,30.7-11.8
	L337.8,363.9L337.8,363.9z M339.6,289.7c-9.4,0-17.1-7.6-17.1-17c0-37.6-30.5-68.1-68-68.2c-37.6,0.1-68,30.6-68,68.2
	c0,9.4-7.7,17-17.1,17c-9.4,0-17-7.7-17-17.1c0.1-43.9,28-82.8,69.6-96.9c-11.5-9.7-18.2-24-18.2-39.2c0-28.2,22.9-51.1,51.2-51.1
	c28.2,0,51.1,22.9,51.1,51.2c0,15.2-6.7,29.5-18.4,39.2c41.3,14.3,69,53.1,69,96.7C356.6,282,349,289.7,339.6,289.7z M271.1,137.5
	c0.4-9.4-6.9-17.4-16.3-17.8c-9.4,0-17,7.6-17,17s7.6,17,17,17C263.7,153.3,270.7,146.3,271.1,137.5z M257.9,409.7h-88.5
	c-9.4,0-17,7.6-17,17s7.6,17,17,17h103.8C263.8,435.4,257.9,423.2,257.9,409.7z M463.5,388.4h-21.3h-34.1h-3.2v-58.6
	c0-11.8-9.5-21.3-21.3-21.3s-21.3,9.5-21.3,21.3v58.6h-58.6c-11.8,0-21.3,9.5-21.3,21.3s9.5,21.3,21.3,21.3h52.6h6v47v11.6
	c0,11.8,9.5,21.3,21.3,21.3s21.3-9.5,21.3-21.3v-18.7V431h3.2h34.1h21.3c11.8,0,21.3-9.5,21.3-21.3
	C484.8,397.9,475.2,388.4,463.5,388.4z"/>
</svg>
