<?xml version="1.0" encoding="utf-8"?>
<!-- Generator: Adobe Illustrator 26.0.1, SVG Export Plug-In . SVG Version: 6.00 Build 0)  -->
<svg version="1.1" id="Layer_1" xmlns="http://www.w3.org/2000/svg" xmlns:xlink="http://www.w3.org/1999/xlink" x="0px" y="0px"
	 viewBox="0 0 512 512" style="enable-background:new 0 0 512 512;" xml:space="preserve">
<style type="text/css">
	.st0{fill:#3E3286;}
</style>
<g>
	<path class="st0" d="M191.6,183.9c-10.4,0-18.9,8.5-18.9,18.9v206.2c0,10.4,8.5,18.9,18.9,18.9c10.4,0,18.9-8.5,18.9-18.9V202.8
		C210.5,192.4,202.1,183.9,191.6,183.9z"/>
	<path class="st0" d="M320.4,183.9c-10.4,0-18.9,8.5-18.9,18.9v206.2c0,10.4,8.5,18.9,18.9,18.9s18.9-8.5,18.9-18.9V202.8
		C339.2,192.4,330.8,183.9,320.4,183.9z"/>
	<path class="st0" d="M452.7,115.1c-3.2-24.6-24.4-43.2-49.2-43.2h-47.9v-5.6c0.1-13.5-5.4-26.7-14.9-36.3
		c-9.6-9.6-22.3-14.8-35.9-14.8h-97.6c-13.6,0-26.3,5.3-35.9,14.8c-9.6,9.5-15,22.8-14.9,36.2v5.7h-47.9c-24.8,0-46,18.6-49.2,43.2
		c-2.9,22.5,9.9,44,30.6,52.4v263c0,17.7,6.6,34.8,18.2,47c11.6,12.3,27.9,19.3,44.8,19.4h206.4c16.9,0,33.2-7.1,44.7-19.3
		c11.6-12.2,18.2-29.3,18.2-47v-263C442.7,159.1,455.6,137.6,452.7,115.1z M359.2,459.1H152.8c-14.1,0-25.2-12.6-25.2-28.6V170.7
		h256.8v259.8C384.4,446.5,373.3,459.1,359.2,459.1z M207.2,52.9h97.6c3.5,0,6.7,1.3,9.2,3.8c2.5,2.5,3.9,5.9,3.8,9.5v5.7H194.2
		v-5.8c0-3.5,1.4-6.9,3.8-9.4C200.5,54.2,203.7,52.9,207.2,52.9z M96.9,121.3c0-6.4,5.2-11.7,11.7-11.7h294.9
		c6.4,0,11.7,5.2,11.7,11.7s-5.2,11.7-11.7,11.7H108.5C102.1,133,96.9,127.7,96.9,121.3z"/>
	<path class="st0" d="M256,183.9c-10.4,0-18.9,8.5-18.9,18.9v206.2c0,10.4,8.5,18.9,18.9,18.9c10.4,0,18.9-8.5,18.9-18.9V202.8
		C274.9,192.4,266.4,183.9,256,183.9z"/>
</g>
</svg>
