<?xml version="1.0" encoding="utf-8"?>
<!-- Generator: Adobe Illustrator 26.0.1, SVG Export Plug-In . SVG Version: 6.00 Build 0)  -->
<svg version="1.1" id="Layer_1" xmlns="http://www.w3.org/2000/svg" xmlns:xlink="http://www.w3.org/1999/xlink" x="0px" y="0px"
	 viewBox="0 0 512 512" style="enable-background:new 0 0 512 512;" xml:space="preserve">
<style type="text/css">
	.st0{fill-rule:evenodd;clip-rule:evenodd;fill:#3E3286;}
</style>
<g>
	<path class="st0" d="M497,123c-50.7,50.7-169.8,169.8-198.8,198.7c-6.2,6.2-13.6,11.1-21.8,14.4c-23.3,9.7-80.1,31.9-96.8,33.1
		c-19.1,1.3-35.6-13.1-36.8-32.2c-0.1-1.5-0.1-3.1,0-4.6c1.1-16.7,23.4-73.5,32.9-96.7c3.3-8.2,8.3-15.7,14.5-22L389,15
		c20.1-20,52.5-20,72.6,0L497,50.5C517,70.5,517,103,497,123z M178.6,333.4c16.3-2.1,64-22,84.1-30.3c3.8-1.5,7.3-3.8,10.2-6.7l0,0
		C339.2,230.2,405.4,164,471.7,97.7c6.1-6.1,6.1-15.9,0-21.9l0,0l-35.5-35.5c-6.1-6.1-15.9-6.1-21.9,0l0,0L215.5,239.1
		c-2.9,2.8-5.1,6.2-6.6,10v0.1C200.6,269.3,180.7,317,178.6,333.4L178.6,333.4z"/>
	<path class="st0" d="M449.7,145c7,7,7,18.3,0,25.3s-18.3,7-25.3,0l-82.7-82.7c-7-7-7-18.3,0-25.3s18.3-7,25.3,0l0,0L449.7,145z
		 M303.7,291c7,7,7,18.3,0,25.3s-18.3,7-25.3,0l-82.7-82.7c-7-7-7-18.3,0-25.3s18.3-7,25.3,0L303.7,291z"/>
	<path class="st0" d="M172.5,47.2c9.9,0,17.9,8,17.9,17.9s-8,17.9-17.9,17.9H89c-29.6,0-53.7,24-53.7,53.7V423
		c0,29.6,24,53.7,53.7,53.7h310.2c29.6,0,53.7-24,53.7-53.7v-83.5c0-9.9,8-17.9,17.9-17.9s17.9,8,17.9,17.9V423
		c0,49.4-40.1,89.4-89.5,89.5H89c-49.4,0-89.4-40.1-89.5-89.5V136.7c0-49.4,40.1-89.5,89.5-89.5C89,47.2,172.5,47.2,172.5,47.2z"/>
</g>
</svg>
