<?xml version="1.0" encoding="utf-8"?>
<!-- Generator: Adobe Illustrator 26.0.1, SVG Export Plug-In . SVG Version: 6.00 Build 0)  -->
<svg version="1.1" id="Layer_1" xmlns="http://www.w3.org/2000/svg" xmlns:xlink="http://www.w3.org/1999/xlink" x="0px" y="0px"
	 viewBox="0 0 512 512" style="enable-background:new 0 0 512 512;" xml:space="preserve">
<style type="text/css">
	.st0{fill:#FFFFFF;}
</style>
<path class="st0" d="M375.8,230.8c-12.9-13.5-28-24.7-44.7-33.2c7.4-0.6,12.9-7.1,12.4-14.5c-0.6-7.4-7.1-12.9-14.5-12.4
	c-4.1,0.3-7.8,2.5-10.1,5.8c3.2-9.3-1.7-19.6-11-22.8c-5.2-1.8-11-1.1-15.7,1.9l83.9-103.3c1.3-2,1.1-4.6-0.6-6.3L321.7,1.3
	c-0.8-0.7-1.8-1-2.9-1l0,0H193.2l0,0c-1,0-2.1,0.4-2.9,1l-53.8,44.9c-1.7,1.7-2,4.3-0.6,6.3l83.9,103.3c-8.3-5.4-19.4-3.1-24.8,5.2
	c-3,4.7-3.7,10.5-1.9,15.7c-4.2-6.1-12.6-7.7-18.7-3.5c-6.1,4.2-7.7,12.6-3.5,18.7c2.3,3.4,6,5.5,10.1,5.8
	c-55.8,28.3-91,85.5-91,148c0,91.5,74.5,166,166,166s166-74.5,166-166C422.1,302.9,405.5,261.7,375.8,230.8L375.8,230.8z
	 M317.1,180.3c-1.2,4.1-0.5,8.5,2.1,11.9c-3.9-1.6-7.8-3-11.8-4.3C311.5,186.6,314.9,183.9,317.1,180.3z M265.2,174.7l30.1-120.6
	h67.8L265.2,174.7z M288.9,183c-5.6-1.1-11.2-1.9-16.8-2.5l13.2-16.2C282.8,170.7,284.2,178,288.9,183L288.9,183z M256,174.7
	L225.9,54.1h60.3L256,174.7z M320,11.6l40.3,33.6h-60.4L320,11.6z M310.9,9.2l-19.5,32.5l-26-32.5C265.4,9.2,310.9,9.2,310.9,9.2z
	 M282.6,45.1h-53.1L256,11.9L282.6,45.1z M246.7,9.2l-26,32.5L201.1,9.2H246.7z M192,11.6l20.1,33.6h-60.4L192,11.6z M148.8,54.1
	h67.8l30.1,120.6L148.8,54.1z M226.7,164.3l13.2,16.2c-5.6,0.5-11.3,1.4-16.8,2.5C227.8,178,229.3,170.7,226.7,164.3L226.7,164.3z
	 M195.4,184.2c0-1.3-0.2-2.6-0.6-3.9c2.3,3.6,5.7,6.2,9.7,7.5c-4,1.3-7.9,2.7-11.8,4.3C194.5,189.9,195.4,187.1,195.4,184.2z
	 M256,475.8c-71.9,0-130.1-58.3-130.1-130.1S184.1,215.6,256,215.6s130.1,58.3,130.1,130.1C386,417.6,327.8,475.8,256,475.8z"/>
</svg>
