<?xml version="1.0" encoding="utf-8"?>
<!-- Generator: Adobe Illustrator 26.0.1, SVG Export Plug-In . SVG Version: 6.00 Build 0)  -->
<svg version="1.1" id="Layer_1" xmlns="http://www.w3.org/2000/svg" xmlns:xlink="http://www.w3.org/1999/xlink" x="0px" y="0px"
	 viewBox="0 0 393.48 454.17" style="enable-background:new 0 0 393.48 454.17;" xml:space="preserve">
<style type="text/css">
	.st0{fill:url(#SVGID_1_);}
</style>
<linearGradient id="SVGID_1_" gradientUnits="userSpaceOnUse" x1="0" y1="227.0854" x2="393.4758" y2="227.0854">
	<stop  offset="0" style="stop-color:#9457D6"/>
	<stop  offset="1" style="stop-color:#5A44C5"/>
</linearGradient>
<path class="st0" d="M293.96,67.83c-2.13,22.96-21.43,40.93-44.94,40.93c-24.93,0-45.15-20.21-45.15-45.15s20.21-45.15,45.15-45.15
	c2.53,0,5.02,0.22,7.43,0.62c5.27-4.23,11.96-6.78,19.24-6.78c17,0,30.78,13.78,30.78,30.78C306.47,53.24,301.53,62.22,293.96,67.83
	z M177.19,51.3c0-28.33-22.97-51.3-51.3-51.3c-28.33,0-51.3,22.97-51.3,51.3s22.97,51.3,51.3,51.3S177.19,79.63,177.19,51.3z
	 M23.29,328.33c11.76,23.5,77.71,140.48,197.9,124.31c9.97-1.33,19.66-4.19,28.83-8.27c22.29-9.97,51.69-23.99,70.82-48.33
	l-24.11-26.14l-0.37-0.39l-0.14-0.14c0,0-98.5,119.02-211.36-14.36c-14.36-16.42-51.3-65.67-47.2-131.33
	c0-9.4,3.45-72.27,70.41-66.88c12.74,1.03,25.14,4.58,36.73,9.97c18.02,8.37,45.23,24.91,71.39,56.9
	c26.68,32.83,125.18,149.8,125.18,149.8s37.57-31.05,50.05-112.06c3.69-23.99,2.61-48.59-4.56-71.8
	c-8.29-26.9-25.67-55.98-65.73-65.95c-12.91-3.22-26.33-3.71-39.52-2.11c-20.15,2.44-44.06,7.16-59.26,14.88h-0.02l-6.14,3.12
	l32.83,26.68c0,0,69.61-33.82,97.23,19.97c0.92,1.81,1.7,3.69,2.36,5.62c6.53,18.67,17.73,63.8-11.35,118.05
	C318.78,285.24,236.7,190.84,236.7,190.84s-81.88-97.9-174.36-63.26c-15.53,5.83-29.3,15.74-39.28,29.02
	C3.67,182.43-17.41,235.31,23.29,328.33z"/>
</svg>
