<?xml version="1.0" encoding="utf-8"?>
<!-- Generator: Adobe Illustrator 26.0.1, SVG Export Plug-In . SVG Version: 6.00 Build 0)  -->
<svg version="1.1" id="Layer_1" xmlns="http://www.w3.org/2000/svg" xmlns:xlink="http://www.w3.org/1999/xlink" x="0px" y="0px"
	 viewBox="0 0 512 512" style="enable-background:new 0 0 512 512;" xml:space="preserve">
<style type="text/css">
	.st0{fill-rule:evenodd;clip-rule:evenodd;fill:#3E3286;}
	.st1{fill:#3E3286;}
</style>
<g>
	<path class="st0" d="M76.8,384c0-14.1,11.5-25.6,25.6-25.6H256c14.1,0,25.6,11.5,25.6,25.6c0,14.1-11.5,25.6-25.6,25.6H102.4
		C88.3,409.6,76.8,398.1,76.8,384z M76.8,128c0-14.1,11.5-25.6,25.6-25.6h307.2c14.1,0,25.6,11.5,25.6,25.6s-11.5,25.6-25.6,25.6
		H102.4C88.3,153.6,76.8,142.1,76.8,128z M76.8,256c0-14.1,11.5-25.6,25.6-25.6h307.2c14.1,0,25.6,11.5,25.6,25.6
		c0,14.1-11.5,25.6-25.6,25.6H102.4C88.3,281.6,76.8,270.1,76.8,256z"/>
</g>
<rect x="84.6" y="-159.8" class="st1" width="156.7" height="99.5"/>
</svg>
