<?xml version="1.0" encoding="utf-8"?>
<!-- Generator: Adobe Illustrator 26.0.1, SVG Export Plug-In . SVG Version: 6.00 Build 0)  -->
<svg version="1.1" id="Layer_1" xmlns="http://www.w3.org/2000/svg" xmlns:xlink="http://www.w3.org/1999/xlink" x="0px" y="0px"
	 viewBox="0 0 512 512" style="enable-background:new 0 0 512 512;" xml:space="preserve">
<style type="text/css">
	.st0{fill:#3E3286;}
</style>
<g>
	<path class="st0" d="M297.3,234.2c-5.2,0-10.1-2-13.7-5.7c-30.3-30.3-79.7-30.3-110,0c-7.5,7.7-19.8,7.9-27.5,0.5
		c-7.7-7.5-7.9-19.8-0.5-27.5c0.2-0.2,0.3-0.3,0.5-0.5c45.5-45.5,119.5-45.5,165,0c7.6,7.6,7.6,19.9,0,27.5
		C307.3,232.2,302.4,234.2,297.3,234.2L297.3,234.2z M283.5,345.1c-29.9,0-59.8-11.4-82.5-34.1c-7.7-7.5-7.9-19.8-0.5-27.5
		c7.5-7.7,19.8-7.9,27.5-0.5c0.2,0.2,0.3,0.3,0.5,0.5c30.3,30.3,79.7,30.3,110,0c7.5-7.7,19.8-7.9,27.5-0.5
		c7.7,7.5,7.9,19.8,0.5,27.5c-0.2,0.2-0.3,0.3-0.5,0.5C344.1,332.9,314.4,345.2,283.5,345.1L283.5,345.1z"/>
	<path class="st0" d="M352.2,316.7c-10.7,0-19.4-8.7-19.4-19.4c0-5.2,2-10.1,5.7-13.7l108.6-108.6c7.5-7.7,19.8-7.9,27.5-0.5
		c7.7,7.5,7.9,19.8,0.5,27.5c-0.2,0.2-0.3,0.3-0.5,0.5L366,311C362.3,314.7,357.4,316.7,352.2,316.7z M188.6,480.3
		c-10.7,0-19.4-8.7-19.4-19.4c0-5.2,2-10.1,5.7-13.7l60.7-60.7c7.5-7.7,19.8-7.9,27.5-0.5c7.7,7.5,7.9,19.8,0.5,27.5
		c-0.2,0.2-0.3,0.3-0.5,0.5l-60.7,60.7C198.7,478.3,193.8,480.3,188.6,480.3L188.6,480.3z M51.1,342.8c-10.7,0-19.4-8.7-19.4-19.4
		c0-5.2,2-10.1,5.7-13.7L146,201c7.5-7.7,19.8-7.9,27.5-0.5c7.7,7.5,7.9,19.8,0.5,27.5c-0.2,0.2-0.3,0.3-0.5,0.5L64.9,337.1
		C61.1,340.9,56.1,342.8,51.1,342.8L51.1,342.8z M262.6,131.3c-10.7,0-19.4-8.7-19.4-19.4c0-5.2,2-10.1,5.7-13.7l60.7-60.7
		c7.6-7.6,19.9-7.6,27.5,0c7.6,7.6,7.6,19.9,0,27.5l-60.7,60.7C272.8,129.3,267.8,131.3,262.6,131.3z"/>
	<path class="st0" d="M119.9,508.1c-30.1,0-60.1-11.2-82.5-33.5c-44.7-44.7-44.7-120.3,0-165c7.5-7.7,19.8-7.9,27.5-0.5
		c7.7,7.5,7.9,19.8,0.5,27.5c-0.2,0.2-0.3,0.3-0.5,0.5c-29.8,29.8-29.8,80.2,0,110s80.2,29.8,110,0c7.5-7.7,19.8-7.9,27.5-0.5
		c7.7,7.5,7.9,19.8,0.5,27.5c-0.2,0.2-0.3,0.3-0.5,0.5C180,497,150,508.1,119.9,508.1L119.9,508.1z M460.9,208.1
		c-10.7,0-19.4-8.7-19.4-19.4c0-5.2,2-10.1,5.7-13.7c29.8-29.8,29.8-80.2,0-110c-29.8-29.8-80.2-29.8-110,0
		c-7.5,7.7-19.8,7.9-27.5,0.5c-7.7-7.5-7.9-19.8-0.5-27.5c0.2-0.2,0.3-0.3,0.5-0.5c44.7-44.7,120.3-44.7,165,0s44.7,120.3,0,165
		C470.8,206.2,465.8,208.1,460.9,208.1z"/>
</g>
</svg>
