<?xml version="1.0" encoding="utf-8"?>
<!-- Generator: Adobe Illustrator 26.0.1, SVG Export Plug-In . SVG Version: 6.00 Build 0)  -->
<svg version="1.1" id="Layer_1" xmlns="http://www.w3.org/2000/svg" xmlns:xlink="http://www.w3.org/1999/xlink" x="0px" y="0px"
	 viewBox="0 0 512 512" style="enable-background:new 0 0 512 512;" xml:space="preserve">
<style type="text/css">
	.st0{fill-rule:evenodd;clip-rule:evenodd;fill:#3E3286;}
	.st1{fill:#3E3286;}
</style>
<g>
	<g>
		<path class="st0" d="M256,0.6c-68.1,0-123.6,55.4-123.6,123.6c0,68.1,55.4,123.6,123.6,123.6s123.6-55.4,123.6-123.6
			S324.1,0.6,256,0.6z M256,211.5c-48.2,0-87.4-39.2-87.4-87.4s39.2-87.4,87.4-87.4s87.4,39.2,87.4,87.4S304.2,211.5,256,211.5z"/>
		<path class="st0" d="M256,0.6c-68.1,0-123.6,55.4-123.6,123.6c0,68.1,55.4,123.6,123.6,123.6s123.6-55.4,123.6-123.6
			S324.1,0.6,256,0.6z M256,211.5c-48.2,0-87.4-39.2-87.4-87.4s39.2-87.4,87.4-87.4s87.4,39.2,87.4,87.4S304.2,211.5,256,211.5z"/>
		<path class="st1" d="M256,290.6c-111.7,0-202.7,90.9-202.7,202.7c0,10,8.1,18.1,18.1,18.1s18.1-8.1,18.1-18.1
			c0-91.8,74.7-166.5,166.5-166.5c10,0,18.1-8.1,18.1-18.1C274.1,298.8,266,290.6,256,290.6z M453.4,401.4l-52.7-52.7
			c-3.4-3.2-7.8-5-12.5-5c-5,0-9.6,2-13,5.5c-6.8,7-6.8,18,0,25.1l21.8,21.8H282.4c-10,0-18.1,8.1-18.1,18.1s8.1,18.1,18.1,18.1
			h114.5l-21.8,21.8c-6.9,7.2-6.7,18.6,0.5,25.5c3.4,3.3,7.9,5.1,12.6,5.1s9.1-1.8,12.5-5l52.7-52.7
			C460.4,419.9,460.4,408.5,453.4,401.4z"/>
		<path class="st1" d="M256,290.6c-111.7,0-202.7,90.9-202.7,202.7c0,10,8.1,18.1,18.1,18.1s18.1-8.1,18.1-18.1
			c0-91.8,74.7-166.5,166.5-166.5c10,0,18.1-8.1,18.1-18.1C274.1,298.8,266,290.6,256,290.6z M453.4,401.4l-52.7-52.7
			c-3.4-3.2-7.8-5-12.5-5c-5,0-9.6,2-13,5.5c-6.8,7-6.8,18,0,25.1l21.8,21.8H282.4c-10,0-18.1,8.1-18.1,18.1s8.1,18.1,18.1,18.1
			h114.5l-21.8,21.8c-6.9,7.2-6.7,18.6,0.5,25.5c3.4,3.3,7.9,5.1,12.6,5.1s9.1-1.8,12.5-5l52.7-52.7
			C460.4,419.9,460.4,408.5,453.4,401.4z"/>
	</g>
</g>
</svg>
