<?xml version="1.0" encoding="utf-8"?>
<!-- Generator: Adobe Illustrator 26.0.1, SVG Export Plug-In . SVG Version: 6.00 Build 0)  -->
<svg version="1.1" id="Layer_1" xmlns="http://www.w3.org/2000/svg" xmlns:xlink="http://www.w3.org/1999/xlink" x="0px" y="0px"
	 viewBox="0 0 610.37 153.25" style="enable-background:new 0 0 610.37 153.25;" xml:space="preserve">
<style type="text/css">
	.st0{fill:#FFFFFF;}
	.st1{fill:#3E3286;}
	.st2{fill:#9B59D8;}
</style>
<path class="st0" d="M99.19,22.89c-0.72,7.75-7.23,13.81-15.16,13.81c-8.41,0-15.23-6.82-15.23-15.23S75.61,6.23,84.02,6.23
	c0.85,0,1.69,0.07,2.51,0.21c1.78-1.43,4.03-2.29,6.49-2.29c5.74,0,10.39,4.65,10.39,10.39C103.41,17.97,101.75,20.99,99.19,22.89z
	 M59.79,17.31C59.79,7.75,52.04,0,42.48,0S25.17,7.75,25.17,17.31s7.75,17.31,17.31,17.31S59.79,26.87,59.79,17.31z M7.86,110.79
	c3.97,7.93,26.22,47.4,66.78,41.95c3.37-0.45,6.63-1.41,9.73-2.79c7.52-3.37,17.44-8.09,23.9-16.31l-8.14-8.82l-0.12-0.13
	l-0.05-0.05c0,0-33.24,40.16-71.32-4.85c-4.85-5.54-17.31-22.16-15.93-44.32c0-3.17,1.16-24.39,23.76-22.57
	c4.3,0.35,8.48,1.54,12.39,3.37c6.08,2.83,15.26,8.41,24.09,19.2c9,11.08,42.24,50.55,42.24,50.55s12.68-10.48,16.89-37.81
	c1.25-8.09,0.88-16.4-1.54-24.23c-2.8-9.08-8.66-18.89-22.18-22.25c-4.36-1.09-8.88-1.25-13.34-0.71c-6.8,0.82-14.87,2.42-20,5.02
	h-0.01l-2.07,1.05l11.08,9c0,0,23.49-11.41,32.81,6.74c0.31,0.61,0.57,1.25,0.8,1.9c2.2,6.3,5.98,21.53-3.83,39.84
	c-6.23-8.31-33.93-40.16-33.93-40.16S52.24,31.36,21.03,43.05c-5.24,1.97-9.89,5.31-13.25,9.79C1.24,61.56-5.87,79.4,7.86,110.79z
	 M393.99,117.61c-2.77,0.19-4.96,1.08-6.54,2.67c-1.79,1.78-2.68,3.97-2.68,6.54c0,0.39,0.03,0.8,0.08,1.19
	c0.05,0.39,0.12,0.84,0.22,1.33l0.29,1.05c1.09,1.78,2.28,3.19,3.57,4.23s2.97,1.56,5.05,1.56c2.28,0,4.26-0.77,5.94-2.3
	c1.69-1.53,2.73-3.44,3.12-5.72l0.15-1.34c-0.19-2.48-1.09-4.58-2.67-6.32C398.93,118.78,396.76,117.81,393.99,117.61z
	 M218.39,53.75L218.39,53.75z M234.82,40.14c-0.42-3.45-1.47-6.69-3.14-9.73c-1.68-3.03-3.85-5.73-6.48-8.06
	c-2.64-2.36-5.39-4.17-8.21-5.47c-2.62-1.19-5.26-2.01-7.93-2.41c-2.67-0.39-5.16-0.38-7.51,0.08c-1.14,0.24-2.22,0.58-3.24,1.02
	c0,0-0.07,0.03-0.2,0.08c-0.13,0.06-0.34,0.14-0.56,0.27c-0.11,0.06-0.21,0.11-0.31,0.17c-0.11,0.04-0.24,0.13-0.36,0.18
	c-0.08,0.06-0.2,0.11-0.28,0.17c-0.31,0.2-0.65,0.41-0.98,0.63c-0.1,0.06-0.21,0.14-0.31,0.21c0,0.01-0.01,0.01-0.01,0.03
	c-0.01,0-0.03,0-0.03,0v0.01c-0.24,0.18-0.48,0.35-0.73,0.56c-0.55,0.45-1.11,0.97-1.67,1.57c-0.01,0.03-0.03,0.06-0.06,0.07
	c-0.15,0.2-0.31,0.39-0.48,0.59c-0.13,0.17-0.25,0.35-0.38,0.51c-1.31,1.82-2.25,4.17-2.06,7.1c-0.01,0.01-0.01,0.01-0.01,0.03
	s0.01,0.03,0.01,0.04c0.03,0.45,0.1,0.9,0.17,1.35c0.32,1.82,0.88,3.48,1.74,5.02c0.86,1.54,1.95,2.85,3.33,3.94
	s2.98,1.78,4.84,2.06c3.09,0.48,5.78-0.22,8.1-2.06c2.32-1.85,3.69-4.2,4.13-7.03l0.07-0.46c0.03-0.13,0.03-0.25,0.03-0.36
	c-0.1-5.98-2.57-9.32-7.38-10.06c-3.79-0.58-6.61,0.76-8.46,3.99c-0.29-1.87,0.34-3.14,1.33-4.06c1.92-1.73,5.21-2.03,5.99-2.08
	c0.04,0,0.11-0.01,0.17-0.01c0.56-0.04,1.14-0.04,1.74-0.03c1.82,0.07,3.71,0.56,5.66,1.45c2.99,1.36,5.4,3.05,7.26,5.02
	c1.85,1.98,3.2,4.13,4.06,6.4c0.86,2.3,1.21,4.65,1.12,7.03c-0.11,2.41-0.66,4.69-1.67,6.85c-0.91,2.02-2.05,3.96-3.42,5.82
	c-0.8,1.07-1.68,2.12-2.64,3.16h-66.87c0.06,0.79,0.41,1.49,1.02,2.11c0.1,0.1,0.2,0.2,0.31,0.29h0.01
	c0.07,0.07,0.14,0.13,0.21,0.17c0.03,0.01,0.04,0.03,0.07,0.04c0.17,0.11,0.32,0.2,0.51,0.28c0,0,0,0,0.01,0
	c0.74,0.34,1.47,0.41,1.47,0.41h1.74c1.22,0,2.2,0.98,2.2,2.2v38.65c0.01,0.28,0.01,0.55,0.04,0.8c0,0.08,0,0.15,0.01,0.24
	c0.01,0.08,0.01,0.17,0.03,0.25c0.18,1.25,0.62,2.33,1.33,3.24c0.15,0.18,0.34,0.36,0.55,0.49c1.84,1.07,4.31-0.35,4.31-0.35
	l14.58-8.25h0.01l10.16-6.26l0.17-0.11l7.47-4.74c-0.13,0.36-2.08,5.35-3.17,8.98v0.01c-0.1,0.32-0.18,0.66-0.27,0.98
	c-0.06,0.18-0.1,0.35-0.14,0.52c-0.36,1.39-0.69,2.75-0.98,4.07c-0.14,0.65-0.58,1.19-1.18,1.49l-32.48,15.73
	c-1.8,0.88-2.88,1.82-3.27,2.81c-0.41,1-0.59,1.84-0.59,2.54c0,2.47,0.56,4.52,1.7,6.16c1.14,1.63,2.55,2.46,4.24,2.46
	c2.68,0,5.67,0.36,8.98,1.11c3.33,0.74,6.67,1.67,10.03,2.75c3.37,1.09,6.64,2.33,9.81,3.72c1.78,0.77,3.45,1.54,5,2.3
	c0,0,0.13,0.07,0.34,0.17c0.1,0.04,0.2,0.08,0.32,0.14c0.2,0.08,0.42,0.2,0.66,0.29c0.06,0.03,0.11,0.06,0.17,0.07
	c0,0,0.01,0,0.04,0.01c0.56,0.21,7.87,2.79,6.65-2.6c-0.84-3.9-1.54-10.16-1.94-14.24c0-0.06-0.01-0.11-0.01-0.17
	c-0.15-1.07-0.25-2.15-0.31-3.23c0-0.07,0-0.14-0.01-0.21c-1.16-20.6,10.69-41.27,10.69-41.27c0.72-1.28,0.42-2.41,0.42-2.41
	c-0.18-1.7-4.46-8.42-5.91-10.37c-0.27-0.36-0.63-0.66-1.07-0.79c-1.73-0.49-3.75,1.05-3.75,1.05l-10.46,6.32h-0.01l-20.11,12.88
	V59.24c0-1.22,0.98-2.2,2.2-2.2h41.44c1.22,0,2.2,0.98,2.2,2.2v78.98c0,1.22,0.98,2.2,2.2,2.2h5.94c1.22,0,2.2-0.98,2.2-2.2v-77.2
	c1.04-1.01,2.2-2.2,3.35-3.51c0.01,0,0.01,0,0.01,0c0.13-0.15,0.27-0.31,0.39-0.46c0.18-0.21,0.36-0.42,0.53-0.65
	c0.11-0.13,0.24-0.27,0.35-0.41c0.06-0.07,0.1-0.14,0.17-0.21c0.52-0.67,1.01-1.35,1.46-2.03c0.22-0.32,0.42-0.63,0.62-0.95
	c0.03-0.06,0.07-0.13,0.1-0.18c0.08-0.11,0.14-0.22,0.21-0.35c0.01-0.03,0.03-0.06,0.06-0.1c0.27-0.55,0.52-1.04,0.72-1.47
	C234.6,47.1,235.23,43.59,234.82,40.14z M186.53,126.54c-0.32-0.21-0.66-0.42-0.98-0.63c-1.98-1.24-3.76-2.29-5.36-3.12
	c-1.57-0.86-2.92-1.52-4-2.02c-1.09-0.49-1.78-0.79-2.08-0.88c1.96-0.69,4.2-1.53,6.68-2.53c1.64-0.66,3.41-1.39,5.3-2.22
	c1.42-0.63,3.02,0.38,3.07,1.94c0.11,2.69,0.35,5.11,0.73,7.27C190.22,126.23,188.13,127.57,186.53,126.54z M234.87,53.75
	c-1.02,1.57-1.67,2.71-2.01,3.3h48.8V89.3c-8.52-7.93-16.84-11.89-24.95-11.89c-4.07,0-7.86,0.74-11.38,2.23
	c-3.51,1.47-6.53,3.48-9.05,6.01c-0.6,0.6-1.19,1.25-1.73,1.92c-0.42,0.49-0.8,1.01-1.18,1.54c-0.14,0.2-0.29,0.44-0.45,0.69
	c-1.07,1.74-2.43,4.46-3.24,8.1c-0.01,0.08-0.04,0.17-0.06,0.27c-0.27,1.4-0.52,3.07-0.63,4.88v0.01c-0.2,3.34,0.04,7.19,1.38,10.83
	c0,0.01,0.01,0.03,0.01,0.04c0.44,1.05,0.95,2.15,1.56,3.24c1.54,2.83,3.68,5.63,6.51,7.4c0.01,0,0.01,0.01,0.03,0.01
	c0.35,0.22,0.7,0.42,1.08,0.6c0.04,0.03,0.08,0.04,0.13,0.07c0.28,0.14,0.58,0.27,0.87,0.38c0.08,0.03,0.15,0.07,0.22,0.1
	c0.18,0.07,0.38,0.11,0.56,0.17c0.1,0.03,0.18,0.06,0.28,0.08c0.22,0.07,0.45,0.13,0.69,0.17c0.07,0.03,0.15,0.04,0.22,0.07
	c0.01-0.01,0.01-0.01,0.03-0.03c1.11,0.2,2.26,0.22,3.47,0.03c3.09-0.49,5.43-1.98,7.09-4.43c1.04-1.56,1.66-3.19,1.85-4.88
	c0.04-0.41,0.07-0.83,0.07-1.25c0-0.14,0-0.28-0.01-0.42c-0.11-1.54-0.59-2.99-0.84-3.66c-0.08-0.21-0.14-0.35-0.17-0.39
	c0-0.01,0-0.01,0-0.01c-2.01-4.34-5.12-6.16-9.36-5.49c-3.79,0.62-6.08,2.74-6.85,6.39c0,0-0.36-2.37,0.34-5.57
	c0.1-0.52,0.25-1.01,0.39-1.52c0.08-0.24,0.17-0.49,0.25-0.73c0.11-0.31,0.22-0.62,0.35-0.91s0.28-0.6,0.42-0.91
	c0.13-0.25,0.25-0.51,0.39-0.74c0.08-0.15,0.17-0.32,0.27-0.48c0.86-1.43,1.88-2.71,3.12-3.82c1.67-1.53,3.63-2.72,5.87-3.56
	c2.23-0.84,4.58-1.26,7.06-1.26c4.25,0,8.43,1.36,12.55,4.08c4.11,2.72,8.39,7.2,12.86,13.44v28.76c0,0.88,0.72,1.59,1.59,1.59h8.17
	c0.87,0,1.59-0.7,1.59-1.59v-85.1h-58.16V53.75z M362.99,53.75h-66.06V97.9c0.01,0.28,0.01,0.55,0.04,0.8c0,0.08,0,0.15,0.01,0.24
	c0.01,0.08,0.01,0.17,0.03,0.25c0.18,1.23,0.62,2.32,1.32,3.23c0.15,0.2,0.35,0.38,0.56,0.51c1.84,1.07,4.31-0.35,4.31-0.35
	l14.58-8.25h0.01l10.16-6.26l0.17-0.11l7.47-4.74c0,0-0.01,0.04-0.04,0.14c-0.48,1.71-5.39,19.77-5.78,34.88
	c0,1.14,0.03,2.27,0.08,3.42c0,0.08,0.01,0.24,0.03,0.44c0,0.08,0.01,0.18,0.01,0.29c0,0.28,0.03,0.56,0.04,0.84v0.06
	c0.01,0.18,0.04,0.36,0.08,0.55c0.01,0.06,0.01,0.11,0.03,0.18c0.03,0.28,0.06,0.58,0.08,0.88c0.36,3.2,1.07,8.1,2.36,11.66
	c0.08,0.2,0.15,0.41,0.24,0.6c0.24,0.58,0.49,1.12,0.76,1.6c0,0,0,0,0.01,0.01c0.04,0.06,0.17,0.17,0.35,0.34
	c0.66,0.59,2.12,1.66,3.68,1.23c0.44-0.1,0.88-0.34,1.32-0.73c0.29-0.27,0.45-0.65,0.39-1.02c-1.8-15.17-0.29-27.55,1.18-34.95
	c0.51-2.48,1.11-4.88,1.77-7.14c0.07-0.2,0.1-0.29,0.1-0.29c3.17-10.69,7.59-18.4,7.59-18.4c0.72-1.28,0.42-2.41,0.42-2.41
	c-0.18-1.7-4.46-8.42-5.91-10.37c-0.27-0.36-0.62-0.66-1.05-0.79c-1.73-0.49-3.76,1.05-3.76,1.05l-10.46,6.32h-0.01L309,84.49V59.25
	c0-1.22,0.98-2.2,2.2-2.2h41.44c1.22,0,2.2,0.98,2.2,2.2v78.98c0,1.22,0.98,2.2,2.2,2.2h5.94c1.22,0,2.2-0.98,2.2-2.2V55.96
	C365.2,54.74,364.22,53.75,362.99,53.75z M503.22,54.03c-0.31-0.18-0.67-0.28-1.05-0.28h-69.74v3.3h4.84
	c0.1,0.1,0.15,0.25,0.15,0.45l0.29,1.35c0.88,3.96,2.32,6.96,4.29,8.98c1.98,2.03,4.17,3.66,6.6,4.9c2.43,1.25,4.97,2.32,7.63,3.2
	c2.68,0.88,5.12,2.13,7.35,3.72c2.22,1.57,4.11,3.78,5.7,6.61c1.59,2.82,2.53,6.75,2.82,11.82c0,3.27-0.51,6.23-1.49,8.91
	c-0.38,1.01-0.83,1.96-1.31,2.88c-4.72,8.01-14.51,8.34-14.51,8.34c-0.56,0.06-1.14,0.06-1.71,0.04c-0.18,0-0.36-0.01-0.55-0.03
	c-0.27-0.01-0.55-0.04-0.83-0.07c-0.34-0.04-0.69-0.08-1-0.14c-0.32-0.04-0.65-0.11-0.95-0.18c-0.25-0.06-0.51-0.13-0.76-0.18
	c-0.51-0.15-1-0.28-1.49-0.48c-2.88-1.05-4.66-2.51-4.87-2.69c3.49,1.29,6.5,0.49,9.05-2.37c2.83-3.21,2.96-6.82,0.38-10.85
	c0,0,0,0-0.01,0c-0.01-0.04-0.1-0.17-0.24-0.35c-0.44-0.58-1.39-1.75-2.64-2.68c-0.11-0.08-0.22-0.15-0.35-0.24
	c-0.35-0.22-0.73-0.42-1.09-0.6c-1.53-0.74-3.24-1.09-5.11-1.05c-2.96,0.07-5.47,1.25-7.55,3.59c-0.81,0.91-1.4,1.91-1.82,2.95
	c-0.03,0-0.03,0-0.04,0.01c-0.01,0.07-0.06,0.14-0.07,0.22c-0.08,0.22-0.15,0.44-0.22,0.67c-0.03,0.08-0.04,0.18-0.07,0.28
	c-0.06,0.18-0.13,0.36-0.17,0.56c-0.01,0.07-0.01,0.15-0.03,0.24c-0.07,0.31-0.11,0.63-0.15,0.94v0.14
	c-0.06,0.42-0.07,0.83-0.07,1.24c-0.01,0.01-0.01,0.01-0.01,0.01v0.01c-0.03,3.35,1.19,6.65,2.75,9.47c0.6,1.09,1.25,2.12,1.91,3.05
	c0.01,0.01,0.01,0.03,0.03,0.04c0.87,1.14,1.85,2.16,2.88,3.07c0.32,0.29,0.65,0.58,0.98,0.84c8.83,7.1,19.77,4.42,20.39,4.27
	c0.01-0.01,0.03-0.01,0.03-0.01c7.82-2.36,11.66-6.26,11.66-6.26v-0.03c1.85-1.61,3.55-3.56,5.07-5.89
	c1.88-2.86,3.33-6.33,4.31-10.4c0.98,0,1.84,0.06,2.53,0.15c0.69,0.1,1.43,0.32,2.23,0.67c0.79,0.34,1.71,0.81,2.75,1.4
	c1.04,0.59,2.4,1.39,4.08,2.37v28.29c0,1.22,0.98,2.2,2.2,2.2h5.94c1.22,0,2.2-0.98,2.2-2.2V55.95
	C504.37,55.11,503.9,54.39,503.22,54.03z M494.02,93.77c-1.87-1.68-3.07-2.76-5.05-4.11c-1.98-1.33-3.62-2.22-5.61-2.92
	c-0.69-3.96-2.06-7.26-3.44-9.64c-1.4-2.36-2.98-4.24-4.76-5.64c-1.8-1.39-3.68-2.47-5.66-3.27c-1.98-0.79-3.86-1.6-5.64-2.44
	c-1.78-0.84-3.42-1.91-4.91-3.2s-2.62-3.12-3.41-5.5h38.48V93.77z M575.75,82.01c-3.56,0-7.92,2.13-13.07,6.4v-1.05
	c-0.8-5.74-2.2-10.5-4.24-14.26c-2.02-3.76-4.41-6.76-7.13-9c-2.72-2.23-5.6-3.8-8.62-4.76c-3.03-0.93-5.92-1.4-8.7-1.4
	c-0.13,0-0.24,0.01-0.36,0.01l-0.03-0.01c0,0-5.23-0.28-11.89,2.39l-0.03,0.01c-0.04,0.01-0.15,0.07-0.32,0.14
	c-0.06,0.03-0.13,0.06-0.2,0.08c-1.6,0.76-6.32,3.26-9.32,7.75c-0.07,0.13-0.15,0.24-0.22,0.36c-0.36,0.59-0.7,1.21-1.01,1.85
	c-0.06,0.11-0.11,0.24-0.15,0.35l-0.01,0.01c-0.08,0.2-0.18,0.39-0.27,0.6c0,0.03,0,0.04-0.01,0.06c-0.39,1.07-0.76,2.22-1.05,3.42
	c-0.79,3.13-1.12,6.64-0.22,9.87c0.01,0,0,0.01,0.01,0.03c0.11,0.39,0.22,0.79,0.38,1.18l0.04,0.13c0.13,0.29,0.24,0.59,0.39,0.87
	c0.03,0.08,0.06,0.15,0.08,0.22c0.1,0.18,0.21,0.34,0.31,0.51c0.06,0.08,0.1,0.17,0.14,0.25c0.13,0.21,0.25,0.39,0.39,0.59
	c0.03,0.07,0.1,0.14,0.13,0.2c0.01,0.01,0.01,0.01,0.04,0c0.67,0.9,1.5,1.71,2.53,2.39c2.6,1.73,5.33,2.22,8.21,1.53
	c1.82-0.44,3.38-1.22,4.67-2.33c0.31-0.27,0.62-0.56,0.9-0.87c0.1-0.11,0.2-0.21,0.28-0.31c0.97-1.22,1.59-2.61,1.87-3.27
	c0.08-0.21,0.13-0.36,0.14-0.41c0.44-1.33,0.65-2.57,0.65-3.7c0-2.78-1.26-5-3.79-6.68c-3.21-2.12-6.32-2.12-9.36,0.03
	c0.15-0.22,1.5-2.09,4.01-3.86c0.42-0.31,0.87-0.56,1.32-0.84c0,0,8.29-4.41,14.72-1.49c2.53,1.28,4.66,2.96,6.41,5.07
	c1.78,2.13,3.14,4.51,4.07,7.13c0.95,2.62,1.42,5.28,1.42,7.94c0,2.58-0.52,4.98-1.56,7.2c-1.04,2.23-2.46,4.14-4.24,5.74
	c-1.78,1.57-3.85,2.81-6.16,3.71c-2.33,0.88-4.73,1.33-7.21,1.33c-3.66,0-7.78-0.53-12.32-1.63c-0.8-0.39-1.88-0.6-3.27-0.6
	c-0.56,0-1.08,0.08-1.57,0.25h-0.01c-3.76,1.97-3.86,4.38-3.51,6.47c0.22,1.31,1.22,2.69,2.35,3.41c4.31,2.72,17.82,9.33,35.89-0.66
	c0,0-2.08,14.4,7.38,24.46c0,0,0.07,0.07,0.18,0.2c0,0,0.01,0.01,0.04,0.04l0.01,0.01c0.24,0.21,1.25,1.04,2.29,1.24
	c0,0,1.22,0.31,2.32-0.07c0.05-0.01,0.12-0.04,0.21-0.07c0.02-0.01,0.03-0.01,0.05-0.02c0.13-0.06,0.28-0.14,0.42-0.26
	c0.01-0.01,0.02-0.01,0.04-0.02c0,0,0,0-0.01,0c0.23-0.2,0.39-0.5,0.27-0.93c-0.15-0.56-0.51-1.32-1.09-2.32
	c-0.22-0.38-0.45-0.79-0.66-1.19c0,0-0.01-0.03-0.06-0.08c-0.04-0.08-0.07-0.15-0.13-0.24c-0.11-0.24-0.29-0.62-0.49-1.12
	c-0.01-0.01-0.03-0.03-0.03-0.04c-0.7-1.67-1.14-3.55-1.32-5.63c0-0.07,0-0.13-0.01-0.18c-0.7-7.92,2.3-21.19,24.21-34.36
	l-2.15-10.86C577.94,82.3,576.94,82.01,575.75,82.01z M417.15,53.73L417.15,53.73l-47.06,0.01h-0.83h-0.12v3h0.12l0,0h47.88
	l-44.33,30.33c-0.97,0.66-1.75,1.54-2.26,2.61c-0.49,1.04-1.04,2.47-1.29,4.13c-0.29,2.02-0.13,4.38,1.15,6.72
	c0.9,1.64,2.47,2.81,4.28,3.26c1.45,0.35,3.52,0.91,6.06,1.73c0,0,4.27,1.52,9.99,4.41c5.74,2.88,12.93,7.14,18.79,12.64
	c5.94,6.13,13.15,13.91,13.98,16.28c0,0,1.85,2.75,4.73,0.81c0.15-0.24,0.24-0.52,0.24-0.83v-85.1
	C428.48,53.73,417.15,53.73,417.15,53.73z M415.38,112.24c-1.47-1.31-9.6-7.44-19.52-12.31c-1.91-0.86-3.75-1.67-5.38-2.4
	c-0.1-0.04-0.18-0.08-0.28-0.13h-0.01c-3.68-1.64-6.3-2.79-6.57-2.92l16.18-11.3c3.37-2.27,6.48-4.45,9.36-6.53
	c2.09-1.5,4.03-2.91,5.89-4.27c0,0,0.74-0.39,1.36-0.39c0.32,0,0.59,0.1,0.73,0.39v36.48C417.15,108.87,417.67,113.52,415.38,112.24
	z M610.25,40.13c-0.42-3.45-1.47-6.69-3.14-9.73c-1.68-3.03-3.85-5.73-6.48-8.06c-2.64-2.36-5.39-4.17-8.21-5.47
	c-2.62-1.19-5.26-2.01-7.93-2.41c-2.67-0.39-5.16-0.38-7.51,0.08c-1.14,0.24-2.22,0.58-3.24,1.02c0,0-0.07,0.03-0.2,0.08
	c-0.13,0.06-0.34,0.14-0.56,0.27c-0.11,0.06-0.21,0.11-0.31,0.17c-0.11,0.04-0.24,0.13-0.36,0.18c-0.08,0.06-0.2,0.11-0.28,0.17
	c-0.31,0.2-0.65,0.41-0.98,0.63c-0.1,0.06-0.21,0.14-0.31,0.21c0,0.01-0.01,0.01-0.01,0.03c-0.01,0-0.03,0-0.03,0v0.01
	c-0.24,0.18-0.48,0.35-0.73,0.56c-0.55,0.45-1.11,0.97-1.67,1.57c-0.01,0.03-0.03,0.06-0.06,0.07c-0.15,0.21-0.31,0.41-0.46,0.6
	c-0.14,0.17-0.27,0.35-0.39,0.49c-1.31,1.82-2.25,4.17-2.06,7.1c-0.01,0.01-0.01,0.01-0.01,0.03s0.01,0.03,0.01,0.04
	c0.03,0.45,0.1,0.9,0.17,1.35c0.32,1.82,0.88,3.48,1.74,5.02s1.95,2.85,3.33,3.94s2.98,1.78,4.84,2.06c3.09,0.48,5.78-0.22,8.1-2.06
	c2.32-1.85,3.69-4.2,4.13-7.03l0.07-0.46c0.03-0.13,0.03-0.25,0.03-0.36c-0.1-5.98-2.57-9.32-7.38-10.06
	c-3.79-0.58-6.61,0.76-8.46,3.99c-0.29-1.85,0.35-3.13,1.35-4.04c1.91-1.74,5.19-2.03,5.98-2.09c0.04,0,0.11-0.01,0.17-0.01
	c0.56-0.04,1.14-0.04,1.74-0.03c1.82,0.07,3.71,0.56,5.66,1.45c2.99,1.36,5.4,3.05,7.26,5.02c1.85,1.98,3.2,4.13,4.06,6.4
	c0.86,2.3,1.21,4.65,1.12,7.03c-0.11,2.41-0.66,4.69-1.67,6.85c-0.91,2.02-2.05,3.96-3.42,5.82c-0.8,1.08-1.68,2.13-2.64,3.17H588
	l0,0h-79.21h-0.38h-0.02v3.3h0.02l0,0h40.95c1.29,4.17,3.72,7.41,7.28,9.74c3.56,2.33,7.33,3.49,11.28,3.49
	c8.13,0,13.52-4.41,16.2-13.23h0.45c0.09,0,0.17-0.02,0.26-0.02v0.02h3.1c1.22,0,2.2,0.98,2.2,2.2v78.98c0,1.22,0.98,2.2,2.2,2.2
	h5.94c1.22,0,2.2-0.98,2.2-2.2v-77.2c1.02-1.01,2.19-2.2,3.34-3.52c0.01,0,0.01,0,0.01,0c0.31-0.36,0.63-0.72,0.93-1.11
	c0.11-0.13,0.24-0.27,0.35-0.41c0.06-0.07,0.1-0.14,0.17-0.21c0.52-0.67,1.01-1.35,1.46-2.03c0.22-0.32,0.42-0.63,0.62-0.95
	c0.03-0.06,0.07-0.13,0.1-0.18c0.08-0.11,0.14-0.22,0.21-0.35c0.01-0.03,0.03-0.06,0.06-0.1c0.27-0.55,0.52-1.04,0.72-1.47
	C610.02,47.09,610.65,43.59,610.25,40.13z M567.87,63.15h-2.37c-2.68,0-4.7-2.03-6.09-6.1h14.55
	C573.47,61.11,571.44,63.15,567.87,63.15z"/>
<rect x="-319.8" y="-354.17" class="st1" width="52.14" height="52.14"/>
<rect x="-238.59" y="-354.17" class="st2" width="52.14" height="52.14"/>
</svg>
