<?xml version="1.0" encoding="utf-8"?>
<!-- Generator: Adobe Illustrator 26.0.1, SVG Export Plug-In . SVG Version: 6.00 Build 0)  -->
<svg version="1.1" id="Layer_1" xmlns="http://www.w3.org/2000/svg" xmlns:xlink="http://www.w3.org/1999/xlink" x="0px" y="0px"
	 viewBox="0 0 512 512" style="enable-background:new 0 0 512 512;" xml:space="preserve">
<style type="text/css">
	.st0{fill:#FFFFFF;}
</style>
<g>
	<path class="st0" d="M374,39.2c-42.6,0-79.9,19-108,54.9c-3.6,4.6-6.9,9.3-10,14.2c-3.1-4.9-6.5-9.6-10-14.2
		c-28-35.9-65.4-54.9-108-54.9C57.5,39.2,0,106.6,0,187.4C0,279.9,75.8,367,245.6,469.9c3.2,1.9,6.8,2.9,10.4,2.9
		c3.6,0,7.2-1,10.4-2.9C436.2,367,512,279.9,512,187.4C512,106.6,454.5,39.2,374,39.2z M419.2,302.5c-35.4,39.5-88.8,81-163.2,126.8
		C181.7,383.5,128.2,342,92.8,302.5C57.3,262.8,40,225.2,40,187.4c0-58.2,39.3-108.2,98-108.2c29.9,0,55.4,13,75.7,38.6
		c16.3,20.5,23.1,41.6,23.2,41.8c3.3,10.5,14.5,16.4,25,13.1c6.3-2,11.2-6.9,13.1-13.1c0.1-0.2,6.7-20.7,22.5-40.9
		C318,92.5,343.8,79.2,374,79.2c58.7,0,98,50,98,108.2C472,225.2,454.7,262.8,419.2,302.5z"/>
</g>
</svg>
