<?xml version="1.0" encoding="utf-8"?>
<!-- Generator: Adobe Illustrator 26.0.1, SVG Export Plug-In . SVG Version: 6.00 Build 0)  -->
<svg version="1.1" id="Layer_1" xmlns="http://www.w3.org/2000/svg" xmlns:xlink="http://www.w3.org/1999/xlink" x="0px" y="0px"
	 viewBox="0 0 512 512" style="enable-background:new 0 0 512 512;" xml:space="preserve">
<style type="text/css">
	.st0{fill:#3E3286;}
</style>
<g>
	<path class="st0" d="M128,360.3h85.3c10.5,0,19-8.5,19-19s-8.5-19-19-19H128c-10.5,0-19,8.5-19,19S117.5,360.3,128,360.3z"/>
	<path class="st0" d="M128,168.3h170.7c10.5,0,19-8.5,19-19s-8.5-19-19-19H128c-10.5,0-19,8.5-19,19S117.5,168.3,128,168.3z"/>
	<path class="st0" d="M479.1,312.9l-0.1-0.1c-0.3-0.3-0.6-0.6-0.8-0.8c-12.6-12.4-29.3-19.2-47-19.2c-9.9,0-19.4,2.1-28.2,6.2V64
		c-0.1-22.1-18.2-40.2-40.3-40.3H64C41.9,23.8,23.8,41.9,23.7,64v384c0.1,22.1,18.2,40.2,40.3,40.3h295.3c9.2,6.1,17.7,10,24.7,10
		c28.6,0,84.2-66.9,95.1-80.4c12.6-14.6,19.5-33.2,19.5-52.5C498.7,346.2,491.7,327.5,479.1,312.9z M384,459.2
		c-25.8-19.5-48.9-42.3-68.9-67.6c-12-15.3-12-36.7-0.1-52.1c5.5-5.5,13-8.6,20.7-8.6c7.6,0.2,14.7,3.3,20.1,8.7l13.9,13.6
		c3.6,3.6,8.4,5.6,13.4,5.6c0.1,0,0.2,0,0.3,0c0.2,0,0.4,0,0.6,0c6.9,0,12.9-3.7,16.2-9.2l10.4-10.3c5.5-5.5,12.9-8.5,20.7-8.5
		c7.9,0,15.2,3.1,20.8,8.6c12.3,15.7,12.3,37.5-0.1,53.1C432.3,417.6,409.4,440,384,459.2z M61.7,64c0-1.3,1-2.3,2.3-2.3h298.7
		c1.3,0,2.3,1,2.3,2.3v236c-9.3-4.7-19.6-7.2-30.3-7.2c-18.1,0-35.1,7.1-47.8,20l-0.1,0.1l-0.1,0.1c-12.4,14.5-19.2,32.9-19.2,52
		c0,19,6.8,37.5,19.1,51.9c4.4,5.3,15.7,18.9,29.7,33.5H64c-1.3,0-2.3-1-2.3-2.3V64z"/>
	<path class="st0" d="M128,264.3h170.7c10.5,0,19-8.5,19-19s-8.5-19-19-19H128c-10.5,0-19,8.5-19,19S117.5,264.3,128,264.3z"/>
</g>
</svg>
