<?xml version="1.0" encoding="utf-8"?>
<!-- Generator: Adobe Illustrator 26.0.1, SVG Export Plug-In . SVG Version: 6.00 Build 0)  -->
<svg version="1.1" id="Layer_1" xmlns="http://www.w3.org/2000/svg" xmlns:xlink="http://www.w3.org/1999/xlink" x="0px" y="0px"
	 viewBox="0 0 512 512" style="enable-background:new 0 0 512 512;" xml:space="preserve">
<style type="text/css">
	.st0{fill:#FFFFFF;}
</style>
<path class="st0" d="M374,39.2c-42.6,0-79.9,19-108,54.9c-3.6,4.6-6.9,9.3-10,14.2c-3.1-4.9-6.5-9.6-10-14.2
	c-28-35.9-65.4-54.9-108-54.9C57.5,39.2,0,106.6,0,187.4C0,279.9,75.8,367,245.6,469.9c3.2,1.9,6.8,2.9,10.4,2.9s7.2-1,10.4-2.9
	C436.2,367,512,279.9,512,187.4C512,106.6,454.5,39.2,374,39.2z"/>
</svg>
