<?xml version="1.0" encoding="utf-8"?>
<!-- Generator: Adobe Illustrator 26.0.1, SVG Export Plug-In . SVG Version: 6.00 Build 0)  -->
<svg version="1.1" id="Layer_1" xmlns="http://www.w3.org/2000/svg" xmlns:xlink="http://www.w3.org/1999/xlink" x="0px" y="0px"
	 viewBox="0 0 512 265" style="enable-background:new 0 0 512 265;" xml:space="preserve">
<style type="text/css">
	.st0{fill:#342D77;}
	.st1{fill:#3E3286;}
	.st2{fill:#FFFFFF;}
	.st3{opacity:0.1;}
</style>
<g>
	<g>
		<path class="st0" d="M440.8,151.8l-5.3-54.1L425.4,79l-1,45.5V71l-11-20.5l-17.9-6.9h-31.3l-25.7,13.1l-6.8,22v11.7l-2.6-16
			l-7.5,36.5l-6.7,46.4l-13.3,72.6c3.2,2.5,6.5,4.9,9.9,7.1c2.4,1.6,5,3.1,7.5,4.5c5.9,3.3,12.1,6.1,18.6,8.3l0,0
			c0.3,0.1,0.6,0.2,1,0.3c0,0,0,0,0.1,0c0.2,0.1,0.4,0.2,0.6,0.2c0.3,0.1,0.7,0.2,1,0.3c2.9,0.9,5.8,1.8,8.7,2.5
			c9.5,2.3,19.5,3.6,29.8,3.6c10.4,0,20.4-1.3,30-3.7c2.8-0.7,5.6-1.5,8.4-2.4c0.3-0.1,0.7-0.2,1-0.3c0.1,0,0.3-0.1,0.4-0.1
			s0.2-0.1,0.3-0.1c0.3-0.1,0.7-0.2,1-0.3c1.4-0.5,2.7-1,4-1.5v-39.4l0.2-32.6l0.6,71.7c2.3-0.9,4.6-1.9,6.9-3
			c0.3-0.1,0.6-0.3,0.8-0.4c2.2-1.1,4.4-2.2,6.6-3.4c2.4-1.3,4.8-2.8,7.1-4.3c5.5-3.5,10.7-7.5,15.5-11.8L440.8,151.8z"/>
	</g>
	<g>
		<path class="st1" d="M412.7,91.3c-0.1,2.2-0.3,8.3-0.6,17c-0.1,2.7-0.2,5.5-0.3,8.6c-1.2,39.3-3.2,111.3-3.1,136.2
			c-9.6,2.4-19.7,3.7-30,3.7s-20.3-1.2-29.8-3.6c-0.1-18.4-0.7-93.4-2.3-119.9c-0.3-5.8-0.5-11-0.8-15.4c-0.2-3.4-0.3-6.3-0.5-8.9
			c-0.5-8.8-0.7-12.9-0.7-12.9s-0.1-3.1,0-7.4c0.9-26.8,37.8-37.9,59-20.7c4.9,3.9,8.6,9.2,9,15.9C412.7,84.3,412.7,90.9,412.7,91.3
			z"/>
	</g>
	<g>
		<g>
			<path class="st2" d="M418.3,108.6l0.2,7.9c0,0-38.2,2.6-80.3,1.1c0.9-4.3,0.3-8,0.3-8S367.2,105.8,418.3,108.6z"/>
		</g>
	</g>
	<g>
		<path class="st1" d="M468.3,202c-5.4-13.3-10.4-26.5-14.7-38.6c-7.1-23.1-12.6-51.1-15.4-66.8c-0.6-4.4-1.3-8.7-2-11.8
			c-5-24.7-14.3-39.8-29.3-47.7c-15.4-8.1-40.9-8.1-56.2,0c-17.6,9.2-27.5,28.4-31.8,62.4c-3,16.3-8.3,42.1-15.1,64.6
			c-4.2,11.9-9.2,24.9-14.5,37.9c-1.7,4.1-3.2,7.8-4.8,11.4c5.1,6,10.9,11.5,17,16.4c3.2,2.5,6.5,4.9,9.9,7.1
			c0.7-3.8,1.4-7.4,1.7-9.7c3-18.8,6.5-50.6,9.6-86.8c1.6-18.4,4.3-46.5,4.5-46.7c-0.1,15.5-6,109.7-8.4,147.6
			c5.9,3.3,12.1,6.1,18.6,8.3l0,0c0.3,0.1,0.6,0.2,1,0.3c0,0,0,0,0.1,0v-0.1l0,0c0-0.4,0-0.7,0-1.1v-0.1c0-0.4,0-0.7,0-1.1l0,0
			c0-0.2,0-0.4,0-0.6c0-0.3,0-0.6,0-1l0,0c0-0.1,0-0.1,0-0.2l0,0c0-0.3,0-0.6,0-0.9l0,0c0-0.2,0-0.5,0-0.7l0,0c0-0.3,0-0.6,0-0.9
			l0,0c0-0.1,0-0.2,0-0.3l0,0c0-0.3,0-0.6,0-0.8c0-0.2,0-0.5,0-0.7c0-0.4,0-0.7,0-1.1l0,0l0,0c0-0.4,0-0.7,0-1.1l0,0v-0.8
			c0-0.3,0-0.6,0-1v-0.1c0-0.4,0-0.7,0-1.1l0,0c0-0.2,0-0.3,0-0.5l0,0c0-0.3,0-0.7,0-1v-0.2c0-0.3,0-0.7,0-1c0-0.2,0-0.4,0-0.6l0,0
			c0-0.3,0-0.7,0-1v-0.1c0-0.3,0-0.7,0-1c0-0.2,0-0.5,0-0.7c0-0.4,0-0.7,0-1.1l0,0c0-0.4,0-0.7,0-1.1l0,0c0-0.2,0-0.5,0-0.7l0,0
			c0-0.4,0-0.7,0-1.1l0,0l0,0c0-0.4,0-0.7,0-1.1l0,0c0-0.3,0-0.5,0-0.8c0-0.4,0-0.7,0-1.1l0,0l0,0c0-0.4,0-0.8,0-1.1
			c0-0.2,0-0.5,0-0.7l0,0c0-0.4,0-0.7,0-1.1l0,0c0-0.4,0-0.8,0-1.1l0,0c0-0.2,0-0.4,0-0.6l0,0c0-0.4,0-0.8,0-1.2l0,0
			c0-0.4,0-0.8,0-1.1l0,0c0-0.2,0-0.4,0-0.7l0,0c0-0.4,0-0.8,0-1.1l0,0c0-0.4,0-0.7,0-1.1c0-0.2,0-0.5,0-0.7c0-0.4,0-0.7,0-1.1
			c0,0,0,0,0-0.1l0,0c0-0.4,0-0.7,0-1l0,0c0-0.2,0-0.5,0-0.8c0-0.4,0-0.7,0-1.1l0,0c0-0.4,0-0.8,0-1.1c0-0.2,0-0.4,0-0.6l0,0
			c0-0.4,0-0.7,0-1.1v-0.1c0-0.3,0-0.7,0-1l0,0c0-0.2,0-0.4,0-0.6l0,0c0-0.4,0-0.7,0-1.1v-0.1c0-0.4,0-0.8,0-1.1l0,0
			c0-0.2,0-0.3,0-0.5c0-0.4,0-0.7,0-1.1v0c0-0.4,0-0.7,0-1c0-0.2,0-0.4,0-0.6l0,0c0-0.3,0-0.6,0-1c0-0.1,0-0.1,0-0.2
			c0-0.3,0-0.6,0-0.9l0,0c0-0.2,0-0.4,0-0.6l0,0c0-0.4,0-0.7,0-1.1l0,0c0-0.4,0-0.7,0-1.1l0,0c0-0.2,0-0.5,0-0.7l0,0
			c0-0.3,0-0.6,0-0.9v-0.2c0-0.3,0-0.6,0-0.9l0,0c0-0.3,0-0.5,0-0.7c0-0.4,0-0.7,0-1.1V189c0-0.4,0-0.7,0-1.1c0-0.3,0-0.5,0-0.8
			s0-0.6,0-0.8l0,0c0-0.1,0-0.2,0-0.3c0-0.2,0-0.4,0-0.6l0,0c0-0.1,0-0.2,0-0.3c0-0.1,0-0.2,0-0.3c0-0.2,0-0.3,0-0.5l0,0
			c0-0.4,0-0.7,0-1.1l0,0c0-0.4,0-0.7,0-1.1c0-0.3,0-0.5,0-0.8l0,0c0-0.4,0-0.7,0-1v-0.1l0,0c0-0.4,0-0.7,0-1v-0.8
			c0-0.2,0-0.5,0-0.8v-0.4c0-0.4,0-0.7,0-1.1l0,0c0-0.3,0-0.5,0-0.8l0,0c0-0.3,0-0.6,0-0.9l0,0c0-0.1,0-0.1,0-0.2c0-0.3,0-0.6,0-0.9
			l0,0v-0.1c0-0.2,0-0.4,0-0.6l0,0c0-0.3,0-0.6,0-0.9l0,0v-0.1c0-0.3,0-0.6,0-0.9v-0.1c0-0.2,0-0.5,0-0.7l0,0c0-0.2,0-0.4,0-0.6
			c0-0.1,0-0.3,0-0.4v-0.2c0-0.3,0-0.6,0-1l0,0c0-0.2,0-0.4,0-0.6c0-0.4,0-0.8,0-1.1v0.1c0-0.4,0-0.8,0-1.3l0,0c0-0.1,0-0.2,0-0.3
			l0,0c0-0.4,0-0.8,0-1.2l0,0c0-0.4,0-0.8,0-1.2l0,0c0-0.2,0-0.3,0-0.5l0,0c0-0.4,0-0.7,0-1.1v-0.1c0-0.4,0-0.7,0-1.1l0,0
			c0-0.2,0-0.4,0-0.6l0,0c0-0.3,0-0.7,0-1l0,0v-0.1l0,0c0-0.3,0-0.7,0-1l0,0c0-0.2,0-0.5,0-0.7c0-0.4,0-0.7,0-1.1l0,0c0,0,0,0,0-0.1
			c0-0.4,0-0.8,0-1.3l0,0c0-0.1,0-0.1,0-0.2l0,0c0-0.1,0-0.1,0-0.2l0,0c0-0.3,0-0.7,0-1v-0.1c0-0.3,0-0.7,0-1l0,0c0-0.2,0-0.3,0-0.5
			c0-0.1,0-0.1,0-0.2c0-0.3,0-0.6,0-1v-0.1c0-0.3,0-0.6,0-0.9l0,0c0-0.2,0-0.5,0-0.7l0,0c0-0.1,0-0.2,0-0.3c0-0.2,0-0.5,0-0.7v-0.1
			c0-0.3,0-0.7,0-1.1c0-0.2,0-0.3,0-0.5c0-0.1,0-0.1,0-0.2c0-0.4,0-0.7,0-1.1l0,0c0-0.9,0-1.9-0.1-2.8l0,0c0-0.9,0-1.9-0.1-2.8v-0.1
			c0-0.9,0-1.7-0.1-2.6v-0.1c0-0.1,0-0.1,0-0.1l0,0c0-0.7,0-1.4,0-2c0-0.2,0-0.4,0-0.6v-0.1v-0.8c0-0.4,0-0.9,0-1.3
			c0-0.2,0-0.3,0-0.5v-0.2c0-0.4,0-0.8,0-1.2v-0.1v-0.8l0,0c0-0.1,0-0.3,0-0.4v-0.1c0-0.4,0-0.7,0-1.1l0,0c0-0.1,0-0.3,0-0.4
			c0-0.4,0-0.8,0-1.1l0,0v-0.1l0,0c0-0.4,0-0.7,0-1.1V123c0-0.2,0-0.3,0-0.5c0-0.4,0-0.7,0-1.1v-0.3c0-0.4,0-0.7,0-1.1
			c0-0.2,0-0.3,0-0.4l0,0c0-0.1,0-0.1,0-0.2l0,0c0-0.2,0-0.4,0-0.5c0-0.2,0-0.4,0-0.6c0-0.2,0-0.4,0-0.6v-0.1c0-0.1,0-0.2,0-0.3l0,0
			c0-0.3,0-0.7,0-1v-0.2c0-0.1,0-0.1,0-0.2c0-0.4,0-0.8,0-1.2c0-0.5,0-1,0-1.4l0,0c0,0,0,0,0-0.1l0,0c0-0.4,0-0.8,0-1.2l0,0l0,0
			c0-0.1,0-0.2,0-0.3l0,0l0,0c0-0.4,0-0.8,0-1.1l0,0c0-0.1,0-0.1,0-0.2c0-0.4,0-0.7,0-1c0-0.2,0-0.3,0-0.5l0,0c0-0.1,0-0.2,0-0.3
			v-0.1c0-0.2,0-0.5,0-0.7c0-0.1,0-0.1,0-0.2l0,0c0-0.4,0-0.7,0-1l0,0c0-0.2,0-0.4,0-0.6c0-0.4,0-0.7,0-1l0,0c0-0.1,0-0.1,0-0.2l0,0
			c0,0,0,0,0-0.1v-0.1v-0.8l0,0v-0.7v-0.4v-0.3c0.1-0.1,0.1-0.2,0.1-0.4c0-0.1,0-0.3,0-0.5l0,0c0-0.1-0.1-0.2-0.1-0.4v-0.3V100l0,0
			v-0.2v-0.1v-0.8v-0.6v-0.1l0,0v-0.8v-0.3v-1l0,0l0,0v-0.3V95v-0.4v-0.1v-1.1l0,0v-0.5v-0.6l0,0v-0.6l0,0v-1.1l0,0v-0.7l0,0v-1
			v-0.1v-1l0,0v-0.7l0,0c0-0.3,0-0.6,0-0.9V86c0-0.3,0-0.6,0-0.9l0,0c0-0.2,0-0.5,0-0.7l0,0c0-0.3,0-0.7,0.1-1v-0.1l0,0
			c0-0.1,0-0.1,0-0.2l0,0c0-0.3,0.1-0.5,0.1-0.8c0-0.2,0.1-0.5,0.1-0.7s0.1-0.4,0.1-0.6c0-0.2,0.1-0.4,0.1-0.6l0,0l0,0
			c0.1-0.1,0.2-0.4,0.2-0.6c0-0.1,0-0.2,0-0.4c0-0.1,0-0.2,0.1-0.2c0.1-0.3,0.1-0.5,0.2-0.8l0,0c0-0.1,0-0.2,0.1-0.3l0,0
			c0-0.1,0.1-0.2,0.1-0.4c0.1-0.1,0.2-0.3,0.2-0.5l0,0c0-0.2,0.1-0.3,0.1-0.5v-0.1c0.1-0.2,0.1-0.4,0.2-0.7c0-0.2,0.1-0.3,0.2-0.5
			s0.1-0.4,0.2-0.6v-0.1c0.1-0.2,0.2-0.4,0.2-0.6V74l0,0c0.1-0.2,0.2-0.5,0.3-0.8l0,0c0-0.1,0.1-0.2,0.1-0.3
			c0.1-0.3,0.2-0.6,0.4-0.9c0.1-0.1,0.1-0.3,0.2-0.4l0,0c0.1-0.2,0.2-0.5,0.3-0.7l0,0c0.1-0.2,0.1-0.3,0.2-0.5l0,0
			c0.3-0.6,0.6-1.3,1-1.9c0-0.1,0.1-0.2,0.1-0.2c0.2-0.3,0.3-0.6,0.5-0.9c0.1-0.1,0.1-0.2,0.2-0.3l0,0c0,0,0-0.1,0.1-0.1
			c0.2-0.1,0.4-0.4,0.5-0.8c0,0,0-0.1,0.1-0.1c0-0.1,0.1-0.1,0.1-0.2c0.2-0.3,0.4-0.5,0.6-0.8c0-0.1,0.1-0.1,0.1-0.2l0.3-0.4
			c0.1-0.2,0.3-0.4,0.4-0.6l0,0c0.1-0.1,0.2-0.2,0.3-0.4c0.1-0.2,0.3-0.3,0.4-0.5l0,0l0,0l0,0c0.2-0.2,0.3-0.4,0.5-0.6
			c0.2-0.2,0.3-0.4,0.5-0.6c0.1-0.1,0.2-0.2,0.3-0.3l0,0c0,0,0,0,0.1-0.1s0.3-0.3,0.4-0.4c0,0,0.1-0.1,0.2-0.1
			c0.1-0.1,0.3-0.3,0.4-0.4l0,0c0.2-0.2,0.5-0.4,0.7-0.6l0,0c0.1-0.1,0.1-0.1,0.2-0.2c0,0,0,0,0.1-0.1c0.2-0.2,0.4-0.4,0.6-0.5
			c0.4-0.4,0.9-0.7,1.3-1l0,0c0.1,0,0.1-0.1,0.2-0.1c0.6-0.4,1.2-0.9,1.8-1.3c0.1-0.1,0.2-0.2,0.3-0.2l0,0c0.6-0.4,1.3-0.8,2-1.2
			c0.1,0,0.1-0.1,0.2-0.1l0,0c0.7-0.4,1.4-0.8,2.2-1.1c0.1,0,0.1-0.1,0.2-0.1l0,0c0.3-0.1,0.6-0.3,0.9-0.4l0,0l0,0
			c0.2-0.1,0.3-0.2,0.5-0.2c0.2-0.1,0.5-0.2,0.8-0.3c0.1-0.1,0.2-0.1,0.4-0.2l0,0c0.2-0.1,0.5-0.2,0.7-0.3s0.4-0.2,0.6-0.2l0,0
			c0.3-0.1,0.5-0.2,0.8-0.3c0.1,0,0.2-0.1,0.3-0.1l0,0c0.2-0.1,0.4-0.1,0.6-0.2h0.1l0,0l0,0c0.1,0,0.1,0,0.2,0
			c0.2,0,0.3-0.1,0.6-0.1c0.3-0.1,0.6-0.1,0.9-0.2c0.1,0,0.1,0,0.2,0s0.1,0,0.2,0c0.2-0.1,0.5-0.1,0.8-0.2l0,0
			c0.2-0.1,0.5-0.1,0.8-0.2c0.2,0,0.3-0.1,0.5-0.1s0.4-0.1,0.6-0.1c0.1,0,0.1,0,0.2,0s0.2,0,0.4-0.1c0.2-0.1,0.5-0.1,0.8-0.1
			c0.1,0,0.2,0,0.3-0.1l0,0c0.1,0,0.1,0,0.2,0c0.2,0,0.4,0,0.5,0s0.2,0,0.3,0c0.2,0,0.5,0,0.7-0.1c0.2,0,0.4,0,0.5-0.1
			c0.2,0,0.4-0.1,0.6-0.1l0,0c0.2,0,0.4-0.1,0.5-0.1l0,0c0.1,0,0.1,0,0.2,0c0.2,0,0.4,0,0.6-0.1c0.2,0,0.3,0,0.5,0l0,0
			c0.1,0,0.1,0,0.2,0s0.3,0,0.4,0c0.2,0,0.4,0,0.6,0l0,0c0.2,0,0.4,0,0.6,0l0,0c0.1,0,0.2,0,0.4,0l0,0c0.1,0,0.2,0,0.3,0l0,0
			c0.1,0,0.3,0,0.4,0s0.3,0,0.4,0c0.2,0,0.4,0,0.6,0h0.6c0.2,0,0.4,0,0.6,0c0.1,0,0.2,0,0.4,0l0,0c0.2,0,0.4,0,0.6,0l0,0
			c0.2,0,0.4,0,0.6,0c0.1,0,0.2,0,0.4,0c0.1,0,0.1,0,0.2,0l0,0c0.2,0,0.4,0,0.5,0c0.2,0,0.5,0,0.7,0.1l0,0l0,0
			c0.2,0,0.3,0.1,0.5,0.1l0,0c0.2,0,0.4,0.1,0.6,0.1l0,0c0.2,0,0.3,0.1,0.5,0.1s0.5,0.1,0.7,0.1c0.1,0,0.2,0,0.3,0
			c0.2,0,0.5,0,0.7,0l0,0h0.1c0.1,0,0.1,0,0.2,0c0.2,0,0.5,0.1,0.8,0.1c0.2,0,0.3,0.1,0.5,0.1l0,0c0.2,0,0.4,0.1,0.6,0.1
			s0.3,0.1,0.5,0.1c0.2,0.1,0.5,0.1,0.8,0.2l0,0c0.1,0,0.1,0,0.2,0l0,0h0.1c0.2,0.1,0.4,0.1,0.6,0.2c0.1,0,0.1,0,0.2,0l0,0
			c0.3,0.1,0.6,0.2,0.9,0.3l0,0c0.1,0,0.1,0,0.2,0.1c0.2,0.1,0.4,0.1,0.5,0.2c0.2,0.1,0.5,0.2,0.7,0.2h0.1c0.1,0,0.2,0.1,0.3,0.1
			l0,0c0.2,0.1,0.5,0.2,0.7,0.3c0.1,0,0.2,0.1,0.3,0.1c0.2,0.1,0.3,0.1,0.5,0.2c0.2,0.1,0.4,0.2,0.6,0.2c0.1,0,0.1,0.1,0.2,0.1
			s0.1,0.1,0.2,0.1l0,0c0.2,0.1,0.4,0.2,0.6,0.3l0,0c0.2,0.1,0.4,0.2,0.6,0.3c0.1,0,0.1,0,0.2,0.1c0.2,0.1,0.5,0.2,0.7,0.3
			c0.1,0,0.2,0.1,0.3,0.1l0,0c0.2,0.1,0.5,0.2,0.7,0.4c0,0,0.1,0,0.1,0.1c0.2,0.1,0.4,0.2,0.6,0.3s0.5,0.2,0.7,0.4l0,0
			c0.1,0,0.2,0.1,0.2,0.1s0,0,0.1,0.1l0,0c0.2,0.2,0.4,0.3,0.6,0.3h0.1c0.2,0.1,0.5,0.3,0.7,0.4c0.2,0.1,0.3,0.2,0.5,0.3l0,0
			c0.2,0.1,0.3,0.2,0.5,0.3s0.4,0.2,0.5,0.3c0.2,0.1,0.4,0.2,0.6,0.4c0.2,0.1,0.4,0.3,0.6,0.5l0,0c0.1,0.1,0.2,0.2,0.3,0.2l0,0
			c0.1,0.1,0.2,0.2,0.4,0.3c0.1,0.1,0.2,0.1,0.2,0.2l0.1,0.1l0,0c0.2,0.1,0.3,0.2,0.5,0.4l0,0c0.2,0.2,0.4,0.3,0.6,0.5
			c0.1,0.1,0.2,0.2,0.3,0.2l0,0l0,0c0.1,0.1,0.2,0.2,0.4,0.3c0.1,0.1,0.1,0.2,0.2,0.2c0.1,0.1,0.1,0.1,0.2,0.2
			c0.1,0.1,0.3,0.2,0.4,0.3c0.2,0.2,0.4,0.3,0.6,0.5l0,0c0.1,0.1,0.2,0.2,0.3,0.3c0,0,0,0,0.1,0.1c0.2,0.2,0.3,0.3,0.5,0.5
			s0.4,0.3,0.6,0.5l0.1,0.1c0.1,0.1,0.3,0.3,0.4,0.4c0.1,0.1,0.1,0.1,0.2,0.2l0,0l0.1,0.1c0.1,0.2,0.3,0.3,0.5,0.6
			c0.2,0.2,0.3,0.3,0.5,0.5l0.1,0.1c0.1,0.1,0.2,0.3,0.4,0.4c0.1,0.1,0.1,0.2,0.2,0.2l0,0c0,0.1,0.1,0.1,0.1,0.2
			c0.2,0.3,0.4,0.5,0.6,0.8c0.1,0.2,0.3,0.4,0.4,0.6c0.1,0.2,0.3,0.5,0.4,0.7c0.1,0.1,0.1,0.2,0.2,0.3c0.1,0.2,0.3,0.5,0.4,0.7l0,0
			c0.1,0.2,0.2,0.5,0.4,0.7l0,0c0.1,0.2,0.2,0.3,0.2,0.5c0.1,0.2,0.2,0.4,0.2,0.6c0.1,0.2,0.2,0.4,0.2,0.6c0.1,0.2,0.2,0.4,0.3,0.6
			c0.1,0.2,0.2,0.4,0.2,0.6c0,0.1,0.1,0.1,0.1,0.2l0,0c0,0.1,0.1,0.2,0.1,0.3s0.1,0.2,0.1,0.3c0.1,0.3,0.2,0.5,0.3,0.8l0,0
			c0,0.1,0,0.1,0.1,0.2l0,0l0,0c0.1,0.2,0.2,0.5,0.2,0.7v0.1c0,0.1,0.1,0.3,0.1,0.4c0,0.1,0.1,0.3,0.1,0.4c0,0.1,0.1,0.2,0.1,0.3
			l0,0c0.1,0.2,0.1,0.4,0.2,0.7c0,0.2,0.1,0.4,0.1,0.6c0,0.1,0,0.1,0,0.2l0,0c0,0.1,0,0.2,0.1,0.3l0,0c0,0.3,0.1,0.5,0.1,0.8
			c0,0,0,0,0,0.1c0,0.2,0.1,0.5,0.1,0.7l0,0c0,0.2,0.1,0.3,0.1,0.5l0,0c0,0.2,0.1,0.4,0.1,0.6l0,0v0.1c0,0.1,0,0.3,0.1,0.4
			c0,0.3,0.1,0.5,0.1,0.8s0.1,0.7,0.1,1l0,0v0.1c0,0,0,0.1,0,0.2v0.1c0,0.3,0,0.5,0,0.8s0,0.5,0,0.8l0,0c0,0.3,0,0.6,0,0.9
			c0,0.1,0,0.1,0,0.2c0,0.3,0,0.6,0,0.9v0.8c0,0.3,0,0.6,0,1V89c0,0.2,0,0.4,0,0.7c0,0.1,0,0.2,0,0.3l0,0c0,0.2,0,0.5,0,0.8l0,0
			c0,0.2,0,0.4,0,0.6c0,0.1,0,0.3,0,0.4l0,0l0,0l0,0c0,0.2,0,0.5,0,0.7l0,0c0,0.1,0,0.2,0,0.3c0,0.2,0,0.5,0,0.8l0,0
			c0,0.3,0,0.6,0,1v0.1c0,0.2,0,0.5,0,0.8l0,0c0,0.1,0,0.1,0,0.2c0,0.2,0,0.5,0,0.7l0,0c0,0.2,0,0.5,0,0.8l0,0c0,0.1,0,0.2,0,0.3
			s0,0.2,0,0.3l0,0c0,0.1,0,0.3,0,0.4l0,0c0,0.2,0,0.5,0,0.8c0,0.2,0,0.5,0,0.8v0.1c0,0.1,0,0.2,0,0.3l0,0c0,0.3,0,0.6,0,0.8l0,0
			v0.1c0,0.2,0,0.4,0,0.6c0,0.1,0,0.3,0,0.4c0,0.2,0,0.3,0,0.5c0,0.1,0,0.2,0,0.2c0,0.1,0,0.2,0,0.4l0,0c0,0.2,0,0.4,0,0.6v0.1
			c0,0.3,0,0.6,0,0.9l0,0c0,0.1,0,0.1,0,0.2l0,0c0,0.1,0,0.3,0,0.4v0.5v0.7v0.1v0.9v0.2l0,0c0,0.3,0,0.6,0,0.9c0,0.2,0,0.5,0,0.8
			s0,0.6,0,0.8l0,0c0,0.1,0,0.2,0,0.2l0,0c0,0.3,0,0.6,0,0.9l0,0c0,0.2,0,0.5,0,0.7c0,0.3,0,0.6,0,0.9c0,0.1,0,0.1,0,0.2v0.1
			c0,0.3,0,0.6,0,0.8l0,0c0,0.2,0,0.4,0,0.6l0,0c0,0.3,0,0.6,0,0.9c0,0.1,0,0.2,0,0.2v0.1c0,0.2,0,0.5,0,0.8v0.7c0,0.2,0,0.3,0,0.5
			l0,0c0,0.1,0,0.2,0,0.2c0,0.1,0,0.2,0,0.4c0,0.1,0,0.3,0,0.5s0,0.5,0,0.8s0,0.6,0,1l0,0v0.1c0,0.3,0,0.6,0,1v0.8
			c0,0.2,0,0.4,0,0.6v0.4c0,0.1,0,0.1,0,0.1l0,0c0,0.1,0,0.2,0,0.3c0,0.2,0,0.4,0,0.6l0,0c0,0.2,0,0.5,0,0.7l0,0c0,0.2,0,0.3,0,0.5
			s0,0.3,0,0.5v0.2c0,0.3,0,0.6,0,0.9c0,0.2,0,0.5,0,0.7l0,0c0,0.3,0,0.6,0,0.9c0,0.1,0,0.2,0,0.3c0,0.2,0,0.3,0,0.5s0,0.3,0,0.4
			l0,0c0,0.2,0,0.4,0,0.6c0,0.1,0,0.1,0,0.2c0,0.3,0,0.5,0,0.8l0,0c0,0.1,0,0.1,0,0.2c0,0.2,0,0.3,0,0.5s0,0.3,0,0.5l0,0
			c0,0.2,0,0.3,0,0.5l0,0v0.6c0,0.2,0,0.4,0,0.6l0,0c0,0.4,0,0.9,0,1.3l0,0c0,0.1,0,0.1,0,0.2c0,0.4,0,0.9,0,1.3l0,0
			c0,0.4,0,0.8,0,1.1l0,0c0,0.2,0,0.4,0,0.6c0,0.4,0,0.7,0,1.1v0.1c0,0.4,0,0.7,0,1.1c0,0.2,0,0.3,0,0.5c0,0.4,0,0.8,0,1.2l0,0
			c0,0.3,0,0.7,0,1l0,0c0,0.1,0,0.2,0,0.4c0,0.1,0,0.3,0,0.4c0,0.3,0,0.7,0,1v0.1c0,0.2,0,0.4,0,0.6l0,0c0,0.2,0,0.3,0,0.5l0,0
			c0,0.3,0,0.5,0,0.7c0,0.3,0,0.6,0,0.9v0.2c0,0.3,0,0.6,0,0.9c0,0.1,0,0.1,0,0.2c0,0.2,0,0.4,0,0.6c0,0.3,0,0.6,0,1v0.1
			c0,0.3,0,0.6,0,0.9l0,0c0,0.2,0,0.4,0,0.7l0,0c0,0.3,0,0.7,0,1v0.1c0,0.3,0,0.7,0,1s0,0.5,0,0.8l0,0c0,0.3,0,0.6,0,0.9
			c0,0.1,0,0.1,0,0.2c0,0.3,0,0.6,0,0.9l0,0v0.8c0,0.3,0,0.7,0,1v0.1v1v0.7l0,0v0.5c0,0.2,0,0.4,0,0.5c0,0,0,0,0,0.1l0,0
			c0,0.2,0,0.5,0,0.7c0,0.1,0,0.2,0,0.4c0,0.2,0,0.5,0,0.7l0,0c0,0.3,0,0.7,0,1v0.1l0,0l0,0c0,0.4,0,0.7,0,1.1l0,0
			c0,0.3,0,0.5,0,0.8s0,0.6,0,0.9c0,0.1,0,0.1,0,0.2l0,0c0,0.1,0,0.2,0,0.3c0,0.2,0,0.4,0,0.6l0,0c0,0.3,0,0.5,0,0.8l0,0
			c0,0.3,0,0.6,0,0.9v0.1c0,0.3,0,0.7,0,1l0,0c0,0.2,0,0.4,0,0.6c0,0.1,0,0.2,0,0.4l0,0c0,0.2,0,0.4,0,0.6v0.1c0,0.3,0,0.6,0,1l0,0
			c0,0.2,0,0.5,0,0.7c0,0.3,0,0.7,0,1v0.2c0,0.4,0,0.8,0,1.1l0,0c0,0.3,0,0.5,0,0.7c0,0.4,0,0.7,0,1v0.1c0,0.4,0,0.8,0,1
			c0,0.3,0,0.4,0,0.4v0.4v1.1l0,0v1.1v0.1v0.6l0,0v0.6l0,0v0.3v0.3v0.9l0,0v0.2v0.5l0,0v0.3v0.8l0,0v1.1l0,0v0.5c0,0.1,0,0.1,0,0.2
			l0,0v0.9v0.2v0.9v0.1v0.3v0.2v1.1l0,0l0,0v1.1l0,0v0.6l0,0v1v0.2v1l0,0v0.5l0,0v1.1v0.1v1.1l0,0v0.4l0,0v1.2v0.1v1.1v0.6l0,0v1
			l0,0v0.1v1.1l0,0v0.5l0,0v1.1l0,0v1.1v0.8l0,0v1l0,0v0.1v1.1v0.7v1.1l0,0v1.1l0,0v0.7l0,0v1.1v1.1l0,0v0.6l0,0v1.1l0,0v1.1v0.7
			l0,0v1.1l0,0v1.1v0.8v1.1l0,0v1.1v0.8v1.1l0,0l0,0v1.1l0,0v0.8v1v0.1v1l0,0v0.7l0,0v0.9v0.2v0.9l0,0v0.7l0,0v1l0,0v0.1v1v0.7l0,0
			v1.1v0.1v1v0.8l0,0v0.8v0.3v0.8l0,0v0.8v0.9v0.2v0.9v0.5v0.2l0,0v1v0.1v1v0.4c0.1,0,0.2-0.1,0.3-0.1c0.3-0.1,0.7-0.2,1-0.3
			c1.4-0.5,2.7-1,4-1.5c0.3-0.1,0.6-0.2,0.8-0.3c2.3-0.9,4.6-1.9,6.9-3c0.3-0.1,0.6-0.3,0.8-0.4c2.2-1.1,4.4-2.2,6.6-3.4
			c-2.4-35-8.1-119.1-8.5-144.7V96c0.8,7.5,2.9,29.4,4.2,44.1c3.1,36.2,6.7,68,9.6,86.8c0.4,2.3,1,5.8,1.7,9.7
			c5.5-3.5,10.7-7.5,15.5-11.8c4.1-3.6,7.9-7.6,11.5-11.7C471.5,209.8,469.9,206.1,468.3,202z"/>
	</g>
	<g>
		<path class="st1" d="M428.9,142.6c-0.4,33,0.6,76.3,2.6,102.4c0.3-0.1,0.6-0.3,0.8-0.4L428.9,142.6z"/>
	</g>
	<g>
		<g>
			<g>
				
					<ellipse transform="matrix(0.7635 -0.6459 0.6459 0.7635 57.519 257.8749)" class="st0" cx="380.8" cy="50.4" rx="1.4" ry="1.6"/>
			</g>
		</g>
		<g class="st3">
			<g>
				<ellipse class="st2" cx="380.8" cy="50.4" rx="0.4" ry="0.4"/>
			</g>
		</g>
	</g>
	<g>
		<g>
			<g>
				
					<ellipse transform="matrix(0.7635 -0.6459 0.6459 0.7635 58.1114 259.4043)" class="st0" cx="383.2" cy="50.4" rx="1.4" ry="1.6"/>
			</g>
		</g>
		<g class="st3">
			<g>
				<ellipse class="st2" cx="383.2" cy="50.4" rx="0.4" ry="0.4"/>
			</g>
		</g>
	</g>
	<g>
		<g>
			<g>
				
					<ellipse transform="matrix(0.7635 -0.6459 0.6459 0.7635 58.4574 261.0038)" class="st0" cx="385.5" cy="50.7" rx="1.4" ry="1.6"/>
			</g>
		</g>
		<g class="st3">
			<g>
				<ellipse class="st2" cx="385.5" cy="50.7" rx="0.4" ry="0.4"/>
			</g>
		</g>
	</g>
	<g>
		<g>
			<g>
				<ellipse transform="matrix(0.7635 -0.6459 0.6459 0.7635 58.79 262.4881)" class="st0" cx="387.7" cy="51" rx="1.4" ry="1.6"/>
			</g>
		</g>
		<g class="st3">
			<g>
				<ellipse class="st2" cx="387.7" cy="51" rx="0.4" ry="0.4"/>
			</g>
		</g>
	</g>
	<g>
		<g>
			<g>
				
					<ellipse transform="matrix(0.7635 -0.6459 0.6459 0.7635 58.9915 264.1043)" class="st0" cx="390" cy="51.5" rx="1.4" ry="1.6"/>
			</g>
		</g>
		<g class="st3">
			<g>
				<ellipse class="st2" cx="390" cy="51.5" rx="0.4" ry="0.4"/>
			</g>
		</g>
	</g>
	<g>
		<g>
			<g>
				
					<ellipse transform="matrix(0.7635 -0.6459 0.6459 0.7635 59.2236 266.0708)" class="st0" cx="392.9" cy="52.2" rx="1.4" ry="1.6"/>
			</g>
		</g>
		<g class="st3">
			<g>
				<ellipse class="st2" cx="392.9" cy="52.2" rx="0.4" ry="0.4"/>
			</g>
		</g>
	</g>
	<g>
		<g>
			<g>
				
					<ellipse transform="matrix(0.7635 -0.6459 0.6459 0.7635 59.2295 267.8942)" class="st0" cx="395.3" cy="53.1" rx="1.4" ry="1.6"/>
			</g>
		</g>
		<g class="st3">
			<g>
				<ellipse class="st2" cx="395.3" cy="53.1" rx="0.4" ry="0.4"/>
			</g>
		</g>
	</g>
	<g>
		<g>
			<g>
				
					<ellipse transform="matrix(0.7635 -0.6459 0.6459 0.7635 59.1576 269.688)" class="st0" cx="397.8" cy="54.1" rx="1.4" ry="1.6"/>
			</g>
		</g>
		<g class="st3">
			<g>
				<ellipse class="st2" cx="397.8" cy="54.1" rx="0.4" ry="0.4"/>
			</g>
		</g>
	</g>
	<g>
		<g>
			<g>
				
					<ellipse transform="matrix(0.7635 -0.6459 0.6459 0.7635 58.9229 271.5139)" class="st0" cx="400.1" cy="55.3" rx="1.4" ry="1.6"/>
			</g>
		</g>
		<g class="st3">
			<g>
				<ellipse class="st2" cx="400.1" cy="55.3" rx="0.4" ry="0.4"/>
			</g>
		</g>
	</g>
	<g>
		<g>
			<g>
				
					<ellipse transform="matrix(0.7635 -0.6459 0.6459 0.7635 58.6517 273.3598)" class="st0" cx="402.5" cy="56.6" rx="1.4" ry="1.6"/>
			</g>
		</g>
		<g class="st3">
			<g>
				<ellipse class="st2" cx="402.5" cy="56.6" rx="0.4" ry="0.4"/>
			</g>
		</g>
	</g>
	<g>
		<g>
			<g>
				
					<ellipse transform="matrix(0.7635 -0.6459 0.6459 0.7635 58.1478 275.0183)" class="st0" cx="404.5" cy="58.1" rx="1.4" ry="1.6"/>
			</g>
		</g>
		<g class="st3">
			<g>
				<ellipse class="st2" cx="404.5" cy="58.1" rx="0.4" ry="0.4"/>
			</g>
		</g>
	</g>
	<g>
		<g>
			<g>
				
					<ellipse transform="matrix(0.7635 -0.6459 0.6459 0.7635 57.7564 276.8336)" class="st0" cx="406.8" cy="59.6" rx="1.4" ry="1.6"/>
			</g>
		</g>
		<g class="st3">
			<g>
				<ellipse class="st2" cx="406.8" cy="59.6" rx="0.4" ry="0.4"/>
			</g>
		</g>
	</g>
	<g>
		<g>
			<g>
				
					<ellipse transform="matrix(0.7635 -0.6459 0.6459 0.7635 57.1487 278.5934)" class="st0" cx="408.9" cy="61.3" rx="1.4" ry="1.6"/>
			</g>
		</g>
		<g class="st3">
			<g>
				<ellipse class="st2" cx="408.9" cy="61.3" rx="0.4" ry="0.4"/>
			</g>
		</g>
	</g>
	<g>
		<g>
			<g>
				
					<ellipse transform="matrix(0.7635 -0.6459 0.6459 0.7635 56.4476 280.3053)" class="st0" cx="410.9" cy="63.1" rx="1.4" ry="1.6"/>
			</g>
		</g>
		<g class="st3">
			<g>
				<ellipse class="st2" cx="410.9" cy="63.1" rx="0.4" ry="0.4"/>
			</g>
		</g>
	</g>
	<g>
		<g>
			<g>
				
					<ellipse transform="matrix(0.7635 -0.6459 0.6459 0.7635 55.5834 281.9687)" class="st0" cx="412.7" cy="65.1" rx="1.4" ry="1.6"/>
			</g>
		</g>
		<g class="st3">
			<g>
				<ellipse class="st2" cx="412.7" cy="65.1" rx="0.4" ry="0.4"/>
			</g>
		</g>
	</g>
	<g>
		<g>
			<g>
				
					<ellipse transform="matrix(0.7635 -0.6459 0.6459 0.7635 54.5301 283.663)" class="st0" cx="414.5" cy="67.4" rx="1.4" ry="1.6"/>
			</g>
		</g>
		<g class="st3">
			<g>
				<ellipse class="st2" cx="414.5" cy="67.4" rx="0.4" ry="0.4"/>
			</g>
		</g>
	</g>
	<g>
		<g>
			<g>
				
					<ellipse transform="matrix(0.7635 -0.6459 0.6459 0.7635 53.3641 285.2058)" class="st0" cx="416" cy="69.8" rx="1.4" ry="1.6"/>
			</g>
		</g>
		<g class="st3">
			<g>
				<ellipse class="st2" cx="416" cy="69.8" rx="0.4" ry="0.4"/>
			</g>
		</g>
	</g>
	<g>
		<g>
			<g>
				
					<ellipse transform="matrix(0.7635 -0.6459 0.6459 0.7635 52.0904 286.3333)" class="st0" cx="416.9" cy="72.1" rx="1.4" ry="1.6"/>
			</g>
		</g>
		<g class="st3">
			<g>
				<ellipse class="st2" cx="416.9" cy="72.1" rx="0.4" ry="0.4"/>
			</g>
		</g>
	</g>
	<g>
		<g>
			<g>
				
					<ellipse transform="matrix(0.7635 -0.6459 0.6459 0.7635 50.548 287.4233)" class="st0" cx="417.7" cy="74.7" rx="1.4" ry="1.6"/>
			</g>
		</g>
		<g class="st3">
			<g>
				<ellipse class="st2" cx="417.7" cy="74.7" rx="0.4" ry="0.4"/>
			</g>
		</g>
	</g>
	<g>
		<g>
			<g>
				
					<ellipse transform="matrix(0.7635 -0.6459 0.6459 0.7635 49.2205 288.5435)" class="st0" cx="418.5" cy="77.1" rx="1.4" ry="1.6"/>
			</g>
		</g>
		<g class="st3">
			<g>
				<ellipse class="st2" cx="418.5" cy="77.1" rx="0.4" ry="0.4"/>
			</g>
		</g>
	</g>
	<g>
		<g>
			<g>
				
					<ellipse transform="matrix(0.7635 -0.6459 0.6459 0.7635 47.6661 289.5381)" class="st0" cx="419.1" cy="79.7" rx="1.4" ry="1.6"/>
			</g>
		</g>
		<g class="st3">
			<g>
				<ellipse class="st2" cx="419.1" cy="79.7" rx="0.4" ry="0.4"/>
			</g>
		</g>
	</g>
	<g>
		<g>
			<g>
				
					<ellipse transform="matrix(0.7635 -0.6459 0.6459 0.7635 46.221 290.3558)" class="st0" cx="419.5" cy="82.1" rx="1.4" ry="1.6"/>
			</g>
		</g>
		<g class="st3">
			<g>
				<ellipse class="st2" cx="419.5" cy="82.1" rx="0.4" ry="0.4"/>
			</g>
		</g>
	</g>
	<g>
		<g>
			<g>
				<ellipse transform="matrix(0.7635 -0.6459 0.6459 0.7635 44.393 291.1898)" class="st0" cx="419.7" cy="85" rx="1.4" ry="1.6"/>
			</g>
		</g>
		<g class="st3">
			<g>
				<ellipse class="st2" cx="419.7" cy="85" rx="0.4" ry="0.4"/>
			</g>
		</g>
	</g>
	<g>
		<g>
			<g>
				
					<ellipse transform="matrix(0.7635 -0.6459 0.6459 0.7635 42.6376 291.815)" class="st0" cx="419.7" cy="87.7" rx="1.4" ry="1.6"/>
			</g>
		</g>
		<g class="st3">
			<g>
				<ellipse class="st2" cx="419.7" cy="87.7" rx="0.4" ry="0.4"/>
			</g>
		</g>
	</g>
	<g>
		<g>
			<g>
				
					<ellipse transform="matrix(0.7635 -0.6459 0.6459 0.7635 40.7833 292.5231)" class="st0" cx="419.7" cy="90.6" rx="1.4" ry="1.6"/>
			</g>
		</g>
		<g class="st3">
			<g>
				<ellipse class="st2" cx="419.7" cy="90.6" rx="0.4" ry="0.4"/>
			</g>
		</g>
	</g>
	<g>
		<g>
			<g>
				
					<ellipse transform="matrix(0.7635 -0.6459 0.6459 0.7635 38.9081 293.2068)" class="st0" cx="419.7" cy="93.5" rx="1.4" ry="1.6"/>
			</g>
		</g>
		<g class="st3">
			<g>
				<ellipse class="st2" cx="419.7" cy="93.5" rx="0.4" ry="0.4"/>
			</g>
		</g>
	</g>
	<g>
		<g>
			<g>
				
					<ellipse transform="matrix(0.7635 -0.6459 0.6459 0.7635 37.0878 293.8552)" class="st0" cx="419.7" cy="96.3" rx="1.4" ry="1.6"/>
			</g>
		</g>
		<g class="st3">
			<g>
				<ellipse class="st2" cx="419.7" cy="96.3" rx="0.4" ry="0.4"/>
			</g>
		</g>
	</g>
	<g>
		<g>
			<g>
				
					<ellipse transform="matrix(0.7635 -0.6459 0.6459 0.7635 35.3295 294.2887)" class="st0" cx="419.4" cy="98.9" rx="1.4" ry="1.6"/>
			</g>
		</g>
		<g class="st3">
			<g>
				<ellipse class="st2" cx="419.4" cy="98.9" rx="0.4" ry="0.4"/>
			</g>
		</g>
	</g>
	<g>
		<g>
			<g>
				
					<ellipse transform="matrix(0.7635 -0.6459 0.6459 0.7635 33.5838 294.863)" class="st0" cx="419.3" cy="101.6" rx="1.4" ry="1.6"/>
			</g>
		</g>
		<g class="st3">
			<g>
				<ellipse class="st2" cx="419.3" cy="101.6" rx="0.4" ry="0.4"/>
			</g>
		</g>
	</g>
	<g>
		<g>
			<g>
				
					<ellipse transform="matrix(0.7635 -0.6459 0.6459 0.7635 32.1536 295.3724)" class="st0" cx="419.3" cy="103.8" rx="1.4" ry="1.6"/>
			</g>
		</g>
		<g class="st3">
			<g>
				<ellipse class="st2" cx="419.3" cy="103.8" rx="0.4" ry="0.4"/>
			</g>
		</g>
	</g>
	<g>
		<g>
			<g>
				
					<ellipse transform="matrix(0.7635 -0.6459 0.6459 0.7635 30.3982 295.9976)" class="st0" cx="419.3" cy="106.5" rx="1.4" ry="1.6"/>
			</g>
		</g>
		<g class="st3">
			<g>
				<ellipse class="st2" cx="419.3" cy="106.5" rx="0.4" ry="0.4"/>
			</g>
		</g>
	</g>
	<g>
		<g>
			<g>
				
					<ellipse transform="matrix(0.7635 -0.6459 0.6459 0.7635 28.6088 296.6826)" class="st0" cx="419.3" cy="109.3" rx="1.4" ry="1.6"/>
			</g>
		</g>
		<g class="st3">
			<g>
				<ellipse class="st2" cx="419.3" cy="109.3" rx="0.4" ry="0.4"/>
			</g>
		</g>
	</g>
	<g>
		<g>
			<g>
				<ellipse transform="matrix(0.7635 -0.6459 0.6459 0.7635 26.8638 297.32)" class="st0" cx="419.3" cy="112" rx="1.4" ry="1.6"/>
			</g>
		</g>
		<g class="st3">
			<g>
				<ellipse class="st2" cx="419.3" cy="112" rx="0.4" ry="0.4"/>
			</g>
		</g>
	</g>
	<g>
		<g>
			<g>
				
					<ellipse transform="matrix(0.7635 -0.6459 0.6459 0.7635 25.064 297.9927)" class="st0" cx="419.4" cy="114.8" rx="1.4" ry="1.6"/>
			</g>
		</g>
		<g class="st3">
			<g>
				<ellipse class="st2" cx="419.4" cy="114.8" rx="0.4" ry="0.4"/>
			</g>
		</g>
	</g>
	<g>
		<g>
			<g>
				
					<ellipse transform="matrix(0.7635 -0.6459 0.6459 0.7635 23.3524 298.5072)" class="st0" cx="419.2" cy="117.4" rx="1.4" ry="1.6"/>
			</g>
		</g>
		<g class="st3">
			<g>
				<ellipse class="st2" cx="419.2" cy="117.4" rx="0.4" ry="0.4"/>
			</g>
		</g>
	</g>
	<g>
		<g>
			<g>
				
					<ellipse transform="matrix(0.7635 -0.6459 0.6459 0.7635 21.8253 298.927)" class="st0" cx="419" cy="119.7" rx="1.4" ry="1.6"/>
			</g>
		</g>
		<g class="st3">
			<g>
				<ellipse class="st2" cx="419" cy="119.7" rx="0.4" ry="0.4"/>
			</g>
		</g>
	</g>
	<g>
		<g>
			<g>
				
					<ellipse transform="matrix(0.7635 -0.6459 0.6459 0.7635 19.9709 299.6351)" class="st0" cx="419" cy="122.6" rx="1.4" ry="1.6"/>
			</g>
		</g>
		<g class="st3">
			<g>
				<ellipse class="st2" cx="419" cy="122.6" rx="0.4" ry="0.4"/>
			</g>
		</g>
	</g>
	<g>
		<g>
			<g>
				
					<ellipse transform="matrix(0.7635 -0.6459 0.6459 0.7635 18.1609 300.2956)" class="st0" cx="419" cy="125.4" rx="1.4" ry="1.6"/>
			</g>
		</g>
		<g class="st3">
			<g>
				<ellipse class="st2" cx="419" cy="125.4" rx="0.4" ry="0.4"/>
			</g>
		</g>
	</g>
	<g>
		<g>
			<g>
				
					<ellipse transform="matrix(0.7635 -0.6459 0.6459 0.7635 16.4055 300.9208)" class="st0" cx="419" cy="128.1" rx="1.4" ry="1.6"/>
			</g>
		</g>
		<g class="st3">
			<g>
				<ellipse class="st2" cx="419" cy="128.1" rx="0.4" ry="0.4"/>
			</g>
		</g>
	</g>
	<g>
		<g>
			<g>
				
					<ellipse transform="matrix(0.7635 -0.6459 0.6459 0.7635 14.6682 301.5674)" class="st0" cx="419" cy="130.8" rx="1.4" ry="1.6"/>
			</g>
		</g>
		<g class="st3">
			<g>
				<ellipse class="st2" cx="419" cy="130.8" rx="0.4" ry="0.4"/>
			</g>
		</g>
	</g>
	<g>
		<g>
			<g>
				
					<ellipse transform="matrix(0.7635 -0.6459 0.6459 0.7635 12.9231 302.2048)" class="st0" cx="419" cy="133.5" rx="1.4" ry="1.6"/>
			</g>
		</g>
		<g class="st3">
			<g>
				<ellipse class="st2" cx="419" cy="133.5" rx="0.4" ry="0.4"/>
			</g>
		</g>
	</g>
	<g>
		<g>
			<g>
				
					<ellipse transform="matrix(0.7635 -0.6459 0.6459 0.7635 11.0481 302.8885)" class="st0" cx="419" cy="136.4" rx="1.4" ry="1.6"/>
			</g>
		</g>
		<g class="st3">
			<g>
				<ellipse class="st2" cx="419" cy="136.4" rx="0.4" ry="0.4"/>
			</g>
		</g>
	</g>
	<g>
		<g>
			<g>
				
					<ellipse transform="matrix(0.7635 -0.6459 0.6459 0.7635 9.0773 303.4203)" class="st0" cx="418.8" cy="139.3" rx="1.4" ry="1.6"/>
			</g>
		</g>
		<g class="st3">
			<g>
				<ellipse class="st2" cx="418.8" cy="139.3" rx="0.4" ry="0.4"/>
			</g>
		</g>
	</g>
	<g>
		<g>
			<g>
				
					<ellipse transform="matrix(0.7635 -0.6459 0.6459 0.7635 7.264 304.0772)" class="st0" cx="418.8" cy="142.1" rx="1.4" ry="1.6"/>
			</g>
		</g>
		<g class="st3">
			<g>
				<ellipse class="st2" cx="418.8" cy="142.1" rx="0.4" ry="0.4"/>
			</g>
		</g>
	</g>
	<g>
		<g>
			<g>
				
					<ellipse transform="matrix(0.7635 -0.6459 0.6459 0.7635 5.4018 304.5135)" class="st0" cx="418.4" cy="144.9" rx="1.4" ry="1.6"/>
			</g>
		</g>
		<g class="st3">
			<g>
				<ellipse class="st2" cx="418.4" cy="144.9" rx="0.4" ry="0.4"/>
			</g>
		</g>
	</g>
	<g>
		<g>
			<g>
				
					<ellipse transform="matrix(0.7635 -0.6459 0.6459 0.7635 3.4703 305.1048)" class="st0" cx="418.3" cy="147.8" rx="1.4" ry="1.6"/>
			</g>
		</g>
		<g class="st3">
			<g>
				<ellipse class="st2" cx="418.3" cy="147.8" rx="0.4" ry="0.4"/>
			</g>
		</g>
	</g>
	<g>
		<g>
			<g>
				
					<ellipse transform="matrix(0.7635 -0.6459 0.6459 0.7635 1.7007 305.7131)" class="st0" cx="418.2" cy="150.5" rx="1.4" ry="1.6"/>
			</g>
		</g>
		<g class="st3">
			<g>
				<ellipse class="st2" cx="418.2" cy="150.5" rx="0.4" ry="0.4"/>
			</g>
		</g>
	</g>
	<g>
		<g>
			<g>
				
					<ellipse transform="matrix(0.7635 -0.6459 0.6459 0.7635 -8.306973e-02 306.5305)" class="st0" cx="418.4" cy="153.4" rx="1.4" ry="1.6"/>
			</g>
		</g>
		<g class="st3">
			<g>
				<ellipse class="st2" cx="418.4" cy="153.4" rx="0.4" ry="0.4"/>
			</g>
		</g>
	</g>
	<g>
		<g>
			<g>
				
					<ellipse transform="matrix(0.7635 -0.6459 0.6459 0.7635 -1.9748 307.0064)" class="st0" cx="418.1" cy="156.2" rx="1.4" ry="1.6"/>
			</g>
		</g>
		<g class="st3">
			<g>
				<ellipse class="st2" cx="418.1" cy="156.2" rx="0.4" ry="0.4"/>
			</g>
		</g>
	</g>
	<g>
		<g>
			<g>
				
					<ellipse transform="matrix(0.7635 -0.6459 0.6459 0.7635 -3.7848 307.667)" class="st0" cx="418.1" cy="159" rx="1.4" ry="1.6"/>
			</g>
		</g>
		<g class="st3">
			<g>
				<ellipse class="st2" cx="418.1" cy="159" rx="0.4" ry="0.4"/>
			</g>
		</g>
	</g>
	<g>
		<g>
			<g>
				
					<ellipse transform="matrix(0.7635 -0.6459 0.6459 0.7635 -5.6052 308.3154)" class="st0" cx="418.1" cy="161.8" rx="1.4" ry="1.6"/>
			</g>
		</g>
		<g class="st3">
			<g>
				<ellipse class="st2" cx="418.1" cy="161.8" rx="0.4" ry="0.4"/>
			</g>
		</g>
	</g>
	<g>
		<g>
			<g>
				
					<ellipse transform="matrix(0.7635 -0.6459 0.6459 0.7635 -7.4699 309.0113)" class="st0" cx="418.1" cy="164.7" rx="1.4" ry="1.6"/>
			</g>
		</g>
		<g class="st3">
			<g>
				<ellipse class="st2" cx="418.1" cy="164.7" rx="0.4" ry="0.4"/>
			</g>
		</g>
	</g>
	<g>
		<g>
			<g>
				
					<ellipse transform="matrix(0.7635 -0.6459 0.6459 0.7635 -9.4016 309.5527)" class="st0" cx="417.9" cy="167.6" rx="1.4" ry="1.6"/>
			</g>
		</g>
		<g class="st3">
			<g>
				<ellipse class="st2" cx="417.9" cy="167.6" rx="0.4" ry="0.4"/>
			</g>
		</g>
	</g>
	<g>
		<g>
			<g>
				
					<ellipse transform="matrix(0.7635 -0.6459 0.6459 0.7635 -11.2123 310.1501)" class="st0" cx="417.8" cy="170.4" rx="1.4" ry="1.6"/>
			</g>
		</g>
		<g class="st3">
			<g>
				<ellipse class="st2" cx="417.8" cy="170.4" rx="0.4" ry="0.4"/>
			</g>
		</g>
	</g>
	<g>
		<g>
			<g>
				
					<ellipse transform="matrix(0.7635 -0.6459 0.6459 0.7635 -13.1059 310.6486)" class="st0" cx="417.5" cy="173.2" rx="1.4" ry="1.6"/>
			</g>
		</g>
		<g class="st3">
			<g>
				<ellipse class="st2" cx="417.5" cy="173.2" rx="0.4" ry="0.4"/>
			</g>
		</g>
	</g>
	<g>
		<g>
			<g>
				
					<ellipse transform="matrix(0.7635 -0.6459 0.6459 0.7635 -14.9143 311.3111)" class="st0" cx="417.5" cy="176" rx="1.4" ry="1.6"/>
			</g>
		</g>
		<g class="st3">
			<g>
				<ellipse class="st2" cx="417.5" cy="176" rx="0.4" ry="0.4"/>
			</g>
		</g>
	</g>
	<g>
		<g>
			<g>
				
					<ellipse transform="matrix(0.7635 -0.6459 0.6459 0.7635 -16.8481 312.0253)" class="st0" cx="417.6" cy="179" rx="1.4" ry="1.6"/>
			</g>
		</g>
		<g class="st3">
			<g>
				<ellipse class="st2" cx="417.6" cy="179" rx="0.4" ry="0.4"/>
			</g>
		</g>
	</g>
	<g>
		<g>
			<g>
				
					<ellipse transform="matrix(0.7635 -0.6459 0.6459 0.7635 -18.7129 312.7213)" class="st0" cx="417.6" cy="181.9" rx="1.4" ry="1.6"/>
			</g>
		</g>
		<g class="st3">
			<g>
				<ellipse class="st2" cx="417.6" cy="181.9" rx="0.4" ry="0.4"/>
			</g>
		</g>
	</g>
	<g>
		<g>
			<g>
				
					<ellipse transform="matrix(0.7635 -0.6459 0.6459 0.7635 -20.5898 313.4023)" class="st0" cx="417.6" cy="184.8" rx="1.4" ry="1.6"/>
			</g>
		</g>
		<g class="st3">
			<g>
				<ellipse class="st2" cx="417.6" cy="184.8" rx="0.4" ry="0.4"/>
			</g>
		</g>
	</g>
	<g>
		<g>
			<g>
				
					<ellipse transform="matrix(0.7635 -0.6459 0.6459 0.7635 -22.3351 314.0399)" class="st0" cx="417.6" cy="187.5" rx="1.4" ry="1.6"/>
			</g>
		</g>
		<g class="st3">
			<g>
				<ellipse class="st2" cx="417.6" cy="187.5" rx="0.4" ry="0.4"/>
			</g>
		</g>
	</g>
	<g>
		<g>
			<g>
				
					<ellipse transform="matrix(0.7635 -0.6459 0.6459 0.7635 -24.2099 314.7234)" class="st0" cx="417.6" cy="190.4" rx="1.4" ry="1.6"/>
			</g>
		</g>
		<g class="st3">
			<g>
				<ellipse class="st2" cx="417.6" cy="190.4" rx="0.4" ry="0.4"/>
			</g>
		</g>
	</g>
	<g>
		<g>
			<g>
				
					<ellipse transform="matrix(0.6459 -0.7635 0.7635 0.6459 94.9041 305.3488)" class="st0" cx="376.6" cy="50.4" rx="1.6" ry="1.4"/>
			</g>
		</g>
		<g class="st3">
			<g>
				<ellipse class="st2" cx="376.6" cy="50.4" rx="0.4" ry="0.4"/>
			</g>
		</g>
	</g>
	<g>
		<g>
			<g>
				
					<ellipse transform="matrix(0.6459 -0.7635 0.7635 0.6459 95.6437 306.957)" class="st0" cx="378.7" cy="50.4" rx="1.6" ry="1.4"/>
			</g>
		</g>
		<g class="st3">
			<g>
				<ellipse class="st2" cx="378.7" cy="50.4" rx="0.4" ry="0.4"/>
			</g>
		</g>
	</g>
	<g>
		<g>
			<g>
				
					<ellipse transform="matrix(0.6459 -0.7635 0.7635 0.6459 94.023 303.5532)" class="st0" cx="374.2" cy="50.4" rx="1.6" ry="1.4"/>
			</g>
		</g>
		<g class="st3">
			<g>
				<ellipse class="st2" cx="374.2" cy="50.4" rx="0.4" ry="0.4"/>
			</g>
		</g>
	</g>
	<g>
		<g>
			<g>
				
					<ellipse transform="matrix(0.6459 -0.7635 0.7635 0.6459 93.0437 301.8969)" class="st0" cx="371.9" cy="50.7" rx="1.6" ry="1.4"/>
			</g>
		</g>
		<g class="st3">
			<g>
				<ellipse class="st2" cx="371.9" cy="50.7" rx="0.4" ry="0.4"/>
			</g>
		</g>
	</g>
	<g>
		<g>
			<g>
				<ellipse transform="matrix(0.6459 -0.7635 0.7635 0.6459 92.024 300.3324)" class="st0" cx="369.7" cy="51" rx="1.6" ry="1.4"/>
			</g>
		</g>
		<g class="st3">
			<g>
				<ellipse class="st2" cx="369.7" cy="51" rx="0.4" ry="0.4"/>
			</g>
		</g>
	</g>
	<g>
		<g>
			<g>
				
					<ellipse transform="matrix(0.6459 -0.7635 0.7635 0.6459 90.7651 298.7017)" class="st0" cx="367.4" cy="51.5" rx="1.6" ry="1.4"/>
			</g>
		</g>
		<g class="st3">
			<g>
				<ellipse class="st2" cx="367.4" cy="51.5" rx="0.4" ry="0.4"/>
			</g>
		</g>
	</g>
	<g>
		<g>
			<g>
				
					<ellipse transform="matrix(0.6459 -0.7635 0.7635 0.6459 89.3087 296.8668)" class="st0" cx="364.6" cy="52.2" rx="1.6" ry="1.4"/>
			</g>
		</g>
		<g class="st3">
			<g>
				<ellipse class="st2" cx="364.6" cy="52.2" rx="0.4" ry="0.4"/>
			</g>
		</g>
	</g>
	<g>
		<g>
			<g>
				
					<ellipse transform="matrix(0.6459 -0.7635 0.7635 0.6459 87.7299 295.2706)" class="st0" cx="362.1" cy="53.1" rx="1.6" ry="1.4"/>
			</g>
		</g>
		<g class="st3">
			<g>
				<ellipse class="st2" cx="362.1" cy="53.1" rx="0.4" ry="0.4"/>
			</g>
		</g>
	</g>
	<g>
		<g>
			<g>
				
					<ellipse transform="matrix(0.6459 -0.7635 0.7635 0.6459 86.1269 293.8017)" class="st0" cx="359.8" cy="54.1" rx="1.6" ry="1.4"/>
			</g>
		</g>
		<g class="st3">
			<g>
				<ellipse class="st2" cx="359.8" cy="54.1" rx="0.4" ry="0.4"/>
			</g>
		</g>
	</g>
	<g>
		<g>
			<g>
				
					<ellipse transform="matrix(0.6459 -0.7635 0.7635 0.6459 84.3486 292.3533)" class="st0" cx="357.3" cy="55.3" rx="1.6" ry="1.4"/>
			</g>
		</g>
		<g class="st3">
			<g>
				<ellipse class="st2" cx="357.3" cy="55.3" rx="0.4" ry="0.4"/>
			</g>
		</g>
	</g>
	<g>
		<g>
			<g>
				
					<ellipse transform="matrix(0.6459 -0.7635 0.7635 0.6459 82.4884 290.9825)" class="st0" cx="354.9" cy="56.6" rx="1.6" ry="1.4"/>
			</g>
		</g>
		<g class="st3">
			<g>
				<ellipse class="st2" cx="354.9" cy="56.6" rx="0.4" ry="0.4"/>
			</g>
		</g>
	</g>
	<g>
		<g>
			<g>
				
					<ellipse transform="matrix(0.6459 -0.7635 0.7635 0.6459 80.5715 289.9521)" class="st0" cx="352.8" cy="58.1" rx="1.6" ry="1.4"/>
			</g>
		</g>
		<g class="st3">
			<g>
				<ellipse class="st2" cx="352.8" cy="58.1" rx="0.4" ry="0.4"/>
			</g>
		</g>
	</g>
	<g>
		<g>
			<g>
				
					<ellipse transform="matrix(0.6459 -0.7635 0.7635 0.6459 78.6551 288.7995)" class="st0" cx="350.6" cy="59.6" rx="1.6" ry="1.4"/>
			</g>
		</g>
		<g class="st3">
			<g>
				<ellipse class="st2" cx="350.6" cy="59.6" rx="0.4" ry="0.4"/>
			</g>
		</g>
	</g>
	<g>
		<g>
			<g>
				
					<ellipse transform="matrix(0.6459 -0.7635 0.7635 0.6459 76.6154 287.7886)" class="st0" cx="348.5" cy="61.3" rx="1.6" ry="1.4"/>
			</g>
		</g>
		<g class="st3">
			<g>
				<ellipse class="st2" cx="348.5" cy="61.3" rx="0.4" ry="0.4"/>
			</g>
		</g>
	</g>
	<g>
		<g>
			<g>
				
					<ellipse transform="matrix(0.6459 -0.7635 0.7635 0.6459 74.5242 286.8818)" class="st0" cx="346.5" cy="63.1" rx="1.6" ry="1.4"/>
			</g>
		</g>
		<g class="st3">
			<g>
				<ellipse class="st2" cx="346.5" cy="63.1" rx="0.4" ry="0.4"/>
			</g>
		</g>
	</g>
	<g>
		<g>
			<g>
				
					<ellipse transform="matrix(0.6459 -0.7635 0.7635 0.6459 72.4011 286.2185)" class="st0" cx="344.7" cy="65.1" rx="1.6" ry="1.4"/>
			</g>
		</g>
		<g class="st3">
			<g>
				<ellipse class="st2" cx="344.7" cy="65.1" rx="0.4" ry="0.4"/>
			</g>
		</g>
	</g>
	<g>
		<g>
			<g>
				
					<ellipse transform="matrix(0.6459 -0.7635 0.7635 0.6459 69.9889 285.6684)" class="st0" cx="342.9" cy="67.4" rx="1.6" ry="1.4"/>
			</g>
		</g>
		<g class="st3">
			<g>
				<ellipse class="st2" cx="342.9" cy="67.4" rx="0.4" ry="0.4"/>
			</g>
		</g>
	</g>
	<g>
		<g>
			<g>
				
					<ellipse transform="matrix(0.6459 -0.7635 0.7635 0.6459 67.6347 285.417)" class="st0" cx="341.5" cy="69.8" rx="1.6" ry="1.4"/>
			</g>
		</g>
		<g class="st3">
			<g>
				<ellipse class="st2" cx="341.5" cy="69.8" rx="0.4" ry="0.4"/>
			</g>
		</g>
	</g>
	<g>
		<g>
			<g>
				
					<ellipse transform="matrix(0.6459 -0.7635 0.7635 0.6459 65.563 285.5429)" class="st0" cx="340.6" cy="72.1" rx="1.6" ry="1.4"/>
			</g>
		</g>
		<g class="st3">
			<g>
				<ellipse class="st2" cx="340.6" cy="72.1" rx="0.4" ry="0.4"/>
			</g>
		</g>
	</g>
	<g>
		<g>
			<g>
				
					<ellipse transform="matrix(0.6459 -0.7635 0.7635 0.6459 63.3642 285.8864)" class="st0" cx="339.8" cy="74.6" rx="1.6" ry="1.4"/>
			</g>
		</g>
		<g class="st3">
			<g>
				<ellipse class="st2" cx="339.8" cy="74.6" rx="0.4" ry="0.4"/>
			</g>
		</g>
	</g>
	<g>
		<g>
			<g>
				
					<ellipse transform="matrix(0.6459 -0.7635 0.7635 0.6459 61.1698 286.0638)" class="st0" cx="338.9" cy="77.1" rx="1.6" ry="1.4"/>
			</g>
		</g>
		<g class="st3">
			<g>
				<ellipse class="st2" cx="338.9" cy="77.1" rx="0.4" ry="0.4"/>
			</g>
		</g>
	</g>
	<g>
		<g>
			<g>
				
					<ellipse transform="matrix(0.6459 -0.7635 0.7635 0.6459 58.9602 286.5011)" class="st0" cx="338.3" cy="79.7" rx="1.6" ry="1.4"/>
			</g>
		</g>
		<g class="st3">
			<g>
				<ellipse class="st2" cx="338.3" cy="79.7" rx="0.4" ry="0.4"/>
			</g>
		</g>
	</g>
	<g>
		<g>
			<g>
				
					<ellipse transform="matrix(0.6459 -0.7635 0.7635 0.6459 56.9735 287.0612)" class="st0" cx="337.9" cy="82.1" rx="1.6" ry="1.4"/>
			</g>
		</g>
		<g class="st3">
			<g>
				<ellipse class="st2" cx="337.9" cy="82.1" rx="0.4" ry="0.4"/>
			</g>
		</g>
	</g>
	<g>
		<g>
			<g>
				
					<ellipse transform="matrix(0.6459 -0.7635 0.7635 0.6459 54.7167 287.9324)" class="st0" cx="337.7" cy="85" rx="1.6" ry="1.4"/>
			</g>
		</g>
		<g class="st3">
			<g>
				<ellipse class="st2" cx="337.7" cy="85" rx="0.4" ry="0.4"/>
			</g>
		</g>
	</g>
	<g>
		<g>
			<g>
				
					<ellipse transform="matrix(0.6459 -0.7635 0.7635 0.6459 52.635 288.8714)" class="st0" cx="337.7" cy="87.7" rx="1.6" ry="1.4"/>
			</g>
		</g>
		<g class="st3">
			<g>
				<ellipse class="st2" cx="337.7" cy="87.7" rx="0.4" ry="0.4"/>
			</g>
		</g>
	</g>
	<g>
		<g>
			<g>
				
					<ellipse transform="matrix(0.6459 -0.7635 0.7635 0.6459 50.454 289.9265)" class="st0" cx="337.7" cy="90.6" rx="1.6" ry="1.4"/>
			</g>
		</g>
		<g class="st3">
			<g>
				<ellipse class="st2" cx="337.7" cy="90.6" rx="0.4" ry="0.4"/>
			</g>
		</g>
	</g>
	<g>
		<g>
			<g>
				
					<ellipse transform="matrix(0.6459 -0.7635 0.7635 0.6459 48.2363 290.9507)" class="st0" cx="337.7" cy="93.5" rx="1.6" ry="1.4"/>
			</g>
		</g>
		<g class="st3">
			<g>
				<ellipse class="st2" cx="337.7" cy="93.5" rx="0.4" ry="0.4"/>
			</g>
		</g>
	</g>
	<g>
		<g>
			<g>
				
					<ellipse transform="matrix(0.6459 -0.7635 0.7635 0.6459 46.0776 291.9246)" class="st0" cx="337.7" cy="96.3" rx="1.6" ry="1.4"/>
			</g>
		</g>
		<g class="st3">
			<g>
				<ellipse class="st2" cx="337.7" cy="96.3" rx="0.4" ry="0.4"/>
			</g>
		</g>
	</g>
	<g>
		<g>
			<g>
				
					<ellipse transform="matrix(0.6459 -0.7635 0.7635 0.6459 44.2171 293.0624)" class="st0" cx="338" cy="98.9" rx="1.6" ry="1.4"/>
			</g>
		</g>
		<g class="st3">
			<g>
				<ellipse class="st2" cx="338" cy="98.9" rx="0.4" ry="0.4"/>
			</g>
		</g>
	</g>
	<g>
		<g>
			<g>
				
					<ellipse transform="matrix(0.6459 -0.7635 0.7635 0.6459 42.1913 294.1279)" class="st0" cx="338.1" cy="101.6" rx="1.6" ry="1.4"/>
			</g>
		</g>
		<g class="st3">
			<g>
				<ellipse class="st2" cx="338.1" cy="101.6" rx="0.4" ry="0.4"/>
			</g>
		</g>
	</g>
	<g>
		<g>
			<g>
				
					<ellipse transform="matrix(0.6459 -0.7635 0.7635 0.6459 40.4952 294.8931)" class="st0" cx="338.1" cy="103.8" rx="1.6" ry="1.4"/>
			</g>
		</g>
		<g class="st3">
			<g>
				<ellipse class="st2" cx="338.1" cy="103.8" rx="0.4" ry="0.4"/>
			</g>
		</g>
	</g>
	<g>
		<g>
			<g>
				
					<ellipse transform="matrix(0.6459 -0.7635 0.7635 0.6459 38.4135 295.8322)" class="st0" cx="338.1" cy="106.5" rx="1.6" ry="1.4"/>
			</g>
		</g>
		<g class="st3">
			<g>
				<ellipse class="st2" cx="338.1" cy="106.5" rx="0.4" ry="0.4"/>
			</g>
		</g>
	</g>
	<g>
		<g>
			<g>
				
					<ellipse transform="matrix(0.6459 -0.7635 0.7635 0.6459 36.3095 296.8524)" class="st0" cx="338.1" cy="109.3" rx="1.6" ry="1.4"/>
			</g>
		</g>
		<g class="st3">
			<g>
				<ellipse class="st2" cx="338.1" cy="109.3" rx="0.4" ry="0.4"/>
			</g>
		</g>
	</g>
	<g>
		<g>
			<g>
				
					<ellipse transform="matrix(0.6459 -0.7635 0.7635 0.6459 34.2461 297.807)" class="st0" cx="338.1" cy="112" rx="1.6" ry="1.4"/>
			</g>
		</g>
		<g class="st3">
			<g>
				<ellipse class="st2" cx="338.1" cy="112" rx="0.4" ry="0.4"/>
			</g>
		</g>
	</g>
	<g>
		<g>
			<g>
				
					<ellipse transform="matrix(0.6459 -0.7635 0.7635 0.6459 32.1238 298.8118)" class="st0" cx="338.2" cy="114.8" rx="1.6" ry="1.4"/>
			</g>
		</g>
		<g class="st3">
			<g>
				<ellipse class="st2" cx="338.2" cy="114.8" rx="0.4" ry="0.4"/>
			</g>
		</g>
	</g>
	<g>
		<g>
			<g>
				
					<ellipse transform="matrix(0.6459 -0.7635 0.7635 0.6459 30.1203 299.7961)" class="st0" cx="338.2" cy="117.4" rx="1.6" ry="1.4"/>
			</g>
		</g>
		<g class="st3">
			<g>
				<ellipse class="st2" cx="338.2" cy="117.4" rx="0.4" ry="0.4"/>
			</g>
		</g>
	</g>
	<g>
		<g>
			<g>
				
					<ellipse transform="matrix(0.6459 -0.7635 0.7635 0.6459 28.4422 300.772)" class="st0" cx="338.4" cy="119.7" rx="1.6" ry="1.4"/>
			</g>
		</g>
		<g class="st3">
			<g>
				<ellipse class="st2" cx="338.4" cy="119.7" rx="0.4" ry="0.4"/>
			</g>
		</g>
	</g>
	<g>
		<g>
			<g>
				
					<ellipse transform="matrix(0.6459 -0.7635 0.7635 0.6459 26.2612 301.8271)" class="st0" cx="338.5" cy="122.6" rx="1.6" ry="1.4"/>
			</g>
		</g>
		<g class="st3">
			<g>
				<ellipse class="st2" cx="338.5" cy="122.6" rx="0.4" ry="0.4"/>
			</g>
		</g>
	</g>
	<g>
		<g>
			<g>
				
					<ellipse transform="matrix(0.6459 -0.7635 0.7635 0.6459 24.1207 302.8164)" class="st0" cx="338.5" cy="125.4" rx="1.6" ry="1.4"/>
			</g>
		</g>
		<g class="st3">
			<g>
				<ellipse class="st2" cx="338.5" cy="125.4" rx="0.4" ry="0.4"/>
			</g>
		</g>
	</g>
	<g>
		<g>
			<g>
				
					<ellipse transform="matrix(0.6459 -0.7635 0.7635 0.6459 22.039 303.7555)" class="st0" cx="338.4" cy="128.1" rx="1.6" ry="1.4"/>
			</g>
		</g>
		<g class="st3">
			<g>
				<ellipse class="st2" cx="338.4" cy="128.1" rx="0.4" ry="0.4"/>
			</g>
		</g>
	</g>
	<g>
		<g>
			<g>
				
					<ellipse transform="matrix(0.6459 -0.7635 0.7635 0.6459 19.9893 304.7217)" class="st0" cx="338.5" cy="130.8" rx="1.6" ry="1.4"/>
			</g>
		</g>
		<g class="st3">
			<g>
				<ellipse class="st2" cx="338.5" cy="130.8" rx="0.4" ry="0.4"/>
			</g>
		</g>
	</g>
	<g>
		<g>
			<g>
				
					<ellipse transform="matrix(0.6459 -0.7635 0.7635 0.6459 17.9259 305.6762)" class="st0" cx="338.5" cy="133.5" rx="1.6" ry="1.4"/>
			</g>
		</g>
		<g class="st3">
			<g>
				<ellipse class="st2" cx="338.5" cy="133.5" rx="0.4" ry="0.4"/>
			</g>
		</g>
	</g>
	<g>
		<g>
			<g>
				
					<ellipse transform="matrix(0.6459 -0.7635 0.7635 0.6459 15.7082 306.7004)" class="st0" cx="338.4" cy="136.4" rx="1.6" ry="1.4"/>
			</g>
		</g>
		<g class="st3">
			<g>
				<ellipse class="st2" cx="338.4" cy="136.4" rx="0.4" ry="0.4"/>
			</g>
		</g>
	</g>
	<g>
		<g>
			<g>
				
					<ellipse transform="matrix(0.6459 -0.7635 0.7635 0.6459 13.5785 307.8942)" class="st0" cx="338.7" cy="139.3" rx="1.6" ry="1.4"/>
			</g>
		</g>
		<g class="st3">
			<g>
				<ellipse class="st2" cx="338.7" cy="139.3" rx="0.4" ry="0.4"/>
			</g>
		</g>
	</g>
	<g>
		<g>
			<g>
				
					<ellipse transform="matrix(0.6459 -0.7635 0.7635 0.6459 11.4324 308.8788)" class="st0" cx="338.7" cy="142.1" rx="1.6" ry="1.4"/>
			</g>
		</g>
		<g class="st3">
			<g>
				<ellipse class="st2" cx="338.7" cy="142.1" rx="0.4" ry="0.4"/>
			</g>
		</g>
	</g>
	<g>
		<g>
			<g>
				
					<ellipse transform="matrix(0.6459 -0.7635 0.7635 0.6459 9.4338 310.1476)" class="st0" cx="339" cy="144.9" rx="1.6" ry="1.4"/>
			</g>
		</g>
		<g class="st3">
			<g>
				<ellipse class="st2" cx="339" cy="144.9" rx="0.4" ry="0.4"/>
			</g>
		</g>
	</g>
	<g>
		<g>
			<g>
				
					<ellipse transform="matrix(0.6459 -0.7635 0.7635 0.6459 7.2607 311.2885)" class="st0" cx="339.2" cy="147.8" rx="1.6" ry="1.4"/>
			</g>
		</g>
		<g class="st3">
			<g>
				<ellipse class="st2" cx="339.2" cy="147.8" rx="0.4" ry="0.4"/>
			</g>
		</g>
	</g>
	<g>
		<g>
			<g>
				
					<ellipse transform="matrix(0.6459 -0.7635 0.7635 0.6459 5.1538 312.2062)" class="st0" cx="339.1" cy="150.5" rx="1.6" ry="1.4"/>
			</g>
		</g>
		<g class="st3">
			<g>
				<ellipse class="st2" cx="339.1" cy="150.5" rx="0.4" ry="0.4"/>
			</g>
		</g>
	</g>
	<g>
		<g>
			<g>
				
					<ellipse transform="matrix(0.6459 -0.7635 0.7635 0.6459 2.9534 313.1659)" class="st0" cx="339" cy="153.4" rx="1.6" ry="1.4"/>
			</g>
		</g>
		<g class="st3">
			<g>
				<ellipse class="st2" cx="339" cy="153.4" rx="0.4" ry="0.4"/>
			</g>
		</g>
	</g>
	<g>
		<g>
			<g>
				
					<ellipse transform="matrix(0.6459 -0.7635 0.7635 0.6459 0.9327 314.3682)" class="st0" cx="339.3" cy="156.2" rx="1.6" ry="1.4"/>
			</g>
		</g>
		<g class="st3">
			<g>
				<ellipse class="st2" cx="339.3" cy="156.2" rx="0.4" ry="0.4"/>
			</g>
		</g>
	</g>
	<g>
		<g>
			<g>
				
					<ellipse transform="matrix(0.6459 -0.7635 0.7635 0.6459 -1.2077 315.3576)" class="st0" cx="339.3" cy="159" rx="1.6" ry="1.4"/>
			</g>
		</g>
		<g class="st3">
			<g>
				<ellipse class="st2" cx="339.3" cy="159" rx="0.4" ry="0.4"/>
			</g>
		</g>
	</g>
	<g>
		<g>
			<g>
				
					<ellipse transform="matrix(0.6459 -0.7635 0.7635 0.6459 -3.3665 316.3315)" class="st0" cx="339.3" cy="161.8" rx="1.6" ry="1.4"/>
			</g>
		</g>
		<g class="st3">
			<g>
				<ellipse class="st2" cx="339.3" cy="161.8" rx="0.4" ry="0.4"/>
			</g>
		</g>
	</g>
	<g>
		<g>
			<g>
				
					<ellipse transform="matrix(0.6459 -0.7635 0.7635 0.6459 -5.5659 317.3711)" class="st0" cx="339.3" cy="164.7" rx="1.6" ry="1.4"/>
			</g>
		</g>
		<g class="st3">
			<g>
				<ellipse class="st2" cx="339.3" cy="164.7" rx="0.4" ry="0.4"/>
			</g>
		</g>
	</g>
	<g>
		<g>
			<g>
				
					<ellipse transform="matrix(0.6459 -0.7635 0.7635 0.6459 -7.7322 318.534)" class="st0" cx="339.5" cy="167.6" rx="1.6" ry="1.4"/>
			</g>
		</g>
		<g class="st3">
			<g>
				<ellipse class="st2" cx="339.5" cy="167.6" rx="0.4" ry="0.4"/>
			</g>
		</g>
	</g>
	<g>
		<g>
			<g>
				
					<ellipse transform="matrix(0.6459 -0.7635 0.7635 0.6459 -9.8351 319.6342)" class="st0" cx="339.6" cy="170.4" rx="1.6" ry="1.4"/>
			</g>
		</g>
		<g class="st3">
			<g>
				<ellipse class="st2" cx="339.6" cy="170.4" rx="0.4" ry="0.4"/>
			</g>
		</g>
	</g>
	<g>
		<g>
			<g>
				
					<ellipse transform="matrix(0.6459 -0.7635 0.7635 0.6459 -11.8221 320.8337)" class="st0" cx="339.9" cy="173.2" rx="1.6" ry="1.4"/>
			</g>
		</g>
		<g class="st3">
			<g>
				<ellipse class="st2" cx="339.9" cy="173.2" rx="0.4" ry="0.4"/>
			</g>
		</g>
	</g>
	<g>
		<g>
			<g>
				
					<ellipse transform="matrix(0.6459 -0.7635 0.7635 0.6459 -13.9597 321.8256)" class="st0" cx="339.9" cy="176" rx="1.6" ry="1.4"/>
			</g>
		</g>
		<g class="st3">
			<g>
				<ellipse class="st2" cx="339.9" cy="176" rx="0.4" ry="0.4"/>
			</g>
		</g>
	</g>
	<g>
		<g>
			<g>
				
					<ellipse transform="matrix(0.6459 -0.7635 0.7635 0.6459 -16.2433 322.8939)" class="st0" cx="339.9" cy="179" rx="1.6" ry="1.4"/>
			</g>
		</g>
		<g class="st3">
			<g>
				<ellipse class="st2" cx="339.9" cy="179" rx="0.4" ry="0.4"/>
			</g>
		</g>
	</g>
	<g>
		<g>
			<g>
				
					<ellipse transform="matrix(0.6459 -0.7635 0.7635 0.6459 -18.4427 323.9334)" class="st0" cx="339.9" cy="181.8" rx="1.6" ry="1.4"/>
			</g>
		</g>
		<g class="st3">
			<g>
				<ellipse class="st2" cx="339.9" cy="181.8" rx="0.4" ry="0.4"/>
			</g>
		</g>
	</g>
	<g>
		<g>
			<g>
				
					<ellipse transform="matrix(0.6459 -0.7635 0.7635 0.6459 -20.6643 324.9548)" class="st0" cx="339.9" cy="184.8" rx="1.6" ry="1.4"/>
			</g>
		</g>
		<g class="st3">
			<g>
				<ellipse class="st2" cx="339.9" cy="184.8" rx="0.4" ry="0.4"/>
			</g>
		</g>
	</g>
	<g>
		<g>
			<g>
				
					<ellipse transform="matrix(0.6459 -0.7635 0.7635 0.6459 -22.7274 325.9089)" class="st0" cx="339.9" cy="187.5" rx="1.6" ry="1.4"/>
			</g>
		</g>
		<g class="st3">
			<g>
				<ellipse class="st2" cx="339.9" cy="187.5" rx="0.4" ry="0.4"/>
			</g>
		</g>
	</g>
	<g>
		<g>
			<g>
				
					<ellipse transform="matrix(0.6459 -0.7635 0.7635 0.6459 -24.9453 326.9334)" class="st0" cx="339.9" cy="190.4" rx="1.6" ry="1.4"/>
			</g>
		</g>
		<g class="st3">
			<g>
				<ellipse class="st2" cx="339.9" cy="190.4" rx="0.4" ry="0.4"/>
			</g>
		</g>
	</g>
	<path class="st1" d="M472.5,38.8c-25-25-58.3-38.8-93.7-38.8s-68.7,13.8-93.7,38.8c-12.7,12.7-22.5,27.5-29.1,43.7
		c-6.6-16.1-16.4-31-29.1-43.7c-25-25-58.3-38.8-93.7-38.8S64.5,13.8,39.5,38.8S0.7,97.1,0.7,132.5s13.8,68.7,38.8,93.7
		S97.8,265,133.2,265s68.7-13.8,93.7-38.8c12.7-12.7,22.5-27.5,29.1-43.7c6.6,16.1,16.4,31,29.1,43.7c25,25,58.3,38.8,93.7,38.8
		s68.7-13.8,93.7-38.8s38.8-58.3,38.8-93.7S497.5,63.9,472.5,38.8z M378.8,262.9c-55.3,0-102.7-34.6-121.6-83.3
		c-0.4-1-0.8-2-1.1-3.1c-0.4,1-0.8,2.1-1.2,3.1c-18.9,48.7-66.3,83.3-121.6,83.3c-71.9,0-130.4-58.5-130.4-130.4S61.3,2.1,133.2,2.1
		c55.3,0,102.7,34.6,121.6,83.3c0.4,1,0.8,2,1.2,3.1c0.4-1,0.7-2.1,1.1-3.1C276,36.7,323.4,2.1,378.7,2.1
		c71.9,0,130.4,58.5,130.4,130.4S450.7,262.9,378.8,262.9z"/>
	<g>
		<path class="st1" d="M243,191.9c-4.3,7.9-9.4,15.3-15.2,22c-3.6,4.2-7.5,8.1-11.6,11.8c-4.9,4.3-10.1,8.3-15.5,11.8
			c-2.3,1.5-4.7,2.9-7.2,4.3c-2.2,1.2-4.4,2.3-6.6,3.4c-0.3,0.1-0.5,0.3-0.8,0.4c-2.3,1.1-4.6,2.1-6.9,3c-0.3,0.1-0.6,0.2-0.8,0.3
			c-1.3,0.5-2.6,1-3.9,1.4c-0.5,0.2-0.9,0.3-1.4,0.5c-0.4,0.1-0.7,0.2-1.1,0.4c-2.8,0.9-5.7,1.8-8.7,2.5c-9.1,2.3-18.6,3.5-28.3,3.6
			h-0.1c-0.3,0-0.5,0-0.8,0s-0.6,0-0.8,0c-0.3,0-0.5,0-0.8,0c-0.2,0-0.4,0-0.6,0h-0.2c-9.7-0.1-19.1-1.4-28.2-3.6
			c-3.1-0.7-6.1-1.6-9-2.6c-0.5-0.1-0.9-0.3-1.3-0.4l-1.2-0.4c-6.4-2.3-12.6-5-18.5-8.3c-2.6-1.4-5.1-2.9-7.6-4.5
			c-3.4-2.2-6.7-4.6-9.9-7.1c-6.2-4.9-12-10.4-17.2-16.5c-4.1-4.8-7.9-9.9-11.3-15.3c0.5-0.8,1.1-1.4,1.5-1.7
			c1.3-0.9,10.8-9.9,17.2-13.3c6.5-3.4,25.8-9.5,27.1-9.9c0.8-0.3,8.1-2.6,14.3-6.3c0.1-0.1,0.2-0.1,0.2-0.2
			c3.5-2.2,6.6-4.8,7.9-7.7c1.3-3.2,3-5.2,4.5-6.6c1.8-1.6,3.4-2.2,4.1-2.4c0.3-0.1,0.4-0.1,0.4-0.1l56.8-5.5l0.6-0.1
			c0.2,0,0.6,0,1,0.1c1.2,0.2,3.1,0.7,4,2.1c0.9,1.7,3,10.8,11.6,14.6c0.3,0.1,0.6,0.2,0.9,0.3c0.1,0,0.2,0.1,0.2,0.1
			c6.8,2.4,19.1,8,34.6,10.8C218.9,174.4,236.8,180.4,243,191.9z"/>
		<path class="st0" d="M120.6,217.7c0,0-0.4-32.7,1.7-38.3c0.4-1.7,0.9-3.1,0.9-3.1L120.6,217.7z"/>
		<path class="st0" d="M177,172.4c-9.9,17.4-32.2,20.7-32.2,20.7l-1.3,19.8l-0.4,13.3l-0.9,0.9l0.3-12.1c0,0,0.3-22.3,1.3-22.9
			c33.9-7.8,35.4-30.2,35.4-30.2c0.1,0,0.2,0.1,0.2,0.1c0,0.1,0,0.2,0,0.4C179.5,165.9,178.7,169.4,177,172.4z"/>
		<circle class="st0" cx="131.8" cy="206.9" r="2.6"/>
		<circle class="st0" cx="131.8" cy="206.9" r="1.7"/>
		<circle class="st1" cx="131.8" cy="206.9" r="1.3"/>
		<path class="st2" d="M161.5,144.9l0.4,11.2l1.7,0.9c-0.4,3.4-2.2,6.9-4.3,9.9c-3,5.6-13.3,7.3-16.4,8.2
			c-3.9,0.9-15.1-1.3-16.8-1.3c-2.6-0.4-3,1.4-3,1.4v1.6c-0.4,0-5.6-0.9-9.9-3.9s-12.5-5.6-13.3-6.5c0-1.7-0.9-3.4-0.9-4.3
			c2.2,0,3.9-1.7,4.7-2.6c0.9-0.9,0.4-9,0.4-9l-0.4-4.7c0,0-4.3-5.6-7.3-15.5c-2.2-6.9-4.3-11.6-4.3-11.6s-5.6,1.7-6.9-4.7
			c-0.9-3-3-12.1-4.3-15.5c-0.9-3-2.6-13.8,4.7-9.9C86,89,86,89,86,89s-0.4-3.9-0.4-5.6s0.4-12.9,17.2-20.2
			c6.6-1.9,18.4-4.6,46.2-0.7c9.7,1.4,18.3,7,23,15.6c1.4,2.5,2.3,5,2.7,7.5c0.9-0.4,7.3-1.7,6.9,4.3c0,3.4-0.9,10.3-3,16.4
			c-1.3,3-3,9.9-7.3,9.9c-1.7,0-3,0-3,0s-2.2,14.6-3.9,18.9c-0.4,1.7-1.7,3.4-2.2,4.3c-0.4,0.9-0.9,1.3-0.9,1.7
			S161.5,144.9,161.5,144.9z"/>
		<path class="st1" d="M86.2,89c0,0,6,15.1,6,29.7c-1.3,0-6,1.6-7.5-7.2c-1.7-6.3-3.5-12.7-3.5-12.7s-3.2-11.1,2-11.1
			C85.4,88.1,86.2,89,86.2,89z"/>
		<path class="st1" d="M168.8,116.1c0,0,1.7-22.4,6-30.6c3.4-0.4,7.3-0.9,6.9,4.3c-0.4,4.8-2.6,19.2-7.2,24.6
			c-0.6,0.6-1.3,1.1-2,1.5c-1.5,0.6-2.9,1.4-3.7,0.6V116.1z"/>
		<path class="st1" d="M92.2,118.7c0,0-0.4,19.8,3,27.5c1.7,4.3,3,4.7,3,4.7l-0.9-3l4.7,8.6v-3.6c0,0,5.2,11.8,9.5,13.9
			c-1.3-3-1.7-3.9-1.7-3.9s7.7,6.1,12,8s11.6-1.2,11.6-1.2l4.7-2.9l0.4,0.9l2.6-2.4c0,0,6.5-5.4,10.8-9.7c-0.4,2.2-0.4,2.6-0.4,2.6
			l3.4-3.4c0,0,14.2-8.5,14-38.7c-8.4,10.7-15.7,20.6-22.6,24c-4.7,2.6-10.8,2.6-10.8,2.6s-7.7-4.3-14.6,0
			C118.1,142.8,100.8,135,92.2,118.7z"/>
		<path class="st0" d="M87.8,167c0,0-9.4,11.9,32.8,25.3c1.4,0,1.4,0,1.4,0S86.9,182.7,87.8,167z"/>
		<polygon class="st1" points="166.4,137 164.6,143.9 161.9,138.5 		"/>
		<path class="st1" d="M118.2,169c0,0,4.1,3.5,5,3.7c0.9,0.5-2.6-3.7-2.6-3.7H118.2z"/>
		<g>
			<path class="st1" d="M157.4,63.4c0,0,6.2,8.9,13,13.6l-24-30.4l-4.6,4L157.4,63.4z"/>
			<path class="st1" d="M149.7,56.9c0,0,6.2,8.9,13,13.6l-24-30.4l-4.6,4L149.7,56.9z"/>
			<path class="st1" d="M143.3,55.5c0,0,7.7,7.6,15.2,11.1l-28.9-25.8l-3.8,4.7L143.3,55.5z"/>
			<path class="st1" d="M157.4,61.6c0,0,6.2,8.9,13,13.6l-24-30.4l-4.6,4L157.4,61.6z"/>
		</g>
		<g>
			<path class="st1" d="M105.5,60.3c0,0-6.2,8.9-13,13.6l24-30.4l4.6,4L105.5,60.3z"/>
			<path class="st1" d="M113.3,53.9c0,0-6.2,8.9-13,13.6l24-30.4l4.6,4L113.3,53.9z"/>
			<path class="st1" d="M119.7,52.5c0,0-7.7,7.6-15.2,11.1l28.9-25.8l3.8,4.7L119.7,52.5z"/>
			<path class="st1" d="M105.5,58.6c0,0-6.2,8.9-13,13.6l24-30.4l4.6,4L105.5,58.6z"/>
		</g>
		<path class="st1" d="M84.5,80.8v10.3l1.7-2.1c0,0-1.3-4.8,0.4-10.4c1.7-5.5-1.4,0-1.4,0L84.5,80.8z"/>
		<path class="st1" d="M84.5,88c0,0,0-10.5,0-13.4c0-2.8,3.7-2.4,3.7-2.4l-2.6,6l-0.7,10.4L84.5,88z"/>
		<polygon class="st1" points="86.2,77.7 86.3,75.8 85,76.1 85.3,78.2 		"/>
		<path class="st1" d="M87.2,77.3c0,0-1.1,3.2-1.2,4.7c-0.3-0.5-0.2-4-0.2-4.1s1.1-1.8,1.1-1.8L87.2,77.3z"/>
		<path class="st1" d="M86.2,89c0,0,5.5-18.8,12.4-27.3s-11.5,5.8-11.5,5.8l-1.8,10.8l-0.8,12.8L86.2,89z"/>
		<path class="st1" d="M93.3,70.5c0,0,2.3-3.2,5.6-6.3c3.3-3.1-3.7-2.5-4.5-1.9c-0.8,0.5-4.7,5.3-4.7,5.7
			C89.6,68.3,93.3,70.5,93.3,70.5z"/>
		<path class="st1" d="M174.5,86.4c0,0-1.6-7.3-4-11.1c-2.5-3.9,4.4-2.6,4.4-2.6l0.9,8.2l-0.9,4.7L174.5,86.4z"/>
		<path class="st1" d="M82.2,74.1c0,0,1.5-13.8,2.1-17.1c3,5,0.7,14.4,0.7,14.4L82.2,74.1z"/>
		<g>
			<path class="st1" d="M164.1,67.8c0,0,3.7,10.2,9,16.5l-15.2-35.6l-5.5,2.6L164.1,67.8z"/>
			<path class="st1" d="M158.3,59.6c0,0,3.7,10.2,9,16.5l-15.2-35.7l-5.5,2.6L158.3,59.6z"/>
			<path class="st1" d="M152.5,56.5c0,0,5.4,9.4,11.7,14.7L143,38.7l-4.9,3.5L152.5,56.5z"/>
			<path class="st1" d="M164.5,66.2c0,0,3.7,10.2,9,16.5L158.3,47l-5.5,2.6L164.5,66.2z"/>
		</g>
		<g>
			<path class="st1" d="M99.7,71.8c0,0-7.5,7.8-14.9,11.5l28.3-26.5l4,4.6L99.7,71.8z"/>
			<path class="st1" d="M108.4,66.6c0,0-7.5,7.8-14.9,11.5l28.3-26.5l4,4.6L108.4,66.6z"/>
			<path class="st1" d="M114.9,66.1c0,0-8.7,6.4-16.7,8.7l32.5-21.2l3.1,5.2L114.9,66.1z"/>
			<path class="st1" d="M100,70.1c0,0-7.5,7.8-14.9,11.5l28.3-26.5l4,4.6L100,70.1z"/>
		</g>
		<path class="st1" d="M177.9,76.5c0-9.5-1.7-19.4-3.4-28c-1.1-5.6-5.6-9.5-11.7-12.1l0,0h-0.1c-0.3-0.1-0.5-0.2-0.8-0.3
			c-23.5-9.6-43.7-6.5-54.6-3.3c-3.3,0.7-6.2,1.8-8.7,3.2l0,0l0,0c-15.1,8.5-14.8,26.7-14.8,26.7c-0.8,3.3-0.9,5.7-0.9,6.5
			c-0.6,3.9-1,6.9-1,6.9l93.4,1.6l-0.2-1.6L177.9,76.5z"/>
	</g>
</g>
</svg>
