<?xml version="1.0" encoding="utf-8"?>
<!-- Generator: Adobe Illustrator 26.0.1, SVG Export Plug-In . SVG Version: 6.00 Build 0)  -->
<svg version="1.1" id="Layer_1" xmlns="http://www.w3.org/2000/svg" xmlns:xlink="http://www.w3.org/1999/xlink" x="0px" y="0px"
	 viewBox="0 0 512 512" style="enable-background:new 0 0 512 512;" xml:space="preserve">
<style type="text/css">
	.st0{fill:#3E3286;}
	.st1{fill:none;}
	.st2{fill:#342D77;}
	.st3{fill:#FFFFFF;}
</style>
<g>
	<g>
		<path class="st0" d="M256,511.9c-68.3,0-132.6-26.6-180.9-74.9C26.7,388.6,0.1,324.3,0.1,256S26.7,123.4,75.1,75.1
			C123.4,26.7,187.7,0.1,256,0.1s132.6,26.6,180.9,74.9c48.3,48.3,74.9,112.6,74.9,180.9s-26.6,132.6-74.9,180.9
			S324.3,511.9,256,511.9z M256,4.1C117.1,4.1,4.1,117.1,4.1,256c0,138.9,113,251.9,251.9,251.9c138.9,0,251.9-113,251.9-251.9
			C507.9,117.1,394.9,4.1,256,4.1z"/>
	</g>
	<path class="st1" d="M497,256c0,41.5-10.5,80.6-29,114.8c-8.3,15.3-18.2,29.5-29.4,42.6c-7,8-14.4,15.6-22.3,22.7
		c-9.4,8.3-19.4,16-30,22.8c-4.5,2.9-9.2,5.7-13.9,8.3c-4.2,2.3-8.4,4.5-12.8,6.6c-0.5,0.2-1.1,0.5-1.6,0.8c-4.4,2-8.8,4-13.4,5.8
		c-0.5,0.2-1.1,0.4-1.6,0.6c-2.5,1-5,1.9-7.5,2.8c-0.9,0.3-1.7,0.6-2.6,0.9c-0.7,0.2-1.4,0.5-2.2,0.7c-5.5,1.8-11.1,3.4-16.7,4.8
		c-17.6,4.3-35.9,6.8-54.7,7h-0.2c-0.5,0-1,0-1.5,0c-0.5,0-1.1,0-1.6,0c-0.5,0-1,0-1.5,0c-0.4,0-0.8,0-1.2,0h-0.4
		c-18.7-0.2-37-2.6-54.5-6.9c-5.9-1.4-11.7-3.1-17.4-5c-0.9-0.3-1.7-0.6-2.6-0.9l-2.2-0.8c-12.4-4.4-24.4-9.7-35.7-15.9
		c-5-2.7-9.9-5.6-14.7-8.7c-6.6-4.3-13-8.9-19.2-13.7c-12-9.5-23.1-20.2-33.2-31.8c-8-9.2-15.2-19.1-21.8-29.5
		C28.4,346.8,15,303,15,256C15,122.9,122.9,15,256,15S497,122.9,497,256z"/>
	<g>
		<path class="st0" d="M468,370.8c-8.3,15.3-18.2,29.5-29.4,42.6c-7,8-14.4,15.6-22.3,22.7c-9.4,8.3-19.4,16-30,22.8
			c-4.5,2.9-9.2,5.7-13.9,8.3c-4.2,2.3-8.4,4.5-12.8,6.6c-0.5,0.2-1.1,0.5-1.6,0.8c-4.4,2-8.8,4-13.4,5.8c-0.5,0.2-1.1,0.4-1.6,0.6
			c-2.5,1-5,1.9-7.5,2.8c-0.9,0.3-1.7,0.6-2.6,0.9c-0.7,0.2-1.4,0.5-2.2,0.7c-5.5,1.8-11.1,3.4-16.7,4.8c-17.6,4.3-35.9,6.8-54.7,7
			h-0.2c-0.5,0-1,0-1.5,0c-0.5,0-1.1,0-1.6,0c-0.5,0-1,0-1.5,0c-0.4,0-0.8,0-1.2,0h-0.4c-18.7-0.2-37-2.6-54.5-6.9
			c-5.9-1.4-11.7-3.1-17.4-5c-0.9-0.3-1.7-0.6-2.6-0.9l-2.2-0.8c-12.4-4.4-24.4-9.7-35.7-15.9c-5-2.7-9.9-5.6-14.7-8.7
			c-6.6-4.3-13-8.9-19.2-13.7c-12-9.5-23.1-20.2-33.2-31.8c-8-9.2-15.2-19.1-21.8-29.5c1-1.5,2-2.7,3-3.3
			c2.5-1.7,20.8-19.1,33.2-25.8c12.5-6.6,49.9-18.3,52.4-19.1c1.6-0.5,15.7-5,27.6-12.2c0.2-0.1,0.3-0.2,0.5-0.3
			c6.8-4.2,12.8-9.2,15.2-14.9c2.6-6.1,5.8-10.1,8.7-12.7c3.4-3,6.5-4.2,7.9-4.6c0.5-0.2,0.8-0.2,0.8-0.2l109.7-10.7l1.2-0.1
			c0.4,0,1.1,0.1,1.9,0.2c2.4,0.3,6,1.3,7.6,4c1.7,3.3,5.8,20.8,22.4,28.2c0.5,0.2,1.1,0.4,1.7,0.6c0.2,0.1,0.3,0.1,0.5,0.2
			c13,4.6,37,15.4,66.9,20.9C421.4,336.9,456,348.4,468,370.8z"/>
		<path class="st2" d="M231.6,420.4c0,0-0.8-63.2,3.3-74c0.8-3.3,1.7-6,1.7-6L231.6,420.4z"/>
		<path class="st2" d="M340.4,333.1c-19.1,33.6-62.2,40-62.2,40l-2.5,38.2l-0.8,25.8l-1.7,1.7l0.5-23.3c0,0,0.5-43.1,2.5-44.1
			c65.4-15.1,68.4-58.3,68.4-58.3c0.1,0,0.3,0.1,0.4,0.2c0,0.2,0,0.4,0,0.7C345.4,320.6,343.7,327.2,340.4,333.1z"/>
		<circle class="st2" cx="253.2" cy="399.7" r="5"/>
		<circle class="st2" cx="253.2" cy="399.7" r="3.3"/>
		<circle class="st0" cx="253.2" cy="399.7" r="2.5"/>
		<path class="st3" d="M310.6,280l0.8,21.6l3.3,1.7c-0.8,6.6-4.2,13.3-8.3,19.1c-5.8,10.8-25.8,14.1-31.6,15.8
			c-7.5,1.7-29.1-2.5-32.4-2.5c-5-0.8-5.8,2.8-5.8,2.8v3c-0.8,0-10.8-1.7-19.1-7.5c-8.3-5.8-24.1-10.8-25.8-12.5
			c0-3.3-1.7-6.6-1.7-8.3c4.2,0,7.5-3.3,9.1-5c1.7-1.7,0.8-17.5,0.8-17.5l-0.8-9.1c0,0-8.3-10.8-14.1-29.9
			c-4.2-13.3-8.3-22.4-8.3-22.4s-10.8,3.3-13.3-9.1c-1.7-5.8-5.8-23.3-8.3-29.9c-1.7-5.8-5-26.6,9.1-19.1c0.8,0.8,0.8,0.8,0.8,0.8
			s-0.8-7.5-0.8-10.8s0.8-24.9,33.2-39.1c12.7-3.7,35.6-8.8,89.1-1.3c18.6,2.6,35.3,13.6,44.4,30c2.6,4.8,4.5,9.7,5.3,14.5
			c1.7-0.8,14.1-3.3,13.3,8.3c0,6.6-1.7,19.9-5.8,31.6c-2.5,5.8-5.8,19.1-14.1,19.1c-3.3,0-5.8,0-5.8,0s-4.2,28.3-7.5,36.6
			c-0.8,3.3-3.3,6.6-4.2,8.3s-1.7,2.5-1.7,3.3S310.6,280,310.6,280z"/>
		<path class="st0" d="M165.1,171.9c0,0,11.6,29.1,11.6,57.3c-2.5,0-11.7,3.1-14.6-13.8c-3.3-12.2-6.8-24.5-6.8-24.5
			s-6.2-21.4,3.8-21.5C163.6,170.2,165.1,171.9,165.1,171.9z"/>
		<path class="st0" d="M324.7,224.3c0,0,3.3-43.2,11.6-59c6.6-0.8,14.1-1.7,13.3,8.3c-0.8,9.2-5,37.1-13.8,47.4
			c-1.1,1.2-2.4,2.2-3.9,2.9c-2.8,1.2-5.5,2.6-7.2,1.2V224.3z"/>
		<path class="st0" d="M176.8,229.3c0,0-0.8,38.2,5.8,53.2c3.3,8.3,5.8,9.1,5.8,9.1l-1.7-5.8l9.1,16.6v-7c0,0,10,22.8,18.3,26.9
			c-2.5-5.8-3.3-7.5-3.3-7.5s14.9,11.8,23.2,15.4c8.3,3.7,22.5-2.3,22.5-2.3l9.1-5.6l0.8,1.7l5-4.5c0,0,12.5-10.4,20.8-18.7
			c-0.8,4.2-0.8,5-0.8,5l6.6-6.6c0,0,27.5-16.3,27-74.7c-16.2,20.6-30.4,39.7-43.7,46.4c-9.1,5-20.8,5-20.8,5s-15-8.3-28.3,0
			C226.6,275.8,193.4,260.9,176.8,229.3z"/>
		<path class="st2" d="M168.3,322.6c0,0-18.2,23,63.3,48.8c2.6,0,2.6,0,2.6,0S166.4,352.8,168.3,322.6z"/>
		<polygon class="st0" points="320,264.6 316.5,278 311.4,267.5 		"/>
		<path class="st0" d="M226.9,326.4c0,0,8,6.7,9.7,7.2c1.7,0.9-5.1-7.2-5.1-7.2H226.9z"/>
		<g>
			<path class="st0" d="M302.7,122.4c0,0,12,17.1,25.1,26.2l-46.4-58.8l-8.9,7.7L302.7,122.4z"/>
			<path class="st0" d="M287.7,110c0,0,12,17.1,25.1,26.2l-46.4-58.8l-8.9,7.7L287.7,110z"/>
			<path class="st0" d="M275.3,107.3c0,0,14.8,14.7,29.3,21.5l-55.9-49.8l-7.4,9.1L275.3,107.3z"/>
			<path class="st0" d="M302.7,119.1c0,0,12,17.1,25.1,26.2l-46.4-58.8l-8.9,7.7L302.7,119.1z"/>
		</g>
		<g>
			<path class="st0" d="M202.4,116.6c0,0-12,17.1-25.1,26.2l46.4-58.8l8.9,7.7L202.4,116.6z"/>
			<path class="st0" d="M217.4,104.2c0,0-12,17.1-25.1,26.2l46.4-58.8l8.9,7.7L217.4,104.2z"/>
			<path class="st0" d="M229.8,101.4c0,0-14.8,14.7-29.3,21.5l55.9-49.8l7.4,9.1L229.8,101.4z"/>
			<path class="st0" d="M202.4,113.3c0,0-12,17.1-25.1,26.2l46.4-58.8l8.9,7.7L202.4,113.3z"/>
		</g>
		<path class="st0" d="M161.8,156.2v19.9l3.3-4.1c0,0-2.5-9.4,0.8-20.1c3.3-10.7-2.8,0-2.8,0L161.8,156.2z"/>
		<path class="st0" d="M161.8,170c0,0,0-20.4,0-25.8c0-5.5,7.1-4.6,7.1-4.6l-5,11.7l-1.3,19.9L161.8,170z"/>
		<polygon class="st0" points="165.1,150.2 165.4,146.4 162.8,147.1 163.5,151.2 		"/>
		<path class="st0" d="M167,149.3c0,0-2.1,6.2-2.4,9c-0.6-1-0.4-7.8-0.3-7.9s2.2-3.3,2.2-3.3L167,149.3z"/>
		<path class="st0" d="M165.1,171.9c0,0,10.6-36.3,24-52.7S167,130.4,167,130.4l-3.5,20.8l-1.7,24.9L165.1,171.9z"/>
		<path class="st0" d="M178.8,136.2c0,0,4.4-6.1,10.7-12.2c6.3-6.1-7.1-4.8-8.7-3.8c-1.6,1-9.1,10.2-9.1,11S178.8,136.2,178.8,136.2
			z"/>
		<path class="st0" d="M335.6,166.9c0,0-3-14-7.8-21.5c-4.8-7.5,8.5-5,8.5-5l1.7,15.8l-1.7,9.1L335.6,166.9z"/>
		<path class="st0" d="M157.3,143.2c0,0,2.8-26.7,4.1-33.1c5.8,9.7,1.4,27.9,1.4,27.9L157.3,143.2z"/>
		<g>
			<path class="st0" d="M315.5,131.1c0,0,7.1,19.7,17.3,31.9l-29.3-68.9L293,99.2L315.5,131.1z"/>
			<path class="st0" d="M304.4,115.1c0,0,7.1,19.7,17.3,31.9l-29.3-68.9l-10.6,5.1L304.4,115.1z"/>
			<path class="st0" d="M293.1,109.3c0,0,10.5,18.1,22.6,28.4l-40.9-62.7l-9.5,6.8L293.1,109.3z"/>
			<path class="st0" d="M316.4,127.9c0,0,7.1,19.7,17.3,31.9l-29.3-68.9L293.9,96L316.4,127.9z"/>
		</g>
		<g>
			<path class="st0" d="M191.3,138.8c0,0-14.5,15.1-28.7,22.2l54.6-51.2l7.6,8.9L191.3,138.8z"/>
			<path class="st0" d="M207.9,128.6c0,0-14.5,15.1-28.7,22.2l54.6-51.2l7.6,8.9L207.9,128.6z"/>
			<path class="st0" d="M220.6,127.8c0,0-16.9,12.4-32.2,16.9l62.7-40.9l6,10.1L220.6,127.8z"/>
			<path class="st0" d="M191.8,135.5c0,0-14.5,15.1-28.7,22.2l54.6-51.2l7.6,8.9L191.8,135.5z"/>
		</g>
		<path class="st0" d="M342.2,147.8c0-18.3-3.3-37.4-6.6-54c-2.1-10.9-10.9-18.3-22.7-23.3c0,0,0,0,0,0c-0.1,0-0.1-0.1-0.2-0.1
			c-0.5-0.2-1.1-0.4-1.6-0.7c-45.4-18.5-84.4-12.5-105.5-6.4c-6.5,1.4-12,3.6-16.7,6.2c0,0-0.1,0-0.1,0s0,0,0,0
			c-29.2,16.3-28.5,51.5-28.5,51.5c-1.5,6.3-1.8,11-1.8,12.6c-0.8,7.5-1.7,13.3-1.7,13.3l180.5,3.1l-0.3-3L342.2,147.8z"/>
	</g>
</g>
</svg>
