<?xml version="1.0" encoding="utf-8"?>
<!-- Generator: Adobe Illustrator 26.0.1, SVG Export Plug-In . SVG Version: 6.00 Build 0)  -->
<svg version="1.1" id="Layer_1" xmlns="http://www.w3.org/2000/svg" xmlns:xlink="http://www.w3.org/1999/xlink" x="0px" y="0px"
	 viewBox="0 0 512 512" style="enable-background:new 0 0 512 512;" xml:space="preserve">
<style type="text/css">
	.st0{fill:url(#SVGID_1_);}
</style>
<linearGradient id="SVGID_1_" gradientUnits="userSpaceOnUse" x1="0" y1="256" x2="512" y2="256">
	<stop  offset="0" style="stop-color:#9B59D8"/>
	<stop  offset="1" style="stop-color:#5543C4"/>
</linearGradient>
<path class="st0" d="M296,246.7c-12.3,6.3-23.4,14.8-32.6,25.1c48.3,63.1,25,154.7-46.6,187.7c-16.3,7.5-33.7,11.3-51.8,11.3
	c-68.3,0-123.8-55.6-123.8-123.8c0-88.4,90.5-148.3,171.6-114.3c9.6-11.3,20.5-21.3,32.6-29.8C136.7,142.1,0,220.5,0,347
	c0,91,74,165,165,165c31.3,0,61.7-8.8,88-25.4C335.1,434.7,354.8,323.5,296,246.7L296,246.7z M144.7,171.8c13.9-1.6,27.2-1.5,40.6,0
	c26.2-22.3,47.9-40.2,47.9-64.9c0-37.3-42.2-52.8-63.6-23.3c-1.8,2.5-4.5,2.3-4.6,2.4c-5,0-4.4-4.5-12.9-11
	c-21.7-16.8-55.3-1.6-55.3,31.9c0,11.1,4.2,21.4,13.3,32.4C118.5,149.4,130.6,159.8,144.7,171.8L144.7,171.8z M421.7,63.2
	c2-29,5.3-46.4-5.2-56.9c-13.4-13.4-34-4.1-31,14.2c0.6,3.8-2.7,7.1-6.5,6.5c-18.3-2.9-27.6,17.6-14.2,31
	C375.4,68.6,392.9,65.2,421.7,63.2z M470.7,124.2c18.8,1.3,30.6,3.4,37.3-3.2c8.1-8.1,3-20.8-8.5-19c-3.8,0.6-7.1-2.7-6.5-6.5
	c1.8-11.5-10.8-16.7-19-8.5c-6.1,6.1-4.8,17.3-3.8,30.2C470.4,119.3,470.6,121.7,470.7,124.2L470.7,124.2z M347,182
	c-50.8,0-97.4,23.1-128.2,61.2c-47.7,58.9-49.2,143.4-2.8,204c12.3-6.3,23.4-14.8,32.6-25.1c-62.3-81.5-3.6-199,98.4-199
	c68.3,0,123.8,55.6,123.8,123.8c0,88.4-90.5,148.3-171.6,114.3c-9.6,11.3-20.5,21.3-32.6,29.8C375.3,551.8,512,473.5,512,347
	C512,256,438,182,347,182L347,182z"/>
</svg>
