<?xml version="1.0" encoding="utf-8"?>
<!-- Generator: Adobe Illustrator 26.0.1, SVG Export Plug-In . SVG Version: 6.00 Build 0)  -->
<svg version="1.1" id="Layer_1" xmlns="http://www.w3.org/2000/svg" xmlns:xlink="http://www.w3.org/1999/xlink" x="0px" y="0px"
	 viewBox="0 0 1440 250" style="enable-background:new 0 0 1440 250;" xml:space="preserve">
<style type="text/css">
	.st0{fill:#3E3286;}
	.st1{opacity:5.000000e-02;}
</style>
<rect x="0" y="0" class="st0" width="1440" height="250"/>
<path class="st1" d="M1313.1,224v-0.7c-0.5,0.1-0.9,0.1-1.4,0.1c-2.9,0-5.7-1.2-7.8-3.2l-0.4-0.4v2c2.3,2,5.2,3.1,8.2,3.1
	c1.6,0,3.1-0.3,4.5-0.9H1313.1z M1262.4,224c1.4,0.6,3,0.8,4.5,0.8c1.5,0,3.1-0.3,4.5-0.8H1262.4z M1251.3,207.4h9.7V206h-9.7V207.4
	z M1225.2,206v1.4h9.7V206H1225.2z M1201.7,207.3v2l7,7v-2L1201.7,207.3z M1067.1,162.3c-0.4,0.4-0.7,0.7-0.9,1.1l3.6,3.6v-2
	L1067.1,162.3z M547,223.6c1.7,0.8,3.5,1.2,5.4,1.2c1.8,0,3.7-0.4,5.4-1.2H547z M536.5,207.4h9.7V206h-9.7V207.4z M510.4,206v1.4
	h9.7V206H510.4z M486.9,206.9v2l7,7v-2L486.9,206.9z M348,158.8l0-1.3c-0.3,0-0.5-0.3-0.6-0.8v0l-1.8-1.8v1.3c0,0.2,0,0.4-0.1,0.5
	l2.8,2.8c0-0.3,0-0.5,0-0.8H348z M329.4,148.1v1.3c0.1,0,0.2,0.1,0.3,0.2h2.7c0.2-0.1,0.4-0.2,0.6-0.2v-1.3H329.4z M244.3,174.5
	h-1.2l0,1.4h0.9v-0.3h0.2c0-0.2,0-0.4,0-0.6S244.3,174.7,244.3,174.5z M1435.7,207.4c-0.5-0.5-1.1-1-1.7-1.4c-1.5-1.2-3.2-2.4-5-3.5
	c-0.1-0.1-0.2-0.1-0.3-0.2c-0.4-0.3-0.8-0.5-1.2-0.8c-1.2-0.8-2.4-1.6-3.4-2.4c-0.5-0.4-1-0.7-1.4-1.1c-9.1-7.1-13-14.3-14.6-18.8
	c-0.2-0.4-0.3-0.8-0.4-1.2c0.5-0.1,1-0.2,1.4-0.4c0.9-0.4,1.6-1,2.1-1.7c0.4-0.6,0.6-1.3,0.6-2c0-0.3,0-0.7-0.2-1
	c-0.5-1.7-2.2-3-4.3-3.2l-0.5-16.9l-0.5,16.9c-2.4,0.3-4.3,2-4.3,4.1c0,0.2,0,0.4,0,0.6c0.1,0.5,0.3,1,0.6,1.4c0.7,1,1.9,1.8,3.3,2
	c-0.8,2.6-2.4,6.4-5.7,10.7c-0.4,0.5-0.8,1-1.3,1.6c-1.7,2-3.8,4.2-6.3,6.3c-0.4,0.4-0.8,0.7-1.2,1c-2.1,1.7-4.4,3.3-7.1,4.9
	c-0.3,0.2-0.6,0.4-0.9,0.6c-6.1,3.9-10.2,8.4-13,12.7c-2,3.2-3.4,6.3-4.2,9c-0.8,2.5-1.2,4.8-1.4,6.5c0,0.1,0,0.3,0,0.4
	c0-3.4,0-6.8,0-10.2c0-0.7,0-1.3,0-2c0-2.2,0.1-4.4,0.1-6.5c0.1-4.5,0.2-8.9,0.4-13.2c0.1-3.2,0.2-6.2,0.4-9.2h0.9
	c0.7,0,1.2-0.5,1.2-1.2c0-0.7-0.5-1.2-1.2-1.2h-0.8c0.2-3.4,0.3-6.7,0.5-9.8c0.8-14.8,1.7-25.7,1.9-28.8h1.1c0.9,0,1.7-0.7,1.7-1.6
	c0-0.9-0.7-1.7-1.7-1.7h-1.1c-0.1-1-0.4-3.2-1.9-5.3c-0.4-0.5-0.9-1.1-1.4-1.6c-0.3-0.3-0.6-0.5-1-0.8c-1.7-1.2-2.8-2.5-3.6-3.7
	c-0.3-0.5-0.5-0.9-0.7-1.3c-0.2-0.5-0.4-0.9-0.5-1.3c0.5-0.1,0.9-0.5,0.9-1c0-0.6-0.5-1.1-1.1-1.1c-0.6,0-1.1,0.5-1.1,1.1
	c0,0.5,0.4,0.9,0.9,1c-0.1,0.4-0.3,1-0.6,1.6c-0.2,0.5-0.6,1-0.9,1.6c-0.7,1-1.7,2.1-3.2,3.1c-0.8,0.5-1.4,1.1-1.9,1.7
	c-2,2.3-2.4,4.8-2.5,6h-1.1c-0.9,0-1.6,0.7-1.6,1.7c0,0.1,0,0.1,0,0.2c0.1,0.8,0.8,1.5,1.6,1.5h1.1c0,0,0,0.1,0,0.1
	c0.3,3.2,1,12.5,1.7,24.9c0,0.5,0.1,1,0.1,1.4c0.1,1.7,0.2,3.5,0.3,5.4c0.1,1.6,0.2,3.3,0.2,5c0,0.6,0,1.1,0.1,1.7h-0.8
	c-0.7,0-1.2,0.6-1.2,1.2c0,0.7,0.6,1.2,1.2,1.2h0.9c0,0.1,0,0.3,0,0.4c0.2,4.8,0.4,9.9,0.5,15.2c0,0.5,0,1,0,1.4
	c0.1,5.1,0.2,10.2,0.3,15.4c0,0.4,0,0.7,0,1.1h-14.6v-39.4h0.9c3.4,0,6.2-2.8,6.2-6.2c0-0.8-0.2-1.7-0.5-2.4
	c-0.2-0.5-0.5-0.9-0.8-1.4c-1.1-1.5-2.9-2.4-4.9-2.4h-0.7c-0.6-2.4-1.7-4.9-3-7.4c-1.2-2.1-2.6-4.3-4.2-6.6
	c-2.1-2.9-4.6-5.9-7.3-8.8c-0.4-0.4-0.8-0.9-1.2-1.3c-1.6-1.7-3.2-3.4-5-5c-0.6-0.6-1.2-1.2-1.9-1.8c-2.1-2-4.4-4.1-6.6-6
	c-1-0.8-1.9-1.7-2.9-2.5l0,0c-1.1-0.9-2.2-1.9-3.3-2.8c-3.8-3.2-7.5-6.1-10.9-8.7c-1.2-0.9-2.3-1.8-3.4-2.6
	c-0.4-0.3-0.8-0.6-1.2-0.9c-0.7-0.5-1.3-1-1.9-1.4c-3.9-2.9-6.9-5.9-9.2-8.7c-0.5-0.5-0.9-1.1-1.3-1.6c-0.8-1.1-1.5-2.3-2.2-3.3
	c-0.5-0.8-0.9-1.6-1.2-2.3c-0.8-1.8-1.4-3.4-1.8-4.8c1.7-0.1,3-1.2,3-2.7c0-1.4-1.3-2.5-2.9-2.6l-0.1-3.7l0-1.4l-0.1-2.9
	c0.3,0,0.6,0,0.9,0c5.7,0,10.4-4.6,10.5-10.3c-1.3,2.9-4.2,4.9-7.5,4.9c-4.6,0-8.2-3.7-8.2-8.2c0-3.2,1.8-5.9,4.4-7.3
	c-5.4,0.4-9.7,4.9-9.7,10.5c0,5.5,4.2,10,9.5,10.5l-0.1,2.9l0,1.4l-0.1,3.7c-1.7,0.1-3,1.2-3,2.6c0,1.4,1.3,2.6,3,2.7
	c-0.3,1.1-0.7,2.4-1.3,3.8c-0.2,0.5-0.4,0.9-0.6,1.4c-2.2,4.6-6.3,10.1-13.6,15.6c-0.1,0.1-0.3,0.2-0.4,0.3
	c-0.6,0.5-1.3,0.9-1.9,1.4c-1,0.8-2.1,1.6-3.2,2.4c-0.4,0.3-0.8,0.6-1.2,0.9c-0.7,0.6-1.5,1.2-2.2,1.7c-0.5,0.4-1,0.8-1.4,1.1
	c-5,3.9-10.4,8.4-15.7,13.2c-0.5,0.5-1.1,1-1.6,1.5c0,0,0,0,0,0c-3.2,3-6.4,6.1-9.3,9.2c-0.4,0.5-0.9,1-1.3,1.4
	c-7.1,7.8-12.6,15.6-14.4,22.7h-0.7c-3.4,0-6.2,2.8-6.2,6.2s2.8,6.2,6.2,6.2h0.9V224h-16.2c0-0.7,0-1.4,0-2.1c0-0.6,0-1.3,0-1.9
	c0-1.5,0-3,0.1-4.5c0-1.1,0-2.2,0.1-3.3c0.1-3.8,0.2-7.6,0.3-11.3c0.1-3.2,0.2-6.3,0.4-9.3h0.9c0.1,0,0.1,0,0.2,0
	c0.1,0,0.2,0,0.2-0.1c0.4-0.2,0.8-0.6,0.8-1.1c0-0.6-0.4-1.1-1-1.2c-0.1,0-0.2,0-0.2,0h-0.8c0.2-5.2,0.5-10.1,0.8-14.5
	c0.7-12.2,1.4-21.1,1.6-23.9h1c0.9,0,1.7-0.8,1.7-1.7c0-0.2-0.1-0.5-0.2-0.7c-0.2-0.6-0.8-1-1.5-1h-1.1c-0.1-0.9-0.3-2.7-1.4-4.5
	c-0.4-0.6-0.8-1.2-1.4-1.8c-0.4-0.5-0.9-0.9-1.5-1.3c-2.1-1.5-3.3-3.1-4-4.4c-0.3-0.5-0.5-1-0.6-1.3c-0.1-0.2-0.1-0.3-0.2-0.5
	c0.5-0.1,0.9-0.5,0.9-1c0-0.6-0.5-1.1-1.1-1.1c-0.6,0-1.1,0.5-1.1,1.1c0,0.5,0.4,0.9,0.9,1c-0.1,0.2-0.1,0.4-0.2,0.6
	c-0.2,0.4-0.4,1-0.7,1.5c-0.7,1.3-1.9,2.8-3.8,4.1c-0.5,0.4-1,0.8-1.4,1.2c-2.4,2.4-2.9,5.3-3,6.5h-1.1c-0.2,0-0.3,0-0.4,0.1
	c-0.5,0.1-0.9,0.4-1,0.9c-0.1,0.2-0.2,0.5-0.2,0.7c0,0,0,0,0,0s0,0,0,0c0,0.4,0.2,0.8,0.5,1.2c0.3,0.3,0.7,0.5,1.2,0.5h1
	c0.3,3.1,1,11.9,1.6,23.9c0,0.5,0.1,1,0.1,1.4c0.1,1.1,0.1,2.3,0.2,3.5c0.2,2.8,0.3,5.8,0.5,8.9c0,0.2,0,0.5,0,0.7h-0.8
	c-0.3,0-0.7,0.1-0.9,0.4c-0.2,0.2-0.4,0.5-0.4,0.9c0,0.5,0.3,1,0.8,1.1c0.1,0.1,0.3,0.1,0.5,0.1h0.9c0.2,4.6,0.4,9.5,0.5,14.5
	c0,0.5,0,1,0,1.4c0.1,5,0.2,10.1,0.3,15.3c0,0.5,0,1,0,1.5c0,2.7,0,5.5,0,8.2l-0.8-0.3l-1.3-0.5l-3.6-1.4v-4.6h1.9v-4.3h0v-0.1h-6.6
	c0.2-0.4,0.8-1.9,1.2-4.2c0.1-0.5,0.2-1.1,0.3-1.8c0.3-2.2,0.3-4.8-0.3-7.8c-0.1-0.5-0.2-1-0.3-1.4c-0.3-1.3-0.8-2.7-1.4-4.2
	c-0.2-0.3-0.3-0.7-0.5-1c-0.2-0.4-0.5-0.9-0.8-1.3c-1.4-2.2-3.4-4.1-5.4-5.6c-0.5-0.4-1-0.7-1.4-1c-6-3.9-12.8-5.2-12.8-5.2
	c0.5-2.6-1.5-3.4-1.5-3.4l-0.3-5.2l-0.1-2.4l-0.1-0.9l-0.1-1v-0.1l-0.1,1.1l-0.1,1.2l-0.2,3.4l-0.2,3.7c0,0-0.2,0.1-0.5,0.3
	c-0.5,0.4-1.2,1.1-1.1,2.6c0,0.2,0,0.3,0.1,0.5c0,0-1.5,0.3-3.7,1c-5,1.7-13.9,5.5-17.2,13.1c0,0,0,0.1-0.1,0.1
	c-1.2,2.7-1.8,5.3-2,7.6c-0.1,0.7-0.1,1.3-0.1,1.9c-0.2,5.6,1.6,9.5,1.7,9.8h-6.6v4.4h1.9v4.7l-9.3,3.5c0.5-7.8,1-14.3,1.4-19v0
	c0.1-0.8,0.1-1.5,0.2-2.2c0.2-2.2,0.3-3.9,0.4-5h1.7c1.2,0,2.3-0.7,2.8-1.7c0.1-0.1,0.1-0.2,0.2-0.3c0.2-0.4,0.3-0.8,0.3-1.3
	c0-1.1-0.6-2-1.5-2.5c-0.5-0.3-1-0.5-1.7-0.5c0,0-0.1,0-0.1,0h-1.7c0-0.6-0.1-1.3-0.3-2.1c-0.5-2.8-2-6.7-5.6-10.1
	c-0.4-0.4-0.9-0.8-1.4-1.2c-0.2-0.2-0.4-0.3-0.6-0.4c-5.9-4.1-7.9-8.8-8.6-11.3c0,0,0-0.1,0-0.1c0.7-0.1,1.3-0.6,1.6-1.3
	c0.1-0.2,0.1-0.4,0.1-0.6c0-1.1-0.9-2-2-2c-1.1,0-2,0.9-2,2c0,0.2,0,0.4,0.1,0.6c0.2,0.7,0.8,1.2,1.5,1.3c0,0,0,0.1,0,0.1
	c-0.4,1.4-1.2,3.5-3,5.9c-0.4,0.5-0.8,1-1.2,1.5c-1.2,1.3-2.6,2.7-4.5,4c-6.6,4.6-7.7,11.2-7.9,13.9h-1.1l0-21V178l0-7.1h1.7l0-2.8
	v-1h-1.1V165l0-5.8l0-2l0-10.4v-1.9l0-4.2h1.1v-3.9h-1c0.7-1.6,1.1-3.5,0.9-5.5c-0.2-2.4-1.3-4.8-3.8-6.3c-0.1-0.1-0.2-0.1-0.3-0.2
	c-0.5-0.3-1-0.6-1.4-0.9c-1-0.6-2-1.2-2.9-1.7c-0.4-0.2-0.9-0.5-1.3-0.8c-1.6-1-2.9-2-4.1-3.1c-0.4-0.5-0.9-0.9-1.2-1.4
	c-1.5-2-2.3-4.7-2.3-8.5c0,3.8-0.9,6.4-2.3,8.5c-0.4,0.5-0.8,1-1.2,1.4c-2.4,2.5-6,4.2-10,6.7c-2.5,1.6-3.5,3.8-3.8,6.2
	c0,0,0,0.1,0,0.1c-0.1,0.6-0.1,1.2,0,1.7c0.1,1.4,0.4,2.6,0.9,3.8h-1l0,3.9l1.1,0l0,7.6v1.4l0,17.4h-1.1l0,3.9l1.7,0v3.6l0,1.4
	l0,11.2c-0.7-1-1.5-2-2.5-2.9c-0.4-0.4-0.9-0.8-1.4-1.1c-0.2-0.1-0.4-0.2-0.6-0.4c-14.1-8.9-24.8-12.1-24.8-30.5
	c0,12-4.6,17.5-11.6,22.3c-0.7,0.5-1.4,1-2.2,1.4c-0.7,0.5-1.5,0.9-2.2,1.4c-0.4,0.2-0.8,0.5-1.2,0.7c-2.4,1.4-5,2.9-7.6,4.6
	c-1,0.6-1.8,1.3-2.5,2v-5.9l0-1.8v-6.5h0.8v-2.8h-0.7c0.2-0.5,0.4-0.9,0.5-1.4c0.2-0.8,0.2-1.6,0.2-2.5c-0.1-1.5-0.7-2.9-2-4
	c-0.2-0.2-0.4-0.4-0.7-0.5c-0.2-0.1-0.3-0.2-0.5-0.3c-4.9-3-8.6-4.4-9.1-10.2c0-0.4,0-0.9,0-1.3c0,0.5,0,0.9-0.1,1.4
	c-0.1,1.6-0.5,2.9-1.1,3.9c-0.2,0.4-0.5,0.8-0.8,1.2c-1.7,2.1-4.5,3.4-7.7,5.4c-1.8,1.1-2.5,2.8-2.7,4.5c-0.1,1.4,0.1,2.8,0.6,3.9
	h-0.7v2.8h0.8l0,4.1v1.4l0,13.2v0.1h-0.8v1.2l0,1.6h1.2l0,14v1.4l0,5.3h-0.7c-0.1-1.1-0.4-3.1-1.5-5.3c-0.3-0.5-0.6-1.1-1-1.6
	c-0.8-1-1.8-2.1-3.1-3c-3.9-2.8-5.4-5.8-6-7.7c0-0.2-0.1-0.3-0.1-0.5c0,0,0.1,0,0.1,0c0.6-0.2,1.1-0.7,1.1-1.3c0-0.1,0-0.2-0.1-0.4
	c-0.2-0.6-0.7-1-1.3-1c-0.4,0-0.8,0.2-1.1,0.5c-0.2,0.2-0.3,0.5-0.3,0.9c0,0.1,0,0.2,0,0.3c0.1,0.5,0.6,0.9,1.1,1
	c-0.1,0.5-0.3,1.1-0.7,1.9c-0.8,1.8-2.4,4.1-5.5,6.3c-2.3,1.6-3.7,3.5-4.5,5.3c-0.2,0.5-0.4,1-0.6,1.5c-0.4,1.3-0.6,2.4-0.6,3.1
	h-1.2c-0.3,0-0.7,0.1-1,0.2c-0.8,0.3-1.3,1.1-1.3,2c0,0,0,0,0,0v0.1c0,1.2,1,2.3,2.3,2.3h1.3c0.2,2.9,0.8,9.5,1.4,18.6h0
	c-0.3-3.7-2-12.7-11.5-19.7c-0.4-0.3-0.8-0.6-1.2-0.8c-0.4-0.3-0.9-0.6-1.4-0.9c-0.9-0.6-1.8-1.1-2.6-1.7c-3.5-2.4-6.1-4.9-8-7.3
	c-2.8-3.4-4.1-6.5-4.7-8.5c1.7-0.2,3-1.4,3-2.9c0-1.6-1.4-2.9-3.2-3l0-0.2l0-1.5l-0.1-2l-0.2-6.6l-0.1-1.6l0,1.3l-0.3,8.6l0,0.6
	l0,1.5c-1.5,0.2-2.6,1.1-3,2.3c0,0.2-0.1,0.4-0.1,0.6c0,1.5,1.2,2.6,2.8,2.9c-0.7,2.1-2.1,5.3-5.1,8.9c-0.4,0.5-0.8,1-1.3,1.4
	c-1.3,1.4-2.8,2.8-4.6,4.1c-0.4,0.3-0.8,0.6-1.2,0.9c-1,0.7-2,1.4-3.1,2.1c-0.3,0.2-0.6,0.4-0.9,0.6c-0.5,0.3-1,0.6-1.4,1
	c-9.2,6.7-11.3,15.2-11.7,19.2c0-5.1,0-10.3,0.2-15.3c0-0.7,0-1.4,0-2.1c0.1-3.6,0.2-7.1,0.4-10.5c0-0.5,0-1,0.1-1.4v-0.1h0.6
	c0.5,0,0.9-0.4,0.9-0.9v0c0-0.5-0.4-0.9-0.9-0.9h-0.6c0.1-2.7,0.3-5.3,0.4-7.8c0-0.7,0.1-1.3,0.1-1.9c0.5-9.1,1-15.7,1.2-17.8h0.8
	c0.3,0,0.5-0.1,0.7-0.3c0.3-0.2,0.4-0.5,0.4-0.9c0-0.2,0-0.3-0.1-0.5c-0.2-0.4-0.6-0.7-1.1-0.7h-0.8c0-0.2-0.1-0.6-0.1-1
	c-0.1-0.5-0.2-1-0.5-1.5c-0.5-1-1.2-2-2.4-2.9c-2.3-1.6-3.1-3.5-3.4-4.4c0.4-0.1,0.6-0.4,0.6-0.7c0-0.4-0.3-0.8-0.8-0.8
	c-0.4,0-0.8,0.3-0.8,0.8c0,0.4,0.3,0.7,0.6,0.7c-0.3,0.9-1,2.8-3.4,4.5c-2.6,1.8-3,4.4-3.1,5.4h-0.7c-0.2,0-0.4,0-0.6,0.1
	c-0.4,0.2-0.6,0.6-0.6,1c0,0.2,0,0.3,0.1,0.4c0.2,0.4,0.6,0.8,1.1,0.8h0.8c0.1,1.7,0.5,6,0.9,11.9c0,0.5,0.1,0.9,0.1,1.4
	c0.3,4.1,0.5,8.9,0.8,14.1h-0.6c-0.5,0-0.9,0.4-0.9,0.9v0c0,0.2,0.1,0.4,0.2,0.5c0.2,0.2,0.4,0.4,0.7,0.4h0.6c0,0.5,0.1,1.1,0.1,1.6
	c0.2,5,0.4,10.3,0.5,15.7c0,0.5,0,1,0,1.5c0,1.7,0,3.4,0.1,5.1h-10.4v-28h0.6c0.1,0,0.2,0,0.4,0c0.5,0,1-0.2,1.5-0.4
	c1.5-0.7,2.6-2.2,2.6-4c0-2.2-1.6-4-3.7-4.3c-0.2,0-0.5-0.1-0.7-0.1h-0.5c-0.3-1.1-0.7-2.2-1.2-3.3c-5.8-12.9-25.9-28.7-36.4-36.5
	c-1.6-1.2-3-2.4-4.2-3.6c-0.5-0.5-0.9-1-1.4-1.4c-0.1-0.1-0.1-0.2-0.2-0.2c-0.3-0.4-0.6-0.7-0.9-1.1c-2.6-3.2-3.8-6.2-4.4-8.4
	c1.2-0.1,2.1-0.9,2.1-1.9c0-1-0.9-1.8-2-1.9l-0.1-5.7c0.2,0,0.4,0,0.6,0c0.1,0,0.2,0,0.3,0c0.6,0,1.2-0.1,1.8-0.3
	c3.1-0.9,5.4-3.7,5.5-7c-0.9,2-3,3.5-5.3,3.5c-3.2,0-5.9-2.6-5.9-5.9c0-0.4,0-0.7,0.1-1.1c0.1-0.5,0.2-1,0.5-1.4
	c0.5-1.2,1.5-2.1,2.6-2.7c-2.1,0.2-3.9,1.2-5.2,2.7c-0.4,0.4-0.7,0.9-0.9,1.4c-0.2,0.4-0.4,0.8-0.5,1.3c-0.2,0.6-0.3,1.2-0.3,1.8
	c0,0.1,0,0.2,0,0.3c0,3.9,3,7.1,6.8,7.5l-0.1,5.7c-1.2,0-2.2,0.9-2.2,1.9c0,1,1,1.8,2.2,1.9c-0.6,2.1-1.7,4.8-3.9,7.8
	c-0.3,0.4-0.6,0.7-0.9,1.1c-1.6,1.9-3.6,3.9-6.3,5.9c-1,0.8-2.2,1.6-3.4,2.6c-0.4,0.3-0.8,0.6-1.2,0.9c-6.2,4.8-14.1,11.2-20.6,17.9
	c-0.5,0.5-0.9,1-1.4,1.4c-0.9,0.9-1.7,1.8-2.5,2.7c-0.5,0.6-1,1.1-1.4,1.7c-3.5,4.3-6.2,8.6-7.2,12.5h-0.5c-2.4,0-4.4,2-4.4,4.4
	c0,2.2,1.6,4,3.7,4.3c0.2,0,0.4,0,0.7,0h0.6v28h-11.5c0-5.6,0.2-11.2,0.4-16.5c0-0.7,0-1.4,0.1-2.1c0.1-1.5,0.1-3,0.2-4.5h0.6
	c0.1,0,0.2,0,0.3-0.1c0.3-0.1,0.5-0.4,0.5-0.8c0-0.5-0.4-0.9-0.9-0.9h-0.5c0-0.8,0.1-1.5,0.1-2.3c0-0.7,0.1-1.3,0.1-1.9
	c0.6-11.8,1.3-20.7,1.5-23.1h0.7c0.7,0,1.2-0.5,1.2-1.2c0-0.2,0-0.3-0.1-0.5c-0.2-0.4-0.6-0.7-1.1-0.7h-0.8c-0.1-1-0.5-3.6-3.1-5.5
	c-2.3-1.6-3.1-3.5-3.4-4.4c0.4-0.1,0.7-0.4,0.7-0.8c0-0.4-0.3-0.8-0.8-0.8c-0.4,0-0.8,0.3-0.8,0.8c0,0.4,0.3,0.7,0.6,0.7
	c-0.3,0.9-1,2.8-3.4,4.4c-2.2,1.5-2.8,3.6-3,4.8c0,0.2-0.1,0.4-0.1,0.6h-0.8c-0.5,0-1,0.3-1.1,0.8c0,0.1,0,0.2,0,0.3c0,0,0,0,0,0v0
	c0,0.7,0.5,1.2,1.2,1.2h0.7c0.1,1.8,0.5,6.5,0.9,12.9c0,0.6,0.1,1.2,0.1,1.8c0.2,2.5,0.3,5.2,0.5,8.1c0,0.8,0.1,1.6,0.1,2.4
	c0,0.7,0.1,1.5,0.1,2.2h-0.6c-0.2,0-0.5,0.1-0.6,0.3c-0.2,0.1-0.3,0.4-0.3,0.6c0,0.4,0.2,0.7,0.5,0.8c0.1,0,0.2,0.1,0.3,0.1h0.6
	c0.1,1.5,0.1,3,0.2,4.5c0,1,0.1,2,0.1,3.1c0.1,1.9,0.1,3.9,0.2,5.9c0,0.6,0,1.2,0,1.9c0.1,4.5,0.2,9.2,0.1,13.8l-4.1-1.6v-3.3h1.3
	v-3.1h-4.7c0.1-0.3,0.6-1.4,0.9-3.1c0.1-0.4,0.1-0.9,0.2-1.5c0.2-2.4,0-5.7-1.5-9.2c-1.3-2.9-3.7-5.1-6.3-6.6
	c-0.9-0.5-1.8-1-2.7-1.4c-1.9-0.9-3.7-1.4-4.8-1.7c-1-0.7-2-1.4-3.1-2.1c0,0-0.1,0-0.1-0.1c-0.4-0.2-0.8-0.5-1.1-0.7
	c-1.3-0.8-2.4-1.6-3.5-2.4c-0.5-0.3-1-0.7-1.4-1.1c-8.9-6.8-12.9-13.9-14.7-18.5c-0.2-0.6-0.5-1.2-0.6-1.8c0,0,0,0,0,0c0,0,0,0,0,0
	c2.3-0.3,4.1-2,4.1-4.1c0-0.1,0-0.3,0-0.4c-0.2-2-2.1-3.6-4.5-3.8l-0.5-16.9l-0.5,16.9c-2.4,0.3-4.3,2-4.3,4.2c0,0.3,0,0.6,0.1,0.9
	c0.1,0.5,0.4,1,0.8,1.4c0.7,0.8,1.8,1.4,3,1.7c-0.8,2.6-2.6,6.6-6,11.1c-0.4,0.6-0.9,1.2-1.4,1.7c-1.5,1.8-3.3,3.6-5.5,5.5
	c-0.4,0.4-0.8,0.7-1.3,1.1c-1.9,1.5-3.9,3-6.3,4.5c-0.3,0.2-0.7,0.4-1,0.7c-7.5,4.6-12.2,10-15.1,15.2c-1.2,2.1-2.1,4.1-2.7,6
	c-0.7,2-1.1,3.7-1.4,5.3c-0.2,1-0.3,1.9-0.4,2.6c0-3.2,0-6.3,0-9.5c0-0.7,0-1.3,0-2c0-1.3,0-2.6,0-3.9c0-1.2,0-2.4,0.1-3.6
	c0.1-4,0.2-7.9,0.3-11.8c0.1-3.6,0.2-7.1,0.4-10.5h1c0.7,0,1.2-0.6,1.2-1.2c0,0,0,0,0,0c0-0.7-0.5-1.2-1.2-1.2h-0.8
	c0.2-4.7,0.4-9.1,0.7-13.1c0.7-13,1.5-22.6,1.7-25.5h1.1c0.9,0,1.7-0.7,1.7-1.6c0-0.9-0.8-1.7-1.7-1.7h-1c-0.1-0.9-0.4-2.8-1.6-4.8
	c-0.4-0.6-0.8-1.2-1.4-1.8c-0.4-0.4-0.8-0.8-1.3-1.1c-1.5-1.1-2.6-2.2-3.3-3.2c-0.3-0.5-0.6-0.9-0.8-1.3c-0.3-0.7-0.5-1.3-0.7-1.7
	c0.5-0.1,0.9-0.5,0.9-1c0-0.6-0.5-1.1-1.1-1.1c-0.6,0-1.1,0.5-1.1,1.1c0,0.5,0.4,0.9,0.9,1c-0.1,0.5-0.4,1.3-0.9,2.1
	c-0.3,0.5-0.6,1-1,1.5c-0.7,0.9-1.6,1.8-2.8,2.6c-0.6,0.4-1.1,0.8-1.5,1.3c-0.7,0.7-1.2,1.4-1.6,2.1c-0.7,1.2-1,2.4-1.1,3.3
	c-0.1,0.4-0.1,0.7-0.1,0.9h-1c-0.9,0-1.7,0.7-1.7,1.7c0,0.3,0.1,0.5,0.2,0.7h0c0.2,0.6,0.8,0.9,1.5,0.9h1.1c0,0.2,0,0.3,0,0.5
	c0.3,3.6,1,12.7,1.7,24.9c0,0.5,0,1,0.1,1.4c0.1,1.4,0.1,2.7,0.2,4.2c0.1,2.4,0.2,4.9,0.4,7.5c0,0,0,0,0,0h-0.8
	c-0.3,0-0.6,0.1-0.8,0.3c-0.3,0.2-0.4,0.5-0.4,0.9c0,0,0,0,0,0c0,0.1,0,0.1,0,0.2c0.1,0.6,0.6,1.1,1.2,1.1h0.9c0,0.3,0,0.6,0,0.9
	c0.2,4.8,0.4,9.8,0.5,15c0,0.5,0,1,0,1.4c0.1,5,0.2,10.2,0.2,15.3c0,0.3,0,0.5,0,0.8h-14.6v-39.4h0.9c3.4,0,6.2-2.8,6.2-6.2
	c0-0.7-0.1-1.4-0.3-2c-0.2-0.5-0.4-0.9-0.7-1.4c-1.1-1.7-3-2.8-5.2-2.8h-0.7c-0.6-2.4-1.6-4.8-3-7.3c-1.2-2.1-2.5-4.3-4.1-6.5
	c-2.1-2.9-4.5-5.8-7.1-8.6c-0.4-0.4-0.8-0.9-1.2-1.3c-1.6-1.7-3.3-3.4-5-5.1c-0.6-0.6-1.2-1.2-1.8-1.8c-2.1-2-4.3-4-6.5-5.9
	c-0.9-0.8-1.9-1.6-2.8-2.4c-1.2-1-2.4-2-3.5-3c-0.5-0.4-0.9-0.8-1.4-1.2c0,0-0.1,0-0.1-0.1c-3.5-2.8-6.8-5.5-9.9-7.9
	c-1-0.8-1.9-1.5-2.8-2.2c-0.4-0.3-0.8-0.6-1.2-0.9c-0.8-0.6-1.6-1.2-2.3-1.7c-3.7-2.8-6.6-5.6-8.9-8.3c-0.4-0.5-0.8-1-1.2-1.6
	c-0.9-1.2-1.7-2.4-2.4-3.6c-0.5-0.8-0.8-1.5-1.2-2.3c-0.9-1.9-1.5-3.6-1.9-5.1c1.7-0.1,3-1.2,3-2.7c0-1.4-1.3-2.5-2.9-2.6l-0.1-3.3
	l0-1.4l-0.1-3.3c0.3,0,0.6,0,0.9,0c5.7,0,10.4-4.6,10.5-10.3c-1.3,2.9-4.2,4.8-7.5,4.8c-4.5,0-8.2-3.7-8.2-8.2
	c0-3.2,1.8-5.9,4.4-7.3c-5.4,0.4-9.7,5-9.7,10.5c0,5.5,4.2,10,9.5,10.5l-0.1,3.3l0,1.4l-0.1,3.3c-1.7,0.1-3,1.2-3,2.7
	c0,1.4,1.3,2.6,3,2.7c-0.3,1.2-0.8,2.6-1.5,4.1c-0.2,0.4-0.4,0.9-0.7,1.4c-2.3,4.5-6.3,9.9-13.5,15.2c-0.3,0.2-0.6,0.5-0.9,0.7
	c-0.6,0.5-1.3,0.9-1.9,1.4c-0.8,0.6-1.7,1.3-2.6,2c-0.4,0.3-0.8,0.6-1.2,0.9c-0.6,0.5-1.2,1-1.9,1.5c-0.5,0.4-0.9,0.7-1.4,1.1
	c-4.9,3.9-10.3,8.3-15.5,13c-0.6,0.5-1.2,1.1-1.8,1.6c-3.5,3.2-7,6.6-10.1,10c-0.5,0.5-0.9,1-1.3,1.4c-6.9,7.6-12.3,15.4-14.1,22.3
	H486c-3.4,0-6.2,2.8-6.2,6.2c0,3.4,2.8,6.2,6.2,6.2h0.9v39.4h-16.2c0-0.5,0-0.9,0-1.4c0-0.6,0-1.3,0-1.9c0-2,0-4,0.1-5.9
	c0-1,0-1.9,0.1-2.9c0.1-3.4,0.2-6.8,0.3-10c0-1.3,0.1-2.6,0.1-4c0-1.2,0.1-2.5,0.1-3.7c0-0.6,0-1.3,0.1-1.9c0-0.3,0-0.5,0-0.8h0.9
	c0.2,0,0.3,0,0.5-0.1c0,0,0.1,0,0.1,0c0.4-0.2,0.6-0.6,0.6-1.1c0,0,0,0,0,0c0-0.5-0.3-0.9-0.6-1.1c-0.2-0.1-0.4-0.2-0.6-0.2h-0.8
	c0.2-5,0.5-9.8,0.7-14.1c0.7-12.4,1.4-21.4,1.7-24.3h1c0.9,0,1.7-0.8,1.7-1.7c0-0.2-0.1-0.5-0.1-0.7c-0.2-0.6-0.8-1-1.5-1h-1.1
	c-0.1-0.8-0.3-2.3-1.1-3.8c-0.4-0.7-0.8-1.4-1.4-2.1c-0.5-0.6-1.1-1.1-1.9-1.7c-1.9-1.3-3.1-2.8-3.8-4c-0.3-0.5-0.5-0.9-0.7-1.3
	c-0.1-0.3-0.2-0.6-0.3-0.9c0.5-0.1,0.9-0.5,0.9-1c0-0.6-0.5-1.1-1.1-1.1c-0.6,0-1.1,0.5-1.1,1.1c0,0.5,0.4,0.9,0.9,1
	c-0.1,0.3-0.2,0.6-0.4,1c-0.2,0.5-0.4,1-0.8,1.5c-0.7,1.2-1.8,2.5-3.6,3.7c-0.4,0.2-0.7,0.5-1,0.8c-0.7,0.6-1.2,1.2-1.6,1.9
	c-0.9,1.4-1.4,2.7-1.5,3.8c-0.1,0.5-0.1,0.9-0.2,1.2h-1c-0.8,0-1.5,0.6-1.6,1.3c0,0.1,0,0.2,0,0.3c0,0,0,0,0,0s0,0,0,0
	c0,0.6,0.4,1.2,0.9,1.5c0.2,0.1,0.5,0.2,0.8,0.2h1c0.2,3.1,1,12.1,1.7,24.3c0,0.5,0.1,1,0.1,1.4c0,0.9,0.1,1.8,0.1,2.7
	c0.2,3.2,0.3,6.5,0.5,10h-0.8c-0.2,0-0.5,0.1-0.6,0.2c-0.1,0-0.2,0.1-0.2,0.2c-0.2,0.2-0.4,0.5-0.4,0.9c0,0,0,0.1,0,0.1
	c0,0.5,0.3,0.8,0.8,1c0.2,0.1,0.3,0.1,0.5,0.1h0.9v0.1c0.2,4.7,0.4,9.7,0.5,14.8c0,0.5,0,1,0,1.4c0.1,5,0.2,10,0.3,15.1
	c0,0.5,0,1,0,1.5c0,2.6,0,5.3,0,7.9l-0.4-0.2l-1.3-0.5l-4-1.5v-4.6h1.8v-4.4h-6.5c0.2-0.4,0.8-1.9,1.2-4.1c0.1-0.5,0.2-1.1,0.3-1.8
	c0.2-2.1,0.3-4.6-0.2-7.4c-0.1-0.5-0.2-1-0.3-1.4c-0.4-1.5-0.9-3-1.5-4.5c-0.1-0.2-0.2-0.4-0.3-0.5c-0.2-0.5-0.5-0.9-0.7-1.3
	c-1.4-2.3-3.3-4.2-5.4-5.8c-0.5-0.4-1-0.7-1.4-1c-6.1-4-13.1-5.4-13.1-5.4c0.5-2.6-1.5-3.4-1.5-3.4l-0.3-4.2l-0.2-2.5L425,176
	l-0.1-1.4v-0.1l-0.1,1.4l-0.1,1.9l-0.3,4.4l-0.1,1.7c0,0,0,0-0.1,0.1c-0.3,0.1-1.1,0.6-1.4,1.7c-0.1,0.5-0.2,1,0,1.7
	c0,0-2,0.4-4.7,1.4c-2.8,1-6.4,2.6-9.6,4.9c-1.9,1.4-3.6,3-5,5c-0.6,0.9-1.1,1.8-1.6,2.8c-0.2,0.5-0.4,0.9-0.6,1.4
	c-0.9,2.3-1.3,4.4-1.5,6.4c-0.1,0.6-0.1,1.3-0.1,1.9c-0.2,5.6,1.6,9.5,1.7,9.8h-6.6v4.4h1.9v4.7l-9.3,3.5c0.5-7.4,0.9-13.5,1.3-18.2
	c0.1-0.8,0.1-1.5,0.2-2.2c0.2-2.6,0.4-4.5,0.5-5.8h1.7c1.2,0,2.2-0.7,2.8-1.6c0.1-0.1,0.1-0.2,0.2-0.3c0.2-0.4,0.3-0.8,0.3-1.2v0
	c0-1.1-0.6-2-1.5-2.5c-0.5-0.3-1.1-0.5-1.7-0.5c0,0-0.1,0-0.1,0h-1.7c0-0.5-0.1-1.3-0.3-2.1c-0.5-2.7-1.8-6.5-5.3-9.8
	c-0.4-0.4-0.9-0.9-1.4-1.3c-0.3-0.2-0.6-0.5-0.9-0.7c-5.6-3.9-7.7-8.3-8.5-10.9c0-0.2-0.1-0.4-0.2-0.5c0.6-0.1,1.1-0.4,1.4-0.9
	c0.2-0.3,0.3-0.6,0.3-1c0-1.1-0.9-2-2-2s-2,0.9-2,2c0,0.4,0.1,0.7,0.3,1c0.3,0.5,0.8,0.8,1.3,0.9c0,0.2-0.1,0.3-0.2,0.5
	c-0.4,1.3-1.2,3.2-2.7,5.2c-0.3,0.5-0.7,1-1.1,1.5c-1.2,1.4-2.7,2.8-4.7,4.2c-6.6,4.6-7.7,11.2-7.9,13.9h-1.1l0-20.1v-2.2l0-7.9
	l1.7,0l0-2.8v-1.1H355v-2l0-5.2v-2l0-11l0-2v-4.2h1.1l0-3.9h-1c0.7-1.6,1.1-3.5,0.9-5.5c-0.2-2.4-1.3-4.8-3.8-6.3
	c-0.5-0.3-1-0.6-1.4-0.9c-1-0.6-1.9-1.1-2.8-1.7c-0.4-0.3-0.9-0.5-1.3-0.8c-1.6-1-3-1.9-4.2-3c-0.5-0.5-0.9-0.9-1.3-1.4
	c-1.6-2.1-2.6-4.8-2.6-8.9c0,4.1-1,6.8-2.6,8.9c-0.4,0.5-0.8,1-1.3,1.4c-2.4,2.3-5.8,3.9-9.6,6.3c-2.5,1.6-3.5,3.9-3.8,6.3
	c0,0,0,0,0,0c-0.1,0.6-0.1,1.2,0,1.8c0.1,1.3,0.4,2.6,0.9,3.7h-1l0,3.9h1.1l0,8v1.4l0,17h-1.1l0,3.9h1.7v4l0,1.4l0,10.8
	c-0.6-0.9-1.3-1.8-2.2-2.6c-0.4-0.4-0.9-0.8-1.4-1.2c-0.3-0.2-0.6-0.4-0.9-0.6c-14.1-8.9-24.8-12-24.8-30.5
	c0,12.3-4.8,17.8-12.1,22.7c-0.7,0.5-1.5,1-2.2,1.4c-0.5,0.3-1,0.6-1.5,0.9c-0.4,0.2-0.8,0.5-1.2,0.7c-2.4,1.4-5,2.9-7.7,4.6
	c-1,0.6-1.8,1.3-2.5,2l0-5.2v-1.9l0-7.2l0.8,0v-2.8h-0.7c0.2-0.4,0.4-0.9,0.5-1.4c0.2-0.8,0.3-1.7,0.2-2.5c-0.1-1.3-0.6-2.6-1.6-3.6
	c-0.3-0.3-0.7-0.6-1.1-0.9c0,0,0,0-0.1,0c-5-3.1-8.8-4.5-9.5-10c-0.1-0.5-0.1-1-0.1-1.5c0-0.1,0-0.2,0-0.3c0,0.1,0,0.2,0,0.3
	c0,0.6,0,1.1-0.1,1.6c-0.2,1.3-0.5,2.4-1.1,3.4c-0.2,0.4-0.5,0.8-0.8,1.2c-1.7,2.1-4.5,3.3-7.7,5.4c-1.8,1.1-2.5,2.8-2.7,4.5
	c-0.2,1.4,0.1,2.8,0.6,3.9h-0.7v2.8h0.8v4.5l0,1.4l0,12.9h-0.8v2.8h1.2l0,14.4v1.4l0,5h-0.7c-0.1-1-0.3-2.9-1.3-4.9
	c-0.3-0.5-0.6-1.1-1-1.7c-0.8-1.2-1.9-2.3-3.4-3.4c-3.3-2.3-4.9-4.9-5.7-6.7c-0.2-0.6-0.4-1-0.5-1.4c0.2,0,0.3-0.1,0.5-0.2
	c0.3-0.2,0.6-0.5,0.7-0.8c0-0.1,0-0.2,0-0.3c0-0.5-0.2-0.9-0.6-1.1c0,0-0.1-0.1-0.1-0.1c-0.2-0.1-0.4-0.2-0.7-0.2
	c-0.3,0-0.5,0.1-0.7,0.2c-0.4,0.2-0.7,0.7-0.7,1.2c0,0.3,0.1,0.6,0.3,0.8c0.2,0.3,0.5,0.5,0.9,0.6c-0.1,0.4-0.2,0.8-0.4,1.3
	c-0.8,1.9-2.3,4.5-5.7,6.9c-2.3,1.6-3.7,3.6-4.5,5.4c-0.2,0.5-0.4,1-0.6,1.5c-0.4,1.3-0.6,2.4-0.6,3.1h-1.2c-0.3,0-0.7,0.1-0.9,0.2
	c-0.8,0.3-1.3,1.1-1.3,2v0c0,0,0,0,0,0.1c0,1.2,1,2.3,2.3,2.3h1.3c0.2,2.9,0.8,9.5,1.4,18.6h0c-0.3-3.6-2-12.4-11.1-19.3
	c-0.4-0.3-0.8-0.6-1.2-0.8c-0.6-0.4-1.2-0.8-1.8-1.2c-0.8-0.5-1.6-1-2.4-1.5c-3.4-2.3-6-4.8-7.9-7.1c-3-3.6-4.4-6.8-5.1-8.8
	c1.7-0.2,3-1.4,3-2.9c0-1.4-1.1-2.6-2.7-2.9c-0.2,0-0.3-0.1-0.5-0.1l0-1.2l0-1.1l-0.3-8.7l0-1l0,0.9l-0.3,11.2c-1.7,0.2-3,1.4-3,3
	c0,0,0,0.1,0,0.2c0.1,1.4,1.3,2.5,2.8,2.7c-0.7,2.1-2.2,5.6-5.4,9.3c-0.4,0.5-0.9,1-1.3,1.4c-1.2,1.2-2.6,2.5-4.3,3.8
	c-0.4,0.3-0.8,0.6-1.2,0.9c-1,0.7-2,1.4-3.1,2.1c-0.2,0.1-0.4,0.2-0.5,0.3c-0.5,0.3-1,0.6-1.4,1c-9.5,6.7-11.6,15.4-12.1,19.5
	c0-4.9,0-9.8,0.1-14.5c0-0.7,0-1.4,0.1-2.1c0.1-3.7,0.2-7.4,0.4-10.8c0-0.5,0-1,0.1-1.4c0-0.2,0-0.3,0-0.5h0.6
	c0.5,0,0.9-0.4,0.9-0.9s-0.4-0.9-0.9-0.9h-0.6c0.1-2.7,0.2-5.3,0.4-7.8c0-0.7,0.1-1.3,0.1-1.9c0.5-9.1,1.1-15.8,1.2-17.8h0.8
	c0.1,0,0.3,0,0.4-0.1c0.5-0.1,0.8-0.6,0.8-1.1c0-0.1,0-0.1,0-0.2c-0.1-0.6-0.6-1-1.2-1h-0.8c0-0.1,0-0.2,0-0.4
	c-0.1-0.4-0.2-1-0.4-1.6c-0.4-1.1-1.2-2.4-2.7-3.4c-2.3-1.6-3.1-3.5-3.4-4.4c0.4,0,0.7-0.4,0.7-0.7c0-0.4-0.3-0.8-0.8-0.8
	c-0.4,0-0.8,0.3-0.8,0.8c0,0.4,0.3,0.7,0.6,0.7c-0.3,0.9-1,2.8-3.4,4.4c-2.6,1.8-3,4.4-3.1,5.4h-0.8c-0.4,0-0.8,0.2-1,0.5
	c-0.1,0.2-0.2,0.4-0.2,0.6c0,0.3,0.1,0.6,0.3,0.8c0.2,0.2,0.5,0.4,0.8,0.4h0.8c0.1,1.7,0.5,6.2,0.9,12.3c0,0.5,0.1,0.9,0.1,1.4
	c0.2,4,0.5,8.7,0.7,13.7h-0.6c-0.5,0-0.9,0.4-0.9,0.9s0.4,0.9,0.9,0.9h0.7c0,0.1,0,0.2,0,0.3c0,0.6,0,1.2,0.1,1.8
	c0.2,5,0.4,10.3,0.4,15.7c0,0.5,0,1,0,1.4c0,1.5,0,3.1,0,4.6h-10.4v-28.1h0.7c0.2,0,0.3,0,0.5,0c0.5-0.1,1-0.2,1.4-0.4
	c1.5-0.7,2.5-2.2,2.5-4c0-1.9-1.3-3.6-3-4.2c-0.4-0.1-0.9-0.2-1.3-0.2h-0.5c-0.2-0.8-0.5-1.7-0.9-2.5c-5.3-13.1-26-29.3-36.7-37.3
	c-1.4-1.1-2.7-2.1-3.8-3.2c-0.5-0.5-1-1-1.4-1.4c-0.1-0.1-0.2-0.2-0.2-0.2c-0.3-0.4-0.7-0.7-1-1.1c-2.8-3.4-4.1-6.5-4.7-8.8
	c1.2-0.1,2.1-0.9,2.1-1.9c0-1-0.9-1.8-2-1.9l-0.1-5.7c0.2,0,0.4,0,0.6,0c0.1,0,0.2,0,0.2,0c0.6,0,1.2-0.1,1.8-0.3
	c3.1-0.9,5.4-3.7,5.5-7.1c-0.9,2-3,3.5-5.3,3.5c-3.2,0-5.9-2.6-5.9-5.9c0-0.2,0-0.5,0-0.7c0.1-0.5,0.2-1,0.3-1.4
	c0.5-1.3,1.5-2.4,2.8-3.1c-2.2,0.2-4.2,1.4-5.5,3.1c-0.3,0.4-0.6,0.9-0.8,1.4c-0.1,0.3-0.2,0.6-0.3,0.9c-0.2,0.6-0.3,1.2-0.3,1.8
	c0,0.1,0,0.2,0,0.2c0,3.9,3,7.1,6.8,7.5l-0.1,5.7c-1.2,0.1-2.2,0.9-2.2,1.9c0,1,0.9,1.8,2.1,1.9c-0.6,2.1-1.7,4.9-4,7.8
	c-0.3,0.4-0.6,0.7-0.9,1.1c-1.6,1.9-3.6,3.9-6.2,5.8c-1,0.8-2.2,1.7-3.4,2.6c-0.4,0.3-0.8,0.6-1.2,0.9c-6.4,4.9-14.4,11.5-21,18.3
	c-0.5,0.5-0.9,1-1.4,1.4c-0.6,0.6-1.2,1.3-1.8,1.9c-0.5,0.6-1,1.1-1.4,1.7c-3.7,4.5-6.5,8.9-7.5,13h-0.5c-2.4,0-4.4,2-4.4,4.4
	c0,2.4,2,4.4,4.4,4.4h0.6v28.1H32.6c0-5.4,0.2-10.7,0.3-15.8c0-0.7,0-1.4,0.1-2.1c0.1-1.8,0.1-3.5,0.2-5.2h0.6c0.1,0,0.2,0,0.4-0.1
	c0.3-0.1,0.5-0.4,0.5-0.8v0c0-0.5-0.4-0.9-0.9-0.9h-0.5c0-0.8,0.1-1.5,0.1-2.3c0-0.6,0.1-1.3,0.1-1.9c0.6-11.8,1.3-20.7,1.5-23.2
	h0.7c0.7,0,1.2-0.5,1.2-1.2c0-0.2,0-0.3-0.1-0.5c-0.2-0.4-0.6-0.7-1.1-0.7H35c-0.1-1-0.5-3.6-3.1-5.4c-2.3-1.6-3.1-3.5-3.4-4.4
	c0.4-0.1,0.7-0.4,0.7-0.7c0-0.4-0.3-0.8-0.8-0.8c-0.4,0-0.8,0.3-0.8,0.8c0,0.4,0.3,0.7,0.6,0.7c-0.3,0.9-1,2.8-3.4,4.5
	c-2.4,1.7-3,4.1-3.1,5.2c0,0.1,0,0.2,0,0.2h-0.8c-0.7,0-1.2,0.5-1.2,1.2c0,0,0,0,0,0s0,0,0,0c0,0,0,0,0,0c0,0.7,0.6,1.2,1.2,1.2h0.7
	c0.2,1.9,0.5,6.6,0.9,13.1c0,0.6,0.1,1.2,0.1,1.8c0.2,2.7,0.3,5.7,0.5,8.9c0,0.7,0.1,1.5,0.1,2.2c0,0.5,0,1,0.1,1.4H23
	c-0.2,0-0.5,0.1-0.6,0.3c-0.2,0.2-0.3,0.4-0.3,0.6c0,0.4,0.2,0.7,0.5,0.8c0.1,0,0.2,0.1,0.3,0.1h0.6c0.1,1.4,0.1,2.9,0.2,4.4
	c0,0.9,0.1,1.8,0.1,2.8c0.1,2.3,0.1,4.6,0.2,6.9c0,0.6,0,1.2,0,1.8c0.1,4.3,0.1,8.8,0.1,13.2l-4.1-1.6v-3.3h1.3v-3h0v-0.1h-4.7
	c0.1-0.3,0.5-1.2,0.8-2.6c0.1-0.4,0.2-0.9,0.2-1.5c0.3-2.5,0.2-5.9-1.5-9.7c-1.2-2.7-3.3-4.7-5.6-6.2c-0.8-0.5-1.7-1-2.5-1.4
	c-3.2-1.6-6.1-2.2-6.6-2.4V250H1440v-38.2C1438.8,210.3,1437.3,208.9,1435.7,207.4z M1186.1,150.6v7.9h-1.7v-7.9H1186.1z
	 M1179.7,162.8h0.1c1.8,0,3.3,1.5,3.3,3.3v6.6h-6.7v-6.6C1176.4,164.3,1177.9,162.8,1179.7,162.8z M1177,158.5v-7.9h1.7v7.9H1177z
	 M1180.7,158.5v-7.9h1.7v7.9H1180.7z M1173.3,150.6h1.7v7.9h-1.7V150.6z M646.7,157.1H645v-7.9h1.7V157.1z M641.3,149.2h1.7v7.9
	h-1.7V149.2z M640.6,165.8c0-1.9,1.5-3.4,3.4-3.4c1.8,0,3.3,1.5,3.3,3.4v6.5h-6.7V165.8z M650.4,149.2v7.9h-1.7v-7.9H650.4z
	 M637.6,149.2h1.7v7.9h-1.7V149.2z M471.3,150.2v7.9h-1.7v-7.9H471.3z M464.9,162.4h0.1c1.8,0,3.3,1.5,3.3,3.3v6.6h-6.7v-6.6
	C461.6,163.9,463.1,162.4,464.9,162.4z M462.2,158.1v-7.9h1.7v7.9H462.2z M465.9,158.1v-7.9h1.7v7.9H465.9z M458.5,150.2h1.7v7.9
	h-1.7V150.2z M30.9,198.5v4.7h-4.8v-4.7c0-1,0.6-1.8,1.4-2.1c0.3-0.1,0.6-0.2,1-0.2h0.1c0.3,0,0.6,0.1,0.9,0.2l0,0
	c0.5,0.2,1,0.7,1.2,1.2l0,0C30.8,197.8,30.9,198.1,30.9,198.5z M31.8,177.2H33v5.6h-1.2V177.2z M29.2,177.2h1.2v5.6h-1.2V177.2z
	 M28.5,185.8L28.5,185.8c1.4,0,2.4,1.1,2.4,2.3v4.7h-4.8v-4.7c0-0.5,0.2-1,0.4-1.3C27,186.2,27.7,185.8,28.5,185.8z M27.7,182.8
	h-1.2v-5.6h1.2V182.8z M25.1,177.2v5.6h-1.2v-5.6H25.1z M153.6,203.2v-4.7c0-1.3,1.1-2.4,2.4-2.4c1.3,0,2.4,1.1,2.4,2.4v4.7H153.6z
	 M154.1,182v-5.6h1.2v5.6H154.1z M156.8,176.4h1.2v5.6h-1.2V176.4z M159.4,176.4h1.2v5.6h-1.2V176.4z M152.7,182h-1.2v-5.6h1.2V182z
	 M153.6,188.2c0-1,0.6-1.8,1.4-2.2c0.3-0.1,0.6-0.2,1-0.2c0.1,0,0.3,0,0.4,0c1.1,0.2,2,1.2,2,2.3v4.7h-4.8V188.2z M98,229.4H86.3
	v-15.3c0-1.1,0.3-2.1,0.8-2.9c0.2-0.4,0.5-0.8,0.9-1.2c1.1-1.1,2.6-1.8,4.2-1.8c3.2,0,5.9,2.6,5.9,5.8V229.4z M79.4,214.1v15.3H67.7
	v-15.3c0-3.2,2.6-5.8,5.9-5.8c2,0,3.9,1.1,4.9,2.6c0.3,0.4,0.5,0.9,0.7,1.4C79.3,212.8,79.4,213.5,79.4,214.1z M49.1,214.1
	c0-3.2,2.6-5.8,5.8-5.8c0.5,0,1.1,0.1,1.5,0.2c0.6,0.2,1.1,0.4,1.5,0.7c1.7,1,2.8,2.9,2.8,5v15.3H49.1V214.1z M116.6,229.4h-11.7
	v-15.3c0-2.4,1.5-4.5,3.6-5.4c0.6-0.3,1.3-0.4,2-0.4c0.1,0,0.2,0,0.2,0c3.2,0,5.8,2.6,5.8,5.8V229.4z M135.2,229.4h-11.7v-15.3
	c0-0.8,0.1-1.5,0.4-2.1c0.6-1.5,1.8-2.8,3.3-3.3c0.6-0.2,1.2-0.4,1.8-0.4c0.1,0,0.2,0,0.3,0c0.7,0,1.4,0.1,2.1,0.4
	c1.6,0.6,2.8,1.8,3.4,3.4c0.2,0.6,0.4,1.3,0.4,2.1V229.4z M377.3,221.6h-3.1v-14.5h3.1V221.6z M367.5,221.6v-14.5h3.1v14.5H367.5z
	 M360.7,207.1h3.1v14.5h-3.1V207.1z M333,158.8l0-1.3c-0.7,0-1.2-0.6-1.2-1.2l0-5.6c0-0.5,0.2-0.8,0.6-1.1c0.2-0.1,0.4-0.2,0.6-0.2
	v-1.3h0.5c-0.1-0.2-0.1-0.5,0-0.8c0.1-0.6,0.4-1.2,1.1-1.7c0.1-0.1,0.2-0.1,0.3-0.2c0.4-0.2,0.9-0.5,1.3-0.7
	c1.4-0.7,2.4-1.4,2.5-3.1h0c0.2,2.3,1.9,2.8,4,4c0.8,0.4,1.1,1,1.1,1.7v0c0,0.3,0,0.5,0,0.8h0.5v0.5l0,0.8c0.7,0,1.2,0.5,1.2,1.2
	l0,4.3v1.3c0,0.2,0,0.4-0.1,0.5c-0.2,0.4-0.6,0.7-1.1,0.7v1.3h-0.5c0,0.2,0.1,0.5,0,0.8c-0.1,0.6-0.4,1.2-1.1,1.7
	c-2.2,1.2-3.8,1.7-4.1,3.9h0c-0.2-2.2-1.9-2.7-4-3.9c-0.8-0.4-1.1-1-1.1-1.7c0-0.3,0-0.5,0-0.8H333z M350.9,141.7L350.9,141.7
	c0,0.3,0,0.6,0.1,0.9c0.3,1.5,1,2,1.9,3.1c0.4,0.4,0.5,1,0.6,1.7c0,0.3,0,0.5,0,0.8h0.3v1.3c0.3,0,0.6,0.5,0.6,1.2v5.6
	c0,0.7-0.3,1.2-0.6,1.2v1.3h-0.3c0,0.1,0,0.1,0,0.2c0,0.2,0,0.4,0,0.6c0,0.6-0.2,1.2-0.6,1.7c-0.8,0.9-1.5,1.4-1.8,2.4
	c-0.1,0.4-0.2,0.9-0.2,1.5h0c0-0.4-0.1-0.8-0.1-1.1c-0.1-0.6-0.3-1-0.6-1.4c-0.3-0.5-0.8-0.9-1.3-1.4c-0.4-0.4-0.5-1-0.6-1.7v0
	c0-0.3,0-0.5,0-0.8H348l0-1.3c-0.3,0-0.5-0.3-0.6-0.8v0c0-0.2,0-0.3,0-0.5l0-5.6c0-0.7,0.3-1.2,0.6-1.2v-1.3h0.3c0-0.2,0-0.5,0-0.8
	c0-0.6,0.2-1.2,0.5-1.6c0.2-0.2,0.3-0.3,0.4-0.5c0.6-0.6,1.1-1.1,1.4-2C350.8,142.9,350.9,142.4,350.9,141.7z M323.7,149.4v-1.3h0.3
	c0-0.3,0-0.5,0-0.8c0-0.6,0.2-1.2,0.6-1.7c1.1-1.2,2-1.7,2-4h0c0.1,2.3,0.9,2.8,2,4c0.4,0.4,0.5,1,0.6,1.7c0,0.3,0,0.5,0,0.8h0.3
	v1.3c0.1,0,0.2,0.1,0.3,0.2c0.2,0.2,0.3,0.6,0.3,1.1l0,5.6c0,0.7-0.3,1.2-0.6,1.2v1.3h-0.3c0,0.2,0,0.5,0,0.8c0,0.6-0.2,1.2-0.6,1.7
	c-1.1,1.2-1.9,1.7-2,3.9h0c-0.1-2.2-0.9-2.7-2-3.9c-0.4-0.4-0.5-1-0.6-1.7c0-0.3,0-0.5,0-0.8h-0.3v-1.3c-0.3,0-0.6-0.5-0.6-1.2v-5.6
	c0-0.4,0.1-0.8,0.3-1C323.5,149.5,323.6,149.4,323.7,149.4z M265.9,203.2C265.9,203.2,265.9,203.2,265.9,203.2l0-1.2l0-8V203.2z
	 M265.9,181.5c0,0.5-0.2,0.9-0.4,0.9v0.9h-0.2c0,0.2,0,0.4,0,0.6c0,0.5-0.1,0.9-0.4,1.2c-0.8,0.9-1.4,1.2-1.5,2.8h0
	c0-0.7-0.2-1.2-0.4-1.5c-0.3-0.5-0.6-0.8-1.1-1.2c-0.3-0.3-0.4-0.7-0.4-1.2c0-0.2,0-0.4,0-0.6h-0.2v-0.9c-0.2,0-0.4-0.4-0.4-0.9
	v-1.3l0-2.7c0-0.5,0.2-0.9,0.4-0.9v-0.9h0.2c0-0.2,0-0.4,0-0.6c0-0.5,0.1-0.9,0.4-1.2c0.8-0.9,1.4-1.2,1.5-2.8h0
	c0.1,1.6,0.7,2,1.5,2.8c0.3,0.3,0.4,0.7,0.4,1.2c0,0.2,0,0.4,0,0.6h0.2v0.9c0.2,0,0.4,0.4,0.4,0.9V181.5z M259.7,181.5
	c0,0.5-0.4,0.9-0.9,0.9v0.9h-0.4c0,0.2,0,0.4,0,0.6c-0.1,0.5-0.3,0.9-0.8,1.2c-1.5,0.9-2.7,1.2-2.9,2.8h0c-0.1-1.6-1.3-1.9-2.9-2.8
	c-0.5-0.3-0.8-0.7-0.8-1.2c0-0.2,0-0.4,0-0.6h-0.4v-0.9c-0.5,0-0.9-0.4-0.9-0.9v-4c0-0.5,0.4-0.9,0.9-0.9v-0.9h0.4
	c0-0.2,0-0.4,0-0.6c0-0.2,0.1-0.4,0.2-0.5c0.1-0.2,0.3-0.5,0.6-0.7c1.6-0.9,2.8-1.2,2.9-2.8h0c0.1,1.6,1.3,2,2.9,2.8
	c0.5,0.3,0.8,0.7,0.8,1.2c0,0.2,0,0.4,0,0.6h0.4v0.9c0.5,0,0.9,0.4,0.9,0.9V181.5z M239.1,227.2H237v-10.3h2.2V227.2z M234.3,227.2
	h-2.2v-10.3h2.2V227.2z M244,175.6h0.2c0-0.2,0-0.4,0-0.6s0-0.4,0.1-0.6c0.1-0.2,0.2-0.5,0.3-0.6c0.8-0.9,1.4-1.2,1.5-2.8h0
	c0.1,1.6,0.7,2,1.4,2.8c0.2,0.2,0.3,0.4,0.3,0.6c0,0.2,0.1,0.4,0.1,0.6c0,0.2,0,0.4,0,0.6h0.2v0.9c0.2,0,0.3,0.2,0.4,0.5
	c0,0.1,0.1,0.3,0.1,0.4l0,4c0,0.5-0.2,0.9-0.4,0.9v0.9h-0.2c0,0.2,0,0.4,0,0.6c0,0.5-0.1,0.9-0.4,1.2c-0.8,0.8-1.3,1.2-1.4,2.6
	c0,0,0,0.1,0,0.1h0c0-0.1,0-0.2,0-0.3c0-0.4-0.1-0.7-0.2-0.9c-0.3-0.6-0.7-0.9-1.2-1.5c-0.3-0.3-0.4-0.7-0.4-1.2v0
	c0-0.2,0-0.4,0-0.5H244v-0.9c-0.2,0-0.4-0.4-0.4-0.9v-4c0-0.5,0.2-0.9,0.4-0.9V175.6z M224.7,227.2h-2.2v-10.3h2.2V227.2z
	 M229.5,227.2h-2.2v-10.3h2.2V227.2z M384.1,221.6H381v-14.5h3.1V221.6z M461.6,186.7v-6.6c0-1.8,1.5-3.3,3.3-3.3h0.1
	c1.8,0,3.3,1.5,3.3,3.3v6.6H461.6z M640.6,186.7v-6.5c0-1.9,1.5-3.4,3.4-3.4c1.8,0,3.3,1.5,3.3,3.4v6.5H640.6z M614.8,202.1v21.5
	h-16.4v-21.5c0-4.2,3.2-7.7,7.3-8.2c0.3,0,0.6,0,0.9,0c0.4,0,0.8,0,1.2,0.1c3.6,0.5,6.4,3.4,6.9,6.9
	C614.7,201.3,614.8,201.7,614.8,202.1z M536.5,223.6H520v-21.5c0-1.3,0.3-2.5,0.9-3.6c0.2-0.4,0.5-0.9,0.8-1.3
	c1.5-2,3.9-3.3,6.6-3.3c0.4,0,0.8,0,1.2,0.1c0.5,0.1,1,0.2,1.4,0.4c2.5,0.9,4.5,2.9,5.2,5.5c0.2,0.5,0.3,1.1,0.3,1.7
	c0,0.2,0,0.4,0,0.6V223.6z M493.9,202.1c0-1.2,0.2-2.3,0.7-3.3c0.9-2.1,2.7-3.7,4.8-4.5c0.8-0.3,1.8-0.5,2.7-0.5
	c4.5,0,8.2,3.7,8.2,8.2v21.5h-16.4V202.1z M562.6,223.6h-16.4v-21.5c0-4.5,3.7-8.2,8.2-8.2c2.6,0,4.9,1.2,6.4,3.1
	c0.4,0.5,0.8,1.1,1,1.7c0.5,1,0.8,2.2,0.8,3.5V223.6z M572.2,202.1c0-4.5,3.7-8.2,8.2-8.2c1.8,0,3.5,0.6,4.8,1.6
	c0.4,0.3,0.8,0.6,1.1,1c0.6,0.6,1.1,1.4,1.5,2.2c0.2,0.4,0.4,0.9,0.5,1.3c0.2,0.7,0.3,1.4,0.3,2.1v21.5h-16.4V202.1z M745.7,198.8
	v4.7h-4.8v-4.7c0-1,0.6-1.8,1.4-2.1c0.3-0.1,0.6-0.2,1-0.2h0.1c0.4,0,0.7,0.1,1,0.2c0.5,0.2,0.9,0.6,1.1,1.1
	C745.6,198.1,745.7,198.5,745.7,198.8z M746.6,177.6h1.2v5.6h-1.2V177.6z M743.9,177.6h1.2v5.6h-1.2V177.6z M741.3,177.6h1.2v5.6
	h-1.2V177.6z M743.2,186.2L743.2,186.2c1.4,0,2.4,1,2.4,2.3v4.7h-4.8v-4.7c0-0.2,0-0.4,0.1-0.6C741.3,187,742.2,186.2,743.2,186.2z
	 M739.9,177.6v5.6h-1.2v-5.6H739.9z M868.4,203.6v-4.7c0-1.3,1.1-2.4,2.4-2.4c1.3,0,2.4,1.1,2.4,2.4v4.7H868.4z M868.9,182.4v-5.6
	h1.2v5.6H868.9z M871.5,176.8h1.2v5.6h-1.2V176.8z M875.4,176.8v5.6h-1.2v-5.6H875.4z M867.5,176.8v5.6h-1.2v-5.6H867.5z
	 M868.4,188.6c0-0.8,0.4-1.6,1.1-2c0.4-0.2,0.8-0.4,1.3-0.4h0.1c1.3,0.1,2.3,1.1,2.3,2.4v4.7h-4.8V188.6z M782.5,214.5
	c0-3.2,2.6-5.8,5.8-5.8c1.9,0,3.5,0.9,4.6,2.2c0.3,0.4,0.6,0.8,0.8,1.3c0.3,0.7,0.5,1.5,0.5,2.4v15.3h-11.7V214.5z M812.8,229.8
	h-11.7v-15.3c0-1.1,0.3-2.1,0.8-3c0.2-0.4,0.5-0.8,0.9-1.1c1.1-1.1,2.5-1.7,4.2-1.7c3.2,0,5.8,2.6,5.8,5.8V229.8z M763.9,214.5
	c0-3.2,2.6-5.8,5.9-5.8c0.3,0,0.6,0,0.9,0.1c0.6,0.1,1.2,0.3,1.7,0.5c1.9,1,3.3,2.9,3.3,5.2v15.3h-11.7V214.5z M831.4,229.8h-11.7
	v-15.3c0-2.5,1.6-4.7,3.8-5.5c0.6-0.2,1.3-0.4,2-0.4h0.1c3.2,0,5.9,2.6,5.9,5.8V229.8z M850,229.8h-11.7v-15.3
	c0-3.1,2.5-5.7,5.6-5.8c0.1,0,0.2,0,0.3,0c0.8,0,1.5,0.1,2.1,0.4c1.5,0.6,2.7,1.8,3.3,3.3c0.3,0.7,0.4,1.4,0.4,2.1V229.8z
	 M1092.1,221.9h-3.1v-14.5h3.1V221.9z M1082.3,221.9v-14.5h3.1v14.5H1082.3z M1075.5,207.5h3.1v14.5h-3.1V207.5z M1047.8,159.2v-1.3
	c-0.7,0-1.2-0.6-1.2-1.2l0-5.6c0-0.7,0.5-1.2,1.2-1.2v-1.3h0.5c0-0.1,0-0.2,0-0.4c0-0.1,0-0.3,0-0.4c0.1-0.6,0.4-1.2,1.1-1.7
	c0.1,0,0.2-0.1,0.2-0.1c0.4-0.2,0.9-0.5,1.2-0.7c0,0,0,0,0,0c1.4-0.8,2.5-1.4,2.6-3.2h0c0.2,2.3,1.9,2.8,4.1,4
	c0.6,0.3,0.9,0.7,1,1.2c0,0.1,0.1,0.3,0.1,0.5c0,0.3,0,0.5,0,0.8h0.5v1.3c0.7,0,1.2,0.6,1.2,1.2v5.6c0,0.2,0,0.4-0.1,0.5
	c-0.2,0.4-0.6,0.7-1.1,0.7v1.3h-0.5c0.1,0.2,0.1,0.5,0,0.8c-0.1,0.6-0.4,1.2-1.1,1.7c-2.2,1.2-3.9,1.7-4.1,3.9h0
	c-0.2-2.2-1.9-2.7-4.1-3.9c-0.8-0.4-1.1-1-1.1-1.7c0-0.3,0-0.5,0-0.8H1047.8z M1065.7,142.1L1065.7,142.1L1065.7,142.1
	c0.1,2.3,0.9,2.8,2,4c0.4,0.4,0.5,1,0.6,1.7c0,0.3,0,0.5,0,0.8h0.3v1.3c0.3,0,0.6,0.6,0.6,1.2l0,5.6c0,0.7-0.3,1.2-0.6,1.2v1.3h-0.3
	c0,0.3,0,0.5,0,0.8c0,0.3-0.1,0.5-0.1,0.8c-0.1,0.3-0.2,0.6-0.4,0.8c-0.2,0.2-0.4,0.4-0.6,0.6c-0.4,0.4-0.7,0.7-0.9,1.1
	c-0.3,0.5-0.5,1.2-0.5,2.1h0c0-0.7-0.1-1.2-0.3-1.6c-0.2-0.5-0.5-0.9-0.8-1.2c-0.3-0.3-0.6-0.6-1-1c-0.4-0.4-0.5-1-0.6-1.7v0
	c0-0.3,0-0.5,0-0.8h-0.3v-1.3c-0.3,0-0.5-0.3-0.6-0.8c0-0.1,0-0.3,0-0.4V151c0-0.7,0.3-1.2,0.6-1.2v-1.3h0.3c0-0.2,0-0.5,0-0.8
	c0-0.6,0.2-1.2,0.6-1.7C1064.7,144.9,1065.6,144.4,1065.7,142.1L1065.7,142.1z M1038.5,148.5h0.3c0-0.1,0-0.2,0-0.3
	c0-0.1,0-0.3,0-0.4c0-0.6,0.2-1.2,0.6-1.7c1.1-1.2,1.9-1.7,2-4h0c0.1,2.3,0.9,2.8,2,4c0.4,0.4,0.5,1,0.6,1.7c0,0.2,0,0.3,0,0.4
	c0,0.1,0,0.2,0,0.4h0.3l0,1.1v0.2c0.3,0,0.6,0.6,0.6,1.2l0,5.6c0,0.7-0.3,1.2-0.6,1.2v1.3h-0.3c0,0.2,0,0.5,0,0.8
	c0,0.6-0.2,1.2-0.6,1.7c-1.1,1.2-1.9,1.7-2,3.9h0c-0.1-2.2-0.9-2.7-2-3.9c-0.4-0.4-0.5-1-0.6-1.7c0-0.3,0-0.5,0-0.8h-0.3v-1.3
	c-0.3,0-0.6-0.5-0.6-1.2l0-5.6c0-0.7,0.3-1.2,0.6-1.2V148.5z M980.7,203.6C980.7,203.6,980.7,203.6,980.7,203.6l0-1.9l0-7.3V203.6z
	 M980.7,177.9v1.3l0,2.7c0,0.5-0.2,0.9-0.4,0.9v0.9h-0.2c0,0.2,0,0.4,0,0.6c0,0.5-0.1,0.9-0.4,1.2c-0.8,0.8-1.4,1.2-1.4,2.8h0
	c0-1-0.3-1.5-0.7-2c-0.2-0.2-0.4-0.5-0.7-0.8c-0.3-0.3-0.4-0.7-0.4-1.2c0-0.2,0-0.4,0-0.6h-0.2v-0.9c-0.2,0-0.4-0.4-0.4-0.9v-1.1
	l0-2.9c0-0.5,0.2-0.9,0.4-0.9v-0.9h0.2c0-0.2,0-0.4,0-0.6c0-0.5,0.1-0.9,0.4-1.2c0.8-0.9,1.4-1.2,1.5-2.8h0c0.1,1.6,0.7,2,1.4,2.8
	c0.3,0.3,0.4,0.7,0.4,1.2c0,0.2,0,0.4,0,0.6h0.2v0.9c0.1,0,0.3,0.2,0.4,0.4C980.7,177.5,980.7,177.7,980.7,177.9z M974.5,179l0,2.4
	v0.4c0,0.5-0.4,0.9-0.9,0.9v0.9h-0.4c0,0.2,0.1,0.4,0,0.6c-0.1,0.5-0.3,0.9-0.8,1.2c-1.5,0.9-2.7,1.2-2.9,2.8h0
	c-0.2-1.6-1.3-1.9-2.9-2.8c-0.5-0.3-0.8-0.7-0.8-1.2c0-0.2,0-0.4,0-0.6h-0.4v-0.9c-0.5,0-0.9-0.4-0.9-0.9v-4c0-0.5,0.4-0.9,0.9-0.9
	V176h0.4v0c0-0.2,0-0.3,0-0.5c0-0.3,0.1-0.6,0.4-0.9c0.1-0.1,0.2-0.2,0.4-0.3c1.6-0.9,2.8-1.2,2.9-2.8h0c0.1,1.6,1.3,2,2.9,2.8
	c0.5,0.3,0.8,0.7,0.8,1.2c0,0.2,0,0.4,0,0.6l0.4,0v0.9c0.5,0,0.9,0.4,0.9,0.9V179z M953.9,227.6h-2.2v-10.3h2.2V227.6z M949.1,227.6
	h-2.2v-10.3h2.2V227.6z M959,175.5c0-0.3,0.1-0.7,0.2-0.9c0-0.1,0.1-0.2,0.2-0.2c0.8-0.9,1.4-1.2,1.5-2.8h0c0.1,1.6,0.7,2,1.5,2.8
	c0.1,0.1,0.1,0.2,0.2,0.2c0.2,0.3,0.2,0.6,0.2,1c0,0.2,0,0.4,0,0.6h0.2l0,0.9c0,0,0.1,0,0.1,0c0.2,0.1,0.3,0.4,0.3,0.9v4
	c0,0.5-0.2,0.9-0.4,0.9v0.9h-0.2c0,0.2,0,0.4,0,0.6c0,0.5-0.1,0.9-0.4,1.2c-0.8,0.8-1.4,1.2-1.5,2.8h0c0-1-0.3-1.5-0.6-1.9
	c-0.2-0.3-0.5-0.5-0.8-0.9c-0.3-0.3-0.4-0.7-0.4-1.2c0-0.2,0-0.4,0-0.6h-0.2l0-0.9c0,0,0,0-0.1,0c-0.2-0.1-0.4-0.4-0.4-0.9v-4
	c0-0.5,0.2-0.9,0.4-0.9l0-0.9h0.2V176C959,175.8,959,175.6,959,175.5z M939.5,227.6h-2.2v-10.3h2.2V227.6z M944.3,227.6h-2.2v-10.3
	h2.2V227.6z M1098.9,221.9h-3.1v-14.5h3.1V221.9z M1183.1,187.1h-6.7v-6.6c0-1.8,1.5-3.3,3.3-3.3h0.1c1.8,0,3.3,1.5,3.3,3.3V187.1z
	 M1355.4,187.1v-6.5c0-1.8,1.5-3.3,3.3-3.3s3.3,1.5,3.3,3.3v6.5H1355.4z M1365.2,149.6v7.9h-1.7v-7.9H1365.2z M1356.1,149.6h1.7v7.9
	h-1.7V149.6z M1355.4,166.1c0-1.8,1.5-3.3,3.3-3.3s3.3,1.5,3.3,3.3v6.5h-6.7V166.1z M1361.5,157.5h-1.7v-7.9h1.7V157.5z
	 M1352.4,149.6h1.7v7.9h-1.7V149.6z M1329.6,202.5V224h-16.4v-21.5c0-4.3,3.2-7.8,7.4-8.2h0c0.3,0,0.6,0,0.8,0c0.4,0,0.8,0,1.2,0.1
	h0c3.5,0.6,6.3,3.3,6.9,6.9v0C1329.5,201.6,1329.6,202,1329.6,202.5z M1251.3,224h-16.4v-21.5c0-1.3,0.3-2.6,0.9-3.7
	c0.2-0.4,0.5-0.9,0.8-1.3c1.5-2,3.9-3.3,6.6-3.3c0.3,0,0.6,0,0.9,0c0.5,0.1,1,0.2,1.4,0.3c2.5,0.7,4.5,2.6,5.4,5
	c0.2,0.5,0.3,1.1,0.4,1.6c0.1,0.4,0.1,0.8,0.1,1.3V224z M1208.7,202.5c0-1.9,0.7-3.7,1.8-5.1c0.4-0.5,0.8-0.9,1.3-1.3
	c0.2-0.2,0.4-0.3,0.7-0.5c0.4-0.3,0.9-0.5,1.4-0.7c1-0.4,2-0.6,3.1-0.6c4.5,0,8.2,3.7,8.2,8.2V224h-16.4V202.5z M1277.4,224h-16.4
	v-21.5c0-4.5,3.7-8.2,8.2-8.2c2.4,0,4.6,1,6.1,2.7c0.4,0.5,0.8,1,1.1,1.5c0.7,1.2,1.1,2.6,1.1,4V224z M1287,202.5
	c0-4.5,3.7-8.2,8.2-8.2c1.6,0,3.1,0.5,4.4,1.3c0.4,0.3,0.8,0.6,1.2,0.9c0.5,0.5,1,1.1,1.4,1.7c0.5,0.8,0.9,1.8,1.1,2.8
	c0.1,0.5,0.1,1,0.1,1.6V224H1287V202.5z"/>
</svg>
