<?xml version="1.0" encoding="utf-8"?>
<!-- Generator: Adobe Illustrator 26.0.1, SVG Export Plug-In . SVG Version: 6.00 Build 0)  -->
<svg version="1.1" id="Layer_1" xmlns="http://www.w3.org/2000/svg" xmlns:xlink="http://www.w3.org/1999/xlink" x="0px" y="0px"
	 viewBox="0 0 512 512" style="enable-background:new 0 0 512 512;" xml:space="preserve">
<style type="text/css">
	.st0{fill:#3E3286;}
</style>
<g>
	<path class="st0" d="M476.7,377.8l-31.3-45c-4.3-6.1-6.6-13.4-6.6-20.8V182.9C438.9,81.9,357,0,256,0S73.1,81.9,73.1,182.9v129.1
		c0,7.5-2.3,14.7-6.6,20.8l-31.3,45c-13.5,15-12.3,38.1,2.6,51.7c6.7,6,15.4,9.4,24.4,9.4h104c10,49.5,58.3,81.5,107.8,71.4
		c36-7.3,64.1-35.4,71.4-71.4h104c20.2,0,36.5-16.5,36.5-36.7C486.1,393.2,482.7,384.5,476.7,377.8L476.7,377.8z M256,475.4
		c-23.2-0.1-43.8-14.7-51.6-36.6h103.1C299.8,460.7,279.2,475.4,256,475.4z M62.4,402.3c0.8-0.8,1.6-1.6,2.2-2.6l32-46.1
		c8.5-12.2,13.1-26.8,13.2-41.7V182.9c0-80.8,65.5-146.3,146.3-146.3s146.3,65.5,146.3,146.3v129.1c0,14.9,4.6,29.5,13.2,41.7
		l32,46.1c0.6,0.9,1.4,1.8,2.2,2.6H62.4z"/>
</g>
</svg>
