<?xml version="1.0" encoding="utf-8"?>
<!-- Generator: Adobe Illustrator 26.0.1, SVG Export Plug-In . SVG Version: 6.00 Build 0)  -->
<svg version="1.1" id="Layer_1" xmlns="http://www.w3.org/2000/svg" xmlns:xlink="http://www.w3.org/1999/xlink" x="0px" y="0px"
	 viewBox="0 0 512 512" style="enable-background:new 0 0 512 512;" xml:space="preserve">
<style type="text/css">
	.st0{fill:#3E3286;}
</style>
<g>
	<path class="st0" d="M482.2,243.6v-58.2c0-14.7-5.7-28.7-15.9-39.3c-9.8-10.1-22.7-16.2-36.7-17.1V94.1c0-20.2-16.5-36.7-36.7-36.7
		h-94.2l-11.9-33c-3.3-9.3-10.1-16.6-19-20.8c-4.9-2.3-10.2-3.5-15.6-3.5c-4.3,0-8.5,0.8-12.6,2.2L66.2,65.5
		c-9.2,3.4-16.6,10.1-20.7,19s-4.6,18.9-1.2,28.1l6.1,16.6C21.9,132.3,0,156.5,0,185.4v269.9c0,31.2,25.4,56.6,56.6,56.6h369.1
		c31.2,0,56.6-25.4,56.6-56.6v-60.2c17.1-3.3,29.8-18.5,29.8-36v-79.4C512,262.1,499.3,246.9,482.2,243.6z M255.1,35.8l7.8,21.6H259
		c-20.2,0-36.7,16.5-36.7,36.7v34.7H86.2L76,101c-0.3-0.7-0.2-1.6,0.1-2.3c0.3-0.7,0.9-1.3,1.7-1.5l173.5-63.1
		c0.3-0.1,0.7-0.2,1-0.2c0.6,0,1,0.2,1.3,0.3C254,34.4,254.7,34.8,255.1,35.8z M259,91.2h134c1.6,0,3,1.3,3,3v34.7H256V94.1
		C256,92.5,257.3,91.2,259,91.2z M478.3,359.1c0,1.6-1.3,3-3,3h-79.4c-23.5,0-42.7-19.1-42.7-42.7c0-23.5,19.1-42.7,42.7-42.7h79.4
		c1.6,0,3,1.3,3,3V359.1z M33.7,185.4c0-12.6,10.2-22.8,22.8-22.8h369.1c12.6,0,22.8,10.2,22.8,22.8V243h-52.6
		c-42.1,0-76.4,34.3-76.4,76.4s34.3,76.4,76.4,76.4h52.6v59.5c0,12.6-10.2,22.8-22.8,22.8h-369c-12.6,0-22.8-10.2-22.8-22.8
		L33.7,185.4L33.7,185.4z"/>
	<circle class="st0" cx="395.9" cy="319.4" r="16.9"/>
</g>
</svg>
