<?xml version="1.0" encoding="utf-8"?>
<!-- Generator: Adobe Illustrator 26.0.1, SVG Export Plug-In . SVG Version: 6.00 Build 0)  -->
<svg version="1.1" id="Layer_1" xmlns="http://www.w3.org/2000/svg" xmlns:xlink="http://www.w3.org/1999/xlink" x="0px" y="0px"
	 viewBox="0 0 1095.6 146.5" style="enable-background:new 0 0 1095.6 146.5;" xml:space="preserve">
<style type="text/css">
	.st0{fill:#D31D54;}
	.st1{fill:#E1136E;}
	.st2{fill:#9F1C3B;}
	.st3{fill:#EC008C;}
	.st4{fill:#EC2227;}
	.st5{fill:#F89521;}
	.st6{fill-rule:evenodd;clip-rule:evenodd;fill:#8B3592;}
	.st7{fill:#8B3592;}
	.st8{fill:#4B4A4A;}
	.st9{fill:#144A96;}
	.st10{fill:#FED600;}
</style>
<g>
	<g>
		<path class="st0" d="M179.9,69c-17.9-23-35.5-45.5-53-68.1c0.1-0.2,0.2-0.3,0.3-0.5c23,2.8,46,5.5,69.3,8.3
			C191,28.8,185.5,48.6,179.9,69z"/>
		<path class="st1" d="M182.7,69.5c5.6-20.2,11-40.1,16.7-60.6c17.1,23.9,33.8,47.2,50.6,70.6c-0.1,0.2-0.2,0.4-0.3,0.5
			C227.5,76.6,205.3,73.1,182.7,69.5z"/>
		<path class="st0" d="M182.8,72.5c21.7,3.5,42.9,6.9,64.1,10.3c0,0.2,0.1,0.4,0.1,0.6c-18.4,9.2-36.7,18.4-55.4,27.8
			C188.7,98.2,185.9,85.6,182.8,72.5z"/>
		<path class="st2" d="M158.9,145.8c6.9-24.3,13.8-48.6,20.8-73.5c0.4,0.9,0.6,1.2,0.7,1.7c3.3,14.8,6.6,29.7,9.9,44.5
			c0.3,1.5,0,2.4-1.2,3.3c-9.5,7.7-19,15.4-28.4,23.2c-0.4,0.4-0.9,0.7-1.4,1C159.2,146,159,145.9,158.9,145.8z"/>
		<path class="st0" d="M232.8,51.4c11.2-2,21.9-4,33.3-6c-4.3,11.6-8.4,22.8-12.7,34.6C246.4,70.3,239.8,61.1,232.8,51.4z"/>
		<path class="st1" d="M200.5,109.7c16.6-8.4,33.1-16.9,49.7-25.3c0.1,0.1,0.3,0.2,0.4,0.3c-0.6,1.9-1.2,3.8-1.9,5.7
			c-0.2,0.4-0.7,0.7-1.2,0.9c-15.5,6.2-30.9,12.5-46.4,18.7c-0.1,0-0.3,0-0.4,0.1C200.7,109.9,200.6,109.8,200.5,109.7z"/>
		<path class="st1" d="M281.8,59.8c-6,0-12.1,0-18.4,0c1.7-4.8,3.4-9.3,4.9-13.5c4.6,4.3,9.1,8.6,13.7,12.9
			C282,59.4,281.9,59.6,281.8,59.8z"/>
		<path class="st2" d="M153.1,39.6c-9.4-8.9-18.8-17.8-28.3-26.7c0.1-0.2,0.1-0.4,0.2-0.5c2.4,0,4.8,0,7.2,0c0.4,0,0.8,0.4,1.1,0.8
			c6.6,8.5,13.3,17,19.9,25.5c0.1,0.2,0.2,0.4,0.3,0.7C153.3,39.4,153.2,39.5,153.1,39.6z"/>
	</g>
	<g>
		<path class="st3" d="M0,93.6c0.1-2.1,0.3-5.2,0.3-7.9V48.8h5.5V68h0.1c2-3.4,5.5-5.6,10.4-5.6c7.6,0,12.9,6.3,12.9,15.6
			c0,10.9-6.9,16.3-13.7,16.3c-4.4,0-7.9-1.7-10.2-5.7H5l-0.3,5H0z M5.7,81.3c0,0.7,0.1,1.4,0.3,2c1.1,3.8,4.3,6.5,8.3,6.5
			c5.8,0,9.3-4.7,9.3-11.7c0-6.1-3.2-11.3-9.1-11.3c-3.8,0-7.3,2.6-8.4,6.8c-0.1,0.6-0.3,1.4-0.3,2.3V81.3z"/>
		<path d="M36.3,51.1h5.5v20.5H42c1.1-1.6,2.3-3.2,3.3-4.5l13-15.9h6.8l-15.4,18l16.6,24.5h-6.5l-14-20.9l-4,4.7v16.2h-5.5V51.1z"/>
		<path d="M88.2,93.6l-0.4-3.8h-0.2c-1.7,2.4-5,4.5-9.3,4.5c-6.2,0-9.3-4.3-9.3-8.8c0-7.4,6.6-11.4,18.3-11.3v-0.6
			c0-2.5-0.7-7.1-6.9-7.1c-2.8,0-5.8,0.9-7.9,2.3l-1.3-3.7c2.5-1.6,6.2-2.7,10-2.7c9.3,0,11.6,6.4,11.6,12.5v11.4
			c0,2.6,0.1,5.2,0.5,7.3H88.2z M87.3,78c-6.1-0.1-12.9,0.9-12.9,6.9c0,3.6,2.4,5.3,5.2,5.3c4,0,6.5-2.5,7.4-5.1
			c0.2-0.6,0.3-1.2,0.3-1.8V78z"/>
		<path d="M100.9,87.9c1.6,1.1,4.5,2.2,7.3,2.2c4,0,5.9-2,5.9-4.5c0-2.6-1.6-4.1-5.7-5.6c-5.5-2-8.1-5-8.1-8.6c0-4.9,4-8.9,10.5-8.9
			c3.1,0,5.8,0.9,7.5,1.9l-1.4,4c-1.2-0.8-3.4-1.8-6.2-1.8c-3.3,0-5.1,1.9-5.1,4.2c0,2.5,1.8,3.7,5.8,5.2c5.3,2,8,4.7,8,9.2
			c0,5.4-4.2,9.1-11.4,9.1c-3.3,0-6.4-0.8-8.6-2.1L100.9,87.9z"/>
		<path d="M126.6,48.8h5.5v19h0.1c0.9-1.6,2.3-3,4-3.9c1.6-0.9,3.6-1.6,5.7-1.6c4.1,0,10.7,2.5,10.7,13v18.2H147V76.1
			c0-4.9-1.8-9.1-7.1-9.1c-3.6,0-6.4,2.5-7.4,5.5c-0.3,0.8-0.4,1.6-0.4,2.6v18.4h-5.5V48.8z"/>
	</g>
</g>
<g id="g1438" transform="translate(-1266.194 -110.295) scale(2.59472)">
	<g id="g1406" transform="translate(481.988 41.407)">
		<g id="g1390">
			<path id="path1386" class="st4" d="M215.9,23h-22.6c-0.4,0-0.7,0.3-0.7,0.7v1.8c0,0.4,0.3,0.7,0.7,0.7h16.9v9.4
				c-0.4-0.7-1-1.3-1.6-2c-2-2-4.1-3-6.4-3c-1.8,0-3.2,0.9-4.5,2.5c-1,1.3-1.6,2.9-1.6,4.4c0,1.5,0.2,3.4,1.3,5.1
				c1.3,2.1,3.6,2.8,5.6,2.8c2.6,0,4.7-1.8,4.7-4.1c0-1.3-0.7-2.5-1.9-3.2l-1.2-0.7v2c-0.1,0.6-1,1.3-2,1.3c-0.9,0-1.7-0.3-2.2-0.9
				c-0.3-0.3-0.6-1-0.4-1.5c0-0.7,0.2-1.2,0.7-1.8c0.6-0.7,1.1-1,2-1c2.2,0,4.1,1,5.7,3.2c1.2,1.9,1.9,3.7,1.9,5.7v4.7l3.4,2
				c0.1,0.1,0.2,0.1,0.3,0.1c0.4,0,0.7-0.3,0.7-0.7V26.3h1.3c0.4,0,0.7-0.3,0.7-0.7v-1.8C216.6,23.4,216.3,23,215.9,23L215.9,23z"/>
			<path id="path1388" class="st4" d="M261,23h-28.6c-0.4,0-0.7,0.3-0.7,0.7v3.1c-2.8-2.9-5.2-4.4-7.5-4.4c-2.1,0-3.9,0.4-5.5,1.7
				c-1.5,1.1-2.3,2.6-2.3,4.2c0,5,5.6,4.9,7,4.2c0.2-0.1,0.6-0.3,0.9-0.3c1.1,0,1.6,0.9,1.6,1.7c0,1.1-1.7,2.1-3.7,2.1
				c-1.1,0-1.8-0.3-2.2-1l-0.9-1.3l-0.6,1.6c-0.1,0.3-0.3,0.8-0.3,1.3c0,1.1,0.6,2.2,1.7,3.2c1,0.9,2.2,1.3,3.6,1.3
				c2.1,0,3.9-0.8,5-2.3c1-1.2,1.5-2.7,1.5-4.4c0-0.9-0.3-1.9-1.1-3c-0.9-1.3-2-2-3.2-2c-0.4,0-1,0.1-1.6,0.3
				c-0.2,0.1-0.7,0.2-0.8,0.2c-0.2,0-0.6-0.1-0.8-0.4c-0.2-0.2-0.4-0.6-0.4-1.1c0-1.2,1.1-2.5,3.1-2.5h0.1c1.3,0,2.7,0.7,3.9,1.9
				c1,1,1.8,2,2.5,3.1v17.8l3.4,2c0.1,0.1,0.2,0.1,0.3,0.1c0.4,0,0.7-0.3,0.7-0.7v-24h5.1v15.5l4,1.7h0.2c0.3,0,0.7-0.2,0.7-0.7
				v-0.1c0.7-4.6,2.7-7.7,6-9.6V34c0,0.7,0,2.3,0.1,3.2c0,0.6,0,0.9,0.1,1.2c0,1.8,0.2,4.5,0.8,6.5c1.1,3.8,3,4.7,4.4,4.7h0.1
				c0.8,0,1.5-0.2,1.9-0.7c0.2-0.2,0.6-0.7,0.6-1.5c0-0.7-0.1-1.2-0.3-1.7l-0.3-0.6l-0.7,0.1c-0.7,0.2-1,0.2-1,0.1h-0.1
				c-0.2,0-0.2,0-0.3-0.1c-0.2-0.1-0.7-0.4-1-1.7c-0.2-0.9-0.3-2.1-0.3-2.8c0-5,1-8.8,2.7-9.6h0.1c0.2-0.1,0.4-0.3,0.4-0.7
				c0-0.1,0-0.2-0.1-0.3v-0.1c-0.8-1.6-2.5-2.7-4.7-3.2h-0.4c-1.8,0.3-3.9,1.6-6.6,3.8c-0.7,0.6-1.3,1.1-1.9,1.7v-6.1H261
				c0.4,0,0.7-0.3,0.7-0.7v-1.8C261.8,23.4,261.4,23,261,23L261,23z"/>
		</g>
		<path id="path1392" class="st4" d="M185.3,31.3c0,0.8,0,1.5-0.1,2.1c-0.2,3.1-1,6-2.2,8.7c-0.4,1.1-1,2.1-1.7,3.1
			c-4.7,7.4-13,12.3-22.3,12.3c-4,0-7.8-0.9-11.2-2.5c-8.9-4.1-15.2-13.3-15.2-23.8c0-10.4,6-19.3,14.6-23.6
			c-0.7,0.9-1.3,1.8-1.9,2.8c0,0.1-0.1,0.1-0.1,0.2c-0.3,0.3-0.7,0.6-1,0.9c-0.4,0.3-0.8,0.8-1.2,1.1l-0.2,0.2l-0.2,0.2
			c-0.1,0.1-0.2,0.3-0.4,0.4c-0.2,0.3-0.6,0.7-0.8,1c-1.1,1.5-2,3-2.7,4.7c-0.1,0.1-0.1,0.3-0.2,0.4c-0.1,0.2-0.1,0.4-0.2,0.6
			c0,0.1-0.1,0.2-0.1,0.3c-0.1,0.3-0.2,0.6-0.3,0.9c-0.1,0.2-0.1,0.4-0.2,0.6c0,0.1-0.1,0.2-0.1,0.3c0,0.2-0.1,0.4-0.1,0.7l-0.3,2
			c0,0.2,0,0.3-0.1,0.6v2.7c0,7.1,3.2,13.6,8.5,17.8c4,3.2,9,5.2,14.5,5.2c5,0,9.6-1.6,13.4-4.4c2.8-2,5-4.6,6.7-7.6
			c0.2-0.4,0.4-0.8,0.7-1.2c1.3-2.8,2.1-5.8,2.1-9v-0.8c0-0.8,0-1.5-0.1-2.2l0.1,0.1c0.3,0.3,0.7,0.6,1,0.9c0.3-0.6,0.7-1,1-1.6
			c0.2,1,0.3,2,0.4,3.1C185.3,29.7,185.3,30.5,185.3,31.3L185.3,31.3z"/>
		<path id="path1394" class="st5" d="M162,10.2l-4.9-9C149,4.8,143.4,13,143.4,22.5c0,4.8,1.5,9.3,3.9,13c-0.2-1.2-0.2-2.5-0.2-3.8
			C147.2,21.9,153.3,13.7,162,10.2z"/>
		<path id="path1396" class="st4" d="M165.9,14.7c2-0.6,4.2-0.8,6.4-0.8c1.3,0,2.8,0.1,4,0.3l-0.1-4l-0.2-8
			c-0.9-0.1-1.9-0.2-2.9-0.2c-4.5,0-8.6,1.5-11.9,3.8l2.7,4.9c-4.8,1.7-8.7,5-11.2,9.4c-1.2,2.1-2.1,4.6-2.5,7.1
			c0.7-1.3,1.5-2.6,2.3-3.7C155.8,19.2,160.5,16,165.9,14.7z"/>
		<path id="path1398" class="st5" d="M177.7,10.1l0.2,5.7c-1.9-0.6-3.8-0.9-5.9-0.9c-3.9,0-7.6,1.1-10.8,3c-4,2.5-7.1,6.4-8.7,10.9
			c1.6-2.1,3.5-4,5.7-5.5c3.2-2.1,7.1-3.4,11.3-3.4c3.1,0,6,0.7,8.7,1.9c2,0.9,3.8,2.1,5.4,3.7l3.1-4.7l4-6.1
			C187,11.9,182.6,10.1,177.7,10.1L177.7,10.1z"/>
		<path id="path1400" class="st5" d="M182.7,28.6v0.8c0,4.7-1.9,8.6-2.1,9c-0.2,0.4-0.4,0.8-0.7,1.2c-1.7,3-3.9,5.6-6.7,7.6
			c-3.8,2.7-8.4,4.4-13.4,4.4c-5.5,0-10.6-1.9-14.5-5.2c-5.1-4.2-8.5-10.6-8.5-17.8v-2.7c0-0.2,0-0.3,0.1-0.6l0.3-2
			c0-0.2,0.1-0.4,0.1-0.7c0-0.1,0.1-0.2,0.1-0.3c0.1-0.2,0.1-0.4,0.2-0.6c0.1-0.3,0.2-0.7,0.3-0.9c0-0.1,0.1-0.2,0.1-0.3
			c0.1-0.2,0.1-0.4,0.2-0.6c0.1-0.1,0.1-0.3,0.2-0.4c0.7-1.7,1.7-3.2,2.7-4.7c0.2-0.3,0.6-0.7,0.8-1c0.1-0.1,0.2-0.3,0.4-0.4
			c0.1-0.1,0.1-0.2,0.2-0.2c0.1-0.1,0.1-0.2,0.2-0.2c0.3-0.4,0.8-0.8,1.2-1.1c0.3-0.3,0.7-0.6,1-0.9c0,0.1-0.1,0.1-0.1,0.2
			s-0.1,0.2-0.1,0.2c-1.3,2.7-2.2,5.9-2.6,9.3c-0.1,0.9-0.1,1.8-0.1,2.8c0,12.1,7,21.8,15.7,21.8h0.9c1.2,0,2.5-0.2,3.7-0.4
			c5.9-1.6,10.3-7,10.3-13.4v-0.3c-0.1-3.8-1.7-7.3-4.2-9.6c1.8,0,3.6,0.3,5.2,0.8c3.2,0.8,6.1,2.3,8.7,4.4l0.1,0.1
			C182.6,27.2,182.7,27.9,182.7,28.6L182.7,28.6z"/>
		<g id="g1404">
			<path id="path1402" class="st5" d="M182.7,28.6v0.8c0,4.9-2.2,9.2-2.2,9.2c-0.2,0.4-0.4,0.8-0.7,1.2c-1.7,3-4,5.6-6.8,7.6
				c-3.9,2.9-8.6,4.4-13.5,4.4c-5.4,0-10.5-1.9-14.6-5.2c-5.4-4.4-8.5-10.9-8.5-17.9s3.1-13.5,8.5-17.9l0.2-0.2
				c0,0.1-0.1,0.1-0.1,0.2c0,0.1-0.1,0.1-0.1,0.2c-5.2,4.4-8.3,10.7-8.3,17.6s3,13.3,8.4,17.8c4,3.4,9.3,5.1,14.5,5.1
				c4.8,0,9.5-1.5,13.4-4.4c2.8-2,5-4.6,6.7-7.6c0.2-0.4,0.4-0.8,0.6-1.2c0,0,2.2-4.1,2.2-9v-0.8c0-0.8,0-1.5-0.1-2.2v-0.1l0.1,0.1
				l0.1,0.1C182.7,27.3,182.7,27.9,182.7,28.6L182.7,28.6z"/>
		</g>
	</g>
</g>
<g>
	<polygon class="st6" points="882.2,19 847.9,53.3 850.3,72.5 856.6,59.3 876.2,84.2 903.6,0 812.4,37.9 837.1,50.8 	"/>
	<g>
		<path class="st7" d="M852.4,79.1c0,0-29,0-36.1,0c-27.5,4.2-30.4,44.2-0.3,49.6h36.4V92.7c12.1,0.4,14.6,15.5,5.7,21.1
			c1.8,2.1,9,9.9,9,9.9C886.1,107.3,875.3,80.4,852.4,79.1z M839.2,115.2c0,0-18.7,0-20.2,0c-12.5,0.8-16.5-19.9-1.2-22.6
			c4.5,0,21.4,0,21.4,0V115.2z"/>
	</g>
	<path class="st6" d="M928,97.2c-6,0-13.2,0-13.2,0l-5.7,13.2c0,0,15.3,0,16.8,0c3.4-0.2,3.5,4.8,0,5.1c-4.4,0-29.2,0-29.2,0V92.7
		h44.8V79.1c0,0-6.2,0-6.6,0c-2-28-35.4-28.8-44.2-13.5c1.7,1.4,9.9,8.7,9.9,8.7c5-7.9,19-7.5,21.1,4.8h-38.2v49.6h43
		c9.8-0.2,14.3-7.4,15.3-13.5C942.4,105.3,936.4,98.7,928,97.2z"/>
	<path class="st6" d="M799.2,79.1h-17.4c-5.6,6.8-15.2,34.1,3.9,54.8c0,0,8.3-7.1,9.9-8.4C789.7,119.7,779.9,96.4,799.2,79.1z"/>
	<path class="st6" d="M754.8,134.4c0,6-4.9,10.9-10.9,10.9s-10.9-4.9-10.9-10.9c0-6,4.9-10.9,10.9-10.9S754.8,128.3,754.8,134.4z"/>
	<g>
		<g>
			<path class="st6" d="M731.5,79.1c-27.5,4.2-30.4,44.2-0.3,49.6h0.2c2.1-4.7,6.9-8,12.4-8s10.3,3.3,12.4,8h11.3
				c0-1.7,0-49.6,0-49.6S738.6,79.1,731.5,79.1z M754.4,115.2c0,0-18.7,0-20.2,0c-12.5,0.8-16.5-19.9-1.2-22.6c4.5,0,21.4,0,21.4,0
				V115.2z"/>
		</g>
	</g>
	<g>
		<g>
			<g>
				<path class="st6" d="M744.4,67.4c4.4-0.8,6.6-9.9-0.6-11.9c-0.8,0-11.7,0-11.7,0v17.3h4.8v-5.4l5.4,5.4h7.5L744.4,67.4z
					 M743.9,61.3c0,0.6-0.5,1.1-1.1,1.1H737V60h5.8c0.6,0,1.1,0.5,1.1,1.1V61.3z"/>
			</g>
		</g>
		<g>
			<g>
				<path class="st6" d="M758.2,55.2c-4.8,0-8.8,3.9-8.8,8.8c0,4.8,3.9,8.8,8.8,8.8c4.8,0,8.8-3.9,8.8-8.8
					C767,59.2,763.1,55.2,758.2,55.2z M758.2,67.9c-2.1,0-3.9-1.7-3.9-3.9c0-2.1,1.7-3.9,3.9-3.9c2.1,0,3.9,1.7,3.9,3.9
					C762.1,66.1,760.3,67.9,758.2,67.9z"/>
			</g>
		</g>
		<path class="st6" d="M808,60.2h7.9v-5.1h-6.7c-5.2,0-9.5,4-9.5,8.8c0,4.8,4.3,8.8,9.5,8.8h6.7v-5.1H808c-1.2,0-2.2-0.6-2.8-1.4
			h10.7v-4.6h-10.7C805.8,60.8,806.8,60.2,808,60.2z"/>
		<g>
			<path class="st6" d="M776.6,67.6c-2,0-3.6-1.6-3.6-3.6v-0.2c0-2,1.6-3.6,3.6-3.6h7.5v-5.1h-6.7c-5.2,0-9.5,4-9.5,8.8
				c0,4.8,4.3,8.8,9.5,8.8h6.7v-5.1H776.6z"/>
		</g>
		<polygon class="st6" points="834.1,55.5 817.2,55.5 817.2,60 823.4,60 823.4,72.5 827.9,72.5 827.9,60 834.1,60 		"/>
		<polygon class="st7" points="793.7,63.9 802.1,55.5 795.3,55.5 790.6,60.2 790.6,55.5 786.1,55.5 786.1,72.5 790.6,72.5 
			790.6,67.6 795.4,72.5 802.2,72.5 		"/>
	</g>
	<g>
		<path class="st7" d="M862.1,137.2c-0.8,0.1-1.4,0.6-2,1.4c-0.5,0.8-0.8,1.5-0.8,2.3c0,0.5,0.1,0.9,0.3,1.4c0.2,0.6,0.6,0.8,1,0.8
			c0.2,0,0.5-0.1,0.8-0.3l0.5,1.3c-0.4,0.3-0.8,0.4-1.2,0.4c-0.5,0-1.1-0.2-1.6-0.6c-0.3-0.2-0.6-0.7-0.8-1.4
			c-0.1-0.3-0.2-0.8-0.2-1.5v-0.5c0-1,0.5-2.2,1.6-3.5c0.2-0.3,0.6-0.6,1.2-1.1h1.7v1.3C862.4,137.2,862.2,137.2,862.1,137.2z"/>
		<path class="st7" d="M869.7,137.1v7.1h-1.4v-0.9c0-0.3-0.2-0.7-0.7-1.2c-0.4-0.4-0.7-0.7-1.1-1c-0.4-0.3-0.9-0.5-1.5-0.5
			c-0.5,0-0.9,0.2-1.2,0.7c0,0.1,0,0.1,0,0.2c0,0.2,0.1,0.4,0.3,0.5c0.2,0.2,0.4,0.2,0.6,0.2c0.2,0,0.5-0.1,1.1-0.3l0.4,1.3
			c-0.6,0.3-1.2,0.5-1.6,0.5c-0.5,0-0.9-0.1-1.3-0.4c-0.4-0.3-0.7-0.6-0.9-1.1c-0.1-0.2-0.1-0.4-0.1-0.7c0-0.8,0.3-1.4,1-1.9
			c0.5-0.3,1-0.5,1.5-0.5c0.1,0,0.1,0,0.1,0c0-0.3-0.1-0.5-0.4-0.8c-0.3-0.3-0.5-0.5-0.7-0.5h-1.6v-0.9h-0.6v-1.3h9.2v1.3H869.7z
			 M868.3,137.1h-3.4c0.9,0.6,1.4,1.4,1.5,2.4c0.6,0.2,1.2,0.7,1.9,1.4V137.1z"/>
		<path class="st7" d="M872.5,137.1v7.1H871v-7.1H870v-1.3h3.4v1.3H872.5z"/>
		<path class="st7" d="M879.4,137.1h-6.4v-1.3h8.9v1.3h-1v7.1h-1.3c-0.1-0.4-0.7-0.9-1.9-1.7c-0.5-0.3-1.1-0.6-1.9-0.9
			c-0.9-0.3-1.5-0.5-2-0.5l-0.4-1.4c0.3-0.3,1.3-0.7,2.8-1.4C876.8,138.1,877.9,137.7,879.4,137.1z M879.4,138.7
			c-0.3,0.1-0.5,0.2-0.9,0.3c-0.4,0.2-1.3,0.6-2.4,1.1l-0.3,0.1c1.1,0.4,2.2,1,3.2,1.8c0.1,0.1,0.2,0.2,0.3,0.3V138.7z"/>
		<path class="st7" d="M883.6,137.1v7.1h-1.4v-7.1h-1.1v-1.3h3.4v1.3H883.6z"/>
		<path class="st7" d="M884.1,137.1v-1.3h4.2c0,0,0-0.1,0-0.1c0-0.7-0.3-1.1-0.9-1.3c-0.1,0-0.2,0-0.3,0c-0.2,0-0.3,0-0.6,0.1
			c-0.3,0.1-0.5,0.1-0.5,0.1c-0.2,0-0.5,0.1-0.6,0.2c-0.2,0.2-0.5,0.3-0.8,0.4l-0.5-1.1c0.5-0.4,1.3-0.7,2.2-1
			c0.4-0.1,0.7-0.2,1.1-0.2c0.4,0,0.8,0.1,1.2,0.4c0.8,0.5,1.2,1.2,1.2,2.3h0.8v1.3H884.1z M889.1,145.5c-0.6-0.5-1.2-1-1.9-1.5
			c-0.3-0.2-0.8-0.5-1.6-0.7c-0.6-0.2-0.9-0.3-1-0.3l0-1.7c0.1,0,0.3,0,0.6,0c0.2,0,0.4,0,0.6,0c0.6,0,1.2-0.1,1.6-0.2
			c0.8-0.3,1.2-0.7,1.2-1.1c0-0.3-0.1-0.6-0.4-0.8c-0.3-0.2-0.6-0.3-0.9-0.5c-0.1,0-0.2-0.1-0.2-0.1c-0.2,0-0.4,0-0.6,0.1
			c-0.3,0.1-0.4,0.2-0.3,0.4c0.1,0.4,0.4,0.5,1.2,0.5l-0.8,1.2c-0.3,0-0.6-0.1-1-0.3c-0.6-0.4-0.9-0.9-0.9-1.5c0-0.6,0.3-1,0.9-1.3
			c0.5-0.3,1-0.4,1.7-0.4c0.3,0,0.5,0,0.7,0.1c0.2,0.1,0.4,0.2,0.6,0.3c1,0.5,1.5,1.2,1.5,2.3c0,0.7-0.3,1.3-0.9,1.7
			c-0.5,0.3-1.1,0.6-2,0.7c0.3,0.1,0.6,0.3,1.1,0.6c0.8,0.6,1.5,1.2,2,1.6L889.1,145.5z"/>
		<path class="st7" d="M899.1,137.1v7.1h-1.4v-2.8c0-0.2-0.1-0.5-0.3-0.8c-0.2-0.3-0.4-0.4-0.7-0.4c-0.2,0-0.4,0.1-0.6,0.4
			c-0.2,0.3-0.3,0.6-0.3,0.9h-1.5c0-0.4-0.1-0.7-0.3-1c-0.2-0.3-0.4-0.4-0.7-0.4c-0.2,0-0.4,0.1-0.6,0.2c-0.2,0.2-0.3,0.3-0.3,0.5
			l0,0.4v0.1c0,0.7,0.4,1.1,1.3,1.1c0.1,0,0.4,0,0.7-0.1l-0.5,1.4c-0.3,0-0.5,0.1-0.5,0.1c-0.7,0-1.3-0.2-1.9-0.7
			c-0.2-0.2-0.4-0.5-0.5-0.9c-0.1-0.3-0.2-0.7-0.2-1c0-0.8,0.2-1.4,0.7-1.9c0.5-0.5,1.1-0.7,1.9-0.7c0.7,0,1.3,0.3,1.8,1
			c0.5-0.7,1.1-1,1.7-1c0.3,0,0.7,0.2,1,0.5v-2.1h-7.7v-1.3h10v1.3H899.1z"/>
		<path class="st7" d="M909.8,137.1h-6.4v-1.3h8.9v1.3h-1v7.1H910c-0.1-0.4-0.7-0.9-1.9-1.7c-0.5-0.3-1.1-0.6-1.9-0.9
			c-0.9-0.3-1.5-0.5-2-0.5l-0.4-1.4c0.3-0.3,1.3-0.7,2.8-1.4C907.3,138.1,908.3,137.7,909.8,137.1z M909.9,138.7
			c-0.3,0.1-0.5,0.2-0.9,0.3c-0.4,0.2-1.3,0.6-2.4,1.1l-0.3,0.1c1.1,0.4,2.2,1,3.2,1.8c0.1,0.1,0.2,0.2,0.3,0.3V138.7z"/>
		<path class="st7" d="M914.7,137.1c-0.5,0.6-0.7,1.1-0.7,1.5c0,0.2,0.2,0.9,0.7,2.3c0.2,0.7,0.4,1.2,0.4,1.7c0,0.8-0.5,1.4-1.4,1.7
			c-0.3,0.1-0.8,0.2-1.5,0.3l0.2-1.2c0.8-0.2,1.3-0.5,1.3-0.9c0-0.4-0.2-1-0.5-1.8c-0.4-0.8-0.5-1.4-0.5-1.8c0-0.5,0.2-1.1,0.6-1.8
			h-1.5v-1.3h4v1.3H914.7z"/>
		<path class="st7" d="M917.7,137.1v7.1h-1.4v-7.1h-1.1v-1.3h3.4v1.3H917.7z"/>
		<path class="st7" d="M921,140.5c-0.7,0-1.2-0.2-1.6-0.6c-0.4-0.4-0.6-1-0.6-1.6c0-0.6,0.2-1.1,0.6-1.5c0.4-0.4,0.9-0.6,1.5-0.6
			c0.8,0,1.4,0.4,1.8,1.3c0.2,0.4,0.2,0.7,0.2,1.1c0,0.6-0.2,1.2-0.5,1.5C922.2,140.3,921.7,140.5,921,140.5z M922.6,145.1
			c-1.8-1.5-3-2.4-3.7-2.7l0-2c2.5,1.8,4.1,3.2,4.9,4.3v1.5L922.6,145.1z M921.3,137.6c-0.1-0.1-0.3-0.1-0.4-0.1
			c-0.5,0.1-0.8,0.4-0.8,0.8c0,0.2,0.1,0.4,0.3,0.6c0.2,0.2,0.4,0.3,0.6,0.3l0.2,0c0.4-0.1,0.6-0.4,0.6-0.7
			C921.8,138.1,921.6,137.8,921.3,137.6z"/>
		<path class="st7" d="M932.8,135.1c-1.7-1-3-1.6-4.1-1.6c-1.3,0-2.2,0.4-2.8,1.2c-0.2,0.3-0.3,0.7-0.3,1.2h1v1.3h-1v7.1h-1.5v-7.1
			h-1v-1.3h1c0-1,0.4-1.8,1-2.5c0.6-0.6,1.5-1,2.6-1.2c0.1,0,0.3,0,0.6-0.1h0.3c0.9,0,1.7,0.2,2.6,0.6c0.5,0.2,1.2,0.7,2.3,1.3
			L932.8,135.1z"/>
		<path class="st7" d="M931.6,137.1L931.6,137.1c0.6,0.1,1.2,0.3,1.9,0.6c0.9,0.5,1.4,1.2,1.4,2c0,0.5-0.2,0.9-0.5,1.3
			c-0.3,0.4-0.7,0.6-1.2,0.7c-0.5,0.1-0.9,0.1-1.3,0.1v-1.4c0.2,0,0.3,0,0.5,0c0.7,0,1.1-0.3,1.1-0.8c0-0.6-0.6-1-1.9-1.2v5.7h-1.3
			c-0.2-0.4-0.4-0.7-0.6-0.9c-0.1-0.1-0.3-0.3-0.5-0.7c-0.1-0.1-0.3-0.3-0.5-0.5c-0.2-0.2-0.4-0.4-0.5-0.5c0-0.1-0.2-0.1-0.3-0.2
			c-0.6-0.2-1.1-0.3-1.5-0.3l-0.4-1.4c0.3-0.2,1-0.7,2.1-1.3c0.1-0.1,0.4-0.3,1-0.6c0.2-0.1,0.6-0.3,1.1-0.6v-0.1h-4.5v-1.3h9.8v1.3
			H931.6z M930.2,138.8c-0.2,0.2-0.6,0.4-1.1,0.7c-0.1,0.1-0.3,0.2-0.4,0.3c-0.2,0.2-0.3,0.3-0.4,0.4c0.2,0.1,0.4,0.3,0.7,0.6
			c0.3,0.4,0.7,0.8,1.2,1.3V138.8z"/>
		<path class="st7" d="M937.6,140.5c-0.7,0-1.2-0.2-1.6-0.6c-0.4-0.4-0.6-1-0.6-1.6c0-0.6,0.2-1.1,0.6-1.5c0.4-0.4,0.9-0.6,1.5-0.6
			c0.8,0,1.4,0.4,1.8,1.3c0.2,0.4,0.2,0.7,0.2,1.1c0,0.6-0.2,1.2-0.5,1.5C938.8,140.3,938.3,140.5,937.6,140.5z M939.2,145.1
			c-1.8-1.5-3-2.4-3.7-2.7l0-2c2.5,1.8,4.1,3.2,4.9,4.3v1.5L939.2,145.1z M937.9,137.6c-0.1-0.1-0.3-0.1-0.4-0.1
			c-0.5,0.1-0.8,0.4-0.8,0.8c0,0.2,0.1,0.4,0.3,0.6c0.2,0.2,0.4,0.3,0.6,0.3l0.2,0c0.4-0.1,0.6-0.4,0.6-0.7
			C938.4,138.1,938.2,137.8,937.9,137.6z"/>
	</g>
	<g>
		<polygon class="st7" points="779.6,144.9 782.3,145.8 783.4,144.9 780.7,144 		"/>
		<g>
			<path class="st7" d="M780.5,137.5v-1.6h-20.9v1.6h3.5v3.6c0,0,2.7,0,3,0c0,0,0.9-0.3,1.1-0.7c0,0.5,0,1.2,0,1.4
				c0,0.6-0.5,1.2-1.1,1.2c-0.6,0-4.2,0-4.4,0c-0.3,0-0.5-0.1-0.5-1.2c0-1.1,0-3.4,0-3.4h-1.6c0,0,0,3.9,0,4.3
				c0,0.4,0.2,1.6,1.3,1.6c1.1,0,5.8,0,6,0c0.9,0,1.6-1,1.7-1.8c0-1.7,0-4.1,0-4.1h-1.4c-0.1,0.6-0.1,1.1-0.7,1.2
				c-0.7,0-1.8,0-1.8,0v-2.2h5.1v6.9h1.8v-6.9h1.2v6.9c0,0,5.4,0,5.9,0c0.4,0,1.8-0.3,1.8-1.8c0-1.5,0-4.1,0-4.1h-1.4
				c0,0.4-0.1,1-0.7,1s-3.9,0-3.9,0v-1.9H780.5z M778.2,140.9c0.3,0.1,0.6-0.4,0.9-0.7c0,0.4,0,1,0,1.7s-0.5,1.2-0.9,1.2
				c-0.4,0-3.7,0-3.7,0v-2.1C774.5,140.9,777.9,140.9,778.2,140.9z"/>
		</g>
		<rect x="782.5" y="139.5" class="st7" width="3.5" height="1.9"/>
		<g>
			<path class="st7" d="M788,135.9v1.6h5.8v1H788c0,0,0,3.6,0,3.8c0.1,1.2,0.8,2.1,2,2.1c1.4,0,5.3,0,5.3,0v-6.9h1.2v6.9h1.6v-8.5
				H788z M793.8,143.2c0,0-3.4,0-3.5,0c-0.5-0.1-0.9-0.7-0.9-1.4c0-0.7,0-1.9,0-1.9h4.4V143.2z"/>
		</g>
		<path class="st7" d="M805.8,137.5h7.2v1c-0.3,0-1.9,0-2.1,0c-0.1,0.7-1.2,1-1.4,0c-1.2,0-3.7,0-3.7,0s0,3.7,0,4.1
			c0,0.4,0.1,1.7,1.1,1.8c1,0,2.9,0,2.9,0V143c0,0-1.6,0-2,0c-0.4-0.1-0.7-0.4-0.7-0.9c0-0.7,0-2.1,0-2.1h2v1.2h1.8v-0.9
			c-0.1-0.4,1.9-0.4,2,0c0,0.6,0,4.2,0,4.2h1.6v-6.9h1.1v6.9h1.6v-8.5h-11.3V137.5z"/>
		<g>
			<g>
				<path class="st7" d="M803.2,136.4c-0.7,0-3.8,0-3.8,0s0,1.9,0,2.2c0.1,0.7,0.5,1.6,1.8,1.7c1.3,0,3,0,3,0v-2.7
					C804.2,137,803.9,136.5,803.2,136.4z M802.1,138.7c-0.7,0-1.2-0.2-1.2-0.6c0-0.3,0.6-0.6,1.2-0.6c0.7,0,1.2,0.2,1.2,0.6
					C803.3,138.5,802.8,138.7,802.1,138.7z"/>
			</g>
		</g>
		<polygon class="st7" points="799.7,141.1 799.7,142.5 804.3,144.4 804.3,142.9 		"/>
		<g>
			<g>
				<path class="st7" d="M841.5,136.4c-0.7,0-3.8,0-3.8,0s0,1.9,0,2.2c0.1,0.7,0.5,1.6,1.8,1.7c1.3,0,3,0,3,0v-2.7
					C842.5,137,842.1,136.5,841.5,136.4z M840.3,138.7c-0.7,0-1.2-0.2-1.2-0.6c0-0.3,0.6-0.6,1.2-0.6c0.7,0,1.2,0.2,1.2,0.6
					C841.6,138.5,841,138.7,840.3,138.7z"/>
			</g>
		</g>
		<polygon class="st7" points="838,141.1 838,142.5 842.5,144.4 842.5,142.9 		"/>
		<path class="st7" d="M851.2,138.5v-1h2.9v-1.6h-10.2v1.6h5.8v1h-5.8c0,0,0,3.6,0,3.8c0.1,1.2,0.8,2.1,2,2.1c1.4,0,5.3,0,5.3,0
			v-4.2h1.4c0.2,0,0.3-0.1,0.4,0.2c0,0.4,0,0.7,0,0.7c-0.1,0.4-0.1,0.6-0.4,0.7c-0.2,0-0.5,0-0.5,0v1.4h1.1c0.4,0,1-0.4,1.1-0.9
			c0-0.8,0-3.8,0-3.8H851.2z M849.7,143.2c0,0-3.4,0-3.5,0c-0.5-0.1-0.9-0.7-0.9-1.4c0-0.7,0-1.9,0-1.9h4.4l0,0.2h0V143.2z"/>
		<g>
			<path class="st7" d="M821.9,135.9v1.6h5.8v1h-5.8c0,0,0,3.6,0,3.8c0.1,1.2,0.8,2.1,2,2.1c1.4,0,5.3,0,5.3,0v-6.9h1.8l-0.7,1.3
				v0.9c0,0,1,0,1.2,0c0.7,0.1,0.9,0.5,0.9,1.7c0,0.8-0.2,1.4-0.8,1.4c-0.4,0-1.2,0-1.2,0v1.4c0,0,0.9,0,1.2,0c0.4,0,2,0.2,2.1-1.4
				c0.2-3.2,0.3-4-2-4.3l0.3-1.1h2.5v6.9h1.6v-8.5H821.9z M827.7,143.2c0,0-3.4,0-3.5,0c-0.5-0.1-0.9-0.7-0.9-1.4c0-0.7,0-1.9,0-1.9
				h4.4V143.2z"/>
		</g>
	</g>
</g>
<g id="XMLID_19_">
	<g id="XMLID_16_">
		<path id="XMLID_259_" class="st8" d="M1044.1,122.3c-4.8,3.1-9.6,6.2-14.4,9.1c-2.2,1.3-4.6,0.8-6.3-1c-1.3-1.2-1.7-2.7-1.1-4.4
			c0.5-1.5,1-3.1,1.3-4.7c0.4-2.3-0.2-4.5-1.5-6.4c-0.3-0.4-0.6-0.8-0.8-1.2c-2.1-3.7-1-7.2,3-8.4c6.2-1.9,12.1-1.2,17.6,2.4
			c0.7,0.4,1.3,1,2,1.4c0,0,0.1,0,0.4-0.1c0-1,0-2.1,0-3.2c0-1.4,0.6-2.1,2-2.1c5.3,0,10.6,0,16,0c1.3,0,1.9,0.7,1.9,2
			c0,9.4,0,18.8,0,28.2c0,1.4-0.6,2.1-2,2c-5.6,0-5.2,0.6-5.2-4.9c0-6,0-12,0-18c0-2.1-0.1-2.1-2.9-2.2c-1.7,0-2.5,0.3-2.5,2.3
			c0.1,6.8,0,13.5,0,20.3c0,2.1-0.4,2.5-2.5,2.6c-5.1,0-4.9,0.4-4.9-4.8C1044.2,128,1044.1,125,1044.1,122.3z M1029.4,123.3
			c0.6,0,0.9,0.1,1.1-0.1c3.7-1.8,7-4.3,9.7-7.4c0.9-1,0.2-1.6-0.6-2.1c-3-1.7-6.2-2.5-9.7-2.4c-1.8,0-2.1,0.8-1,2.2
			c1.6,2,1.9,4.3,1.2,6.7C1029.9,121.1,1029.7,122.1,1029.4,123.3z"/>
		<path id="XMLID_258_" class="st8" d="M999.5,110.8c-2.9,0-5.8-0.1-8.7,0c-1.6,0-2.4-0.5-2.4-2.3c0-4.8-0.1-4.8,4.8-4.8
			c3.8,0,7.6,0,11.5,0c1.2,0,2.5-0.1,2.5-1.6c0-1.5-1.2-2.1-2.7-2c-2.7,0.2-5.5,0.7-8.2,0.8c-1.6,0-3.4-0.4-4.9-1.1
			c-2.5-1.1-3-5.1-1-6.9c0.4-0.4,1.6-0.6,2-0.3c3.7,2.8,7.6,1.7,11.5,1.1c1.3-0.2,2.6-0.3,3.9-0.1c4.5,0.7,6.7,4.4,5.4,8.9
			c-0.1,0.3-0.1,0.6-0.3,1.1c1.1,0,2.2,0,3.2,0c1.4,0,2.2,0.6,2.2,2.1c-0.1,5.4,0.5,4.9-4.8,4.9c-1.9,0-3.8,0-5.6,0
			c-1.1,0-1.6,0.2-1.6,1.4c-0.2,4.7,0.5,5.3,5.1,4.3c1.3-0.3,2.5-0.7,3.8-0.9c1.6-0.3,2.9,0.6,3,2.1c0.1,2.9,0.4,5.8-0.2,8.6
			c-1,5.1-4.8,7.7-9.5,9.2c-3.7,1.2-7.6,0.9-11.3-0.1c-5.4-1.6-9-6.5-9.3-13c-0.1-2.4,0.2-4.9,0.4-7.3c0.1-1.3,1-2.1,2.4-2
			c0.4,0,0.9,0,1.3,0c2.5,0,2.7,0.3,2.9,2.8c0.1,2.6,0.3,5.2,0.8,7.8c0.5,2.9,2.4,4.7,5.4,4.8c2.1,0.1,4.3-0.1,6.4-0.5
			c1-0.2,2-0.9,2.6-1.7c0.6-0.8,0.8-2,1.2-3c-0.9,0-1.8-0.2-2.7-0.1c-1.6,0.1-3.1,0.6-4.6,0.6c-3.3,0-4.5-1.3-4.5-4.6
			c0-2.6,0-5.3-0.1-7.9C999.7,111.3,999.7,111.1,999.5,110.8z"/>
		<path id="XMLID_245_" class="st8" d="M1095.5,118.6c0,4,0,8,0,12c0,3.9-2.8,6.2-6.5,5c-5.6-1.7-11.2-1.9-16.9-1.6
			c-4.1,0.2-5.4-1.1-5.5-5.2c0-0.1,0-0.3,0-0.4c0-5.6,0-5.5,5.2-7.6c1-0.4,2.5-1.4,2.5-2.1c0-1.6-1.7-1.6-3-1.8
			c-3.6-0.5-4.6-1.5-4.6-5.1c0-2.1,0-4.1,0-6.2c0-1.5,0.7-2.1,2.2-2.1c8.1,0,16.3,0,24.4,0c1.6,0,2.2,0.7,2.2,2.3
			C1095.5,110.2,1095.5,114.4,1095.5,118.6z M1081.2,110.8c-1.5,0-3,0-4.5,0c-0.5,0-0.9,0.4-1.4,0.6c0.3,0.5,0.4,1.1,0.8,1.4
			c0.9,0.5,1.9,0.8,2.9,1.2c4,1.6,4.7,6,1.2,8.6c-1,0.8-2.3,1.2-3.4,2c-0.6,0.4-0.9,1.1-1.3,1.6c0.6,0.3,1.2,0.8,1.8,0.8
			c3.1,0.3,6.2,0.5,9.3,0.8c1.3,0.1,1.7-0.4,1.7-1.6c-0.1-1.2-0.2-2.5-0.2-3.7c-0.1-3-0.1-6-0.2-9c0-1.7-0.8-2.7-2.6-2.6
			C1084,110.8,1082.6,110.8,1081.2,110.8z"/>
		<path id="XMLID_243_" class="st8" d="M1080.4,146.5c-2.7,0-4.9-2.1-4.9-4.9c0-2.8,2.1-4.9,4.9-4.9c2.8,0,4.9,2.1,4.9,4.8
			C1085.3,144.2,1083.1,146.4,1080.4,146.5z"/>
	</g>
	<g id="XMLID_14_">
		<path id="XMLID_29_" class="st9" d="M1084.4,69.7C1084.4,69.8,1084.4,69.8,1084.4,69.7c-4.3,5.6-10,10.3-16.5,13.7
			c-6.9,3.3-15,4.5-22.7,4.7c3.9-1.7,6.6-5.5,6.6-10c0-5.5-4.1-10.1-9.4-10.8c14.2-0.5,25.7-10.8,26.2-23.6c0-0.3,0-0.7,0-1
			c0-0.7,0-1.4-0.1-2c0-1.2,0-2.5,0.1-3.5c0.2-2.7,3.9-4.5,3.9-4.5s11.7,0,14.8,0c3.3,0.5,4.3,4,4.3,4
			C1093.6,55.2,1084.9,69,1084.4,69.7z"/>
		
			<ellipse id="XMLID_1_" transform="matrix(0.2459 -0.9693 0.9693 0.2459 744.1965 981.8379)" class="st10" cx="1003.1" cy="12.7" rx="12.5" ry="12.5"/>
		
			<ellipse id="XMLID_15_" transform="matrix(0.2331 -0.9725 0.9725 0.2331 815.533 1059.4127)" class="st9" cx="1079.4" cy="12.7" rx="12.5" ry="12.5"/>
		<path id="XMLID_61_" class="st10" d="M1051.9,78.1c0,4.5-2.7,8.4-6.6,10c-3.1,0.1-6.2-0.1-9.1-0.3c-10.3-0.8-18.1-2.9-18.4-3
			c0,0,0,0,0,0c-10.5-4.8-18.9-12.6-23.9-22.2h0c0-0.1-0.1-0.2-0.1-0.3c-3.8-7.4-3.1-25.8-3.1-25.8c0.1-3,3.7-4.1,3.7-4.1h14.8
			c2.9,0.3,4.3,3.7,4.3,3.7l0.6,4.6c-0.5,2.2,0,4.9,0.7,7.3c0,0,0,0,0,0c0.5,1.8,1.1,3.5,2,5.2c0,0,0,0,0,0.1c0,0,0,0,0,0
			c0,0,0,0,0,0c4.2,7.8,12.8,13.3,23,13.9c0.5,0,1.1,0,1.7,0c0.4,0,0.7,0,1.1,0C1047.8,68,1051.9,72.6,1051.9,78.1z"/>
	</g>
</g>
</svg>
