<?xml version="1.0" encoding="utf-8"?>
<!-- Generator: Adobe Illustrator 26.0.1, SVG Export Plug-In . SVG Version: 6.00 Build 0)  -->
<svg version="1.1" id="Layer_1" xmlns="http://www.w3.org/2000/svg" xmlns:xlink="http://www.w3.org/1999/xlink" x="0px" y="0px"
	 viewBox="0 0 512 512" style="enable-background:new 0 0 512 512;" xml:space="preserve">
<style type="text/css">
	.st0{fill:#3E3286;}
</style>
<path class="st0" d="M256,0C114.6,0,0,114.6,0,256s114.6,256,256,256s256-114.6,256-256S397.4,0,256,0z M256,460.8
	c-112.9,0-204.8-91.9-204.8-204.8S143.1,51.2,256,51.2S460.8,143.1,460.8,256S368.9,460.8,256,460.8z M349.1,238.1L225,166.4
	c-17.1-9.9-31-1.8-31,17.9v143.4c0,19.7,14,27.8,31,17.9l124.1-71.7C366.2,264.1,366.2,247.9,349.1,238.1L349.1,238.1z"/>
</svg>
