<?xml version="1.0" encoding="utf-8"?>
<!-- Generator: Adobe Illustrator 26.0.1, SVG Export Plug-In . SVG Version: 6.00 Build 0)  -->
<svg version="1.1" id="Layer_1" xmlns="http://www.w3.org/2000/svg" xmlns:xlink="http://www.w3.org/1999/xlink" x="0px" y="0px"
	 viewBox="0 0 512 512" style="enable-background:new 0 0 512 512;" xml:space="preserve">
<style type="text/css">
	.st0{fill:#FFFFFF;}
</style>
<path class="st0" d="M230.4,51.4c-98.9,0-179,80.1-179,179s80.1,179,179,179s179-80.1,179-179S329.3,51.4,230.4,51.4z M0.3,230.4
	c0-127.1,103-230.1,230.1-230.1s230.1,103,230.1,230.1c0,52.2-17.7,102.8-50.3,143.6l93.9,94c10.2,9.8,10.4,26,0.6,36.2
	s-26,10.4-36.2,0.6c-0.2-0.2-0.4-0.4-0.6-0.6l-93.9-94c-99.3,79.4-244.1,63.2-323.5-36C18,333.3,0.3,282.6,0.3,230.4z M204.8,102.5
	c0-14.1,11.4-25.6,25.6-25.6c84.7,0,153.4,68.7,153.4,153.4c0,14.1-11.4,25.6-25.6,25.6s-25.6-11.4-25.6-25.6
	c0-56.5-45.8-102.3-102.3-102.3C216.3,128.1,204.8,116.7,204.8,102.5z"/>
</svg>
