<?xml version="1.0" encoding="utf-8"?>
<!-- Generator: Adobe Illustrator 26.0.1, SVG Export Plug-In . SVG Version: 6.00 Build 0)  -->
<svg version="1.1" id="Layer_1" xmlns="http://www.w3.org/2000/svg" xmlns:xlink="http://www.w3.org/1999/xlink" x="0px" y="0px"
	 viewBox="0 0 512 512" style="enable-background:new 0 0 512 512;" xml:space="preserve">
<style type="text/css">
	.st0{fill-rule:evenodd;clip-rule:evenodd;fill:#3E3286;}
</style>
<g>
	<path class="st0" d="M256,141.3c-63.3,0-114.7,51.5-114.7,114.7S192.7,370.7,256,370.7S370.7,319.3,370.7,256
		S319.3,141.3,256,141.3z M256,329.7c-40.6,0-73.7-33.1-73.7-73.7s33.1-73.7,73.7-73.7s73.7,33.1,73.7,73.7S296.6,329.7,256,329.7z
		 M256,141.3c-63.3,0-114.7,51.5-114.7,114.7S192.7,370.7,256,370.7S370.7,319.3,370.7,256S319.3,141.3,256,141.3z M256,329.7
		c-40.6,0-73.7-33.1-73.7-73.7s33.1-73.7,73.7-73.7s73.7,33.1,73.7,73.7S296.6,329.7,256,329.7z M256,141.3
		c-63.3,0-114.7,51.5-114.7,114.7S192.7,370.7,256,370.7S370.7,319.3,370.7,256S319.3,141.3,256,141.3z M256,329.7
		c-40.6,0-73.7-33.1-73.7-73.7s33.1-73.7,73.7-73.7s73.7,33.1,73.7,73.7S296.6,329.7,256,329.7z M256,141.3
		c-63.3,0-114.7,51.5-114.7,114.7S192.7,370.7,256,370.7S370.7,319.3,370.7,256S319.3,141.3,256,141.3z M256,329.7
		c-40.6,0-73.7-33.1-73.7-73.7s33.1-73.7,73.7-73.7s73.7,33.1,73.7,73.7S296.6,329.7,256,329.7z M469.7,274.1
		c-3.2-1.8-5.8-4.5-7.7-7.7c-5.7-10-2.3-22.8,7.7-28.5c14.3-8.3,24.6-21.6,28.8-37.6c4.3-16,2.1-32.7-6.2-47L463,102.6
		c-11-19.1-31.6-30.9-53.6-30.9c-10.8,0-21.5,2.9-30.9,8.3c-3.2,1.9-6.8,2.8-10.4,2.8c-11.5,0-20.9-9.4-20.9-20.9
		c0-34.1-27.8-61.9-61.9-61.9h-58.5c-34.1,0-61.9,27.8-61.9,61.9c0,3.7-1,7.3-2.8,10.5c-3.7,6.4-10.7,10.4-18.1,10.4
		c-3.6,0-7.3-1-10.4-2.8c-9.4-5.4-20.1-8.3-30.9-8.3c-22.1,0-42.7,11.9-53.7,31l-29.3,50.7C2.6,183,12.8,220.9,42.4,238
		c3.2,1.8,5.9,4.5,7.7,7.7c2.8,4.8,3.5,10.5,2.1,15.8c-1.4,5.4-4.9,9.8-9.7,12.6l-0.1,0.1c-14.3,8.3-24.6,21.6-28.8,37.6
		c-4.3,16-2.1,32.7,6.2,47l29.3,50.7c11,19.1,31.6,31,53.7,31c10.8,0,21.5-2.9,30.9-8.3c3.2-1.8,6.8-2.8,10.5-2.8
		c11.5,0,20.9,9.4,20.9,20.9c0,34.1,27.8,61.9,61.9,61.9h58.5c34.1,0,61.9-27.8,61.9-61.9c0-3.7,1-7.3,2.8-10.5
		c3.7-6.4,10.7-10.4,18.1-10.4c3.7,0,7.3,1,10.5,2.8l0.1,0.1c9.4,5.4,20,8.3,30.8,8.3c22.1,0,42.7-11.9,53.7-31l29.2-50.7
		C509.4,329.1,499.2,291.2,469.7,274.1z M456.8,338.2L427.5,389c-3.7,6.3-10.6,10.3-18,10.3c-3.7,0-7.3-1-10.4-2.8
		c-9.6-5.6-20-8.4-30.8-8.4c-34.2,0-62,27.8-62,62c0,11.5-9.4,20.9-20.9,20.9h-58.5c-11.5,0-20.9-9.4-20.9-20.9
		c0-34.2-27.8-62-62-62c-10.8,0-21.2,2.8-30.9,8.4c-3.2,1.8-6.8,2.8-10.4,2.8c-7.5,0-14.4-4-18.1-10.5l-29.3-50.7
		c-2.8-4.8-3.5-10.4-2-15.8c1.4-5.4,4.9-9.9,9.7-12.7c19.4-11.2,31-31.2,31-53.6s-11.5-42.4-30.9-53.6l-0.1-0.1
		c-10-5.8-13.4-18.6-7.6-28.5l29.3-50.7c3.7-6.4,10.7-10.4,18.1-10.4c3.7,0,7.3,1,10.4,2.8c9.6,5.6,20,8.4,30.9,8.4
		c34.2,0,62-27.8,62-62c0-11.5,9.4-20.9,20.9-20.9h58.4c11.5,0,20.9,9.4,20.9,20.9c0,34.2,27.8,62,62,62c10.8,0,21.2-2.8,30.8-8.4
		l0.2-0.1c3.2-1.8,6.7-2.8,10.4-2.8c7.4,0,14.4,4,18.1,10.5l29.1,50.5l0.1,0.1l0.1,0.2c2.7,4.8,3.5,10.4,2,15.8
		c-1.4,5.4-4.9,9.9-9.7,12.7c-19.4,11.2-31,31.2-31,53.6s11.6,42.4,30.9,53.6l0.1,0.1C459.2,315.4,462.6,328.2,456.8,338.2z
		 M256,141.3c-63.3,0-114.7,51.5-114.7,114.7S192.7,370.7,256,370.7S370.7,319.3,370.7,256S319.3,141.3,256,141.3z M256,329.7
		c-40.6,0-73.7-33.1-73.7-73.7s33.1-73.7,73.7-73.7s73.7,33.1,73.7,73.7S296.6,329.7,256,329.7z M256,141.3
		c-63.3,0-114.7,51.5-114.7,114.7S192.7,370.7,256,370.7S370.7,319.3,370.7,256S319.3,141.3,256,141.3z M256,329.7
		c-40.6,0-73.7-33.1-73.7-73.7s33.1-73.7,73.7-73.7s73.7,33.1,73.7,73.7S296.6,329.7,256,329.7z M256,141.3
		c-63.3,0-114.7,51.5-114.7,114.7S192.7,370.7,256,370.7S370.7,319.3,370.7,256S319.3,141.3,256,141.3z M256,329.7
		c-40.6,0-73.7-33.1-73.7-73.7s33.1-73.7,73.7-73.7s73.7,33.1,73.7,73.7S296.6,329.7,256,329.7z M256,141.3
		c-63.3,0-114.7,51.5-114.7,114.7S192.7,370.7,256,370.7S370.7,319.3,370.7,256S319.3,141.3,256,141.3z M256,329.7
		c-40.6,0-73.7-33.1-73.7-73.7s33.1-73.7,73.7-73.7s73.7,33.1,73.7,73.7S296.6,329.7,256,329.7z M256,141.3
		c-63.3,0-114.7,51.5-114.7,114.7S192.7,370.7,256,370.7S370.7,319.3,370.7,256S319.3,141.3,256,141.3z M256,329.7
		c-40.6,0-73.7-33.1-73.7-73.7s33.1-73.7,73.7-73.7s73.7,33.1,73.7,73.7S296.6,329.7,256,329.7z"/>
	<path class="st0" d="M256,141.3c-63.3,0-114.7,51.5-114.7,114.7S192.7,370.7,256,370.7S370.7,319.3,370.7,256
		S319.3,141.3,256,141.3z M256,329.7c-40.6,0-73.7-33.1-73.7-73.7s33.1-73.7,73.7-73.7s73.7,33.1,73.7,73.7S296.6,329.7,256,329.7z
		 M256,141.3c-63.3,0-114.7,51.5-114.7,114.7S192.7,370.7,256,370.7S370.7,319.3,370.7,256S319.3,141.3,256,141.3z M256,329.7
		c-40.6,0-73.7-33.1-73.7-73.7s33.1-73.7,73.7-73.7s73.7,33.1,73.7,73.7S296.6,329.7,256,329.7z M256,141.3
		c-63.3,0-114.7,51.5-114.7,114.7S192.7,370.7,256,370.7S370.7,319.3,370.7,256S319.3,141.3,256,141.3z M256,329.7
		c-40.6,0-73.7-33.1-73.7-73.7s33.1-73.7,73.7-73.7s73.7,33.1,73.7,73.7S296.6,329.7,256,329.7z M256,141.3
		c-63.3,0-114.7,51.5-114.7,114.7S192.7,370.7,256,370.7S370.7,319.3,370.7,256S319.3,141.3,256,141.3z M256,329.7
		c-40.6,0-73.7-33.1-73.7-73.7s33.1-73.7,73.7-73.7s73.7,33.1,73.7,73.7S296.6,329.7,256,329.7z M469.7,274.1
		c-3.2-1.8-5.8-4.5-7.7-7.7c-5.7-10-2.3-22.8,7.7-28.5c14.3-8.3,24.6-21.6,28.8-37.6c4.3-16,2.1-32.7-6.2-47L463,102.6
		c-11-19.1-31.6-30.9-53.6-30.9c-10.8,0-21.5,2.9-30.9,8.3c-3.2,1.9-6.8,2.8-10.4,2.8c-11.5,0-20.9-9.4-20.9-20.9
		c0-34.1-27.8-61.9-61.9-61.9h-58.5c-34.1,0-61.9,27.8-61.9,61.9c0,3.7-1,7.3-2.8,10.5c-3.7,6.4-10.7,10.4-18.1,10.4
		c-3.6,0-7.3-1-10.4-2.8c-9.4-5.4-20.1-8.3-30.9-8.3c-22.1,0-42.7,11.9-53.7,31l-29.3,50.7C2.6,183,12.8,220.9,42.4,238
		c3.2,1.8,5.9,4.5,7.7,7.7c2.8,4.8,3.5,10.5,2.1,15.8c-1.4,5.4-4.9,9.8-9.7,12.6l-0.1,0.1c-14.3,8.3-24.6,21.6-28.8,37.6
		c-4.3,16-2.1,32.7,6.2,47l29.3,50.7c11,19.1,31.6,31,53.7,31c10.8,0,21.5-2.9,30.9-8.3c3.2-1.8,6.8-2.8,10.5-2.8
		c11.5,0,20.9,9.4,20.9,20.9c0,34.1,27.8,61.9,61.9,61.9h58.5c34.1,0,61.9-27.8,61.9-61.9c0-3.7,1-7.3,2.8-10.5
		c3.7-6.4,10.7-10.4,18.1-10.4c3.7,0,7.3,1,10.5,2.8l0.1,0.1c9.4,5.4,20,8.3,30.8,8.3c22.1,0,42.7-11.9,53.7-31l29.2-50.7
		C509.4,329.1,499.2,291.2,469.7,274.1z M456.8,338.2L427.5,389c-3.7,6.3-10.6,10.3-18,10.3c-3.7,0-7.3-1-10.4-2.8
		c-9.6-5.6-20-8.4-30.8-8.4c-34.2,0-62,27.8-62,62c0,11.5-9.4,20.9-20.9,20.9h-58.5c-11.5,0-20.9-9.4-20.9-20.9
		c0-34.2-27.8-62-62-62c-10.8,0-21.2,2.8-30.9,8.4c-3.2,1.8-6.8,2.8-10.4,2.8c-7.5,0-14.4-4-18.1-10.5l-29.3-50.7
		c-2.8-4.8-3.5-10.4-2-15.8c1.4-5.4,4.9-9.9,9.7-12.7c19.4-11.2,31-31.2,31-53.6s-11.5-42.4-30.9-53.6l-0.1-0.1
		c-10-5.8-13.4-18.6-7.6-28.5l29.3-50.7c3.7-6.4,10.7-10.4,18.1-10.4c3.7,0,7.3,1,10.4,2.8c9.6,5.6,20,8.4,30.9,8.4
		c34.2,0,62-27.8,62-62c0-11.5,9.4-20.9,20.9-20.9h58.4c11.5,0,20.9,9.4,20.9,20.9c0,34.2,27.8,62,62,62c10.8,0,21.2-2.8,30.8-8.4
		l0.2-0.1c3.2-1.8,6.7-2.8,10.4-2.8c7.4,0,14.4,4,18.1,10.5l29.1,50.5l0.1,0.1l0.1,0.2c2.7,4.8,3.5,10.4,2,15.8
		c-1.4,5.4-4.9,9.9-9.7,12.7c-19.4,11.2-31,31.2-31,53.6s11.6,42.4,30.9,53.6l0.1,0.1C459.2,315.4,462.6,328.2,456.8,338.2z
		 M256,141.3c-63.3,0-114.7,51.5-114.7,114.7S192.7,370.7,256,370.7S370.7,319.3,370.7,256S319.3,141.3,256,141.3z M256,329.7
		c-40.6,0-73.7-33.1-73.7-73.7s33.1-73.7,73.7-73.7s73.7,33.1,73.7,73.7S296.6,329.7,256,329.7z M256,141.3
		c-63.3,0-114.7,51.5-114.7,114.7S192.7,370.7,256,370.7S370.7,319.3,370.7,256S319.3,141.3,256,141.3z M256,329.7
		c-40.6,0-73.7-33.1-73.7-73.7s33.1-73.7,73.7-73.7s73.7,33.1,73.7,73.7S296.6,329.7,256,329.7z M256,141.3
		c-63.3,0-114.7,51.5-114.7,114.7S192.7,370.7,256,370.7S370.7,319.3,370.7,256S319.3,141.3,256,141.3z M256,329.7
		c-40.6,0-73.7-33.1-73.7-73.7s33.1-73.7,73.7-73.7s73.7,33.1,73.7,73.7S296.6,329.7,256,329.7z M256,141.3
		c-63.3,0-114.7,51.5-114.7,114.7S192.7,370.7,256,370.7S370.7,319.3,370.7,256S319.3,141.3,256,141.3z M256,329.7
		c-40.6,0-73.7-33.1-73.7-73.7s33.1-73.7,73.7-73.7s73.7,33.1,73.7,73.7S296.6,329.7,256,329.7z M256,141.3
		c-63.3,0-114.7,51.5-114.7,114.7S192.7,370.7,256,370.7S370.7,319.3,370.7,256S319.3,141.3,256,141.3z M256,329.7
		c-40.6,0-73.7-33.1-73.7-73.7s33.1-73.7,73.7-73.7s73.7,33.1,73.7,73.7S296.6,329.7,256,329.7z"/>
</g>
</svg>
