<?xml version="1.0" encoding="utf-8"?>
<!-- Generator: Adobe Illustrator 26.0.1, SVG Export Plug-In . SVG Version: 6.00 Build 0)  -->
<svg version="1.1" id="Layer_1" xmlns="http://www.w3.org/2000/svg" xmlns:xlink="http://www.w3.org/1999/xlink" x="0px" y="0px"
	 viewBox="0 0 512 512" style="enable-background:new 0 0 512 512;" xml:space="preserve">
<style type="text/css">
	.st0{fill-rule:evenodd;clip-rule:evenodd;fill:#3E3286;}
</style>
<g>
	<path class="st0" d="M276.9,49.4c6.4-2.9,13.9-1.7,19.2,2.9l195.6,172.5c17.2,15.2,18.9,41.5,3.7,58.8c-1.1,1.3-2.4,2.5-3.7,3.7
		L296,459.7c-7.4,6.5-18.7,5.8-25.2-1.6c-2.9-3.3-4.5-7.4-4.5-11.8v-89.2c-46.3,0.2-86,1.4-122,11.8c-38.3,11-73.1,32.5-105.9,76.3
		c-5.9,7.9-17.1,9.5-25,3.6c-4.5-3.4-7.1-8.7-7.1-14.3c0-109.9,36.4-180.7,90.8-223.6c49.8-39.3,112.3-53.3,169.2-55.6V65.7
		C266.4,58.7,270.5,52.3,276.9,49.4z M302,105.2V168c0,12.4-10,22.5-22.4,22.6c-56.2,0.6-115.5,12.8-160.4,48.3
		C82.9,267.5,54,312.9,45,384.6c25.5-23.6,56.2-40.7,89.6-50.1c45-12.9,93.7-13.1,144.8-13.1c12.5,0,22.6,10.1,22.6,22.6v62.8
		L468,260.5c2.5-2.2,2.7-5.9,0.5-8.4c-0.2-0.2-0.3-0.4-0.5-0.5L302,105.2z"/>
</g>
</svg>
