<?xml version="1.0" encoding="utf-8"?>
<!-- Generator: Adobe Illustrator 26.0.1, SVG Export Plug-In . SVG Version: 6.00 Build 0)  -->
<svg version="1.1" id="Layer_1" xmlns="http://www.w3.org/2000/svg" xmlns:xlink="http://www.w3.org/1999/xlink" x="0px" y="0px"
	 viewBox="0 0 512 512" style="enable-background:new 0 0 512 512;" xml:space="preserve">
<style type="text/css">
	.st0{fill:#FFFFFF;}
</style>
<path class="st0" d="M494.1,251.3v-0.2h-77l-33-132.3c-2-8.4-9.5-14.3-18.2-14.3h-0.1c-8.8,0.2-16.1,6.4-17.8,15.1l-46.6,231.1
	l-17.8-84.8c-1.8-8.6-9.5-14.9-18.3-14.9c-1.3,0-2.6,0.1-3.9,0.4c-6.1,1.3-11.2,5.5-13.5,11.3l-9.4,23.6L210.8,57
	c-1.1-9.4-9.1-16.5-18.5-16.5h-0.2c-9.5,0-17.5,7.1-18.6,16.6l-34.3,295L118.6,274c-2.2-8.2-9.6-14-18.1-14H18.1
	c-10.3,0-18.7,8.4-18.7,18.7c0,10.3,8.4,18.7,18.7,18.7h67.7l42.1,160c2.2,8.2,9.6,14,18.1,14h1.2h0.1c8.9-0.7,16.2-7.6,17.2-16.5
	L192,217.8l17.6,145.7c1.1,9.4,9.1,16.4,18.5,16.4c0.8,0,1.5,0,2.3-0.1c6.8-0.8,12.5-5.3,15.1-11.6l13.7-34.1l23.9,113.5
	c1.8,8.6,9.5,14.8,18.4,14.8c8.8-0.1,16.5-6.4,18.2-15.1l47.7-238.6l16.4,65.7c2.1,8.4,9.5,14.2,18.2,14.2h91.5
	c10.3,0,18.7-8.4,18.7-18.7C512.2,259.8,504.1,251.6,494.1,251.3z"/>
</svg>
