<?xml version="1.0" encoding="utf-8"?>
<!-- Generator: Adobe Illustrator 26.0.1, SVG Export Plug-In . SVG Version: 6.00 Build 0)  -->
<svg version="1.1" id="Layer_1" xmlns="http://www.w3.org/2000/svg" xmlns:xlink="http://www.w3.org/1999/xlink" x="0px" y="0px"
	 viewBox="0 0 512 512" style="enable-background:new 0 0 512 512;" xml:space="preserve">
<style type="text/css">
	.st0{fill:#3E3286;}
</style>
<g>
	<path class="st0" d="M352.8,308.8c0,34.4-9.8,67.6-28.5,96.1c-12-1.4-23.7-5.1-34.4-10.8c18.4-24.5,28.5-54.5,28.5-85.3
		c0-40.4-17.3-78.9-47.3-105.8c-26-23.3-59.7-36.2-94.7-36.2c-78.3,0-142,63.7-142,142c0,74.2,57.2,135.8,130.7,141.6
		c10.3,12.3,21.8,23.5,34.4,33.3c-7.6,1-15.4,1.5-23.1,1.5C79.1,485.1,0,406,0,308.8c0-88.6,66.2-163.8,154-175l17.8-2.3l-14.5-10.7
		C127.2,98.7,112,78.4,112,60.5c0-18.6,15.1-33.7,33.7-33.7c9.7,0,18.9,4.2,25.3,11.5l5.4,6.2l5.4-6.2c6.4-7.3,15.6-11.5,25.3-11.5
		c18.6,0,33.7,15.1,33.7,33.7c0,17.8-15.3,38.1-45.4,60.3l-14.5,10.7l17.9,2.3c16.6,2.1,32.8,6.5,48.1,13.3
		c27.8,12.2,52.2,31.5,70.6,55.9C340.6,233.6,352.8,270.2,352.8,308.8z"/>
	<path class="st0" d="M352.8,308.8c0,34.4-9.8,67.6-28.5,96.1c-12-1.4-23.7-5.1-34.4-10.8c18.4-24.5,28.5-54.5,28.5-85.3
		c0-40.4-17.3-78.9-47.3-105.8c-26-23.3-59.7-36.2-94.7-36.2c-78.3,0-142,63.7-142,142c0,74.2,57.2,135.8,130.7,141.6
		c10.3,12.3,21.8,23.5,34.4,33.3c-7.6,1-15.4,1.5-23.1,1.5C79.1,485.1,0,406,0,308.8c0-88.6,66.2-163.8,154-175l17.8-2.3l-14.5-10.7
		C127.2,98.7,112,78.4,112,60.5c0-18.6,15.1-33.7,33.7-33.7c9.7,0,18.9,4.2,25.3,11.5l5.4,6.2l5.4-6.2c6.4-7.3,15.6-11.5,25.3-11.5
		c18.6,0,33.7,15.1,33.7,33.7c0,17.8-15.3,38.1-45.4,60.3l-14.5,10.7l17.9,2.3c16.6,2.1,32.8,6.5,48.1,13.3
		c27.8,12.2,52.2,31.5,70.6,55.9C340.6,233.6,352.8,270.2,352.8,308.8z"/>
	<path class="st0" d="M512,308.8c0,97.3-79.1,176.4-176.4,176.4c-24.6,0-48.3-4.9-70.5-14.7c-27.8-12.2-52.2-31.5-70.6-55.9
		c-23.1-30.7-35.3-67.3-35.3-105.8c0-34.4,9.8-67.5,28.5-96.1c12,1.4,23.7,5.1,34.4,10.8c-18.4,24.6-28.5,54.5-28.5,85.3
		c0,40.4,17.3,78.9,47.3,105.9c26,23.3,59.7,36.2,94.7,36.2c78.3,0,142-63.7,142-142c0-74.2-57.2-135.8-130.7-141.6
		c-10.3-12.3-21.8-23.5-34.4-33.3c7.6-1,15.4-1.5,23.1-1.5C432.9,132.4,512,211.5,512,308.8z"/>
	<path class="st0" d="M512,308.8c0,97.3-79.1,176.4-176.4,176.4c-24.6,0-48.3-4.9-70.5-14.7c-27.8-12.2-52.2-31.5-70.6-55.9
		c-23.1-30.7-35.3-67.3-35.3-105.8c0-34.4,9.8-67.5,28.5-96.1c12,1.4,23.7,5.1,34.4,10.8c-18.4,24.6-28.5,54.5-28.5,85.3
		c0,40.4,17.3,78.9,47.3,105.9c26,23.3,59.7,36.2,94.7,36.2c78.3,0,142-63.7,142-142c0-74.2-57.2-135.8-130.7-141.6
		c-10.3-12.3-21.8-23.5-34.4-33.3c7.6-1,15.4-1.5,23.1-1.5C432.9,132.4,512,211.5,512,308.8z"/>
</g>
</svg>
