<?xml version="1.0" encoding="utf-8"?>
<!-- Generator: Adobe Illustrator 26.0.1, SVG Export Plug-In . SVG Version: 6.00 Build 0)  -->
<svg version="1.1" id="Layer_1" xmlns="http://www.w3.org/2000/svg" xmlns:xlink="http://www.w3.org/1999/xlink" x="0px" y="0px"
	 viewBox="0 0 512 512" style="enable-background:new 0 0 512 512;" xml:space="preserve">
<style type="text/css">
	.st0{fill-rule:evenodd;clip-rule:evenodd;fill:#3E3286;}
</style>
<g>
	<path class="st0" d="M92.7,136.6H54.9C24.6,136.6,0,161.1,0,191.4v54.9c0,30.3,24.6,54.9,54.9,54.9h37.8
		c30.1,59.6,92,100.6,163.3,100.6s133.2-40.9,163.3-100.6h37.8c4.4,0,8.6-0.5,12.7-1.5c-7.2,27.4-21,52.6-40.3,73.3
		c-35.5,36.9-84,61.5-138.1,65.8c-5.6,0.5-11.3,0.7-17.1,0.7c-10.1,0-18.3,8.2-18.3,18.3c0,10.1,8.2,18.3,18.3,18.3
		c6.7,0,13.4-0.3,20-0.8c63.4-5,120.2-33.8,161.7-77l0.2-0.2c35.9-38.6,55.8-89.3,55.8-141.9c0-1.1-0.1-2.3-0.4-3.3
		c0.3-2.2,0.4-4.4,0.4-6.6v-54.9c0-30.3-24.6-54.9-54.9-54.9h-37.8C389.2,76.9,327.3,35.9,256,35.9S122.8,76.9,92.7,136.6z
		 M219.4,438.3H192c-10.1,0-18.3,8.2-18.3,18.3s8.2,18.3,18.3,18.3h27.4c10.1,0,18.3-8.2,18.3-18.3S229.5,438.3,219.4,438.3z
		 M256,72.6c80.7,0,146.3,65.6,146.3,146.3S336.7,365.1,256,365.1s-146.3-65.6-146.3-146.3S175.3,72.6,256,72.6z M171,296.8
		c23.4,20,53,31.8,85,31.8s61.6-11.8,85-31.8c7.7-6.5,8.6-18.1,2.1-25.8c-6.5-7.7-18.1-8.6-25.8-2.1C300.4,283.3,279.1,292,256,292
		s-44.4-8.7-61.3-23.1c-7.7-6.5-19.2-5.6-25.8,2.1C162.4,278.7,163.3,290.2,171,296.8L171,296.8z M78.9,173.1h-24
		c-10.1,0-18.3,8.2-18.3,18.3v54.9c0,10.1,8.2,18.3,18.3,18.3H79c-3.8-14.6-5.8-29.9-5.8-45.7S75.2,187.8,78.9,173.1z M433.1,173.1
		c3.8,14.6,5.8,29.9,5.8,45.7s-2,31.1-5.8,45.7h24.1c10.1,0,18.3-8.2,18.3-18.3v-54.9c0-10.1-8.2-18.3-18.3-18.3L433.1,173.1
		L433.1,173.1z"/>
</g>
</svg>
