<?xml version="1.0" encoding="utf-8"?>
<!-- Generator: Adobe Illustrator 26.0.1, SVG Export Plug-In . SVG Version: 6.00 Build 0)  -->
<svg version="1.1" id="Layer_1" xmlns="http://www.w3.org/2000/svg" xmlns:xlink="http://www.w3.org/1999/xlink" x="0px" y="0px"
	 viewBox="0 0 512 512" style="enable-background:new 0 0 512 512;" xml:space="preserve">
<style type="text/css">
	.st0{fill:#FFFFFF;}
</style>
<g>
	<path class="st0" d="M183.6,25.1c9.9,14.6,18.9,38.1,18.9,72.8v112.6h30l50.4,51.4h-80.4v145.8c0,11.4,4.3,21.7,12.8,31
		s22.5,14,41.9,14c25,0,51.4-14,79.3-41.9c28.5-28.5,43.6-57.8,45-87.9l-12.8,1.1c-45.8,0-68.6-24.3-68.6-72.9
		c0-16.5,5.4-31,16.1-44c10.7-12.8,28.5-19.4,53.5-19.4c26.4,0,48.6,11.4,66.5,34.3c18.6,22.9,27.9,50.8,27.9,83.6
		c0,48.6-20.7,95-62.2,139.4c-40.7,44.2-118.6,66.5-145.8,66.5c-43.5,0-60.2-8.5-74.4-18.2c-14.2-9.8-32.8-32.9-32.8-62.1V261.9
		H97.4l-49.3-51.4h100.8V108.7c0-22.7-22.7-35.2-37.6-36.4c-9-0.8-19,1.8-22.5,5.4C82.4,67,76.3,54,70.6,39.1c0,0,5-18.1,21.5-28.9
		c11.3-7.4,22-9.7,38.6-9.7C162.2,0.3,176.8,15.2,183.6,25.1L183.6,25.1z"/>
</g>
</svg>
