<svg xmlns="http://www.w3.org/2000/svg" version="1.1" xmlns:xlink="http://www.w3.org/1999/xlink" width="512" height="512" x="0" y="0" viewBox="0 0 32 32" style="enable-background:new 0 0 512 512" xml:space="preserve" class=""><g><path d="M6.41 18.29 16 8.7l9.59 9.59a2 2 0 0 0 2.82 0 2 2 0 0 0 0-2.83l-11-11a2 2 0 0 0-2.82 0l-11 11a2 2 0 0 0 2.82 2.83z" fill="#000000" opacity="1" data-original="#000000" class=""></path><path d="M3.59 27.54a2 2 0 0 0 2.82 0L16 18l9.59 9.59a2 2 0 0 0 2.82 0 2 2 0 0 0 0-2.83l-11-11a2 2 0 0 0-2.82 0l-11 11a2 2 0 0 0 0 2.78z" fill="#000000" opacity="1" data-original="#000000" class=""></path></g></svg>