<?xml version="1.0" encoding="utf-8"?>
<!-- Generator: Adobe Illustrator 26.0.1, SVG Export Plug-In . SVG Version: 6.00 Build 0)  -->
<svg version="1.1" id="Layer_1" xmlns="http://www.w3.org/2000/svg" xmlns:xlink="http://www.w3.org/1999/xlink" x="0px" y="0px"
	 viewBox="0 0 512 512" style="enable-background:new 0 0 512 512;" xml:space="preserve">
<style type="text/css">
	.st0{fill-rule:evenodd;clip-rule:evenodd;fill:#3E3286;}
	.st1{fill:#3E3286;}
	.st2{fill:#9B59D8;}
</style>
<g>
	<path class="st0" d="M253.8,285.1c50.5,0,91.5-41.1,91.5-91.5c0-50.5-41.1-91.5-91.5-91.5s-91.6,41.1-91.6,91.5
		C162.3,244,203.4,285.1,253.8,285.1z M256,21c129.6,0,235,105.4,235,235c0,61.4-23.7,117.4-62.4,159.3
		c-13.9-32.7-36.5-60.8-65.6-81.7c-32.1-23-69.8-35.4-109.1-36c0,0-0.1,0-0.1,0c-38.7,0.6-75.9,12.7-107.6,35
		c-28.8,20.3-51.4,47.6-65.7,79.5C43.5,370.5,21,315.8,21,256C21,126.4,126.4,21,256,21z M429.2,82.8C475.5,129,501,190.6,501,256
		s-25.5,127-71.8,173.2C383,475.5,321.5,501,256,501c-65.4,0-127-25.5-173.2-71.8C36.5,383,11,321.4,11,256S36.5,129,82.7,82.8
		C129,36.5,190.6,11,256,11C321.5,11,383,36.5,429.2,82.8z"/>
</g>
<rect x="-286" y="-134.8" class="st1" width="156.7" height="99.5"/>
<rect x="-62.7" y="-134.8" class="st2" width="156.7" height="99.5"/>
</svg>
