<?xml version="1.0" encoding="utf-8"?>
<!-- Generator: Adobe Illustrator 26.0.1, SVG Export Plug-In . SVG Version: 6.00 Build 0)  -->
<svg version="1.1" id="Layer_1" xmlns="http://www.w3.org/2000/svg" xmlns:xlink="http://www.w3.org/1999/xlink" x="0px" y="0px"
	 viewBox="0 0 512 512" style="enable-background:new 0 0 512 512;" xml:space="preserve">
<style type="text/css">
	.st0{fill:#342D77;}
	.st1{opacity:0.1;}
	.st2{fill:#FFFFFF;}
	.st3{fill:#3E3286;}
</style>
<g>
	<g>
		<g>
			
				<ellipse transform="matrix(0.7635 -0.6459 0.6459 0.7635 -162.6651 301.9331)" class="st0" cx="330.9" cy="373" rx="2.7" ry="3"/>
		</g>
	</g>
	<g class="st1">
		<g>
			
				<ellipse transform="matrix(0.7635 -0.6459 0.6459 0.7635 -162.6651 301.9331)" class="st2" cx="330.9" cy="373" rx="0.7" ry="0.8"/>
		</g>
	</g>
</g>
<g>
	<g>
		<g>
			
				<ellipse transform="matrix(0.7635 -0.6459 0.6459 0.7635 -166.2831 303.2592)" class="st0" cx="330.9" cy="378.6" rx="2.7" ry="3"/>
		</g>
	</g>
	<g class="st1">
		<g>
			
				<ellipse transform="matrix(0.7635 -0.6459 0.6459 0.7635 -166.2831 303.2592)" class="st2" cx="330.9" cy="378.6" rx="0.7" ry="0.8"/>
		</g>
	</g>
</g>
<g>
	<g>
		<g>
			
				<ellipse transform="matrix(0.7635 -0.6459 0.6459 0.7635 -169.6746 304.5004)" class="st0" cx="330.9" cy="383.9" rx="2.7" ry="3"/>
		</g>
	</g>
	<g class="st1">
		<g>
			
				<ellipse transform="matrix(0.7635 -0.6459 0.6459 0.7635 -169.6746 304.5004)" class="st2" cx="330.9" cy="383.9" rx="0.7" ry="0.8"/>
		</g>
	</g>
</g>
<g>
	<g>
		<g>
			
				<ellipse transform="matrix(0.7635 -0.6459 0.6459 0.7635 -173.1326 305.7678)" class="st0" cx="330.9" cy="389.2" rx="2.7" ry="3"/>
		</g>
	</g>
	<g class="st1">
		<g>
			
				<ellipse transform="matrix(0.7635 -0.6459 0.6459 0.7635 -173.1326 305.7678)" class="st2" cx="330.9" cy="389.2" rx="0.7" ry="0.8"/>
		</g>
	</g>
</g>
<g>
	<g>
		<g>
			
				<ellipse transform="matrix(0.7635 -0.6459 0.6459 0.7635 -176.6221 307.2371)" class="st0" cx="331.1" cy="394.7" rx="2.7" ry="3"/>
		</g>
	</g>
	<g class="st1">
		<g>
			
				<ellipse transform="matrix(0.7635 -0.6459 0.6459 0.7635 -176.6221 307.2371)" class="st2" cx="331.1" cy="394.7" rx="0.7" ry="0.8"/>
		</g>
	</g>
</g>
<g>
	<g>
		<g>
			
				<ellipse transform="matrix(0.7635 -0.6459 0.6459 0.7635 -180.1225 308.5191)" class="st0" cx="331.1" cy="400.2" rx="2.7" ry="3"/>
		</g>
	</g>
	<g class="st1">
		<g>
			
				<ellipse transform="matrix(0.7635 -0.6459 0.6459 0.7635 -180.1225 308.5191)" class="st2" cx="331.1" cy="400.2" rx="0.7" ry="0.8"/>
		</g>
	</g>
</g>
<g>
	<g>
		<g>
			
				<ellipse transform="matrix(0.7635 -0.6459 0.6459 0.7635 -183.6569 310.1484)" class="st0" cx="331.6" cy="405.8" rx="2.7" ry="3"/>
		</g>
	</g>
	<g class="st1">
		<g>
			
				<ellipse transform="matrix(0.7635 -0.6459 0.6459 0.7635 -183.6569 310.1484)" class="st2" cx="331.6" cy="405.8" rx="0.7" ry="0.8"/>
		</g>
	</g>
</g>
<g>
	<g>
		<g>
			
				<ellipse transform="matrix(0.7635 -0.6459 0.6459 0.7635 -187.2683 311.4711)" class="st0" cx="331.6" cy="411.4" rx="2.7" ry="3"/>
		</g>
	</g>
	<g class="st1">
		<g>
			
				<ellipse transform="matrix(0.7635 -0.6459 0.6459 0.7635 -187.2683 311.4711)" class="st2" cx="331.6" cy="411.4" rx="0.7" ry="0.8"/>
		</g>
	</g>
</g>
<g>
	<g>
		<g>
			
				<ellipse transform="matrix(0.7635 -0.6459 0.6459 0.7635 -190.9797 312.8304)" class="st0" cx="331.6" cy="417.1" rx="2.7" ry="3"/>
		</g>
	</g>
	<g class="st1">
		<g>
			
				<ellipse transform="matrix(0.7635 -0.6459 0.6459 0.7635 -190.9797 312.8304)" class="st2" cx="331.6" cy="417.1" rx="0.7" ry="0.8"/>
		</g>
	</g>
</g>
<g>
	<g>
		<g>
			
				<ellipse transform="matrix(0.7635 -0.6459 0.6459 0.7635 -194.6488 314.1742)" class="st0" cx="331.6" cy="422.8" rx="2.7" ry="3"/>
		</g>
	</g>
	<g class="st1">
		<g>
			
				<ellipse transform="matrix(0.7635 -0.6459 0.6459 0.7635 -194.6488 314.1742)" class="st2" cx="331.6" cy="422.8" rx="0.7" ry="0.8"/>
		</g>
	</g>
</g>
<g>
	<g>
		<g>
			
				<ellipse transform="matrix(0.7635 -0.6459 0.6459 0.7635 -198.2252 315.7232)" class="st0" cx="331.9" cy="428.5" rx="2.7" ry="3"/>
		</g>
	</g>
	<g class="st1">
		<g>
			
				<ellipse transform="matrix(0.7635 -0.6459 0.6459 0.7635 -198.2252 315.7232)" class="st2" cx="331.9" cy="428.5" rx="0.7" ry="0.8"/>
		</g>
	</g>
</g>
<g>
	<g>
		<g>
			
				<ellipse transform="matrix(0.7635 -0.6459 0.6459 0.7635 -201.8903 317.2568)" class="st0" cx="332.2" cy="434.2" rx="2.7" ry="3"/>
		</g>
	</g>
	<g class="st1">
		<g>
			
				<ellipse transform="matrix(0.7635 -0.6459 0.6459 0.7635 -201.8903 317.2568)" class="st2" cx="332.2" cy="434.2" rx="0.7" ry="0.8"/>
		</g>
	</g>
</g>
<g>
	<g>
		<g>
			
				<ellipse transform="matrix(0.7635 -0.6459 0.6459 0.7635 -205.6171 318.6218)" class="st0" cx="332.2" cy="440" rx="2.7" ry="3"/>
		</g>
	</g>
	<g class="st1">
		<g>
			
				<ellipse transform="matrix(0.7635 -0.6459 0.6459 0.7635 -205.6171 318.6218)" class="st2" cx="332.2" cy="440" rx="0.7" ry="0.8"/>
		</g>
	</g>
</g>
<g>
	<g>
		<g>
			
				<ellipse transform="matrix(0.7635 -0.6459 0.6459 0.7635 -209.2707 319.9599)" class="st0" cx="332.2" cy="445.7" rx="2.7" ry="3"/>
		</g>
	</g>
	<g class="st1">
		<g>
			
				<ellipse transform="matrix(0.7635 -0.6459 0.6459 0.7635 -209.2707 319.9599)" class="st2" cx="332.2" cy="445.7" rx="0.7" ry="0.8"/>
		</g>
	</g>
</g>
<g>
	<g>
		<g>
			
				<ellipse transform="matrix(0.7635 -0.6459 0.6459 0.7635 -212.7712 321.2419)" class="st0" cx="332.2" cy="451.1" rx="2.7" ry="3"/>
		</g>
	</g>
	<g class="st1">
		<g>
			
				<ellipse transform="matrix(0.7635 -0.6459 0.6459 0.7635 -212.7712 321.2419)" class="st2" cx="332.2" cy="451.1" rx="0.7" ry="0.8"/>
		</g>
	</g>
</g>
<g>
	<g>
		<g>
			
				<ellipse transform="matrix(0.7635 -0.6459 0.6459 0.7635 -216.1873 322.4931)" class="st0" cx="332.2" cy="456.4" rx="2.7" ry="3"/>
		</g>
	</g>
	<g class="st1">
		<g>
			
				<ellipse transform="matrix(0.7635 -0.6459 0.6459 0.7635 -216.1873 322.4931)" class="st2" cx="332.2" cy="456.4" rx="0.7" ry="0.8"/>
		</g>
	</g>
</g>
<g>
	<g>
		<g>
			
				<ellipse transform="matrix(0.7635 -0.6459 0.6459 0.7635 -219.6063 324.1279)" class="st0" cx="332.7" cy="461.9" rx="2.7" ry="3"/>
		</g>
	</g>
	<g class="st1">
		<g>
			
				<ellipse transform="matrix(0.7635 -0.6459 0.6459 0.7635 -219.6063 324.1279)" class="st2" cx="332.7" cy="461.9" rx="0.7" ry="0.8"/>
		</g>
	</g>
</g>
<g>
	<g>
		<g>
			
				<ellipse transform="matrix(0.7635 -0.6459 0.6459 0.7635 -223.2333 325.4563)" class="st0" cx="332.7" cy="467.5" rx="2.7" ry="3"/>
		</g>
	</g>
	<g class="st1">
		<g>
			
				<ellipse transform="matrix(0.7635 -0.6459 0.6459 0.7635 -223.2333 325.4563)" class="st2" cx="332.7" cy="467.5" rx="0.7" ry="0.8"/>
		</g>
	</g>
</g>
<g>
	<g>
		<g>
			
				<ellipse transform="matrix(0.7635 -0.6459 0.6459 0.7635 -226.565 326.6765)" class="st0" cx="332.7" cy="472.6" rx="2.7" ry="3"/>
		</g>
	</g>
	<g class="st1">
		<g>
			
				<ellipse transform="matrix(0.7635 -0.6459 0.6459 0.7635 -226.565 326.6765)" class="st2" cx="332.7" cy="472.6" rx="0.7" ry="0.8"/>
		</g>
	</g>
</g>
<g>
	<g>
		<g>
			
				<ellipse transform="matrix(0.7635 -0.6459 0.6459 0.7635 -229.9811 327.9277)" class="st0" cx="332.7" cy="477.9" rx="2.7" ry="3"/>
		</g>
	</g>
	<g class="st1">
		<g>
			
				<ellipse transform="matrix(0.7635 -0.6459 0.6459 0.7635 -229.9811 327.9277)" class="st2" cx="332.7" cy="477.9" rx="0.7" ry="0.8"/>
		</g>
	</g>
</g>
<g>
	<g>
		<path class="st0" d="M335.3,482.6c-0.6,0.2-1.2,0.4-1.9,0.7c-0.2,0.1-0.3,0.1-0.5,0.2c-0.3,0.1-0.5,0.2-0.8,0.3
			c-0.6,0.2-1.3,0.4-1.9,0.6c-0.5-1.1-0.3-2.5,0.6-3.2c0.4-0.3,0.8-0.5,1.2-0.5c0.3-0.1,0.6-0.1,0.9,0c0.2,0,0.4,0.1,0.6,0.2
			c0,0,0,0,0,0c0.5,0.2,0.9,0.5,1.2,0.9C335,482,335.2,482.3,335.3,482.6z"/>
	</g>
</g>
<g class="st1">
	<path class="st2" d="M332.9,483.4c-0.3,0.1-0.5,0.2-0.8,0.3c-0.2-0.3-0.1-0.7,0.1-0.9c0.2-0.2,0.5-0.2,0.7-0.1
		c0.1,0,0.2,0.1,0.3,0.2c0.1,0.1,0.1,0.2,0.2,0.3C333.2,483.3,333,483.4,332.9,483.4z"/>
</g>
<g>
	<g>
		<g>
			<ellipse transform="matrix(0.6459 -0.7635 0.7635 0.6459 -220.7709 270.133)" class="st0" cx="180.8" cy="373" rx="3" ry="2.7"/>
		</g>
	</g>
	<g class="st1">
		<g>
			
				<ellipse transform="matrix(0.6459 -0.7635 0.7635 0.6459 -220.7709 270.133)" class="st2" cx="180.8" cy="373" rx="0.8" ry="0.7"/>
		</g>
	</g>
</g>
<g>
	<g>
		<g>
			
				<ellipse transform="matrix(0.6459 -0.7635 0.7635 0.6459 -225.0485 272.116)" class="st0" cx="180.8" cy="378.6" rx="3" ry="2.7"/>
		</g>
	</g>
	<g class="st1">
		<g>
			
				<ellipse transform="matrix(0.6459 -0.7635 0.7635 0.6459 -225.0485 272.116)" class="st2" cx="180.8" cy="378.6" rx="0.8" ry="0.7"/>
		</g>
	</g>
</g>
<g>
	<g>
		<g>
			
				<ellipse transform="matrix(0.6459 -0.7635 0.7635 0.6459 -229.0567 273.9765)" class="st0" cx="180.8" cy="383.9" rx="3" ry="2.7"/>
		</g>
	</g>
	<g class="st1">
		<g>
			
				<ellipse transform="matrix(0.6459 -0.7635 0.7635 0.6459 -229.0567 273.9765)" class="st2" cx="180.8" cy="383.9" rx="0.8" ry="0.7"/>
		</g>
	</g>
</g>
<g>
	<g>
		<g>
			
				<ellipse transform="matrix(0.6459 -0.7635 0.7635 0.6459 -233.1451 275.8717)" class="st0" cx="180.8" cy="389.2" rx="3" ry="2.7"/>
		</g>
	</g>
	<g class="st1">
		<g>
			
				<ellipse transform="matrix(0.6459 -0.7635 0.7635 0.6459 -233.1451 275.8717)" class="st2" cx="180.8" cy="389.2" rx="0.8" ry="0.7"/>
		</g>
	</g>
</g>
<g>
	<g>
		<g>
			
				<ellipse transform="matrix(0.6459 -0.7635 0.7635 0.6459 -237.4355 277.6196)" class="st0" cx="180.5" cy="394.7" rx="3" ry="2.7"/>
		</g>
	</g>
	<g class="st1">
		<g>
			
				<ellipse transform="matrix(0.6459 -0.7635 0.7635 0.6459 -237.4355 277.6196)" class="st2" cx="180.5" cy="394.7" rx="0.8" ry="0.7"/>
		</g>
	</g>
</g>
<g>
	<g>
		<g>
			
				<ellipse transform="matrix(0.6459 -0.7635 0.7635 0.6459 -241.5732 279.5389)" class="st0" cx="180.5" cy="400.2" rx="3" ry="2.7"/>
		</g>
	</g>
	<g class="st1">
		<g>
			
				<ellipse transform="matrix(0.6459 -0.7635 0.7635 0.6459 -241.5732 279.5389)" class="st2" cx="180.5" cy="400.2" rx="0.8" ry="0.7"/>
		</g>
	</g>
</g>
<g>
	<g>
		<g>
			
				<ellipse transform="matrix(0.6459 -0.7635 0.7635 0.6459 -246.0408 281.1872)" class="st0" cx="180.1" cy="405.8" rx="3" ry="2.7"/>
		</g>
	</g>
	<g class="st1">
		<g>
			
				<ellipse transform="matrix(0.6459 -0.7635 0.7635 0.6459 -246.0408 281.1872)" class="st2" cx="180.1" cy="405.8" rx="0.8" ry="0.7"/>
		</g>
	</g>
</g>
<g>
	<g>
		<g>
			
				<ellipse transform="matrix(0.6459 -0.7635 0.7635 0.6459 -250.3098 283.1674)" class="st0" cx="180.1" cy="411.4" rx="3" ry="2.7"/>
		</g>
	</g>
	<g class="st1">
		<g>
			
				<ellipse transform="matrix(0.6459 -0.7635 0.7635 0.6459 -250.3098 283.1674)" class="st2" cx="180.1" cy="411.4" rx="0.8" ry="0.7"/>
		</g>
	</g>
</g>
<g>
	<g>
		<g>
			
				<ellipse transform="matrix(0.6459 -0.7635 0.7635 0.6459 -254.6968 285.2024)" class="st0" cx="180.1" cy="417.1" rx="3" ry="2.7"/>
		</g>
	</g>
	<g class="st1">
		<g>
			
				<ellipse transform="matrix(0.6459 -0.7635 0.7635 0.6459 -254.6968 285.2024)" class="st2" cx="180.1" cy="417.1" rx="0.8" ry="0.7"/>
		</g>
	</g>
</g>
<g>
	<g>
		<g>
			
				<ellipse transform="matrix(0.6459 -0.7635 0.7635 0.6459 -259.034 287.2143)" class="st0" cx="180.1" cy="422.8" rx="3" ry="2.7"/>
		</g>
	</g>
	<g class="st1">
		<g>
			
				<ellipse transform="matrix(0.6459 -0.7635 0.7635 0.6459 -259.034 287.2143)" class="st2" cx="180.1" cy="422.8" rx="0.8" ry="0.7"/>
		</g>
	</g>
</g>
<g>
	<g>
		<g>
			
				<ellipse transform="matrix(0.6459 -0.7635 0.7635 0.6459 -263.4685 288.9684)" class="st0" cx="179.7" cy="428.5" rx="3" ry="2.7"/>
		</g>
	</g>
	<g class="st1">
		<g>
			
				<ellipse transform="matrix(0.6459 -0.7635 0.7635 0.6459 -263.4685 288.9684)" class="st2" cx="179.7" cy="428.5" rx="0.8" ry="0.7"/>
		</g>
	</g>
</g>
<g>
	<g>
		<g>
			
				<ellipse transform="matrix(0.6459 -0.7635 0.7635 0.6459 -267.9664 290.8125)" class="st0" cx="179.5" cy="434.2" rx="3" ry="2.7"/>
		</g>
	</g>
	<g class="st1">
		<g>
			
				<ellipse transform="matrix(0.6459 -0.7635 0.7635 0.6459 -267.9664 290.8125)" class="st2" cx="179.5" cy="434.2" rx="0.8" ry="0.7"/>
		</g>
	</g>
</g>
<g>
	<g>
		<g>
			<ellipse transform="matrix(0.6459 -0.7635 0.7635 0.6459 -272.3718 292.856)" class="st0" cx="179.5" cy="440" rx="3" ry="2.7"/>
		</g>
	</g>
	<g class="st1">
		<g>
			
				<ellipse transform="matrix(0.6459 -0.7635 0.7635 0.6459 -272.3718 292.856)" class="st2" cx="179.5" cy="440" rx="0.8" ry="0.7"/>
		</g>
	</g>
</g>
<g>
	<g>
		<g>
			
				<ellipse transform="matrix(0.6459 -0.7635 0.7635 0.6459 -276.6906 294.8593)" class="st0" cx="179.5" cy="445.7" rx="3" ry="2.7"/>
		</g>
	</g>
	<g class="st1">
		<g>
			
				<ellipse transform="matrix(0.6459 -0.7635 0.7635 0.6459 -276.6906 294.8593)" class="st2" cx="179.5" cy="445.7" rx="0.8" ry="0.7"/>
		</g>
	</g>
</g>
<g>
	<g>
		<g>
			
				<ellipse transform="matrix(0.6459 -0.7635 0.7635 0.6459 -280.8284 296.7787)" class="st0" cx="179.5" cy="451.1" rx="3" ry="2.7"/>
		</g>
	</g>
	<g class="st1">
		<g>
			
				<ellipse transform="matrix(0.6459 -0.7635 0.7635 0.6459 -280.8284 296.7787)" class="st2" cx="179.5" cy="451.1" rx="0.8" ry="0.7"/>
		</g>
	</g>
</g>
<g>
	<g>
		<g>
			
				<ellipse transform="matrix(0.6459 -0.7635 0.7635 0.6459 -284.8665 298.6518)" class="st0" cx="179.5" cy="456.4" rx="3" ry="2.7"/>
		</g>
	</g>
	<g class="st1">
		<g>
			
				<ellipse transform="matrix(0.6459 -0.7635 0.7635 0.6459 -284.8665 298.6518)" class="st2" cx="179.5" cy="456.4" rx="0.8" ry="0.7"/>
		</g>
	</g>
</g>
<g>
	<g>
		<g>
			
				<ellipse transform="matrix(0.6459 -0.7635 0.7635 0.6459 -289.2391 300.1955)" class="st0" cx="179" cy="461.9" rx="3" ry="2.7"/>
		</g>
	</g>
	<g class="st1">
		<g>
			
				<ellipse transform="matrix(0.6459 -0.7635 0.7635 0.6459 -289.2391 300.1955)" class="st2" cx="179" cy="461.9" rx="0.8" ry="0.7"/>
		</g>
	</g>
</g>
<g>
	<g>
		<g>
			
				<ellipse transform="matrix(0.6459 -0.7635 0.7635 0.6459 -293.5265 302.1842)" class="st0" cx="179" cy="467.5" rx="3" ry="2.7"/>
		</g>
	</g>
	<g class="st1">
		<g>
			
				<ellipse transform="matrix(0.6459 -0.7635 0.7635 0.6459 -293.5265 302.1842)" class="st2" cx="179" cy="467.5" rx="0.8" ry="0.7"/>
		</g>
	</g>
</g>
<g>
	<g>
		<g>
			
				<ellipse transform="matrix(0.6459 -0.7635 0.7635 0.6459 -297.4648 304.0111)" class="st0" cx="179" cy="472.6" rx="3" ry="2.7"/>
		</g>
	</g>
	<g class="st1">
		<g>
			
				<ellipse transform="matrix(0.6459 -0.7635 0.7635 0.6459 -297.4648 304.0111)" class="st2" cx="179" cy="472.6" rx="0.8" ry="0.7"/>
		</g>
	</g>
</g>
<g>
	<g>
		<g>
			
				<ellipse transform="matrix(0.6459 -0.7635 0.7635 0.6459 -301.5029 305.8842)" class="st0" cx="179" cy="477.9" rx="3" ry="2.7"/>
		</g>
	</g>
	<g class="st1">
		<g>
			
				<ellipse transform="matrix(0.6459 -0.7635 0.7635 0.6459 -301.5029 305.8842)" class="st2" cx="179" cy="477.9" rx="0.8" ry="0.7"/>
		</g>
	</g>
</g>
<g>
	<g>
		<g>
			<path class="st0" d="M181.5,484.2c-0.6-0.2-1.3-0.4-1.9-0.6c-0.4-0.1-0.8-0.3-1.2-0.4c0,0-0.1,0-0.1,0c-0.6-0.2-1.3-0.4-1.9-0.7
				c0.1-0.3,0.3-0.5,0.5-0.8c0.4-0.4,0.8-0.7,1.2-0.9c0,0,0,0,0,0c0.1,0,0.2-0.1,0.3-0.1c0.4-0.1,0.9-0.2,1.3-0.1h0
				c0.4,0.1,0.8,0.2,1.2,0.5C181.8,481.8,182,483.1,181.5,484.2z"/>
		</g>
	</g>
	<g class="st1">
		<g>
			<path class="st2" d="M179.7,483.6c-0.4-0.1-0.8-0.3-1.2-0.4c0,0-0.1,0-0.1,0c0-0.1,0.1-0.1,0.1-0.2c0.3-0.3,0.8-0.4,1-0.2
				C179.7,483,179.8,483.3,179.7,483.6z"/>
		</g>
	</g>
</g>
<g>
	<g>
		<path class="st0" d="M375.8,293.2l-10.2-104.6L346,152.5l-1.9,87.9V137l-21.2-39.6L288.3,84h-60.4l-49.7,25.2L165,151.7v22.6
			l-5.1-30.9l-14.5,70.5l-12.9,89.7L106.8,444c6.1,4.9,12.6,9.5,19.2,13.8c4.7,3.1,9.6,6,14.5,8.7c11.4,6.3,23.5,11.7,35.9,16.1h0
			c0.6,0.2,1.2,0.5,1.9,0.7c0,0,0.1,0,0.1,0c0.4,0.1,0.8,0.3,1.2,0.4c0.6,0.2,1.3,0.4,1.9,0.6c5.5,1.8,11.2,3.4,16.9,4.8
			c18.4,4.5,37.7,7,57.6,7c20,0,39.4-2.5,58-7.1c5.5-1.4,10.8-2.9,16.1-4.6c0.6-0.2,1.3-0.4,1.9-0.6c0.3-0.1,0.5-0.2,0.8-0.3
			c0.2,0,0.3-0.1,0.5-0.2c0.6-0.2,1.3-0.4,1.9-0.7c2.6-0.9,5.2-1.9,7.8-2.9v-76.1l0.4-63l1.2,138.4c4.5-1.8,8.9-3.7,13.3-5.8
			c0.5-0.2,1.1-0.5,1.6-0.8c4.3-2.1,8.6-4.3,12.7-6.6c4.7-2.6,9.3-5.3,13.8-8.2c10.6-6.8,20.6-14.5,29.9-22.8L375.8,293.2z"/>
	</g>
	<g>
		<path class="st3" d="M321.5,176.4c-0.2,4.2-0.6,16-1.1,32.8c-0.2,5.1-0.3,10.7-0.5,16.7c-2.3,76-6.2,215-5.9,263.1
			c-18.6,4.6-38,7.1-58,7.1c-19.8,0-39.1-2.4-57.6-7c-0.2-35.6-1.3-180.5-4.4-231.6c-0.5-11.3-1.1-21.2-1.5-29.7
			c-0.3-6.5-0.7-12.2-0.9-17.2c-0.9-16.9-1.4-24.9-1.4-24.9s-0.3-5.9,0-14.3c1.7-51.8,73.1-73.2,114-40c9.4,7.6,16.5,17.7,17.4,30.7
			C321.6,162.9,321.6,175.5,321.5,176.4z"/>
	</g>
	<g>
		<g>
			<path class="st2" d="M332.4,209.8l0.4,15.3c0,0-73.9,4.9-155.2,2.2c1.8-8.2,0.5-15.4,0.5-15.4S233.6,204.4,332.4,209.8z"/>
		</g>
	</g>
	<g>
		<path class="st3" d="M428.9,390.3c-10.4-25.6-20.2-51.3-28.4-74.6c-13.8-44.7-24.3-98.8-29.7-129c-1.2-8.6-2.5-16.8-3.8-22.8
			c-9.6-47.8-27.5-76.9-56.7-92.2c-29.7-15.7-79-15.7-108.7,0c-34,17.9-53,55-61.4,120.5c-5.8,31.5-16,81.3-29.2,124.8
			c-8.1,23-17.7,48.1-27.9,73.3c-3.2,7.9-6.2,15.1-9.3,21.9c9.9,11.6,21,22.2,32.9,31.7c6.1,4.9,12.6,9.5,19.2,13.8
			c1.4-7.4,2.6-14.2,3.4-18.7c5.8-36.4,12.6-97.7,18.6-167.7c3.1-35.5,8.3-89.8,8.8-90.2c-0.1,29.9-11.5,212-16.2,285.2
			c11.4,6.3,23.5,11.7,35.9,16.1h0c0.6,0.2,1.2,0.5,1.9,0.7c0,0,0.1,0,0.1,0V483c0,0,0,0,0,0c0-0.7,0-1.4,0-2.2v-0.1
			c0-0.7,0-1.4,0.1-2.1v0c0-0.4,0-0.8,0-1.2c0-0.6,0-1.2,0-1.9v0c0-0.1,0-0.2,0-0.4v0c0-0.6,0-1.2,0-1.8v0c0-0.4,0-0.9,0-1.3v0
			c0-0.5,0-1.1,0-1.6v0c0-0.2,0-0.3,0-0.5v0c0-0.5,0-1.1,0-1.6c0-0.5,0-0.9,0-1.4c0-0.7,0-1.4,0-2c0,0,0,0,0-0.1v0c0-0.7,0-1.4,0-2
			v0l0-1.5c0-0.6,0-1.2,0-1.9V459c0-0.7,0-1.4,0-2.1c0,0,0,0,0,0c0-0.3,0-0.7,0-1v0c0-0.7,0-1.3,0-2v-0.3c0-0.6,0-1.3,0-1.9
			c0-0.4,0-0.8,0-1.2v0c0-0.7,0-1.3,0-2v-0.2c0-0.6,0-1.3,0.1-1.9c0-0.4,0-0.9,0-1.3c0-0.7,0-1.4,0-2.2v0c0-0.7,0-1.4,0-2.1v0
			c0-0.5,0-0.9,0-1.4v0c0-0.7,0-1.4,0-2.1v0c0,0,0,0,0,0c0-0.7,0-1.4,0-2.1v0c0-0.5,0-1,0-1.5c0-0.7,0-1.4,0-2.1v0c0,0,0,0,0,0
			c0-0.7,0-1.5,0-2.2c0-0.5,0-0.9,0-1.4v0c0-0.7,0-1.4,0-2.1v-0.1c0-0.7,0-1.5,0-2.2v0c0-0.4,0-0.8,0-1.1v0c0-0.8,0-1.5,0-2.2v0
			c0-0.7,0-1.5,0-2.2v0c0-0.4,0-0.8,0-1.3v0c0-0.7,0-1.5,0-2.2c0,0,0,0,0-0.1c0-0.7,0-1.4,0-2.2c0-0.5,0-0.9,0-1.4c0-0.7,0-1.4,0-2
			c0,0,0-0.1,0-0.1v0c0-0.7,0-1.4,0-2v0c0-0.5,0-1,0-1.5c0-0.7,0-1.4,0-2V403c0-0.7,0-1.5,0-2.2c0-0.4,0-0.7,0-1.1v0
			c0-0.7,0-1.4,0-2v-0.2c0-0.7,0-1.3,0-2v0c0-0.4,0-0.8,0-1.2v0c0-0.7,0-1.4,0-2V392c0-0.7,0-1.5,0-2.2c0,0,0,0,0,0
			c0-0.3,0-0.6,0-0.9c0-0.7,0-1.4,0-2.1v-0.3c0-0.7,0-1.4,0-2c0-0.4,0-0.7,0-1.1v0c0-0.6,0-1.2,0-1.9c0-0.1,0-0.3,0-0.4
			c0-0.6,0-1.2,0-1.8v0c0-0.4,0-0.8,0-1.2v0c0-0.7,0-1.4,0-2.1v-0.1c0-0.7,0-1.4,0-2.1v0c0-0.5,0-0.9,0-1.4v0c0-0.6,0-1.1,0-1.7
			v-0.5c0-0.6,0-1.1,0-1.7v0c0-0.5,0-1,0-1.4c0-0.7,0-1.4,0-2V365c0-0.7,0-1.4,0-2c0-0.5,0-1,0-1.5c0-0.5,0-1.1,0-1.6v0
			c0-0.2,0-0.3,0-0.5c0-0.4,0-0.7,0-1.1v0c0-0.2,0-0.3,0-0.5c0-0.2,0-0.4,0-0.6c0-0.3,0-0.6,0-0.9v0c0-0.7,0-1.4,0-2v-0.1
			c0-0.7,0-1.4,0-2c0-0.5,0-1,0-1.5v0c0-0.7,0-1.4,0-2c0,0,0-0.1,0-0.2v0c0-0.8,0-1.4,0-2V345c0-0.5,0-1,0-1.5v-0.7
			c0-0.7,0-1.4,0-2.1v0c0-0.5,0-1,0-1.5v0c0-0.6,0-1.2-0.1-1.8v0c0-0.1,0-0.2,0-0.3c0-0.6,0-1.2-0.1-1.8v0c0-0.1,0-0.2,0-0.2
			c0-0.4,0-0.8,0-1.2v0c0-0.6,0-1.2,0-1.8c0,0,0,0,0,0c0-0.1,0-0.2,0-0.3c0-0.5,0-1.1,0-1.7v-0.2c0-0.5,0-0.9,0-1.4v0
			c0-0.4,0-0.7,0-1.1c0-0.2,0-0.5,0-0.8v-0.3c0-0.6,0-1.2,0-1.9v0c0-0.4,0-0.8,0-1.2c0-0.7,0-1.5,0-2.2v-0.1c0-0.8,0-1.6-0.1-2.4
			c0,0,0,0,0,0c0-0.2,0-0.4,0-0.6c0,0,0,0,0,0c0-0.8,0-1.6-0.1-2.4v0c0-0.7,0-1.5,0-2.2c0,0,0,0,0,0c0-0.3,0-0.7,0-1c0,0,0,0,0,0
			c0-0.7,0-1.4,0-2.1v-0.1c0-0.7,0-1.4,0-2c0,0,0,0,0,0c0-0.4,0-0.8,0-1.2v0c0-0.7,0-1.3,0-2v0c0-0.1,0-0.2,0-0.2v0
			c0-0.6,0-1.3,0-1.9v0c0-0.5,0-0.9,0-1.4c0-0.7,0-1.3,0-2v0c0,0,0-0.1,0-0.1c0-0.8,0-1.6-0.1-2.5c0,0,0,0,0,0c0-0.1,0-0.2,0-0.4
			c0,0,0,0,0,0c0-0.1,0-0.3,0-0.4c0,0,0,0,0,0c0-0.6,0-1.3-0.1-2v-0.2c0-0.7,0-1.3,0-2v0c0-0.3,0-0.7,0-1c0-0.1,0-0.2,0-0.3
			c0-0.6,0-1.2,0-1.9V288c0-0.6,0-1.2,0-1.8v0c0-0.5,0-0.9,0-1.4v0c0-0.2,0-0.4,0-0.6c0-0.5,0-0.9,0-1.4v-0.1c0-0.7,0-1.3-0.1-2
			c0-0.3,0-0.6,0-1c0-0.1,0-0.2,0-0.4c0-0.7,0-1.4,0-2.2V277c0-1.8-0.1-3.6-0.1-5.4v0c0-1.8-0.1-3.6-0.1-5.5V266
			c0-1.7-0.1-3.4-0.1-5v-0.2c0-0.1,0-0.2,0-0.3v0c0-1.3-0.1-2.6-0.1-3.9c0-0.4,0-0.8,0-1.2V255l0-1.5c0-0.9,0-1.7-0.1-2.5
			c0-0.3,0-0.6,0-0.9v-0.3c0-0.8-0.1-1.6-0.1-2.4c0-0.1,0-0.1,0-0.2l0-1.5v0c0-0.3,0-0.6,0-0.8v-0.3c0-0.7,0-1.4,0-2.1c0,0,0,0,0,0
			c0-0.3,0-0.5,0-0.8c0-0.7,0-1.5,0-2.2v0c0,0,0-0.1,0-0.2v0c0-0.7,0-1.4,0-2.1v-0.1c0-0.3,0-0.7,0-1c0-0.7,0-1.4,0-2.1v-0.2
			c0-0.7,0-1.4-0.1-2c0-0.3,0-0.5,0-0.8c0,0,0,0,0-0.1c0-0.1,0-0.2,0-0.4v0c0-0.4,0-0.7,0-1.1c0-0.4,0-0.8,0-1.1c0-0.4,0-0.7,0-1.1
			v-0.2c0-0.2,0-0.4,0-0.6c0,0,0,0,0,0c0-0.7,0-1.3,0-1.9v-0.2c0-0.1,0-0.2,0-0.3c0-0.8,0-1.5,0-2.3c0-0.9-0.1-1.8-0.1-2.7v0
			c0,0,0-0.1,0-0.1v0c0-0.8,0-1.6-0.1-2.3c0,0,0,0,0,0v0c0-0.2,0-0.3,0-0.5v0c0,0,0,0,0,0c0-0.7,0-1.4,0-2.1v0c0-0.1,0-0.2,0-0.3
			c0-0.7,0-1.4-0.1-2c0-0.3,0-0.6,0-0.9c0,0,0,0,0,0c0-0.2,0-0.3,0-0.5v-0.1c0-0.5,0-0.9,0-1.4c0-0.1,0-0.2,0-0.3v0c0-0.7,0-1.3,0-2
			v0c0-0.4,0-0.7,0-1.1c0-0.7,0-1.3-0.1-1.9v0c0-0.1,0-0.2,0-0.4v0c0-0.1,0-0.1,0-0.1l0-0.2l0-1.5v0l0-1.3l0-0.8l0-0.6
			c0.1-0.2,0.2-0.5,0.2-0.8c0-0.3,0-0.6,0-0.9v0c-0.1-0.2-0.1-0.5-0.2-0.7l0-0.6l0-1.6v0l0-0.5v-0.1l0-1.5l0-1.1l0-0.2v0l0-1.6
			l0-0.5l0-2v0c0,0,0,0,0,0l0-0.5l0-1.5l0-0.8v-0.1l-0.1-2.2v0l0-1l0-1.1v0l0-1.1v0l-0.1-2.1v0l0-1.3v0l0-2l0-0.2l0-1.9v0l0-1.4
			v-0.1c0-0.5,0-1.1,0-1.7v-0.4c0-0.6,0-1.2,0.1-1.7v0c0-0.5,0-0.9,0.1-1.4v0c0-0.7,0.1-1.3,0.1-2c0-0.1,0-0.1,0-0.2v0
			c0-0.2,0-0.3,0-0.4c0,0,0,0,0,0c0-0.5,0.1-1,0.2-1.5c0-0.4,0.1-0.9,0.2-1.3c0-0.4,0.1-0.7,0.2-1.1c0-0.4,0.1-0.7,0.2-1.1
			c0,0,0,0,0,0c0,0,0-0.1,0-0.1c0.2-0.3,0.3-0.7,0.3-1.1c0-0.2,0-0.5,0-0.7c0-0.2,0.1-0.3,0.1-0.5c0.1-0.5,0.2-1,0.3-1.6v0
			c0-0.2,0.1-0.4,0.1-0.6v0c0-0.2,0.1-0.5,0.2-0.7c0.2-0.3,0.3-0.6,0.4-1v0c0.1-0.3,0.1-0.6,0.1-0.9c0-0.1,0-0.2,0.1-0.3
			c0.1-0.4,0.2-0.8,0.4-1.3c0.1-0.3,0.2-0.6,0.3-0.9c0.1-0.4,0.2-0.8,0.4-1.2c0-0.1,0-0.1,0.1-0.2c0.2-0.3,0.3-0.7,0.4-1.1
			c0,0,0-0.1,0-0.1c0,0,0,0,0,0c0.2-0.5,0.3-1,0.5-1.5v0c0.1-0.2,0.2-0.4,0.2-0.6c0.2-0.5,0.4-1.1,0.7-1.7c0.1-0.3,0.2-0.5,0.4-0.8
			v0c0.2-0.4,0.4-0.9,0.6-1.3v0c0.1-0.3,0.3-0.6,0.4-0.9v0c0.6-1.2,1.2-2.4,1.9-3.7c0.1-0.1,0.2-0.3,0.2-0.4c0.3-0.6,0.7-1.2,1-1.8
			c0.1-0.2,0.2-0.4,0.4-0.6c0,0,0,0,0,0c0,0,0.1-0.1,0.1-0.2c0.3-0.1,0.7-0.7,0.9-1.5c0-0.1,0.1-0.1,0.1-0.2
			c0.1-0.1,0.1-0.2,0.2-0.3c0.3-0.5,0.7-1.1,1.1-1.6c0.1-0.1,0.2-0.3,0.3-0.4l0.6-0.8c0.3-0.4,0.6-0.7,0.8-1.1l0,0
			c0.2-0.2,0.4-0.5,0.5-0.7c0.3-0.3,0.5-0.7,0.8-1v0c0,0,0,0,0,0v0c0.4-0.4,0.7-0.8,1-1.2c0.3-0.4,0.7-0.7,1-1.1
			c0.2-0.2,0.3-0.4,0.5-0.5l0,0c0-0.1,0.1-0.1,0.1-0.1c0.2-0.2,0.5-0.5,0.8-0.8c0.1-0.1,0.2-0.2,0.3-0.3c0.2-0.3,0.5-0.5,0.8-0.8
			l0,0c0.4-0.4,0.9-0.8,1.3-1.2l0,0c0.1-0.1,0.2-0.2,0.3-0.3c0,0,0.1-0.1,0.1-0.1c0.4-0.3,0.8-0.7,1.2-1c0.8-0.7,1.6-1.3,2.5-2l0,0
			c0.1-0.1,0.2-0.2,0.4-0.3c1.1-0.9,2.3-1.7,3.6-2.5c0.2-0.1,0.4-0.3,0.6-0.4h0c1.2-0.8,2.5-1.6,3.9-2.3c0.1-0.1,0.2-0.2,0.4-0.2
			c0,0,0,0,0,0c1.4-0.8,2.8-1.5,4.3-2.2c0.2-0.1,0.3-0.1,0.4-0.2l0,0c0.5-0.2,1.1-0.5,1.7-0.7h0l0,0c0.3-0.2,0.7-0.3,1-0.4
			c0.5-0.2,1-0.4,1.5-0.6c0.2-0.1,0.5-0.2,0.7-0.3h0c0.5-0.2,0.9-0.3,1.4-0.5c0.4-0.2,0.8-0.3,1.2-0.4h0c0.5-0.2,1-0.4,1.5-0.5
			c0.2-0.1,0.4-0.2,0.6-0.2h0c0.4-0.1,0.8-0.3,1.2-0.4c0.1,0,0.1,0,0.2,0c0,0,0,0,0,0h0c0.1,0,0.2-0.1,0.4-0.1
			c0.3-0.1,0.7-0.1,1.1-0.2c0.5-0.1,1.1-0.3,1.8-0.4c0.1,0,0.2,0,0.3-0.1c0.1,0,0.2,0,0.3-0.1c0.5-0.1,0.9-0.2,1.5-0.3h0
			c0.5-0.1,0.9-0.2,1.5-0.3c0.3-0.1,0.7-0.1,1-0.2c0.3-0.1,0.7-0.1,1.1-0.2c0.1,0,0.2,0,0.3-0.1c0.2,0,0.4-0.1,0.7-0.1
			c0.5-0.1,1-0.2,1.5-0.3c0.2,0,0.4-0.1,0.6-0.1h0c0.1,0,0.3-0.1,0.4-0.1c0.3,0,0.7,0,1,0c0.2,0,0.4,0,0.7,0c0.5,0,1-0.1,1.4-0.1
			c0.4,0,0.7-0.1,1-0.1c0.4,0,0.7-0.1,1.1-0.2h0c0.4-0.1,0.7-0.1,1-0.2h0c0.1,0,0.3-0.1,0.4-0.1c0.3,0,0.7-0.1,1.1-0.1
			c0.3,0,0.7-0.1,1-0.1h0c0.1,0,0.2,0,0.3,0c0.3,0,0.5,0,0.8-0.1c0.4,0,0.7-0.1,1.1-0.1h0c0.4,0,0.8,0,1.2,0h0c0.2,0,0.5,0,0.7,0h0
			c0.2,0,0.4,0,0.6,0c0,0,0,0,0,0c0.3,0,0.5,0,0.8,0c0.2,0,0.5,0,0.8,0c0.4,0,0.7,0,1.1,0h1.1c0.4,0,0.7,0,1.1,0c0.2,0,0.5,0,0.7,0
			h0c0.4,0,0.8,0,1.2,0h0c0.4,0,0.8,0,1.1,0c0.2,0,0.5,0,0.7,0c0.1,0,0.2,0,0.3,0h0c0.4,0,0.7,0,1,0.1c0.4,0,0.9,0.1,1.3,0.1
			c0,0,0,0,0.1,0h0c0.3,0.1,0.7,0.2,1,0.2h0c0.3,0.1,0.7,0.2,1.1,0.2h0c0.3,0.1,0.7,0.1,1,0.2c0.5,0.1,1,0.1,1.4,0.2
			c0.2,0,0.5,0,0.7,0.1c0.5,0,0.9,0.1,1.4,0.1h0c0.1,0,0.2,0,0.3,0c0.1,0,0.3,0,0.4,0.1c0.5,0.1,1,0.2,1.5,0.3
			c0.3,0.1,0.6,0.1,0.9,0.2c0,0,0.1,0,0.1,0c0.4,0.1,0.7,0.2,1.1,0.2c0.3,0.1,0.7,0.2,1,0.2c0.5,0.1,1,0.2,1.5,0.3h0
			c0.1,0,0.2,0.1,0.3,0.1c0,0,0.1,0,0.1,0c0.1,0,0.1,0,0.2,0.1c0.4,0.1,0.8,0.2,1.2,0.3c0.1,0,0.2,0,0.3,0.1h0
			c0.6,0.2,1.2,0.3,1.8,0.5h0c0.1,0,0.3,0.1,0.4,0.1c0.4,0.1,0.7,0.2,1,0.3c0.5,0.1,0.9,0.3,1.4,0.5c0.1,0,0.1,0,0.2,0
			c0.2,0.1,0.3,0.1,0.5,0.2h0c0.4,0.2,0.9,0.3,1.4,0.5c0.2,0,0.3,0.1,0.5,0.2c0.3,0.1,0.6,0.2,1,0.3c0.4,0.2,0.8,0.3,1.2,0.5
			c0.1,0,0.3,0.1,0.4,0.2c0.1,0,0.2,0.1,0.4,0.2h0c0.4,0.2,0.8,0.3,1.2,0.5l0,0c0.4,0.2,0.7,0.3,1.1,0.5c0.1,0.1,0.2,0.1,0.3,0.1
			c0.5,0.2,0.9,0.4,1.4,0.7c0.2,0.1,0.4,0.2,0.6,0.3c0,0,0,0,0,0c0.5,0.2,0.9,0.5,1.4,0.7c0.1,0,0.2,0.1,0.2,0.1
			c0.4,0.2,0.8,0.4,1.1,0.6c0.5,0.2,0.9,0.5,1.3,0.7l0,0c0.2,0.1,0.3,0.2,0.5,0.3c0,0,0.1,0.1,0.1,0.1h0c0.3,0.3,0.8,0.5,1.2,0.6
			c0.1,0,0.1,0.1,0.2,0.1c0.4,0.3,0.9,0.5,1.3,0.8c0.3,0.2,0.6,0.4,0.9,0.6h0c0.3,0.2,0.6,0.4,0.9,0.6c0.4,0.2,0.7,0.4,1,0.7
			c0.4,0.2,0.7,0.5,1.1,0.7c0.4,0.3,0.8,0.6,1.2,0.9c0,0,0,0,0,0c0.2,0.1,0.4,0.3,0.6,0.5c0,0,0,0,0,0c0.2,0.2,0.5,0.3,0.7,0.5
			c0.1,0.1,0.3,0.3,0.5,0.4c0.1,0.1,0.1,0.1,0.2,0.1c0,0,0,0,0,0c0.3,0.2,0.6,0.5,0.9,0.7h0c0.4,0.3,0.8,0.6,1.2,0.9
			c0.2,0.2,0.4,0.3,0.6,0.5l0,0v0c0.2,0.2,0.5,0.4,0.7,0.6c0.1,0.2,0.3,0.3,0.4,0.4c0.1,0.1,0.3,0.2,0.4,0.3
			c0.2,0.2,0.5,0.4,0.8,0.7c0.4,0.3,0.8,0.6,1.1,1l0,0c0.2,0.1,0.4,0.3,0.6,0.5c0,0,0.1,0.1,0.1,0.1c0.3,0.3,0.7,0.6,1,0.9
			c0.4,0.3,0.7,0.7,1.1,1c0.1,0,0.1,0.1,0.2,0.2c0.3,0.3,0.6,0.5,0.8,0.8c0.1,0.1,0.3,0.3,0.4,0.4c0,0,0,0,0,0
			c0,0.1,0.1,0.1,0.2,0.2c0.3,0.3,0.6,0.7,1,1.1c0.3,0.3,0.6,0.7,0.9,1.1c0.1,0.1,0.1,0.2,0.2,0.2c0.2,0.3,0.4,0.5,0.7,0.8
			c0.1,0.1,0.2,0.3,0.3,0.4l0,0c0.1,0.1,0.2,0.2,0.2,0.3c0.4,0.5,0.8,1,1.1,1.6c0.2,0.4,0.5,0.8,0.8,1.2c0.3,0.4,0.6,0.9,0.8,1.4
			c0.1,0.2,0.2,0.4,0.3,0.6c0.3,0.4,0.5,0.9,0.8,1.4v0c0.2,0.4,0.5,0.9,0.7,1.3v0c0.1,0.3,0.3,0.6,0.5,0.9c0.2,0.3,0.3,0.7,0.5,1.1
			c0.2,0.4,0.3,0.7,0.5,1.1c0.2,0.4,0.3,0.8,0.5,1.2c0.2,0.4,0.3,0.8,0.5,1.2c0.1,0.2,0.1,0.3,0.2,0.4v0c0,0.2,0.1,0.3,0.2,0.5
			c0,0.2,0.1,0.3,0.2,0.5c0.2,0.5,0.3,1,0.5,1.5c0,0,0,0,0,0c0,0.1,0.1,0.2,0.1,0.4c0,0,0,0,0,0s0,0,0,0c0.1,0.5,0.3,1,0.4,1.4
			c0,0.1,0.1,0.2,0.1,0.3c0.1,0.3,0.1,0.5,0.2,0.8c0.1,0.3,0.1,0.5,0.2,0.8c0,0.2,0.1,0.4,0.1,0.6v0c0.1,0.4,0.2,0.9,0.3,1.3
			c0.1,0.4,0.2,0.8,0.3,1.2c0,0.1,0,0.3,0.1,0.4h0c0,0.2,0.1,0.4,0.1,0.6v0c0.1,0.5,0.2,1,0.3,1.5c0,0,0,0.1,0,0.1
			c0.1,0.4,0.1,0.9,0.2,1.3v0c0.1,0.3,0.1,0.7,0.2,1v0c0.1,0.4,0.1,0.7,0.2,1.1v0c0,0,0,0.1,0,0.2c0,0.3,0.1,0.6,0.1,0.8
			c0.1,0.5,0.1,1,0.2,1.5c0.1,0.6,0.1,1.3,0.2,1.9v0c0,0.1,0,0.1,0,0.2c0,0.1,0,0.2,0,0.3v0.2c0,0.5,0.1,1,0.1,1.5
			c0,0.5,0,1,0.1,1.5v0c0,0.6,0,1.2,0.1,1.7c0,0.1,0,0.3,0,0.4c0,0.6,0,1.1,0,1.7v1.5c0,0.6,0,1.2,0,1.9v0.2c0,0.4,0,0.8,0,1.3
			c0,0.2,0,0.3,0,0.6v0c0,0.4,0,0.9,0,1.5v0c0,0.4,0,0.8,0,1.2c0,0.3,0,0.5,0,0.8v0c0,0,0,0,0,0.1v0c0,0.5,0,0.9-0.1,1.4v0
			c0,0.2,0,0.4,0,0.6c0,0.4,0,0.9-0.1,1.5v0c0,0.5,0,1.2,0,1.9c0,0.1,0,0.1,0,0.2c0,0.5,0,1-0.1,1.5v0c0,0.1,0,0.3,0,0.4
			c0,0.4,0,0.9,0,1.4v0c0,0.5,0,1,0,1.5v0c0,0.2,0,0.4,0,0.6c0,0.2,0,0.4,0,0.7c0,0,0,0,0,0c0,0.3,0,0.6,0,0.9v0c0,0.5,0,0.9,0,1.4
			c0,0.5,0,1,0,1.5v0.1c0,0.2,0,0.3,0,0.5v0c0,0.5,0,1.1,0,1.6v0c0,0.1,0,0.2,0,0.2c0,0.4,0,0.7,0,1.1c0,0.2,0,0.5,0,0.8
			c0,0.3,0,0.6,0,0.9c0,0.2,0,0.3,0,0.5c0,0.2,0,0.5,0,0.7v0c0,0.4,0,0.8,0,1.2v0.2c0,0.6,0,1.1,0,1.7v0c0,0.1,0,0.3,0,0.4v0
			c0,0.3,0,0.5,0,0.8l0,0.9l0,1.3v0.2l0,1.7l0,0.3v0.1c0,0.6,0,1.1-0.1,1.7c0,0.5,0,1,0,1.5c0,0.5,0,1.1,0,1.6v0c0,0.2,0,0.3,0,0.5
			v0c0,0.6,0,1.1,0,1.7v0c0,0.5,0,0.9,0,1.4c0,0.6,0,1.2,0,1.8c0,0.1,0,0.2,0,0.3v0.2c0,0.5,0,1.1,0,1.6v0c0,0.4,0,0.8,0,1.2v0
			c0,0.6,0,1.1,0,1.7c0,0.2,0,0.3,0,0.5v0.2c0,0.5,0,1,0,1.5l0,1.4c0,0.3,0,0.6,0,0.9v0c0,0.2,0,0.3,0,0.5c0,0.2,0,0.5-0.1,0.7
			c0,0.3,0,0.6,0,0.9c0,0.5,0,1-0.1,1.5c0,0.6,0,1.2-0.1,1.9c0,0,0,0,0,0c0,0.1,0,0.2,0,0.2c0,0.6,0,1.2,0,1.9v1.5
			c0,0.4,0,0.7,0,1.1v0.8c0,0.1,0,0.2,0,0.3v0c0,0.2,0,0.4,0,0.7c0,0.4,0,0.8,0,1.2v0c0,0.5,0,0.9,0,1.4v0c0,0.3,0,0.6,0,0.9
			s0,0.6,0,0.9v0.4c0,0.6,0,1.2,0,1.8c0,0.4,0,0.9,0,1.3v0c0,0.6,0,1.1,0,1.7c0,0.1,0,0.3,0,0.5c0,0.3,0,0.6,0,0.9
			c0,0.3,0,0.6,0,0.9v0c0,0.4,0,0.8,0,1.2c0,0.1,0,0.2,0,0.3c0,0.5,0,1,0,1.5v0c0,0.1,0,0.3,0,0.4c0,0.3,0,0.7,0,1
			c0,0.3,0,0.6,0,0.9c0,0,0,0,0,0c0,0.3,0,0.6,0,0.9v0l0,1.2c0,0.4,0,0.7,0,1.1v0.1c0,0.8,0,1.7,0,2.5c0,0,0,0,0,0
			c0,0.1,0,0.3,0,0.4c0,0.8,0,1.7-0.1,2.5v0c0,0.8,0,1.5,0,2.2v0c0,0.4,0,0.8,0,1.2c0,0.7,0,1.4,0,2v0.2c0,0.7,0,1.4,0,2.1
			c0,0.3,0,0.6,0,1c0,0.7,0,1.5-0.1,2.2v0.1c0,0.7,0,1.3,0,2v0c0,0.2,0,0.5,0,0.7c0,0.3,0,0.5,0,0.7c0,0.7,0,1.3,0,2v0.1
			c0,0.4,0,0.7,0,1.1v0c0,0.3,0,0.6,0,0.9v0c0,0.5,0,1,0,1.4c0,0.6,0,1.2,0,1.8v0.3c0,0.6,0,1.2,0,1.8c0,0.1,0,0.2,0,0.3
			c0,0.4,0,0.8,0,1.2c0,0.6,0,1.2,0,1.9v0.2c0,0.6,0,1.2,0,1.8v0.1c0,0.4,0,0.9,0,1.3v0c0,0.7,0,1.3,0,2c0,0.1,0,0.1,0,0.2
			c0,0.7,0,1.3,0,1.9c0,0.5,0,1,0,1.5v0c0,0.6,0,1.2-0.1,1.8c0,0.1,0,0.2,0,0.3c0,0.6,0,1.2,0,1.8v0l0,1.5c0,0.6,0,1.3-0.1,1.9v0.2
			l0,1.9l0,1.4v0l0,1c0,0.3,0,0.7,0,1c0,0,0,0.1,0,0.1v0c0,0.5,0,0.9,0,1.3c0,0.2,0,0.5,0,0.7c0,0.5,0,0.9,0,1.3v0
			c0,0.6,0,1.3,0,1.9v0.3c0,0,0,0,0,0v0c0,0.7,0,1.4,0,2.1v0c0,0.5,0,1,0,1.5c0,0.6,0,1.2-0.1,1.8c0,0.1,0,0.2,0,0.3v0
			c0,0.2,0,0.4,0,0.7c0,0.4,0,0.8,0,1.1v0c0,0.5,0,1,0,1.5v0c0,0.6,0,1.2,0,1.8v0.3c0,0.7,0,1.3,0,2v0c0,0.4,0,0.8,0,1.2
			c0,0.2,0,0.5,0,0.7v0c0,0.4,0,0.8,0,1.2c0,0.1,0,0.2,0,0.3c0,0.6,0,1.2,0,1.9v0c0,0.5,0,0.9,0,1.4c0,0.6,0,1.3,0,1.9v0.3
			c0,0.8,0,1.5-0.1,2.1v0c0,0.5,0,1,0,1.4c0,0.7,0,1.4-0.1,2v0.2c0,0.9,0,1.5,0,2c0,0.5,0,0.7,0,0.7l0,0.7l0,2v0.1l0,2v0.2l0,1.2v0
			l0,1.1v0l0,0.5v0.5l0,1.7v0l0,0.4l0,1v0l0,0.5l0,1.5v0.1l0,2.1v0l0,0.9c0,0.1,0,0.2,0,0.3v0.1l0,1.7v0.5l0,1.7v0.2l0,0.7l0,0.4
			l0,2.2l0,0v0l0,2.2v0l0,1.1v0l0,1.9v0.4l0,1.9v0l0,1v0l0,2.1v0.2l0,2.1c0,0,0,0,0,0l0,0.8c0,0,0,0,0,0l0,2.2v0.2l0,2.1l0,1.2v0
			l0,2v0l0,0.2l0,2.1v0l0,1c0,0,0,0,0,0l0,2.2v0.1l0,2l0,1.5v0l0,2v0l0,0.1l0,2l0,1.4l0,2.1v0.1l0,2.2v0l0,1.3v0l0,2.2l0,2.2v0
			l0,1.2v0l0,2.1v0.1l0,2.1l0,1.4v0l0,2.1v0l0,2.1l0,1.5l0,2.1v0l0,2.1l0,1.5l0,2.1v0l0,0.1l0,2.1v0l0,1.5l0,1.8v0.3l0,1.9v0l0,1.4
			v0l0,1.8v0.4l0,1.8v0l0,1.3v0l0,1.9v0l0,0.3l0,1.9l0,1.4v0l0,2v0.1l0,2l0,1.5v0l0,1.6v0.6l0,1.6v0l0,1.5l0,1.7v0.4l0,1.7l0,1
			l0,0.5v0l0,1.9v0.2l0,1.9l0,0.7c0.2,0,0.3-0.1,0.5-0.2c0.6-0.2,1.3-0.4,1.9-0.7c2.6-0.9,5.2-1.9,7.8-2.9c0.5-0.2,1.1-0.4,1.6-0.6
			c4.5-1.8,8.9-3.7,13.3-5.8c0.5-0.2,1.1-0.5,1.6-0.8c4.3-2.1,8.6-4.3,12.7-6.6c-4.7-67.6-15.6-230.2-16.3-279.6c0,0,0-0.1,0-0.2
			c1.6,14.5,5.7,56.8,8.1,85.1c6,69.9,12.8,131.3,18.6,167.7c0.7,4.5,2,11.3,3.4,18.7c10.6-6.8,20.6-14.5,29.9-22.8
			c7.9-7,15.3-14.6,22.2-22.6C435.1,405.4,432.1,398.2,428.9,390.3z"/>
	</g>
	<g>
		<path class="st3" d="M352.9,275.5c-0.8,63.8,1.2,147.4,5.1,197.8c0.5-0.2,1.1-0.5,1.6-0.8L352.9,275.5z"/>
	</g>
	<g>
		<g>
			<g>
				
					<ellipse transform="matrix(0.7635 -0.6459 0.6459 0.7635 -1.4285 190.9239)" class="st0" cx="259.9" cy="97.4" rx="2.7" ry="3"/>
			</g>
		</g>
		<g class="st1">
			<g>
				
					<ellipse transform="matrix(0.7635 -0.6459 0.6459 0.7635 -1.4285 190.9239)" class="st2" cx="259.9" cy="97.4" rx="0.7" ry="0.8"/>
			</g>
		</g>
	</g>
	<g>
		<g>
			<g>
				
					<ellipse transform="matrix(0.7635 -0.6459 0.6459 0.7635 -0.3627 193.8339)" class="st0" cx="264.4" cy="97.4" rx="2.7" ry="3"/>
			</g>
		</g>
		<g class="st1">
			<g>
				
					<ellipse transform="matrix(0.7635 -0.6459 0.6459 0.7635 -0.3627 193.8339)" class="st2" cx="264.4" cy="97.4" rx="0.7" ry="0.8"/>
			</g>
		</g>
	</g>
	<g>
		<g>
			<g>
				<ellipse transform="matrix(0.7635 -0.6459 0.6459 0.7635 0.4233 196.8942)" class="st0" cx="269" cy="97.9" rx="2.7" ry="3"/>
			</g>
		</g>
		<g class="st1">
			<g>
				<ellipse transform="matrix(0.7635 -0.6459 0.6459 0.7635 0.4233 196.8942)" class="st2" cx="269" cy="97.9" rx="0.7" ry="0.8"/>
			</g>
		</g>
	</g>
	<g>
		<g>
			<g>
				<ellipse transform="matrix(0.7635 -0.6459 0.6459 0.7635 1.04 199.7534)" class="st0" cx="273.2" cy="98.5" rx="2.7" ry="3"/>
			</g>
		</g>
		<g class="st1">
			<g>
				<ellipse transform="matrix(0.7635 -0.6459 0.6459 0.7635 1.04 199.7534)" class="st2" cx="273.2" cy="98.5" rx="0.7" ry="0.8"/>
			</g>
		</g>
	</g>
	<g>
		<g>
			<g>
				<ellipse transform="matrix(0.7635 -0.6459 0.6459 0.7635 1.4809 202.9162)" class="st0" cx="277.8" cy="99.4" rx="2.7" ry="3"/>
			</g>
		</g>
		<g class="st1">
			<g>
				
					<ellipse transform="matrix(0.7635 -0.6459 0.6459 0.7635 1.4809 202.9162)" class="st2" cx="277.8" cy="99.4" rx="0.7" ry="0.8"/>
			</g>
		</g>
	</g>
	<g>
		<g>
			<g>
				<ellipse transform="matrix(0.7635 -0.6459 0.6459 0.7635 1.888 206.6654)" class="st0" cx="283.1" cy="100.8" rx="2.7" ry="3"/>
			</g>
		</g>
		<g class="st1">
			<g>
				
					<ellipse transform="matrix(0.7635 -0.6459 0.6459 0.7635 1.888 206.6654)" class="st2" cx="283.1" cy="100.8" rx="0.7" ry="0.8"/>
			</g>
		</g>
	</g>
	<g>
		<g>
			<g>
				
					<ellipse transform="matrix(0.7635 -0.6459 0.6459 0.7635 1.8923 210.2033)" class="st0" cx="287.9" cy="102.5" rx="2.7" ry="3"/>
			</g>
		</g>
		<g class="st1">
			<g>
				
					<ellipse transform="matrix(0.7635 -0.6459 0.6459 0.7635 1.8923 210.2033)" class="st2" cx="287.9" cy="102.5" rx="0.7" ry="0.8"/>
			</g>
		</g>
	</g>
	<g>
		<g>
			<g>
				<ellipse transform="matrix(0.7635 -0.6459 0.6459 0.7635 1.766 213.6456)" class="st0" cx="292.6" cy="104.4" rx="2.7" ry="3"/>
			</g>
		</g>
		<g class="st1">
			<g>
				
					<ellipse transform="matrix(0.7635 -0.6459 0.6459 0.7635 1.766 213.6456)" class="st2" cx="292.6" cy="104.4" rx="0.7" ry="0.8"/>
			</g>
		</g>
	</g>
	<g>
		<g>
			<g>
				
					<ellipse transform="matrix(0.7635 -0.6459 0.6459 0.7635 1.3176 217.2536)" class="st0" cx="297.3" cy="106.8" rx="2.7" ry="3"/>
			</g>
		</g>
		<g class="st1">
			<g>
				
					<ellipse transform="matrix(0.7635 -0.6459 0.6459 0.7635 1.3176 217.2536)" class="st2" cx="297.3" cy="106.8" rx="0.7" ry="0.8"/>
			</g>
		</g>
	</g>
	<g>
		<g>
			<g>
				
					<ellipse transform="matrix(0.7635 -0.6459 0.6459 0.7635 0.7618 220.8293)" class="st0" cx="301.9" cy="109.4" rx="2.7" ry="3"/>
			</g>
		</g>
		<g class="st1">
			<g>
				
					<ellipse transform="matrix(0.7635 -0.6459 0.6459 0.7635 0.7618 220.8293)" class="st2" cx="301.9" cy="109.4" rx="0.7" ry="0.8"/>
			</g>
		</g>
	</g>
	<g>
		<g>
			<g>
				
					<ellipse transform="matrix(0.7635 -0.6459 0.6459 0.7635 -0.1725 224.044)" class="st0" cx="305.8" cy="112.3" rx="2.7" ry="3"/>
			</g>
		</g>
		<g class="st1">
			<g>
				
					<ellipse transform="matrix(0.7635 -0.6459 0.6459 0.7635 -0.1725 224.044)" class="st2" cx="305.8" cy="112.3" rx="0.7" ry="0.8"/>
			</g>
		</g>
	</g>
	<g>
		<g>
			<g>
				
					<ellipse transform="matrix(0.7635 -0.6459 0.6459 0.7635 -1.0275 227.4874)" class="st0" cx="310.1" cy="115.1" rx="2.7" ry="3"/>
			</g>
		</g>
		<g class="st1">
			<g>
				
					<ellipse transform="matrix(0.7635 -0.6459 0.6459 0.7635 -1.0275 227.4874)" class="st2" cx="310.1" cy="115.1" rx="0.7" ry="0.8"/>
			</g>
		</g>
	</g>
	<g>
		<g>
			<g>
				
					<ellipse transform="matrix(0.7635 -0.6459 0.6459 0.7635 -2.1919 230.9034)" class="st0" cx="314.1" cy="118.4" rx="2.7" ry="3"/>
			</g>
		</g>
		<g class="st1">
			<g>
				
					<ellipse transform="matrix(0.7635 -0.6459 0.6459 0.7635 -2.1919 230.9034)" class="st2" cx="314.1" cy="118.4" rx="0.7" ry="0.8"/>
			</g>
		</g>
	</g>
	<g>
		<g>
			<g>
				<ellipse transform="matrix(0.7635 -0.6459 0.6459 0.7635 -3.5502 234.2468)" class="st0" cx="318" cy="122" rx="2.7" ry="3"/>
			</g>
		</g>
		<g class="st1">
			<g>
				<ellipse transform="matrix(0.7635 -0.6459 0.6459 0.7635 -3.5502 234.2468)" class="st2" cx="318" cy="122" rx="0.7" ry="0.8"/>
			</g>
		</g>
	</g>
	<g>
		<g>
			<g>
				
					<ellipse transform="matrix(0.7635 -0.6459 0.6459 0.7635 -5.1489 237.4292)" class="st0" cx="321.6" cy="125.7" rx="2.7" ry="3"/>
			</g>
		</g>
		<g class="st1">
			<g>
				
					<ellipse transform="matrix(0.7635 -0.6459 0.6459 0.7635 -5.1489 237.4292)" class="st2" cx="321.6" cy="125.7" rx="0.7" ry="0.8"/>
			</g>
		</g>
	</g>
	<g>
		<g>
			<g>
				<ellipse transform="matrix(0.7635 -0.6459 0.6459 0.7635 -7.2229 240.6976)" class="st0" cx="325" cy="130.2" rx="2.7" ry="3"/>
			</g>
		</g>
		<g class="st1">
			<g>
				
					<ellipse transform="matrix(0.7635 -0.6459 0.6459 0.7635 -7.2229 240.6976)" class="st2" cx="325" cy="130.2" rx="0.7" ry="0.8"/>
			</g>
		</g>
	</g>
	<g>
		<g>
			<g>
				
					<ellipse transform="matrix(0.7635 -0.6459 0.6459 0.7635 -9.4875 243.5953)" class="st0" cx="327.8" cy="134.7" rx="2.7" ry="3"/>
			</g>
		</g>
		<g class="st1">
			<g>
				
					<ellipse transform="matrix(0.7635 -0.6459 0.6459 0.7635 -9.4875 243.5953)" class="st2" cx="327.8" cy="134.7" rx="0.7" ry="0.8"/>
			</g>
		</g>
	</g>
	<g>
		<g>
			<g>
				
					<ellipse transform="matrix(0.7635 -0.6459 0.6459 0.7635 -11.942 245.7744)" class="st0" cx="329.6" cy="139.2" rx="2.7" ry="3"/>
			</g>
		</g>
		<g class="st1">
			<g>
				
					<ellipse transform="matrix(0.7635 -0.6459 0.6459 0.7635 -11.942 245.7744)" class="st2" cx="329.6" cy="139.2" rx="0.7" ry="0.8"/>
			</g>
		</g>
	</g>
	<g>
		<g>
			<g>
				
					<ellipse transform="matrix(0.7635 -0.6459 0.6459 0.7635 -14.8341 247.9337)" class="st0" cx="331.1" cy="144.2" rx="2.7" ry="3"/>
			</g>
		</g>
		<g class="st1">
			<g>
				
					<ellipse transform="matrix(0.7635 -0.6459 0.6459 0.7635 -14.8341 247.9337)" class="st2" cx="331.1" cy="144.2" rx="0.7" ry="0.8"/>
			</g>
		</g>
	</g>
	<g>
		<g>
			<g>
				
					<ellipse transform="matrix(0.7635 -0.6459 0.6459 0.7635 -17.4845 250.1002)" class="st0" cx="332.7" cy="148.9" rx="2.7" ry="3"/>
			</g>
		</g>
		<g class="st1">
			<g>
				
					<ellipse transform="matrix(0.7635 -0.6459 0.6459 0.7635 -17.4845 250.1002)" class="st2" cx="332.7" cy="148.9" rx="0.7" ry="0.8"/>
			</g>
		</g>
	</g>
	<g>
		<g>
			<g>
				
					<ellipse transform="matrix(0.7635 -0.6459 0.6459 0.7635 -20.4923 252.0743)" class="st0" cx="333.9" cy="154" rx="2.7" ry="3"/>
			</g>
		</g>
		<g class="st1">
			<g>
				
					<ellipse transform="matrix(0.7635 -0.6459 0.6459 0.7635 -20.4923 252.0743)" class="st2" cx="333.9" cy="154" rx="0.7" ry="0.8"/>
			</g>
		</g>
	</g>
	<g>
		<g>
			<g>
				
					<ellipse transform="matrix(0.7635 -0.6459 0.6459 0.7635 -23.3167 253.6349)" class="st0" cx="334.6" cy="158.6" rx="2.7" ry="3"/>
			</g>
		</g>
		<g class="st1">
			<g>
				
					<ellipse transform="matrix(0.7635 -0.6459 0.6459 0.7635 -23.3167 253.6349)" class="st2" cx="334.6" cy="158.6" rx="0.7" ry="0.8"/>
			</g>
		</g>
	</g>
	<g>
		<g>
			<g>
				
					<ellipse transform="matrix(0.7635 -0.6459 0.6459 0.7635 -26.7968 255.2338)" class="st0" cx="335" cy="164.2" rx="2.7" ry="3"/>
			</g>
		</g>
		<g class="st1">
			<g>
				
					<ellipse transform="matrix(0.7635 -0.6459 0.6459 0.7635 -26.7968 255.2338)" class="st2" cx="335" cy="164.2" rx="0.7" ry="0.8"/>
			</g>
		</g>
	</g>
	<g>
		<g>
			<g>
				<ellipse transform="matrix(0.7635 -0.6459 0.6459 0.7635 -30.2129 256.485)" class="st0" cx="335" cy="169.5" rx="2.7" ry="3"/>
			</g>
		</g>
		<g class="st1">
			<g>
				
					<ellipse transform="matrix(0.7635 -0.6459 0.6459 0.7635 -30.2129 256.485)" class="st2" cx="335" cy="169.5" rx="0.7" ry="0.8"/>
			</g>
		</g>
	</g>
	<g>
		<g>
			<g>
				<ellipse transform="matrix(0.7635 -0.6459 0.6459 0.7635 -33.7555 257.7824)" class="st0" cx="335" cy="175" rx="2.7" ry="3"/>
			</g>
		</g>
		<g class="st1">
			<g>
				
					<ellipse transform="matrix(0.7635 -0.6459 0.6459 0.7635 -33.7555 257.7824)" class="st2" cx="335" cy="175" rx="0.7" ry="0.8"/>
			</g>
		</g>
	</g>
	<g>
		<g>
			<g>
				
					<ellipse transform="matrix(0.7635 -0.6459 0.6459 0.7635 -37.3825 259.1108)" class="st0" cx="335" cy="180.6" rx="2.7" ry="3"/>
			</g>
		</g>
		<g class="st1">
			<g>
				
					<ellipse transform="matrix(0.7635 -0.6459 0.6459 0.7635 -37.3825 259.1108)" class="st2" cx="335" cy="180.6" rx="0.7" ry="0.8"/>
			</g>
		</g>
	</g>
	<g>
		<g>
			<g>
				
					<ellipse transform="matrix(0.7635 -0.6459 0.6459 0.7635 -40.9251 260.4083)" class="st0" cx="335" cy="186.1" rx="2.7" ry="3"/>
			</g>
		</g>
		<g class="st1">
			<g>
				
					<ellipse transform="matrix(0.7635 -0.6459 0.6459 0.7635 -40.9251 260.4083)" class="st2" cx="335" cy="186.1" rx="0.7" ry="0.8"/>
			</g>
		</g>
	</g>
	<g>
		<g>
			<g>
				
					<ellipse transform="matrix(0.7635 -0.6459 0.6459 0.7635 -44.2822 261.2552)" class="st0" cx="334.5" cy="191.1" rx="2.7" ry="3"/>
			</g>
		</g>
		<g class="st1">
			<g>
				
					<ellipse transform="matrix(0.7635 -0.6459 0.6459 0.7635 -44.2822 261.2552)" class="st2" cx="334.5" cy="191.1" rx="0.7" ry="0.8"/>
			</g>
		</g>
	</g>
	<g>
		<g>
			<g>
				
					<ellipse transform="matrix(0.7635 -0.6459 0.6459 0.7635 -47.6757 262.3067)" class="st0" cx="334.3" cy="196.2" rx="2.7" ry="3"/>
			</g>
		</g>
		<g class="st1">
			<g>
				
					<ellipse transform="matrix(0.7635 -0.6459 0.6459 0.7635 -47.6757 262.3067)" class="st2" cx="334.3" cy="196.2" rx="0.7" ry="0.8"/>
			</g>
		</g>
	</g>
	<g>
		<g>
			<g>
				
					<ellipse transform="matrix(0.7635 -0.6459 0.6459 0.7635 -50.4592 263.3261)" class="st0" cx="334.3" cy="200.5" rx="2.7" ry="3"/>
			</g>
		</g>
		<g class="st1">
			<g>
				
					<ellipse transform="matrix(0.7635 -0.6459 0.6459 0.7635 -50.4592 263.3261)" class="st2" cx="334.3" cy="200.5" rx="0.7" ry="0.8"/>
			</g>
		</g>
	</g>
	<g>
		<g>
			<g>
				
					<ellipse transform="matrix(0.7635 -0.6459 0.6459 0.7635 -53.8753 264.5773)" class="st0" cx="334.3" cy="205.8" rx="2.7" ry="3"/>
			</g>
		</g>
		<g class="st1">
			<g>
				
					<ellipse transform="matrix(0.7635 -0.6459 0.6459 0.7635 -53.8753 264.5773)" class="st2" cx="334.3" cy="205.8" rx="0.7" ry="0.8"/>
			</g>
		</g>
	</g>
	<g>
		<g>
			<g>
				
					<ellipse transform="matrix(0.7635 -0.6459 0.6459 0.7635 -57.2914 265.8284)" class="st0" cx="334.3" cy="211.1" rx="2.7" ry="3"/>
			</g>
		</g>
		<g class="st1">
			<g>
				
					<ellipse transform="matrix(0.7635 -0.6459 0.6459 0.7635 -57.2914 265.8284)" class="st2" cx="334.3" cy="211.1" rx="0.7" ry="0.8"/>
			</g>
		</g>
	</g>
	<g>
		<g>
			<g>
				
					<ellipse transform="matrix(0.7635 -0.6459 0.6459 0.7635 -60.6653 267.0641)" class="st0" cx="334.3" cy="216.4" rx="2.7" ry="3"/>
			</g>
		</g>
		<g class="st1">
			<g>
				
					<ellipse transform="matrix(0.7635 -0.6459 0.6459 0.7635 -60.6653 267.0641)" class="st2" cx="334.3" cy="216.4" rx="0.7" ry="0.8"/>
			</g>
		</g>
	</g>
	<g>
		<g>
			<g>
				
					<ellipse transform="matrix(0.7635 -0.6459 0.6459 0.7635 -64.1236 268.3307)" class="st0" cx="334.3" cy="221.7" rx="2.7" ry="3"/>
			</g>
		</g>
		<g class="st1">
			<g>
				
					<ellipse transform="matrix(0.7635 -0.6459 0.6459 0.7635 -64.1236 268.3307)" class="st2" cx="334.3" cy="221.7" rx="0.7" ry="0.8"/>
			</g>
		</g>
	</g>
	<g>
		<g>
			<g>
				
					<ellipse transform="matrix(0.7635 -0.6459 0.6459 0.7635 -67.5172 269.3823)" class="st0" cx="334" cy="226.9" rx="2.7" ry="3"/>
			</g>
		</g>
		<g class="st1">
			<g>
				
					<ellipse transform="matrix(0.7635 -0.6459 0.6459 0.7635 -67.5172 269.3823)" class="st2" cx="334" cy="226.9" rx="0.7" ry="0.8"/>
			</g>
		</g>
	</g>
	<g>
		<g>
			<g>
				
					<ellipse transform="matrix(0.7635 -0.6459 0.6459 0.7635 -70.4605 270.1733)" class="st0" cx="333.6" cy="231.3" rx="2.7" ry="3"/>
			</g>
		</g>
		<g class="st1">
			<g>
				
					<ellipse transform="matrix(0.7635 -0.6459 0.6459 0.7635 -70.4605 270.1733)" class="st2" cx="333.6" cy="231.3" rx="0.7" ry="0.8"/>
			</g>
		</g>
	</g>
	<g>
		<g>
			<g>
				
					<ellipse transform="matrix(0.7635 -0.6459 0.6459 0.7635 -74.0031 271.4707)" class="st0" cx="333.6" cy="236.8" rx="2.7" ry="3"/>
			</g>
		</g>
		<g class="st1">
			<g>
				
					<ellipse transform="matrix(0.7635 -0.6459 0.6459 0.7635 -74.0031 271.4707)" class="st2" cx="333.6" cy="236.8" rx="0.7" ry="0.8"/>
			</g>
		</g>
	</g>
	<g>
		<g>
			<g>
				
					<ellipse transform="matrix(0.7635 -0.6459 0.6459 0.7635 -77.5036 272.7528)" class="st0" cx="333.6" cy="242.2" rx="2.7" ry="3"/>
			</g>
		</g>
		<g class="st1">
			<g>
				
					<ellipse transform="matrix(0.7635 -0.6459 0.6459 0.7635 -77.5036 272.7528)" class="st2" cx="333.6" cy="242.2" rx="0.7" ry="0.8"/>
			</g>
		</g>
	</g>
	<g>
		<g>
			<g>
				
					<ellipse transform="matrix(0.7635 -0.6459 0.6459 0.7635 -80.9197 274.0039)" class="st0" cx="333.6" cy="247.5" rx="2.7" ry="3"/>
			</g>
		</g>
		<g class="st1">
			<g>
				
					<ellipse transform="matrix(0.7635 -0.6459 0.6459 0.7635 -80.9197 274.0039)" class="st2" cx="333.6" cy="247.5" rx="0.7" ry="0.8"/>
			</g>
		</g>
	</g>
	<g>
		<g>
			<g>
				
					<ellipse transform="matrix(0.7635 -0.6459 0.6459 0.7635 -84.262 275.228)" class="st0" cx="333.6" cy="252.6" rx="2.7" ry="3"/>
			</g>
		</g>
		<g class="st1">
			<g>
				
					<ellipse transform="matrix(0.7635 -0.6459 0.6459 0.7635 -84.262 275.228)" class="st2" cx="333.6" cy="252.6" rx="0.7" ry="0.8"/>
			</g>
		</g>
	</g>
	<g>
		<g>
			<g>
				
					<ellipse transform="matrix(0.7635 -0.6459 0.6459 0.7635 -87.6359 276.4637)" class="st0" cx="333.6" cy="257.9" rx="2.7" ry="3"/>
			</g>
		</g>
		<g class="st1">
			<g>
				
					<ellipse transform="matrix(0.7635 -0.6459 0.6459 0.7635 -87.6359 276.4637)" class="st2" cx="333.6" cy="257.9" rx="0.7" ry="0.8"/>
			</g>
		</g>
	</g>
	<g>
		<g>
			<g>
				
					<ellipse transform="matrix(0.7635 -0.6459 0.6459 0.7635 -91.2629 277.7921)" class="st0" cx="333.6" cy="263.5" rx="2.7" ry="3"/>
			</g>
		</g>
		<g class="st1">
			<g>
				
					<ellipse transform="matrix(0.7635 -0.6459 0.6459 0.7635 -91.2629 277.7921)" class="st2" cx="333.6" cy="263.5" rx="0.7" ry="0.8"/>
			</g>
		</g>
	</g>
	<g>
		<g>
			<g>
				<ellipse transform="matrix(0.7635 -0.6459 0.6459 0.7635 -94.9404 278.852)" class="st0" cx="333.2" cy="269" rx="2.7" ry="3"/>
			</g>
		</g>
		<g class="st1">
			<g>
				
					<ellipse transform="matrix(0.7635 -0.6459 0.6459 0.7635 -94.9404 278.852)" class="st2" cx="333.2" cy="269" rx="0.7" ry="0.8"/>
			</g>
		</g>
	</g>
	<g>
		<g>
			<g>
				
					<ellipse transform="matrix(0.7635 -0.6459 0.6459 0.7635 -98.4538 280.1388)" class="st0" cx="333.2" cy="274.5" rx="2.7" ry="3"/>
			</g>
		</g>
		<g class="st1">
			<g>
				
					<ellipse transform="matrix(0.7635 -0.6459 0.6459 0.7635 -98.4538 280.1388)" class="st2" cx="333.2" cy="274.5" rx="0.7" ry="0.8"/>
			</g>
		</g>
	</g>
	<g>
		<g>
			<g>
				
					<ellipse transform="matrix(0.7635 -0.6459 0.6459 0.7635 -102.1534 280.9676)" class="st0" cx="332.5" cy="279.9" rx="2.7" ry="3"/>
			</g>
		</g>
		<g class="st1">
			<g>
				
					<ellipse transform="matrix(0.7635 -0.6459 0.6459 0.7635 -102.1534 280.9676)" class="st2" cx="332.5" cy="279.9" rx="0.7" ry="0.8"/>
			</g>
		</g>
	</g>
	<g>
		<g>
			<g>
				
					<ellipse transform="matrix(0.7635 -0.6459 0.6459 0.7635 -105.7837 282.1059)" class="st0" cx="332.2" cy="285.5" rx="2.7" ry="3"/>
			</g>
		</g>
		<g class="st1">
			<g>
				
					<ellipse transform="matrix(0.7635 -0.6459 0.6459 0.7635 -105.7837 282.1059)" class="st2" cx="332.2" cy="285.5" rx="0.7" ry="0.8"/>
			</g>
		</g>
	</g>
	<g>
		<g>
			<g>
				
					<ellipse transform="matrix(0.7635 -0.6459 0.6459 0.7635 -109.2582 283.3784)" class="st0" cx="332.2" cy="290.8" rx="2.7" ry="3"/>
			</g>
		</g>
		<g class="st1">
			<g>
				
					<ellipse transform="matrix(0.7635 -0.6459 0.6459 0.7635 -109.2582 283.3784)" class="st2" cx="332.2" cy="290.8" rx="0.7" ry="0.8"/>
			</g>
		</g>
	</g>
	<g>
		<g>
			<g>
				
					<ellipse transform="matrix(0.7635 -0.6459 0.6459 0.7635 -112.739 284.8445)" class="st0" cx="332.5" cy="296.3" rx="2.7" ry="3"/>
			</g>
		</g>
		<g class="st1">
			<g>
				
					<ellipse transform="matrix(0.7635 -0.6459 0.6459 0.7635 -112.739 284.8445)" class="st2" cx="332.5" cy="296.3" rx="0.7" ry="0.8"/>
			</g>
		</g>
	</g>
	<g>
		<g>
			<g>
				
					<ellipse transform="matrix(0.7635 -0.6459 0.6459 0.7635 -116.3631 285.7892)" class="st0" cx="332" cy="301.8" rx="2.7" ry="3"/>
			</g>
		</g>
		<g class="st1">
			<g>
				
					<ellipse transform="matrix(0.7635 -0.6459 0.6459 0.7635 -116.3631 285.7892)" class="st2" cx="332" cy="301.8" rx="0.7" ry="0.8"/>
			</g>
		</g>
	</g>
	<g>
		<g>
			<g>
				
					<ellipse transform="matrix(0.7635 -0.6459 0.6459 0.7635 -119.8635 287.0712)" class="st0" cx="332" cy="307.2" rx="2.7" ry="3"/>
			</g>
		</g>
		<g class="st1">
			<g>
				
					<ellipse transform="matrix(0.7635 -0.6459 0.6459 0.7635 -119.8635 287.0712)" class="st2" cx="332" cy="307.2" rx="0.7" ry="0.8"/>
			</g>
		</g>
	</g>
	<g>
		<g>
			<g>
				
					<ellipse transform="matrix(0.7635 -0.6459 0.6459 0.7635 -123.4061 288.3687)" class="st0" cx="332" cy="312.7" rx="2.7" ry="3"/>
			</g>
		</g>
		<g class="st1">
			<g>
				
					<ellipse transform="matrix(0.7635 -0.6459 0.6459 0.7635 -123.4061 288.3687)" class="st2" cx="332" cy="312.7" rx="0.7" ry="0.8"/>
			</g>
		</g>
	</g>
	<g>
		<g>
			<g>
				
					<ellipse transform="matrix(0.7635 -0.6459 0.6459 0.7635 -126.9909 289.6816)" class="st0" cx="332" cy="318.2" rx="2.7" ry="3"/>
			</g>
		</g>
		<g class="st1">
			<g>
				
					<ellipse transform="matrix(0.7635 -0.6459 0.6459 0.7635 -126.9909 289.6816)" class="st2" cx="332" cy="318.2" rx="0.7" ry="0.8"/>
			</g>
		</g>
	</g>
	<g>
		<g>
			<g>
				
					<ellipse transform="matrix(0.7635 -0.6459 0.6459 0.7635 -130.7527 290.7724)" class="st0" cx="331.6" cy="323.9" rx="2.7" ry="3"/>
			</g>
		</g>
		<g class="st1">
			<g>
				
					<ellipse transform="matrix(0.7635 -0.6459 0.6459 0.7635 -130.7527 290.7724)" class="st2" cx="331.6" cy="323.9" rx="0.7" ry="0.8"/>
			</g>
		</g>
	</g>
	<g>
		<g>
			<g>
				
					<ellipse transform="matrix(0.7635 -0.6459 0.6459 0.7635 -134.2728 291.8703)" class="st0" cx="331.3" cy="329.2" rx="2.7" ry="3"/>
			</g>
		</g>
		<g class="st1">
			<g>
				
					<ellipse transform="matrix(0.7635 -0.6459 0.6459 0.7635 -134.2728 291.8703)" class="st2" cx="331.3" cy="329.2" rx="0.7" ry="0.8"/>
			</g>
		</g>
	</g>
	<g>
		<g>
			<g>
				
					<ellipse transform="matrix(0.7635 -0.6459 0.6459 0.7635 -137.8392 292.8416)" class="st0" cx="330.9" cy="334.6" rx="2.7" ry="3"/>
			</g>
		</g>
		<g class="st1">
			<g>
				
					<ellipse transform="matrix(0.7635 -0.6459 0.6459 0.7635 -137.8392 292.8416)" class="st2" cx="330.9" cy="334.6" rx="0.7" ry="0.8"/>
			</g>
		</g>
	</g>
	<g>
		<g>
			<g>
				
					<ellipse transform="matrix(0.7635 -0.6459 0.6459 0.7635 -141.3329 294.1212)" class="st0" cx="330.9" cy="340" rx="2.7" ry="3"/>
			</g>
		</g>
		<g class="st1">
			<g>
				
					<ellipse transform="matrix(0.7635 -0.6459 0.6459 0.7635 -141.3329 294.1212)" class="st2" cx="330.9" cy="340" rx="0.7" ry="0.8"/>
			</g>
		</g>
	</g>
	<g>
		<g>
			<g>
				
					<ellipse transform="matrix(0.7635 -0.6459 0.6459 0.7635 -145.0607 295.4865)" class="st0" cx="330.9" cy="345.8" rx="2.7" ry="3"/>
			</g>
		</g>
		<g class="st1">
			<g>
				
					<ellipse transform="matrix(0.7635 -0.6459 0.6459 0.7635 -145.0607 295.4865)" class="st2" cx="330.9" cy="345.8" rx="0.7" ry="0.8"/>
			</g>
		</g>
	</g>
	<g>
		<g>
			<g>
				
					<ellipse transform="matrix(0.7635 -0.6459 0.6459 0.7635 -148.6457 296.7995)" class="st0" cx="330.9" cy="351.3" rx="2.7" ry="3"/>
			</g>
		</g>
		<g class="st1">
			<g>
				
					<ellipse transform="matrix(0.7635 -0.6459 0.6459 0.7635 -148.6457 296.7995)" class="st2" cx="330.9" cy="351.3" rx="0.7" ry="0.8"/>
			</g>
		</g>
	</g>
	<g>
		<g>
			<g>
				
					<ellipse transform="matrix(0.7635 -0.6459 0.6459 0.7635 -152.2816 298.1302)" class="st0" cx="330.9" cy="357" rx="2.7" ry="3"/>
			</g>
		</g>
		<g class="st1">
			<g>
				
					<ellipse transform="matrix(0.7635 -0.6459 0.6459 0.7635 -152.2816 298.1302)" class="st2" cx="330.9" cy="357" rx="0.7" ry="0.8"/>
			</g>
		</g>
	</g>
	<g>
		<g>
			<g>
				
					<ellipse transform="matrix(0.7635 -0.6459 0.6459 0.7635 -155.6552 299.3667)" class="st0" cx="330.9" cy="362.2" rx="2.7" ry="3"/>
			</g>
		</g>
		<g class="st1">
			<g>
				
					<ellipse transform="matrix(0.7635 -0.6459 0.6459 0.7635 -155.6552 299.3667)" class="st2" cx="330.9" cy="362.2" rx="0.7" ry="0.8"/>
			</g>
		</g>
	</g>
	<g>
		<g>
			<g>
				
					<ellipse transform="matrix(0.7635 -0.6459 0.6459 0.7635 -159.2825 300.6943)" class="st0" cx="330.9" cy="367.8" rx="2.7" ry="3"/>
			</g>
		</g>
		<g class="st1">
			<g>
				
					<ellipse transform="matrix(0.7635 -0.6459 0.6459 0.7635 -159.2825 300.6943)" class="st2" cx="330.9" cy="367.8" rx="0.7" ry="0.8"/>
			</g>
		</g>
	</g>
	<g>
		<g>
			<g>
				
					<ellipse transform="matrix(0.6459 -0.7635 0.7635 0.6459 14.7751 226.6765)" class="st0" cx="251.7" cy="97.4" rx="3" ry="2.7"/>
			</g>
		</g>
		<g class="st1">
			<g>
				
					<ellipse transform="matrix(0.6459 -0.7635 0.7635 0.6459 14.7751 226.6765)" class="st2" cx="251.7" cy="97.4" rx="0.8" ry="0.7"/>
			</g>
		</g>
	</g>
	<g>
		<g>
			<g>
				
					<ellipse transform="matrix(0.6459 -0.7635 0.7635 0.6459 16.2183 229.7878)" class="st0" cx="255.8" cy="97.4" rx="3" ry="2.7"/>
			</g>
		</g>
		<g class="st1">
			<g>
				
					<ellipse transform="matrix(0.6459 -0.7635 0.7635 0.6459 16.2183 229.7878)" class="st2" cx="255.8" cy="97.4" rx="0.8" ry="0.7"/>
			</g>
		</g>
	</g>
	<g>
		<g>
			<g>
				
					<ellipse transform="matrix(0.6459 -0.7635 0.7635 0.6459 13.1795 223.2367)" class="st0" cx="247.2" cy="97.4" rx="3" ry="2.7"/>
			</g>
		</g>
		<g class="st1">
			<g>
				
					<ellipse transform="matrix(0.6459 -0.7635 0.7635 0.6459 13.1795 223.2367)" class="st2" cx="247.2" cy="97.4" rx="0.8" ry="0.7"/>
			</g>
		</g>
	</g>
	<g>
		<g>
			<g>
				
					<ellipse transform="matrix(0.6459 -0.7635 0.7635 0.6459 11.2118 219.9089)" class="st0" cx="242.6" cy="97.9" rx="3" ry="2.7"/>
			</g>
		</g>
		<g class="st1">
			<g>
				
					<ellipse transform="matrix(0.6459 -0.7635 0.7635 0.6459 11.2118 219.9089)" class="st2" cx="242.6" cy="97.9" rx="0.8" ry="0.7"/>
			</g>
		</g>
	</g>
	<g>
		<g>
			<g>
				<ellipse transform="matrix(0.6459 -0.7635 0.7635 0.6459 9.2715 216.9015)" class="st0" cx="238.4" cy="98.5" rx="3" ry="2.7"/>
			</g>
		</g>
		<g class="st1">
			<g>
				
					<ellipse transform="matrix(0.6459 -0.7635 0.7635 0.6459 9.2715 216.9015)" class="st2" cx="238.4" cy="98.5" rx="0.8" ry="0.7"/>
			</g>
		</g>
	</g>
	<g>
		<g>
			<g>
				<ellipse transform="matrix(0.6459 -0.7635 0.7635 0.6459 6.9165 213.7836)" class="st0" cx="233.9" cy="99.4" rx="3" ry="2.7"/>
			</g>
		</g>
		<g class="st1">
			<g>
				
					<ellipse transform="matrix(0.6459 -0.7635 0.7635 0.6459 6.9165 213.7836)" class="st2" cx="233.9" cy="99.4" rx="0.8" ry="0.7"/>
			</g>
		</g>
	</g>
	<g>
		<g>
			<g>
				
					<ellipse transform="matrix(0.6459 -0.7635 0.7635 0.6459 4.0251 210.1876)" class="st0" cx="228.6" cy="100.8" rx="3" ry="2.7"/>
			</g>
		</g>
		<g class="st1">
			<g>
				
					<ellipse transform="matrix(0.6459 -0.7635 0.7635 0.6459 4.0251 210.1876)" class="st2" cx="228.6" cy="100.8" rx="0.8" ry="0.7"/>
			</g>
		</g>
	</g>
	<g>
		<g>
			<g>
				
					<ellipse transform="matrix(0.6459 -0.7635 0.7635 0.6459 0.9678 207.1229)" class="st0" cx="223.7" cy="102.5" rx="3" ry="2.7"/>
			</g>
		</g>
		<g class="st1">
			<g>
				
					<ellipse transform="matrix(0.6459 -0.7635 0.7635 0.6459 0.9678 207.1229)" class="st2" cx="223.7" cy="102.5" rx="0.8" ry="0.7"/>
			</g>
		</g>
	</g>
	<g>
		<g>
			<g>
				
					<ellipse transform="matrix(0.6459 -0.7635 0.7635 0.6459 -2.1198 204.254)" class="st0" cx="219.1" cy="104.4" rx="3" ry="2.7"/>
			</g>
		</g>
		<g class="st1">
			<g>
				
					<ellipse transform="matrix(0.6459 -0.7635 0.7635 0.6459 -2.1198 204.254)" class="st2" cx="219.1" cy="104.4" rx="0.8" ry="0.7"/>
			</g>
		</g>
	</g>
	<g>
		<g>
			<g>
				
					<ellipse transform="matrix(0.6459 -0.7635 0.7635 0.6459 -5.6293 201.5202)" class="st0" cx="214.4" cy="106.8" rx="3" ry="2.7"/>
			</g>
		</g>
		<g class="st1">
			<g>
				
					<ellipse transform="matrix(0.6459 -0.7635 0.7635 0.6459 -5.6293 201.5202)" class="st2" cx="214.4" cy="106.8" rx="0.8" ry="0.7"/>
			</g>
		</g>
	</g>
	<g>
		<g>
			<g>
				
					<ellipse transform="matrix(0.6459 -0.7635 0.7635 0.6459 -9.2039 198.9074)" class="st0" cx="209.8" cy="109.4" rx="3" ry="2.7"/>
			</g>
		</g>
		<g class="st1">
			<g>
				
					<ellipse transform="matrix(0.6459 -0.7635 0.7635 0.6459 -9.2039 198.9074)" class="st2" cx="209.8" cy="109.4" rx="0.8" ry="0.7"/>
			</g>
		</g>
	</g>
	<g>
		<g>
			<g>
				
					<ellipse transform="matrix(0.6459 -0.7635 0.7635 0.6459 -12.7936 196.9344)" class="st0" cx="205.9" cy="112.3" rx="3" ry="2.7"/>
			</g>
		</g>
		<g class="st1">
			<g>
				
					<ellipse transform="matrix(0.6459 -0.7635 0.7635 0.6459 -12.7936 196.9344)" class="st2" cx="205.9" cy="112.3" rx="0.8" ry="0.7"/>
			</g>
		</g>
	</g>
	<g>
		<g>
			<g>
				
					<ellipse transform="matrix(0.6459 -0.7635 0.7635 0.6459 -16.5126 194.6949)" class="st0" cx="201.6" cy="115.1" rx="3" ry="2.7"/>
			</g>
		</g>
		<g class="st1">
			<g>
				
					<ellipse transform="matrix(0.6459 -0.7635 0.7635 0.6459 -16.5126 194.6949)" class="st2" cx="201.6" cy="115.1" rx="0.8" ry="0.7"/>
			</g>
		</g>
	</g>
	<g>
		<g>
			<g>
				
					<ellipse transform="matrix(0.6459 -0.7635 0.7635 0.6459 -20.4755 192.7469)" class="st0" cx="197.5" cy="118.4" rx="3" ry="2.7"/>
			</g>
		</g>
		<g class="st1">
			<g>
				
					<ellipse transform="matrix(0.6459 -0.7635 0.7635 0.6459 -20.4755 192.7469)" class="st2" cx="197.5" cy="118.4" rx="0.8" ry="0.7"/>
			</g>
		</g>
	</g>
	<g>
		<g>
			<g>
				
					<ellipse transform="matrix(0.6459 -0.7635 0.7635 0.6459 -24.5434 191.0294)" class="st0" cx="193.6" cy="122" rx="3" ry="2.7"/>
			</g>
		</g>
		<g class="st1">
			<g>
				
					<ellipse transform="matrix(0.6459 -0.7635 0.7635 0.6459 -24.5434 191.0294)" class="st2" cx="193.6" cy="122" rx="0.8" ry="0.7"/>
			</g>
		</g>
	</g>
	<g>
		<g>
			<g>
				
					<ellipse transform="matrix(0.6459 -0.7635 0.7635 0.6459 -28.68 189.6591)" class="st0" cx="190.1" cy="125.7" rx="3" ry="2.7"/>
			</g>
		</g>
		<g class="st1">
			<g>
				
					<ellipse transform="matrix(0.6459 -0.7635 0.7635 0.6459 -28.68 189.6591)" class="st2" cx="190.1" cy="125.7" rx="0.8" ry="0.7"/>
			</g>
		</g>
	</g>
	<g>
		<g>
			<g>
				
					<ellipse transform="matrix(0.6459 -0.7635 0.7635 0.6459 -33.3022 188.6258)" class="st0" cx="186.7" cy="130.2" rx="3" ry="2.7"/>
			</g>
		</g>
		<g class="st1">
			<g>
				
					<ellipse transform="matrix(0.6459 -0.7635 0.7635 0.6459 -33.3022 188.6258)" class="st2" cx="186.7" cy="130.2" rx="0.8" ry="0.7"/>
			</g>
		</g>
	</g>
	<g>
		<g>
			<g>
				
					<ellipse transform="matrix(0.6459 -0.7635 0.7635 0.6459 -37.7686 188.0781)" class="st0" cx="183.8" cy="134.7" rx="3" ry="2.7"/>
			</g>
		</g>
		<g class="st1">
			<g>
				
					<ellipse transform="matrix(0.6459 -0.7635 0.7635 0.6459 -37.7686 188.0781)" class="st2" cx="183.8" cy="134.7" rx="0.8" ry="0.7"/>
			</g>
		</g>
	</g>
	<g>
		<g>
			<g>
				
					<ellipse transform="matrix(0.6459 -0.7635 0.7635 0.6459 -41.7775 188.3163)" class="st0" cx="182.1" cy="139.2" rx="3" ry="2.7"/>
			</g>
		</g>
		<g class="st1">
			<g>
				
					<ellipse transform="matrix(0.6459 -0.7635 0.7635 0.6459 -41.7775 188.3163)" class="st2" cx="182.1" cy="139.2" rx="0.8" ry="0.7"/>
			</g>
		</g>
	</g>
	<g>
		<g>
			<g>
				
					<ellipse transform="matrix(0.6459 -0.7635 0.7635 0.6459 -46.1481 188.9503)" class="st0" cx="180.6" cy="144.2" rx="3" ry="2.7"/>
			</g>
		</g>
		<g class="st1">
			<g>
				
					<ellipse transform="matrix(0.6459 -0.7635 0.7635 0.6459 -46.1481 188.9503)" class="st2" cx="180.6" cy="144.2" rx="0.8" ry="0.7"/>
			</g>
		</g>
	</g>
	<g>
		<g>
			<g>
				<ellipse transform="matrix(0.6459 -0.7635 0.7635 0.6459 -50.3156 189.369)" class="st0" cx="179" cy="148.9" rx="3" ry="2.7"/>
			</g>
		</g>
		<g class="st1">
			<g>
				
					<ellipse transform="matrix(0.6459 -0.7635 0.7635 0.6459 -50.3156 189.369)" class="st2" cx="179" cy="148.9" rx="0.8" ry="0.7"/>
			</g>
		</g>
	</g>
	<g>
		<g>
			<g>
				
					<ellipse transform="matrix(0.6459 -0.7635 0.7635 0.6459 -54.6259 190.2633)" class="st0" cx="177.8" cy="154" rx="3" ry="2.7"/>
			</g>
		</g>
		<g class="st1">
			<g>
				
					<ellipse transform="matrix(0.6459 -0.7635 0.7635 0.6459 -54.6259 190.2633)" class="st2" cx="177.8" cy="154" rx="0.8" ry="0.7"/>
			</g>
		</g>
	</g>
	<g>
		<g>
			<g>
				
					<ellipse transform="matrix(0.6459 -0.7635 0.7635 0.6459 -58.4199 191.3568)" class="st0" cx="177.1" cy="158.6" rx="3" ry="2.7"/>
			</g>
		</g>
		<g class="st1">
			<g>
				
					<ellipse transform="matrix(0.6459 -0.7635 0.7635 0.6459 -58.4199 191.3568)" class="st2" cx="177.1" cy="158.6" rx="0.8" ry="0.7"/>
			</g>
		</g>
	</g>
	<g>
		<g>
			<g>
				
					<ellipse transform="matrix(0.6459 -0.7635 0.7635 0.6459 -62.8142 192.9844)" class="st0" cx="176.6" cy="164.2" rx="3" ry="2.7"/>
			</g>
		</g>
		<g class="st1">
			<g>
				
					<ellipse transform="matrix(0.6459 -0.7635 0.7635 0.6459 -62.8142 192.9844)" class="st2" cx="176.6" cy="164.2" rx="0.8" ry="0.7"/>
			</g>
		</g>
	</g>
	<g>
		<g>
			<g>
				
					<ellipse transform="matrix(0.6459 -0.7635 0.7635 0.6459 -66.8522 194.8575)" class="st0" cx="176.6" cy="169.5" rx="3" ry="2.7"/>
			</g>
		</g>
		<g class="st1">
			<g>
				
					<ellipse transform="matrix(0.6459 -0.7635 0.7635 0.6459 -66.8522 194.8575)" class="st2" cx="176.6" cy="169.5" rx="0.8" ry="0.7"/>
			</g>
		</g>
	</g>
	<g>
		<g>
			<g>
				<ellipse transform="matrix(0.6459 -0.7635 0.7635 0.6459 -71.0399 196.8)" class="st0" cx="176.6" cy="175" rx="3" ry="2.7"/>
			</g>
		</g>
		<g class="st1">
			<g>
				<ellipse transform="matrix(0.6459 -0.7635 0.7635 0.6459 -71.0399 196.8)" class="st2" cx="176.6" cy="175" rx="0.8" ry="0.7"/>
			</g>
		</g>
	</g>
	<g>
		<g>
			<g>
				
					<ellipse transform="matrix(0.6459 -0.7635 0.7635 0.6459 -75.3272 198.7887)" class="st0" cx="176.6" cy="180.6" rx="3" ry="2.7"/>
			</g>
		</g>
		<g class="st1">
			<g>
				
					<ellipse transform="matrix(0.6459 -0.7635 0.7635 0.6459 -75.3272 198.7887)" class="st2" cx="176.6" cy="180.6" rx="0.8" ry="0.7"/>
			</g>
		</g>
	</g>
	<g>
		<g>
			<g>
				
					<ellipse transform="matrix(0.6459 -0.7635 0.7635 0.6459 -79.5148 200.7312)" class="st0" cx="176.6" cy="186.1" rx="3" ry="2.7"/>
			</g>
		</g>
		<g class="st1">
			<g>
				
					<ellipse transform="matrix(0.6459 -0.7635 0.7635 0.6459 -79.5148 200.7312)" class="st2" cx="176.6" cy="186.1" rx="0.8" ry="0.7"/>
			</g>
		</g>
	</g>
	<g>
		<g>
			<g>
				
					<ellipse transform="matrix(0.6459 -0.7635 0.7635 0.6459 -83.1521 202.903)" class="st0" cx="177.1" cy="191.1" rx="3" ry="2.7"/>
			</g>
		</g>
		<g class="st1">
			<g>
				
					<ellipse transform="matrix(0.6459 -0.7635 0.7635 0.6459 -83.1521 202.903)" class="st2" cx="177.1" cy="191.1" rx="0.8" ry="0.7"/>
			</g>
		</g>
	</g>
	<g>
		<g>
			<g>
				
					<ellipse transform="matrix(0.6459 -0.7635 0.7635 0.6459 -86.9979 204.9293)" class="st0" cx="177.4" cy="196.2" rx="3" ry="2.7"/>
			</g>
		</g>
		<g class="st1">
			<g>
				
					<ellipse transform="matrix(0.6459 -0.7635 0.7635 0.6459 -86.9979 204.9293)" class="st2" cx="177.4" cy="196.2" rx="0.8" ry="0.7"/>
			</g>
		</g>
	</g>
	<g>
		<g>
			<g>
				
					<ellipse transform="matrix(0.6459 -0.7635 0.7635 0.6459 -90.2882 206.4556)" class="st0" cx="177.4" cy="200.5" rx="3" ry="2.7"/>
			</g>
		</g>
		<g class="st1">
			<g>
				
					<ellipse transform="matrix(0.6459 -0.7635 0.7635 0.6459 -90.2882 206.4556)" class="st2" cx="177.4" cy="200.5" rx="0.8" ry="0.7"/>
			</g>
		</g>
	</g>
	<g>
		<g>
			<g>
				
					<ellipse transform="matrix(0.6459 -0.7635 0.7635 0.6459 -94.3263 208.3287)" class="st0" cx="177.4" cy="205.8" rx="3" ry="2.7"/>
			</g>
		</g>
		<g class="st1">
			<g>
				
					<ellipse transform="matrix(0.6459 -0.7635 0.7635 0.6459 -94.3263 208.3287)" class="st2" cx="177.4" cy="205.8" rx="0.8" ry="0.7"/>
			</g>
		</g>
	</g>
	<g>
		<g>
			<g>
				
					<ellipse transform="matrix(0.6459 -0.7635 0.7635 0.6459 -98.3644 210.2018)" class="st0" cx="177.4" cy="211.1" rx="3" ry="2.7"/>
			</g>
		</g>
		<g class="st1">
			<g>
				
					<ellipse transform="matrix(0.6459 -0.7635 0.7635 0.6459 -98.3644 210.2018)" class="st2" cx="177.4" cy="211.1" rx="0.8" ry="0.7"/>
			</g>
		</g>
	</g>
	<g>
		<g>
			<g>
				
					<ellipse transform="matrix(0.6459 -0.7635 0.7635 0.6459 -102.3526 212.0518)" class="st0" cx="177.4" cy="216.4" rx="3" ry="2.7"/>
			</g>
		</g>
		<g class="st1">
			<g>
				
					<ellipse transform="matrix(0.6459 -0.7635 0.7635 0.6459 -102.3526 212.0518)" class="st2" cx="177.4" cy="216.4" rx="0.8" ry="0.7"/>
			</g>
		</g>
	</g>
	<g>
		<g>
			<g>
				
					<ellipse transform="matrix(0.6459 -0.7635 0.7635 0.6459 -106.4405 213.948)" class="st0" cx="177.4" cy="221.7" rx="3" ry="2.7"/>
			</g>
		</g>
		<g class="st1">
			<g>
				
					<ellipse transform="matrix(0.6459 -0.7635 0.7635 0.6459 -106.4405 213.948)" class="st2" cx="177.4" cy="221.7" rx="0.8" ry="0.7"/>
			</g>
		</g>
	</g>
	<g>
		<g>
			<g>
				
					<ellipse transform="matrix(0.6459 -0.7635 0.7635 0.6459 -110.2864 215.9743)" class="st0" cx="177.7" cy="226.9" rx="3" ry="2.7"/>
			</g>
		</g>
		<g class="st1">
			<g>
				
					<ellipse transform="matrix(0.6459 -0.7635 0.7635 0.6459 -110.2864 215.9743)" class="st2" cx="177.7" cy="226.9" rx="0.8" ry="0.7"/>
			</g>
		</g>
	</g>
	<g>
		<g>
			<g>
				
					<ellipse transform="matrix(0.6459 -0.7635 0.7635 0.6459 -113.5174 217.8365)" class="st0" cx="178" cy="231.3" rx="3" ry="2.7"/>
			</g>
		</g>
		<g class="st1">
			<g>
				
					<ellipse transform="matrix(0.6459 -0.7635 0.7635 0.6459 -113.5174 217.8365)" class="st2" cx="178" cy="231.3" rx="0.8" ry="0.7"/>
			</g>
		</g>
	</g>
	<g>
		<g>
			<g>
				<ellipse transform="matrix(0.6459 -0.7635 0.7635 0.6459 -117.705 219.779)" class="st0" cx="178" cy="236.8" rx="3" ry="2.7"/>
			</g>
		</g>
		<g class="st1">
			<g>
				
					<ellipse transform="matrix(0.6459 -0.7635 0.7635 0.6459 -117.705 219.779)" class="st2" cx="178" cy="236.8" rx="0.8" ry="0.7"/>
			</g>
		</g>
	</g>
	<g>
		<g>
			<g>
				
					<ellipse transform="matrix(0.6459 -0.7635 0.7635 0.6459 -121.8428 221.6983)" class="st0" cx="178" cy="242.2" rx="3" ry="2.7"/>
			</g>
		</g>
		<g class="st1">
			<g>
				
					<ellipse transform="matrix(0.6459 -0.7635 0.7635 0.6459 -121.8428 221.6983)" class="st2" cx="178" cy="242.2" rx="0.8" ry="0.7"/>
			</g>
		</g>
	</g>
	<g>
		<g>
			<g>
				
					<ellipse transform="matrix(0.6459 -0.7635 0.7635 0.6459 -125.8809 223.5715)" class="st0" cx="178" cy="247.5" rx="3" ry="2.7"/>
			</g>
		</g>
		<g class="st1">
			<g>
				
					<ellipse transform="matrix(0.6459 -0.7635 0.7635 0.6459 -125.8809 223.5715)" class="st2" cx="178" cy="247.5" rx="0.8" ry="0.7"/>
			</g>
		</g>
	</g>
	<g>
		<g>
			<g>
				
					<ellipse transform="matrix(0.6459 -0.7635 0.7635 0.6459 -129.8317 225.4041)" class="st0" cx="178" cy="252.6" rx="3" ry="2.7"/>
			</g>
		</g>
		<g class="st1">
			<g>
				
					<ellipse transform="matrix(0.6459 -0.7635 0.7635 0.6459 -129.8317 225.4041)" class="st2" cx="178" cy="252.6" rx="0.8" ry="0.7"/>
			</g>
		</g>
	</g>
	<g>
		<g>
			<g>
				<ellipse transform="matrix(0.6459 -0.7635 0.7635 0.6459 -133.82 227.2541)" class="st0" cx="178" cy="257.9" rx="3" ry="2.7"/>
			</g>
		</g>
		<g class="st1">
			<g>
				
					<ellipse transform="matrix(0.6459 -0.7635 0.7635 0.6459 -133.82 227.2541)" class="st2" cx="178" cy="257.9" rx="0.8" ry="0.7"/>
			</g>
		</g>
	</g>
	<g>
		<g>
			<g>
				
					<ellipse transform="matrix(0.6459 -0.7635 0.7635 0.6459 -138.1073 229.2429)" class="st0" cx="178" cy="263.5" rx="3" ry="2.7"/>
			</g>
		</g>
		<g class="st1">
			<g>
				
					<ellipse transform="matrix(0.6459 -0.7635 0.7635 0.6459 -138.1073 229.2429)" class="st2" cx="178" cy="263.5" rx="0.8" ry="0.7"/>
			</g>
		</g>
	</g>
	<g>
		<g>
			<g>
				
					<ellipse transform="matrix(0.6459 -0.7635 0.7635 0.6459 -142.2061 231.5076)" class="st0" cx="178.4" cy="269" rx="3" ry="2.7"/>
			</g>
		</g>
		<g class="st1">
			<g>
				
					<ellipse transform="matrix(0.6459 -0.7635 0.7635 0.6459 -142.2061 231.5076)" class="st2" cx="178.4" cy="269" rx="0.8" ry="0.7"/>
			</g>
		</g>
	</g>
	<g>
		<g>
			<g>
				
					<ellipse transform="matrix(0.6459 -0.7635 0.7635 0.6459 -146.3592 233.4341)" class="st0" cx="178.4" cy="274.5" rx="3" ry="2.7"/>
			</g>
		</g>
		<g class="st1">
			<g>
				
					<ellipse transform="matrix(0.6459 -0.7635 0.7635 0.6459 -146.3592 233.4341)" class="st2" cx="178.4" cy="274.5" rx="0.8" ry="0.7"/>
			</g>
		</g>
	</g>
	<g>
		<g>
			<g>
				
					<ellipse transform="matrix(0.6459 -0.7635 0.7635 0.6459 -150.2771 235.9178)" class="st0" cx="179.2" cy="279.9" rx="3" ry="2.7"/>
			</g>
		</g>
		<g class="st1">
			<g>
				
					<ellipse transform="matrix(0.6459 -0.7635 0.7635 0.6459 -150.2771 235.9178)" class="st2" cx="179.2" cy="279.9" rx="0.8" ry="0.7"/>
			</g>
		</g>
	</g>
	<g>
		<g>
			<g>
				
					<ellipse transform="matrix(0.6459 -0.7635 0.7635 0.6459 -154.4029 238.074)" class="st0" cx="179.4" cy="285.5" rx="3" ry="2.7"/>
			</g>
		</g>
		<g class="st1">
			<g>
				
					<ellipse transform="matrix(0.6459 -0.7635 0.7635 0.6459 -154.4029 238.074)" class="st2" cx="179.4" cy="285.5" rx="0.8" ry="0.7"/>
			</g>
		</g>
	</g>
	<g>
		<g>
			<g>
				
					<ellipse transform="matrix(0.6459 -0.7635 0.7635 0.6459 -158.51 239.9791)" class="st0" cx="179.4" cy="290.8" rx="3" ry="2.7"/>
			</g>
		</g>
		<g class="st1">
			<g>
				
					<ellipse transform="matrix(0.6459 -0.7635 0.7635 0.6459 -158.51 239.9791)" class="st2" cx="179.4" cy="290.8" rx="0.8" ry="0.7"/>
			</g>
		</g>
	</g>
	<g>
		<g>
			<g>
				
					<ellipse transform="matrix(0.6459 -0.7635 0.7635 0.6459 -162.7901 241.7222)" class="st0" cx="179.2" cy="296.3" rx="3" ry="2.7"/>
			</g>
		</g>
		<g class="st1">
			<g>
				
					<ellipse transform="matrix(0.6459 -0.7635 0.7635 0.6459 -162.7901 241.7222)" class="st2" cx="179.2" cy="296.3" rx="0.8" ry="0.7"/>
			</g>
		</g>
	</g>
	<g>
		<g>
			<g>
				
					<ellipse transform="matrix(0.6459 -0.7635 0.7635 0.6459 -166.7429 244.0404)" class="st0" cx="179.7" cy="301.8" rx="3" ry="2.7"/>
			</g>
		</g>
		<g class="st1">
			<g>
				
					<ellipse transform="matrix(0.6459 -0.7635 0.7635 0.6459 -166.7429 244.0404)" class="st2" cx="179.7" cy="301.8" rx="0.8" ry="0.7"/>
			</g>
		</g>
	</g>
	<g>
		<g>
			<g>
				
					<ellipse transform="matrix(0.6459 -0.7635 0.7635 0.6459 -170.8807 245.9597)" class="st0" cx="179.7" cy="307.2" rx="3" ry="2.7"/>
			</g>
		</g>
		<g class="st1">
			<g>
				
					<ellipse transform="matrix(0.6459 -0.7635 0.7635 0.6459 -170.8807 245.9597)" class="st2" cx="179.7" cy="307.2" rx="0.8" ry="0.7"/>
			</g>
		</g>
	</g>
	<g>
		<g>
			<g>
				
					<ellipse transform="matrix(0.6459 -0.7635 0.7635 0.6459 -175.0683 247.9022)" class="st0" cx="179.7" cy="312.7" rx="3" ry="2.7"/>
			</g>
		</g>
		<g class="st1">
			<g>
				
					<ellipse transform="matrix(0.6459 -0.7635 0.7635 0.6459 -175.0683 247.9022)" class="st2" cx="179.7" cy="312.7" rx="0.8" ry="0.7"/>
			</g>
		</g>
	</g>
	<g>
		<g>
			<g>
				
					<ellipse transform="matrix(0.6459 -0.7635 0.7635 0.6459 -179.3058 249.8678)" class="st0" cx="179.7" cy="318.2" rx="3" ry="2.7"/>
			</g>
		</g>
		<g class="st1">
			<g>
				
					<ellipse transform="matrix(0.6459 -0.7635 0.7635 0.6459 -179.3058 249.8678)" class="st2" cx="179.7" cy="318.2" rx="0.8" ry="0.7"/>
			</g>
		</g>
	</g>
	<g>
		<g>
			<g>
				
					<ellipse transform="matrix(0.6459 -0.7635 0.7635 0.6459 -183.5043 252.1788)" class="st0" cx="180.1" cy="323.9" rx="3" ry="2.7"/>
			</g>
		</g>
		<g class="st1">
			<g>
				
					<ellipse transform="matrix(0.6459 -0.7635 0.7635 0.6459 -183.5043 252.1788)" class="st2" cx="180.1" cy="323.9" rx="0.8" ry="0.7"/>
			</g>
		</g>
	</g>
	<g>
		<g>
			<g>
				
					<ellipse transform="matrix(0.6459 -0.7635 0.7635 0.6459 -187.4997 254.2745)" class="st0" cx="180.3" cy="329.2" rx="3" ry="2.7"/>
			</g>
		</g>
		<g class="st1">
			<g>
				
					<ellipse transform="matrix(0.6459 -0.7635 0.7635 0.6459 -187.4997 254.2745)" class="st2" cx="180.3" cy="329.2" rx="0.8" ry="0.7"/>
			</g>
		</g>
	</g>
	<g>
		<g>
			<g>
				
					<ellipse transform="matrix(0.6459 -0.7635 0.7635 0.6459 -191.4258 256.5197)" class="st0" cx="180.8" cy="334.6" rx="3" ry="2.7"/>
			</g>
		</g>
		<g class="st1">
			<g>
				
					<ellipse transform="matrix(0.6459 -0.7635 0.7635 0.6459 -191.4258 256.5197)" class="st2" cx="180.8" cy="334.6" rx="0.8" ry="0.7"/>
			</g>
		</g>
	</g>
	<g>
		<g>
			<g>
				
					<ellipse transform="matrix(0.6459 -0.7635 0.7635 0.6459 -195.5556 258.4354)" class="st0" cx="180.8" cy="340" rx="3" ry="2.7"/>
			</g>
		</g>
		<g class="st1">
			<g>
				
					<ellipse transform="matrix(0.6459 -0.7635 0.7635 0.6459 -195.5556 258.4354)" class="st2" cx="180.8" cy="340" rx="0.8" ry="0.7"/>
			</g>
		</g>
	</g>
	<g>
		<g>
			<g>
				
					<ellipse transform="matrix(0.6459 -0.7635 0.7635 0.6459 -199.9621 260.4794)" class="st0" cx="180.8" cy="345.8" rx="3" ry="2.7"/>
			</g>
		</g>
		<g class="st1">
			<g>
				
					<ellipse transform="matrix(0.6459 -0.7635 0.7635 0.6459 -199.9621 260.4794)" class="st2" cx="180.8" cy="345.8" rx="0.8" ry="0.7"/>
			</g>
		</g>
	</g>
	<g>
		<g>
			<g>
				
					<ellipse transform="matrix(0.6459 -0.7635 0.7635 0.6459 -204.1998 262.4451)" class="st0" cx="180.8" cy="351.3" rx="3" ry="2.7"/>
			</g>
		</g>
		<g class="st1">
			<g>
				
					<ellipse transform="matrix(0.6459 -0.7635 0.7635 0.6459 -204.1998 262.4451)" class="st2" cx="180.8" cy="351.3" rx="0.8" ry="0.7"/>
			</g>
		</g>
	</g>
	<g>
		<g>
			<g>
				
					<ellipse transform="matrix(0.6459 -0.7635 0.7635 0.6459 -208.4969 264.4395)" class="st0" cx="180.8" cy="357" rx="3" ry="2.7"/>
			</g>
		</g>
		<g class="st1">
			<g>
				
					<ellipse transform="matrix(0.6459 -0.7635 0.7635 0.6459 -208.4969 264.4395)" class="st2" cx="180.8" cy="357" rx="0.8" ry="0.7"/>
			</g>
		</g>
	</g>
	<g>
		<g>
			<g>
				
					<ellipse transform="matrix(0.6459 -0.7635 0.7635 0.6459 -212.4856 266.2885)" class="st0" cx="180.8" cy="362.2" rx="3" ry="2.7"/>
			</g>
		</g>
		<g class="st1">
			<g>
				
					<ellipse transform="matrix(0.6459 -0.7635 0.7635 0.6459 -212.4856 266.2885)" class="st2" cx="180.8" cy="362.2" rx="0.8" ry="0.7"/>
			</g>
		</g>
	</g>
	<g>
		<g>
			<g>
				
					<ellipse transform="matrix(0.6459 -0.7635 0.7635 0.6459 -216.7725 268.2783)" class="st0" cx="180.8" cy="367.8" rx="3" ry="2.7"/>
			</g>
		</g>
		<g class="st1">
			<g>
				
					<ellipse transform="matrix(0.6459 -0.7635 0.7635 0.6459 -216.7725 268.2783)" class="st2" cx="180.8" cy="367.8" rx="0.8" ry="0.7"/>
			</g>
		</g>
	</g>
	<g>
		<path class="st3" d="M256,512c-68.4,0-132.7-26.6-181-75C26.6,388.7,0,324.4,0,256S26.6,123.3,75,75C123.3,26.6,187.6,0,256,0
			s132.7,26.6,181,75c48.4,48.4,75,112.6,75,181s-26.6,132.7-75,181C388.7,485.4,324.4,512,256,512z M256,4C117,4,4,117,4,256
			s113,252,252,252s252-113,252-252S395,4,256,4z"/>
	</g>
</g>
</svg>
